<?xml version="1.0" encoding="UTF-8"?>
<svg width="40px" height="39px" viewBox="0 0 40 39" version="1.1" xmlns="http://www.w3.org/2000/svg" xmlns:xlink="http://www.w3.org/1999/xlink">
    <!-- Generator: Sketch 49 (51002) - http://www.bohemiancoding.com/sketch -->
    <title>Path 2 Copy</title>
    <desc>Created with Sketch.</desc>
    <defs>
        <rect id="path-1" x="0" y="0" width="48" height="48"></rect>
    </defs>
    <g id="Symbols" stroke="none" stroke-width="1" fill="none" fill-rule="evenodd">
        <g id="tabbar-home" transform="translate(-255.000000, -21.000000)">
            <g id="Group-11">
                <g id="Group-6" transform="translate(250.666667, 15.000000)">
                    <g id="Path-2-Copy">
                        <g id="消息-(4)">
                            <mask id="mask-2" fill="white">
                                <use xlink:href="#path-1"></use>
                            </mask>
                            <g id="Mask"></g>
                            <g id="Group-10" mask="url(#mask-2)">
                                <g transform="translate(4.000000, 6.000000)">
                                    <g id="消息-(4)" stroke-width="1" fill="none" fill-rule="evenodd" transform="translate(19.833333, 16.000000) scale(-1, 1) translate(-19.833333, -16.000000) translate(6.333333, 13.000000)">
                                        <path d="M21,2.58875 C21,3.51362128 21.4946495,4.36823761 22.297619,4.83067326 C23.1005885,5.29310891 24.0898877,5.29310891 24.8928572,4.83067326 C25.6958267,4.36823761 26.1904762,3.51362128 26.1904762,2.58875 C26.1904762,1.66387872 25.6958267,0.809262392 24.8928572,0.34682674 C24.0898877,-0.115608913 23.1005885,-0.115608913 22.297619,0.34682674 C21.4946495,0.809262392 21,1.66387872 21,2.58875 Z" id="Shape" fill="#666666" fill-rule="nonzero"></path>
                                        <path d="M10,2.58875 C9.99999996,3.51362128 10.4946495,4.36823761 11.297619,4.83067326 C12.1005885,5.29310891 13.0898877,5.29310891 13.8928572,4.83067326 C14.6958267,4.36823761 15.1904762,3.51362128 15.1904762,2.58875 C15.1904762,1.66387872 14.6958267,0.809262392 13.8928572,0.34682674 C13.0898877,-0.115608913 12.1005885,-0.115608913 11.297619,0.34682674 C10.4946495,0.809262392 9.99999996,1.66387872 10,2.58875 Z" id="Shape-Copy" fill="#666666" fill-rule="nonzero"></path>
                                        <path d="M0,2.58875 C-3.9078108e-08,3.51362128 0.494649539,4.36823761 1.29761902,4.83067326 C2.10058849,5.29310891 3.0898877,5.29310891 3.89285717,4.83067326 C4.69582665,4.36823761 5.19047623,3.51362128 5.19047619,2.58875 C5.19047623,1.66387872 4.69582665,0.809262392 3.89285717,0.34682674 C3.0898877,-0.115608913 2.10058849,-0.115608913 1.29761902,0.34682674 C0.494649539,0.809262392 -3.9078108e-08,1.66387872 0,2.58875 Z" id="Shape-Copy-2" fill="#666666" fill-rule="nonzero"></path>
                                    </g>
                                    <path d="M9.37919148,28.507241 C10.2076186,28.507241 10.8791915,29.1788139 10.8791915,30.007241 C10.8791915,30.8356682 10.2076186,31.507241 9.37919148,31.507241 L1.35749436,31.507241 C0.805209609,31.507241 0.357494359,31.0595258 0.357494359,30.507241 L0.357494359,1.79601706 C0.357494359,1.24373231 0.805209609,0.796017065 1.35749436,0.796017065 L39.1350261,0.796017065 C39.6873109,0.796017065 40.1350261,1.24373231 40.1350261,1.79601706 L40.1350261,30.507241 C40.1350261,31.0595258 39.6873109,31.507241 39.1350261,31.507241 L21.6404221,31.507241 L15.4213073,37.7217067 C14.8353018,38.3072741 13.8855544,38.3069189 13.2999871,37.7209135 C12.7144197,37.1349081 12.7147748,36.1851607 13.3007803,35.5995933 L20.1055907,28.7998699 C20.2931055,28.6124952 20.5473461,28.507241 20.812433,28.507241 L37.1350261,28.507241 L37.1350261,3.79601706 L3.35749436,3.79601706 L3.35749436,28.507241 L9.37919148,28.507241 Z" id="Path-6" fill="#666666" fill-rule="nonzero"></path>
                                </g>
                            </g>
                        </g>
                    </g>
                </g>
            </g>
        </g>
    </g>
</svg>