<?xml version="1.0" encoding="UTF-8"?>
<svg width="44px" height="42px" viewBox="0 0 44 42" version="1.1" xmlns="http://www.w3.org/2000/svg" xmlns:xlink="http://www.w3.org/1999/xlink">
    <!-- Generator: Sketch 49 (51002) - http://www.bohemiancoding.com/sketch -->
    <title>Path 2 Copy 4</title>
    <desc>Created with Sketch.</desc>
    <defs>
        <rect id="path-1" x="0" y="0" width="48" height="48"></rect>
    </defs>
    <g id="Symbols" stroke="none" stroke-width="1" fill="none" fill-rule="evenodd">
        <g id="底部操作" transform="translate(-352.000000, -18.000000)">
            <g id="Group-5">
                <g id="Path-2-Copy-4" transform="translate(350.000000, 15.000000)">
                    <mask id="mask-2" fill="white">
                        <use xlink:href="#path-1"></use>
                    </mask>
                    <g id="Mask"></g>
                    <g id="打电话" mask="url(#mask-2)" fill="#333333" fill-rule="nonzero">
                        <g transform="translate(24.000000, 23.500000) scale(-1, -1) translate(-24.000000, -23.500000) translate(2.000000, 2.000000)" id="Shape">
                            <path d="M9.24671845,7.43098282e-17 C9.87003772,7.43098282e-17 10.4314474,0.414896861 10.571027,1.02377202 C10.7324622,1.72723094 10.2697509,2.42324364 9.53758917,2.57835935 C7.97831142,2.90862863 6.54651003,3.69123505 5.28141181,4.90501125 C4.26621599,5.87954616 3.45294479,7.03454741 2.86519525,8.33864044 C2.85724633,8.35631868 2.84888511,8.37382311 2.84011794,8.3911405 C2.62199756,8.82126447 2.69322409,9.33212557 3.01265508,9.69176142 C3.81530326,10.1861823 8.80534032,12.995249 11.9120537,14.733984 C11.935346,14.746241 11.958203,14.7591673 11.9807551,14.7731394 C12.2211665,14.9192192 12.5418165,14.8848746 12.7433928,14.6914819 C12.7875214,14.6493224 12.8247341,14.6009708 12.8537591,14.5480794 C12.8674535,14.5227361 12.8820618,14.4978585 12.8975573,14.4734917 C13.7198407,13.1790202 14.9993497,12.2104673 16.5005926,11.7462497 C18.2705459,11.1990778 20.2084649,11.3964445 21.8176796,12.2881925 C21.852901,12.3075192 21.8871211,12.3286866 21.9206011,12.3511089 C22.0464665,12.4362385 25.0275322,14.4559219 26.8646631,16.2185852 C28.7016633,17.9814158 30.8067645,20.8418949 30.8953623,20.9626241 C30.9189018,20.9945095 30.9408687,21.0274403 30.9611902,21.0613075 C31.8910535,22.6064406 32.09694,24.4674108 31.526257,26.1669903 C31.0422561,27.6080436 30.0326766,28.8362521 28.6834649,29.6250916 C28.6581263,29.6398167 28.632396,29.6539144 28.6060561,29.6670917 C28.5508723,29.6949063 28.5003798,29.7305739 28.4562888,29.7728866 C28.2558009,29.9653589 28.220057,30.2713234 28.3713481,30.5000228 C28.3860636,30.5224033 28.4001261,30.5448675 28.4132742,30.56775 C30.2248924,33.5485819 33.1513627,38.3344536 33.6668408,39.1048448 C34.0427393,39.4125663 34.5773301,39.4807118 35.0269803,39.2708789 C35.0451352,39.2623868 35.0632466,39.2543968 35.0815757,39.2466996 C36.440888,38.6824599 37.6453827,37.9020706 38.6605785,36.9277449 C40.4267005,35.2333526 41.2851631,33.3106793 41.2851631,31.0500812 C41.2851631,28.6079292 40.2587783,25.7731771 38.2341771,22.6250144 C36.3591255,19.7087304 33.6208222,16.5150118 30.0954134,13.1326277 C24.4081748,7.67567559 19.3341113,4.25350856 15.0141958,2.96150518 C14.2980992,2.74748901 13.8986472,2.01637866 14.121426,1.32856517 C14.3442048,0.640793518 15.1050575,0.256978364 15.8208929,0.470785367 C20.5642493,1.88945821 26.0124262,5.52848603 32.0136973,11.2868428 C39.9670804,18.9182594 44,25.5675693 44,31.0500812 C44,33.9969449 42.8489687,36.5954258 40.578993,38.7734879 C39.3269123,39.9750071 37.8482216,40.9361556 36.183889,41.6306623 C34.6701945,42.3223662 32.862364,42.0248938 31.6754583,40.8858727 C31.5054463,40.7225996 31.4278198,40.6481792 28.6852934,36.1709911 C27.8074095,34.7371123 26.9317633,33.3019697 26.0583578,31.8655681 C25.6738825,31.2681133 25.50448,30.555493 25.5806263,29.8542931 C25.6596459,29.1284118 25.9995393,28.4438613 26.5378308,27.9273527 C26.7638654,27.7101729 27.02136,27.5254995 27.3023405,27.3790514 C28.0803032,26.9147501 28.6618705,26.2011258 28.94251,25.3659356 C29.2717369,24.3853768 29.1611964,23.31379 28.6401891,22.4161855 C28.3567632,22.0345874 26.4928135,19.5485947 24.9461615,18.0642027 C23.3995095,16.5803963 20.8086225,14.7919223 20.4106943,14.5197586 C19.4742134,14.0192302 18.3555736,13.9129333 17.3322799,14.2291886 C16.4610697,14.4989933 15.7175258,15.0566676 15.2336223,15.8032282 C15.0808288,16.0728561 14.8883582,16.319898 14.6621556,16.536723 C14.123777,17.0532733 13.4113375,17.3790665 12.6557093,17.4547837 C11.9261597,17.5276981 11.1845069,17.365178 10.562189,16.9970083 C10.405151,16.9088668 8.23835794,15.6961364 6.07570088,14.4763781 C1.40962265,11.8450167 1.33195264,11.7706382 1.16198418,11.6076997 C-0.0260535388,10.4675491 -0.336211144,8.73107314 0.38528406,7.27713532 C1.10913026,5.68000412 2.11117791,4.26095478 3.36347625,3.0591009 C5.00029339,1.48865897 6.88104835,0.469823214 8.95358382,0.0307052123 C9.0498518,0.0103121622 9.14813865,1.68297874e-05 9.24671845,7.43098282e-17 Z"></path>
                        </g>
                    </g>
                </g>
            </g>
        </g>
    </g>
</svg>