<?xml version="1.0" encoding="utf-8"?>
<svg t="1606475757567" class="icon" viewBox="0 0 1024 1024" version="1.1" p-id="5627" width="300" height="300" xmlns="http://www.w3.org/2000/svg">
  <path d="M 512.462 3.934 C 232.573 3.934 5.417 231.09 5.417 510.98 C 5.417 790.867 232.573 1018.023 512.462 1018.023 C 792.35 1018.023 1019.506 790.867 1019.506 510.98 C 1019.506 231.09 792.35 3.934 512.462 3.934 Z M 574.321 770.587 C 574.321 797.966 552.011 820.277 524.631 820.277 L 499.785 820.277 C 472.406 820.277 450.095 797.966 450.095 770.587 L 450.095 473.965 C 450.095 446.585 472.406 424.275 499.785 424.275 L 524.631 424.275 C 552.011 424.275 574.321 446.585 574.321 473.965 L 574.321 770.587 Z M 512.462 350.247 C 478.489 350.247 450.603 322.358 450.603 288.387 C 450.603 254.415 478.489 226.528 512.462 226.528 C 546.434 226.528 574.321 254.415 574.321 288.387 C 574.321 322.358 546.434 350.247 512.462 350.247 Z" p-id="5628" fill="#1afa29" style=""/>
</svg>