<?xml version="1.0" encoding="utf-8"?>
<svg t="1612493465104" class="icon" viewBox="0 0 1024 1024" version="1.1" p-id="7006" width="200" height="200" xmlns="http://www.w3.org/2000/svg">
  <defs/>
  <path d="M 848.879 115.016 L 161.165 115.016 C 137.316 115.149 118.068 134.548 118.122 158.397 L 118.122 285.204 C 118.068 309.052 137.316 328.451 161.165 328.585 L 848.879 328.585 C 872.528 328.633 891.728 309.24 891.921 285.204 L 891.921 158.397 C 891.975 134.548 872.727 115.149 848.879 115.016 Z M 574.344 257.552 L 450.729 257.552 C 432.895 257.446 418.531 242.887 418.665 225.053 C 418.665 207.11 433.029 192.553 450.729 192.553 L 574.344 192.553 C 592.045 192.553 606.36 207.062 606.36 225.053 C 606.494 242.876 592.167 257.441 574.344 257.601 L 574.344 257.552 Z M 848.492 395.18 L 161.068 395.18 C 137.257 395.366 118.068 414.749 118.122 438.561 L 118.122 565.367 C 118.068 589.216 137.316 608.615 161.165 608.748 L 848.879 608.748 C 872.528 608.845 891.728 589.452 891.921 565.416 L 891.921 438.464 C 891.922 414.653 872.69 395.313 848.879 395.18 L 848.443 395.18 L 848.492 395.18 Z M 574.344 537.668 L 450.729 537.668 C 432.887 537.535 418.531 522.962 418.665 505.12 C 418.665 487.177 433.029 472.62 450.729 472.62 L 574.344 472.62 C 592.045 472.62 606.36 487.129 606.36 505.12 C 606.467 522.925 592.148 537.46 574.344 537.619 L 574.344 537.668 Z M 848.492 675.247 L 161.068 675.247 C 137.238 675.406 118.02 694.798 118.074 718.628 L 118.074 845.434 C 118.02 869.302 137.297 888.709 161.165 888.815 L 848.879 888.815 C 872.528 888.864 891.728 869.47 891.921 845.434 L 891.921 718.628 C 891.975 694.779 872.727 675.38 848.879 675.247 L 848.443 675.247 L 848.492 675.247 Z M 574.344 817.735 L 450.729 817.735 C 432.876 817.628 418.504 803.04 418.665 785.187 C 418.665 767.244 433.029 752.639 450.729 752.639 L 574.344 752.639 C 592.045 752.639 606.36 767.244 606.36 785.187 C 606.494 803.002 592.16 817.553 574.344 817.686 L 574.344 817.735 Z" p-id="7007" fill="#ff480a" style=""/>
</svg>