<?xml version="1.0" encoding="utf-8"?>
<svg t="1612493465104" class="icon" viewBox="0 0 1024 1024" version="1.1" p-id="7006" width="200" height="200" xmlns="http://www.w3.org/2000/svg">
  <path d="M 964.883 2.792 L 58.766 2.792 C 27.343 2.968 1.982 28.527 2.053 59.95 L 2.053 227.029 C 1.982 258.45 27.343 284.01 58.766 284.186 L 964.883 284.186 C 996.042 284.249 1021.34 258.698 1021.594 227.029 L 1021.594 59.95 C 1021.665 28.527 996.304 2.968 964.883 2.792 Z M 603.162 190.594 L 440.289 190.594 C 416.792 190.455 397.866 171.273 398.043 147.774 C 398.043 124.134 416.968 104.954 440.289 104.954 L 603.162 104.954 C 626.484 104.954 645.345 124.07 645.345 147.774 C 645.521 171.258 626.645 190.448 603.162 190.659 L 603.162 190.594 Z M 964.373 371.931 L 58.638 371.931 C 27.265 372.175 1.982 397.714 2.053 429.088 L 2.053 596.165 C 1.982 627.588 27.343 653.147 58.766 653.323 L 964.883 653.323 C 996.042 653.451 1021.34 627.899 1021.594 596.229 L 1021.594 428.96 C 1021.595 397.587 996.256 372.105 964.883 371.931 L 964.308 371.931 L 964.373 371.931 Z M 603.162 559.669 L 440.289 559.669 C 416.781 559.495 397.866 540.293 398.043 516.784 C 398.043 493.143 416.968 473.963 440.289 473.963 L 603.162 473.963 C 626.484 473.963 645.345 493.08 645.345 516.784 C 645.486 540.244 626.62 559.396 603.162 559.605 L 603.162 559.669 Z M 964.373 740.94 L 58.638 740.94 C 27.24 741.15 1.919 766.701 1.99 798.099 L 1.99 965.175 C 1.919 996.623 27.318 1022.193 58.766 1022.333 L 964.883 1022.333 C 996.042 1022.397 1021.34 996.844 1021.594 965.175 L 1021.594 798.099 C 1021.665 766.675 996.304 741.115 964.883 740.94 L 964.308 740.94 L 964.373 740.94 Z M 603.162 928.679 L 440.289 928.679 C 416.766 928.539 397.83 909.318 398.043 885.795 C 398.043 862.153 416.968 842.91 440.289 842.91 L 603.162 842.91 C 626.484 842.91 645.345 862.153 645.345 885.795 C 645.521 909.268 626.636 928.44 603.162 928.615 L 603.162 928.679 Z" p-id="7007" fill="#ff480a" style=""/>
</svg>