<?xml version="1.0" standalone="no"?><!DOCTYPE svg PUBLIC "-//W3C//DTD SVG 1.1//EN" "http://www.w3.org/Graphics/SVG/1.1/DTD/svg11.dtd"><svg t="1606479240526" class="icon" viewBox="0 0 1024 1024" version="1.1" xmlns="http://www.w3.org/2000/svg" p-id="8151" xmlns:xlink="http://www.w3.org/1999/xlink" width="300" height="300"><defs><style type="text/css"></style></defs><path d="M667.384 912.592c-0.216 0.048-0.464 0.032-0.688 0.064-0.36 0.16 2.608 0.568 0.688-0.064z" p-id="8152" fill="#ff0000"></path><path d="M830.584 113.784H193.424a68.272 68.272 0 0 0-68.264 68.264v523.376a68.272 68.272 0 0 0 68.264 68.264h320.536l129.272 129.296c5.504 5.48 16.168 10.744 23.464 9.672 0.08-0.04 0.24-0.064 0.688-0.064 12.576 0 26.664-12.544 26.664-25.128V773.696h136.536a68.264 68.264 0 0 0 68.256-68.256V182.048a68.272 68.272 0 0 0-68.256-68.264z m22.744 568.896a45.52 45.52 0 0 1-45.504 45.504H671.288a22.744 22.744 0 0 0-22.76 22.76v92.976l-108.48-108.504c-1.56-1.536-5.936-6.224-7.784-7.224H216.176a45.52 45.52 0 0 1-45.504-45.504V204.808a45.52 45.52 0 0 1 45.504-45.504h591.656a45.52 45.52 0 0 1 45.504 45.504v477.872z" p-id="8153" fill="#ff0000"></path><path d="M541.664 477.296c0 13.336-12.76 24.136-28.504 24.136-15.736 0-28.496-10.8-28.496-24.136V294.808c0-13.336 12.752-24.136 28.496-24.136 15.744 0 28.504 10.808 28.504 24.136v182.488zM541.664 572.232c0 13.656-12.768 24.736-28.504 24.736s-28.504-11.08-28.504-24.736v-12.064c0-13.664 12.76-24.744 28.504-24.744 15.736 0 28.504 11.08 28.504 24.744v12.064z" p-id="8154" fill="#ff0000"></path></svg>