<?xml version="1.0" encoding="utf-8"?>
<svg t="1606479240526" class="icon" viewBox="0 0 1024 1024" version="1.1" p-id="8151" width="300" height="300" xmlns="http://www.w3.org/2000/svg">
  <defs/>
  <path d="M 709.879 1019.836 C 709.603 1019.897 709.287 1019.877 709.001 1019.917 C 708.543 1020.122 712.324 1020.641 709.879 1019.836 Z" p-id="8152" fill="#ff0000" style=""/>
  <path d="M 917.798 2.142 L 106.046 2.142 C 58.016 2.148 19.082 41.082 19.077 89.112 L 19.077 755.901 C 19.082 803.93 58.016 842.865 106.046 842.87 L 514.413 842.87 L 679.109 1007.595 C 686.12 1014.577 699.706 1021.283 709.001 1019.917 C 709.104 1019.867 709.307 1019.836 709.879 1019.836 C 725.9 1019.836 743.849 1003.855 743.849 987.822 L 743.849 842.88 L 917.798 842.88 C 965.822 842.875 1004.75 803.945 1004.756 755.921 L 1004.756 89.112 C 1004.75 41.086 965.823 2.154 917.798 2.142 Z M 946.774 726.924 C 946.763 758.937 920.813 784.886 888.801 784.897 L 714.852 784.897 C 698.832 784.886 685.844 797.874 685.855 813.894 L 685.855 932.347 L 547.65 794.111 C 545.663 792.154 540.087 786.181 537.733 784.908 L 135.033 784.908 C 103.019 784.896 77.071 758.948 77.06 726.935 L 77.06 118.109 C 77.071 86.095 103.019 60.147 135.033 60.136 L 888.811 60.136 C 920.824 60.147 946.773 86.095 946.784 118.109 L 946.784 726.924 Z" p-id="8153" fill="#ff0000" style=""/>
  <path d="M 549.709 465.262 C 549.709 482.252 533.453 496.012 513.394 496.012 C 493.346 496.012 477.091 482.252 477.091 465.262 L 477.091 232.77 C 477.091 215.779 493.336 202.02 513.394 202.02 C 533.453 202.02 549.709 215.79 549.709 232.77 L 549.709 465.262 Z M 549.709 586.212 C 549.709 603.61 533.443 617.726 513.394 617.726 C 493.346 617.726 477.08 603.61 477.08 586.212 L 477.08 570.842 C 477.08 553.435 493.336 539.318 513.394 539.318 C 533.443 539.318 549.709 553.435 549.709 570.842 L 549.709 586.212 Z" p-id="8154" fill="#ff0000" style=""/>
</svg>