<?xml version="1.0" encoding="utf-8"?>
<svg t="1606479831501" class="icon" viewBox="0 0 1024 1024" version="1.1" p-id="11185" width="300" height="300" xmlns="http://www.w3.org/2000/svg">
  <path d="M 793.281 462.138 C 784.814 453.669 770.353 457.542 767.254 469.111 C 765.816 474.48 767.35 480.207 771.28 484.137 L 804.297 517.156 C 810.363 523.255 820.234 523.255 826.299 517.156 C 832.382 511.083 832.382 501.227 826.299 495.154 L 793.281 462.138 Z M 661.272 330.112 C 652.805 321.645 638.345 325.519 635.246 337.087 C 633.807 342.456 635.341 348.185 639.273 352.115 L 705.276 418.118 C 711.34 424.219 721.213 424.219 727.277 418.118 C 733.36 412.046 733.36 402.19 727.277 396.117 L 661.272 330.112 Z" fill="#13227a" p-id="11186" style=""/>
  <path d="M 1002.34 319.113 C 990.189 306.963 970.49 306.963 958.337 319.113 L 904.097 373.354 L 651.036 120.322 L 705.276 66.066 C 722.508 49.423 715.261 20.369 692.232 13.767 C 681.173 10.596 669.266 13.788 661.272 22.063 L 606.38 76.958 C 583.042 58.289 554.03 48.15 524.146 48.219 C 488.546 48.219 455.061 62.129 429.825 87.352 C 404.853 112.143 390.771 145.848 390.674 181.036 C 390.375 216.327 404.307 250.249 429.326 275.142 L 438.491 284.305 C 370.977 304.735 304.585 347.352 257.221 402.185 C 205.282 462.308 184.463 539.188 162.416 620.581 C 135.155 721.283 106.962 825.408 18.24 920.727 C 3.473 936.552 8.994 962.249 28.96 970.611 C 87.979 995.459 154.791 1006.491 223.41 1006.476 C 415.961 1006.476 622.591 919.575 710.27 807.016 C 749.342 756.853 777.613 690.599 789.126 625.98 C 807.806 635.584 828.509 640.588 849.514 640.575 C 885.099 640.575 918.598 626.68 943.851 601.458 C 994.499 550.827 995.806 469.496 947.897 417.558 L 1002.326 363.13 C 1014.489 350.982 1014.494 331.27 1002.34 319.113 Z M 661.181 768.771 C 565.674 891.381 287.422 981.115 94.295 927.481 C 169.945 830.931 197.705 728.455 222.507 636.856 C 243.527 559.275 261.67 492.277 304.334 442.889 C 352.352 387.279 423.148 346.933 490.365 336.197 L 732.427 578.259 C 729.129 642.66 701.245 717.3 661.181 768.771 Z M 899.866 557.424 C 886.538 570.803 868.431 578.324 849.546 578.322 C 831.002 578.356 813.208 571.005 800.096 557.892 L 473.344 231.139 C 445.912 203.706 446.13 159.019 473.827 131.354 C 487.146 117.973 505.25 110.452 524.13 110.458 C 542.071 110.458 559.965 117.273 573.594 130.888 L 900.347 457.625 C 927.763 485.072 927.545 529.759 899.866 557.424 Z" fill="#13227a" p-id="11187" style=""/>
  <path d="M 413.128 852.265 C 416.417 860.206 425.524 863.976 433.464 860.682 C 518.498 825.408 589.932 775.368 624.553 726.807 C 660.977 675.724 676.615 612.614 667.435 553.674 C 665.21 541.893 651.067 536.938 641.975 544.755 C 638.021 548.156 636.033 553.308 636.674 558.482 C 644.625 609.457 630.963 664.21 599.207 708.757 C 568.288 752.121 500.216 799.331 421.545 831.959 C 413.608 835.235 409.837 844.333 413.128 852.265 Z M 363.446 852.622 C 352.601 855.874 341.459 858.816 330.382 861.382 C 318.71 864.078 314.332 878.398 322.502 887.158 C 326.294 891.223 331.966 892.959 337.383 891.708 C 349.147 888.98 360.823 885.888 372.393 882.434 C 383.73 878.535 386.596 863.823 377.549 855.954 C 373.682 852.592 368.41 851.344 363.446 852.622 Z" fill="#13227a" p-id="11188" style=""/>
</svg>