<?xml version="1.0" encoding="utf-8"?>
<svg t="1606479831501" class="icon" viewBox="0 0 1024 1024" version="1.1" p-id="11185" width="300" height="300" xmlns="http://www.w3.org/2000/svg">
  <defs/>
  <path d="M 733.086 467.011 C 726.177 460.101 714.378 463.262 711.849 472.701 C 710.676 477.082 711.928 481.755 715.135 484.962 L 742.075 511.903 C 747.024 516.88 755.078 516.88 760.027 511.903 C 764.99 506.948 764.99 498.906 760.027 493.951 L 733.086 467.011 Z M 625.375 359.286 C 618.466 352.377 606.667 355.538 604.138 364.977 C 602.964 369.358 604.216 374.032 607.424 377.239 L 661.279 431.094 C 666.227 436.072 674.282 436.072 679.231 431.094 C 684.194 426.139 684.194 418.097 679.231 413.142 L 625.375 359.286 Z" fill="#13227a" p-id="11186" style=""/>
  <path d="M 903.667 350.311 C 893.752 340.398 877.679 340.398 867.763 350.311 L 823.506 394.568 L 617.022 188.109 L 661.279 143.839 C 675.339 130.26 669.426 106.553 650.636 101.166 C 641.612 98.579 631.897 101.183 625.375 107.935 L 580.585 152.726 C 561.543 137.494 537.871 129.221 513.487 129.277 C 484.439 129.277 457.118 140.627 436.526 161.207 C 416.151 181.436 404.66 208.937 404.582 237.648 C 404.337 266.443 415.705 294.122 436.119 314.433 L 443.597 321.91 C 388.51 338.58 334.337 373.353 295.691 418.094 C 253.312 467.15 236.325 529.88 218.336 596.292 C 196.092 678.459 173.088 763.42 100.696 841.194 C 88.647 854.107 93.152 875.074 109.443 881.897 C 157.599 902.172 212.114 911.173 268.103 911.161 C 425.214 911.161 593.813 840.254 665.354 748.413 C 697.234 707.482 720.302 653.423 729.696 600.697 C 744.938 608.534 761.831 612.617 778.969 612.606 C 808.004 612.606 835.338 601.269 855.943 580.689 C 897.268 539.377 898.335 473.016 859.244 430.637 L 903.655 386.227 C 913.579 376.314 913.584 360.231 903.667 350.311 Z M 625.3 717.207 C 547.372 817.25 320.333 890.467 162.753 846.705 C 224.479 767.926 247.129 684.312 267.366 609.572 C 284.518 546.27 299.322 491.603 334.133 451.306 C 373.313 405.931 431.078 373.011 485.924 364.251 L 683.433 561.759 C 680.742 614.307 657.99 675.21 625.3 717.207 Z M 820.053 544.76 C 809.178 555.676 794.404 561.813 778.995 561.811 C 763.864 561.839 749.345 555.841 738.647 545.141 L 472.035 278.529 C 449.653 256.146 449.83 219.683 472.429 197.111 C 483.297 186.193 498.069 180.056 513.474 180.06 C 528.113 180.06 542.713 185.621 553.834 196.73 L 820.446 463.329 C 842.816 485.725 842.638 522.187 820.053 544.76 Z" fill="#13227a" p-id="11187" style=""/>
  <path d="M 422.903 785.333 C 425.586 791.813 433.017 794.889 439.496 792.201 C 508.879 763.42 567.165 722.59 595.413 682.967 C 625.134 641.286 637.893 589.792 630.403 541.7 C 628.588 532.087 617.047 528.044 609.629 534.422 C 606.403 537.197 604.78 541.401 605.303 545.623 C 611.791 587.215 600.644 631.891 574.732 668.239 C 549.505 703.622 493.961 742.142 429.771 768.765 C 423.294 771.438 420.217 778.861 422.903 785.333 Z M 382.365 785.625 C 373.516 788.278 364.425 790.678 355.386 792.772 C 345.863 794.972 342.29 806.656 348.957 813.804 C 352.051 817.121 356.679 818.537 361.099 817.517 C 370.698 815.291 380.224 812.768 389.665 809.95 C 398.916 806.768 401.254 794.764 393.872 788.344 C 390.717 785.6 386.415 784.582 382.365 785.625 Z" fill="#13227a" p-id="11188" style=""/>
</svg>