<?xml version="1.0" standalone="no"?><!DOCTYPE svg PUBLIC "-//W3C//DTD SVG 1.1//EN" "http://www.w3.org/Graphics/SVG/1.1/DTD/svg11.dtd"><svg t="1606479831501" class="icon" viewBox="0 0 1024 1024" version="1.1" xmlns="http://www.w3.org/2000/svg" p-id="11185" xmlns:xlink="http://www.w3.org/1999/xlink" width="300" height="300"><defs><style type="text/css"></style></defs><path d="M777.684114 467.280457a14.613943 14.613943 0 1 0-20.6848 20.6848l31.041829 31.041829a14.584686 14.584686 0 0 0 20.6848 0 14.613943 14.613943 0 0 0 0-20.6848l-31.041829-31.041829zM653.575314 343.157029a14.613943 14.613943 0 1 0-20.6848 20.6848l62.0544 62.0544a14.584686 14.584686 0 0 0 20.6848 0 14.613943 14.613943 0 0 0 0-20.6848l-62.0544-62.0544z" fill="#13227a" p-id="11186"></path><path d="M974.2336 332.814629a29.257143 29.257143 0 0 0-41.3696 0l-50.9952 50.9952L643.949714 145.92l50.9952-51.009829a29.257143 29.257143 0 1 0-41.3696-41.3696L601.965714 105.150171a123.318857 123.318857 0 0 0-77.312-27.018971c-33.470171 0-64.950857 13.077943-88.6784 36.790857a124.591543 124.591543 0 0 0-36.805485 88.078629 123.318857 123.318857 0 0 0 36.337371 88.4736l8.616229 8.616228c-63.473371 19.207314-125.893486 59.274971-170.422858 110.826057-48.830171 56.5248-68.4032 128.804571-89.131885 205.326629-25.629257 94.676114-52.136229 192.570514-135.548343 282.185143a29.227886 29.227886 0 0 0 10.079086 46.8992c55.486171 23.361829 118.301257 33.733486 182.813257 33.718857 181.028571 0 375.296-81.700571 457.728-187.523657 36.732343-47.162514 63.312457-109.450971 74.1376-170.203429a123.991771 123.991771 0 0 0 56.773485 13.7216c33.455543 0 64.950857-13.063314 88.693029-36.776228 47.616-47.601371 48.8448-124.064914 3.803429-172.895086l51.170742-51.170743a29.257143 29.257143 0 0 0 0.014629-41.384228zM653.487543 755.565714c-89.790171 115.273143-351.392914 199.636114-532.962743 149.211429 71.124114-90.770286 97.221486-187.114057 120.539429-273.232457 19.7632-72.938057 36.820114-135.928686 76.931657-182.359772 45.143771-52.282514 111.703771-90.2144 174.8992-100.308114l227.576685 227.576686c-3.101257 60.547657-29.315657 130.720914-66.984228 179.112228z m224.402286-198.699885a66.7648 66.7648 0 0 1-47.3088 19.646171 65.565257 65.565257 0 0 1-46.4896-19.207314l-307.2-307.2c-25.790171-25.790171-25.585371-67.803429 0.453485-93.813029a66.706286 66.706286 0 0 1 47.294172-19.646171c16.866743 0 33.6896 6.407314 46.504228 19.207314l307.2 307.185371c25.775543 25.8048 25.570743 67.818057-0.453485 93.827658z" fill="#13227a" p-id="11187"></path><path d="M420.278857 834.062629a14.628571 14.628571 0 0 0 19.119543 7.914057c79.945143-33.162971 147.104914-80.208457 179.653486-125.864229 34.245486-48.0256 48.9472-107.359086 40.316343-162.772114a14.6432 14.6432 0 0 0-28.920686 4.520228c7.4752 47.9232-5.368686 99.401143-35.2256 141.282743-29.066971 40.769829-93.066971 85.152914-167.029029 115.829029a14.599314 14.599314 0 0 0-7.914057 19.090286zM373.569829 834.399086c-10.196114 3.057371-20.670171 5.822171-31.085715 8.235885a14.628571 14.628571 0 0 0 6.582857 28.511086 547.006171 547.006171 0 0 0 32.914286-8.718628 14.6432 14.6432 0 0 0-8.411428-28.028343z" fill="#13227a" p-id="11188"></path></svg>