<?xml version="1.0" encoding="utf-8"?>
<svg t="1612929541682" class="icon" viewBox="0 0 1024 1024" version="1.1" p-id="2749" width="200" height="200" xmlns="http://www.w3.org/2000/svg">
  <defs/>
  <path d="M 387.925 896.198 L 222.496 712.544 C 212.566 701.515 204.184 689.185 197.582 675.893 C 191.045 662.723 187.645 648.218 187.648 633.515 L 187.648 624.583 C 187.648 608.961 195.018 594.301 207.556 584.968 C 220.396 573.998 237.261 568.938 254.02 571.029 L 267.759 572.751 C 294.088 576.047 319.269 585.502 341.26 600.349 L 365.574 616.772 C 380.475 626.786 394.614 637.841 407.953 649.858 C 414.847 656.024 425.833 652.415 427.726 643.36 C 427.893 642.559 427.979 641.743 427.98 640.925 L 427.98 295.367 C 427.98 260.399 466.393 235.284 508.091 235.284 C 548.747 235.284 588.202 261.24 588.202 295.367 L 588.202 548.758 C 588.22 558.294 597.324 565.186 606.507 562.617 C 618.644 559.172 630.46 554.606 641.756 548.998 C 664.988 540.106 681.971 535.7 692.626 535.7 C 708.648 535.7 748.423 535.7 768.451 541.708 C 788.479 547.716 794.126 552.403 804.501 561.495 C 816.397 575.795 823.447 587.451 825.69 596.424 L 830.737 616.571 C 837.226 642.527 840.511 669.445 836.545 695.921 C 832.54 722.478 828.534 751.999 816.517 776.032 L 748.423 896.198 L 387.925 896.198 Z M 398.219 856.143 L 724.39 856.143 C 757.275 818.17 778.665 778.115 788.479 735.977 C 803.219 672.769 799.734 649.617 788.479 615.81 C 780.948 593.259 767.65 579.921 748.423 575.755 C 719.223 569.907 692.506 569.907 668.313 575.755 C 648.494 580.999 629.558 589.138 612.115 599.908 C 597.871 608.434 579.534 605.267 568.975 592.458 C 556.558 577.317 549.749 558.371 549.749 538.784 L 549.749 314.634 C 549.749 292.363 531.644 274.298 509.373 274.298 C 486.541 274.298 467.996 292.804 467.996 315.676 L 467.996 655.866 C 467.996 686.7 434.616 705.972 407.913 690.555 C 406.526 689.754 405.188 688.871 403.907 687.91 L 340.419 640.244 C 318.962 624.173 294.105 613.238 267.759 608.28 L 247.411 608.28 C 225.95 608.289 212.546 631.527 223.285 650.108 C 224.5 652.212 225.986 654.147 227.703 655.866 C 232.47 660.632 249.253 682.182 267.759 703.932 C 280.096 718.432 323.596 769.142 398.219 856.143 Z" p-id="2750" fill="#4eb3ff" style=""/>
  <path d="M 668.313 455.589 L 828.534 455.589 C 850.656 455.589 868.589 437.656 868.589 415.534 L 868.589 215.257 C 868.589 193.135 850.656 175.201 828.534 175.201 L 187.648 175.201 C 165.526 175.201 147.593 193.135 147.593 215.257 L 147.593 415.534 C 147.593 437.656 165.526 455.589 187.648 455.589 L 347.87 455.589 L 347.87 495.644 L 668.313 495.644 L 668.313 455.589 Z M 187.648 135.146 L 828.534 135.146 C 872.778 135.146 908.645 171.013 908.645 215.257 L 908.645 415.534 C 908.645 459.778 872.778 495.644 828.534 495.644 L 187.648 495.644 C 143.404 495.644 107.537 459.778 107.537 415.534 L 107.537 215.257 C 107.537 171.013 143.404 135.146 187.648 135.146 Z" p-id="2751" fill="#4eb3ff" style=""/>
</svg>