<?xml version="1.0" encoding="utf-8"?>
<svg t="1612929541682" class="icon" viewBox="0 0 1024 1024" version="1.1" p-id="2749" width="200" height="200" xmlns="http://www.w3.org/2000/svg">
  <path d="M 383.502 981.674 L 204.363 782.801 C 193.611 770.857 184.534 757.506 177.384 743.112 C 170.306 728.851 166.623 713.144 166.627 697.222 L 166.627 687.55 C 166.627 670.633 174.608 654.759 188.185 644.653 C 202.089 632.773 220.351 627.293 238.5 629.558 L 253.377 631.423 C 281.887 634.991 309.155 645.23 332.969 661.308 L 359.298 679.092 C 375.434 689.936 390.743 701.907 405.189 714.919 C 412.654 721.596 424.55 717.688 426.6 707.882 C 426.782 707.016 426.874 706.132 426.875 705.246 L 426.875 331.052 C 426.875 293.185 468.471 265.99 513.625 265.99 C 557.651 265.99 600.375 294.098 600.375 331.052 L 600.375 605.441 C 600.395 615.768 610.253 623.231 620.197 620.449 C 633.34 616.719 646.135 611.775 658.368 605.701 C 683.524 596.073 701.914 591.302 713.453 591.302 C 730.802 591.302 773.873 591.302 795.561 597.807 C 817.248 604.314 823.364 609.389 834.598 619.234 C 847.48 634.72 855.114 647.341 857.543 657.058 L 863.008 678.874 C 870.035 706.981 873.593 736.13 869.297 764.799 C 864.961 793.557 860.622 825.525 847.61 851.549 L 773.873 981.674 L 383.502 981.674 Z M 394.648 938.299 L 747.849 938.299 C 783.459 897.179 806.621 853.805 817.248 808.176 C 833.21 739.73 829.436 714.658 817.248 678.05 C 809.094 653.63 794.693 639.187 773.873 634.677 C 742.253 628.343 713.322 628.343 687.123 634.677 C 665.663 640.354 645.158 649.168 626.269 660.83 C 610.845 670.063 590.989 666.633 579.555 652.763 C 566.108 636.368 558.735 615.851 558.735 594.641 L 558.735 351.916 C 558.735 327.799 539.13 308.237 515.013 308.237 C 490.29 308.237 470.207 328.278 470.207 353.045 L 470.207 721.426 C 470.207 754.816 434.06 775.684 405.146 758.989 C 403.644 758.121 402.195 757.166 400.808 756.124 L 332.058 704.509 C 308.824 687.106 281.906 675.265 253.377 669.896 L 231.343 669.896 C 208.103 669.906 193.589 695.07 205.218 715.19 C 206.534 717.469 208.142 719.565 210.002 721.426 C 215.164 726.587 233.337 749.922 253.377 773.476 C 266.737 789.177 313.842 844.089 394.648 938.299 Z" p-id="2750" fill="#13227a" />
  <path d="M 715.987 450.431 L 919.908 450.431 C 948.063 450.431 970.887 427.607 970.887 399.452 L 970.887 144.55 C 970.887 116.396 948.063 93.57 919.908 93.57 L 104.225 93.57 C 76.07 93.57 53.245 116.396 53.245 144.55 L 53.245 399.452 C 53.245 427.607 76.07 450.431 104.225 450.431 L 308.147 450.431 L 308.147 501.412 L 715.987 501.412 L 715.987 450.431 Z M 104.225 42.59 L 919.908 42.59 C 976.218 42.59 1021.868 88.24 1021.868 144.55 L 1021.868 399.452 C 1021.868 455.762 976.218 501.412 919.908 501.412 L 104.225 501.412 C 47.914 501.412 2.264 455.762 2.264 399.452 L 2.264 144.55 C 2.264 88.24 47.914 42.59 104.225 42.59 Z" p-id="2751" fill="#13227a"/>
</svg>