<?xml version="1.0" encoding="utf-8"?>
<svg t="1612494174977" class="icon" viewBox="0 0 1024 1024" version="1.1" p-id="7855" width="200" height="200" xmlns="http://www.w3.org/2000/svg">
  <path d="M 860.454 985.619 L 188.449 985.619 C 89.522 985.619 2.381 903.094 2.381 808.266 L 2.381 285.425 C 2.381 191.11 81.974 111.971 179.365 111.971 C 192.692 112.485 202.943 124.273 202.431 137.602 C 201.918 149.902 191.667 160.155 179.365 160.668 C 108.115 160.668 51.077 217.764 51.077 285.425 L 51.077 808.266 C 51.077 875.927 116.686 936.925 188.449 936.925 L 860.454 936.925 C 933.752 936.925 973.222 870.802 973.222 808.266 L 973.222 285.425 C 973.222 215.202 919.401 160.354 851.226 160.354 C 837.9 159.33 828.16 147.54 829.185 133.701 C 830.208 121.91 839.436 112.684 851.226 111.659 C 946.567 111.659 1021.405 188.034 1021.405 285.425 L 1021.405 808.266 C 1021.405 909.759 952.206 985.619 860.454 985.619 Z" fill="#1296db" p-id="7856" style=""/>
  <path d="M 297.291 450.763 L 224.502 450.763 C 211.176 449.737 200.925 437.948 201.949 424.621 C 202.973 412.319 212.201 403.092 224.502 402.067 L 297.291 402.067 C 310.618 403.092 320.868 414.883 319.845 428.211 C 318.82 440 309.592 449.737 297.291 450.763 Z M 540.258 450.763 L 467.47 450.763 C 454.143 449.737 443.89 437.948 444.916 424.621 C 445.941 412.319 455.168 403.092 467.47 402.067 L 540.258 402.067 C 553.583 402.067 564.349 412.832 564.349 426.158 C 564.349 440 553.583 450.763 540.258 450.763 Z M 806.803 450.763 L 734.016 450.763 C 720.688 449.737 710.437 437.948 711.461 424.621 C 712.486 412.319 721.714 403.092 734.016 402.067 L 806.803 402.067 C 820.129 402.067 830.895 412.832 830.895 426.158 C 831.406 440 820.643 450.763 806.803 450.763 Z M 297.291 596.339 L 224.502 596.339 C 211.176 596.339 200.411 585.575 200.411 572.246 C 200.411 558.919 211.176 548.155 224.502 548.155 L 297.291 548.155 C 310.618 549.18 320.868 560.969 319.845 574.298 C 318.82 585.575 309.592 595.313 297.291 596.339 Z M 540.258 596.339 L 467.47 596.339 C 454.143 596.339 443.377 585.575 443.377 572.246 C 443.377 558.919 454.143 548.155 467.47 548.155 L 540.258 548.155 C 553.583 548.155 564.349 558.919 564.349 572.246 C 564.349 585.575 553.583 596.339 540.258 596.339 Z M 806.803 596.339 L 734.016 596.339 C 720.688 596.339 709.922 585.575 709.922 572.246 C 709.922 558.919 720.688 548.155 734.016 548.155 L 806.803 548.155 C 820.129 548.155 830.895 558.919 830.895 572.246 C 831.406 585.575 820.643 596.339 806.803 596.339 Z M 297.291 741.914 L 224.502 741.914 C 211.176 741.914 200.411 731.149 200.411 717.822 C 200.411 704.495 211.176 693.73 224.502 693.73 L 297.291 693.73 C 310.618 694.756 320.868 706.544 319.845 719.872 C 318.82 731.149 309.592 740.888 297.291 741.914 Z M 540.258 741.914 L 467.47 741.914 C 454.143 741.914 443.377 731.149 443.377 717.822 C 443.377 704.495 454.143 693.73 467.47 693.73 L 540.258 693.73 C 553.583 693.73 564.349 704.495 564.349 717.822 C 564.349 731.149 553.583 741.914 540.258 741.914 Z M 806.803 741.914 L 734.016 741.914 C 720.688 741.914 709.922 731.149 709.922 717.822 C 709.922 704.495 720.688 693.73 734.016 693.73 L 806.803 693.73 C 820.129 693.73 830.895 704.495 830.895 717.822 C 831.406 731.149 820.643 741.914 806.803 741.914 Z M 789.273 156.47 L 243.745 157.541 C 230.418 157.541 219.652 146.777 219.652 133.449 C 219.652 120.122 230.418 109.356 243.745 109.356 L 789.273 108.287 C 802.602 108.287 813.368 119.052 813.368 132.378 C 813.368 145.706 802.602 156.47 789.273 156.47 Z" fill="#1296db" p-id="7857" style=""/>
  <path d="M 297.291 229.895 C 283.963 229.895 273.198 219.13 273.198 205.803 L 273.198 59.717 C 274.224 46.387 286.014 36.137 299.341 37.162 C 311.643 38.186 320.868 47.412 321.893 59.717 L 321.893 205.29 C 321.382 219.13 310.618 229.895 297.291 229.895 Z M 734.016 229.895 C 720.688 229.895 709.922 219.13 709.922 205.803 L 709.922 59.717 C 710.949 46.387 722.739 36.137 736.066 37.162 C 748.367 38.186 757.594 47.412 758.62 59.717 L 758.62 205.29 C 758.62 219.13 747.857 229.895 734.016 229.895 Z" fill="#1296db" p-id="7858" style=""/>
</svg>