<?xml version="1.0" encoding="utf-8"?>
<svg t="1606811591431" class="icon" viewBox="0 0 1024 1024" version="1.1" p-id="2904" width="300" height="300" xmlns="http://www.w3.org/2000/svg">
  <defs/>
  <path d="M 896.616 850.036 L 172.771 850.036 C 166.191 850.036 161.804 845.849 161.804 839.569 L 161.804 148.735 C 161.804 131.987 146.45 117.333 128.902 117.333 C 111.354 117.333 96 131.987 96 148.735 L 96 839.569 C 96 879.344 131.096 912.839 172.771 912.839 L 896.616 912.839 C 914.164 912.839 929.518 898.185 929.518 881.437 C 929.518 864.69 914.164 850.036 896.616 850.036 Z" p-id="2905" fill="#ff480a" style=""/>
  <path d="M 446.955 462.75 L 446.955 776.766 C 446.955 793.513 462.309 808.167 479.857 808.167 C 497.405 808.167 512.759 793.513 512.759 776.766 L 512.759 462.75 C 512.759 446.003 497.405 431.349 479.857 431.349 C 462.309 431.349 446.955 446.003 446.955 462.75 Z M 304.38 808.167 C 321.927 808.167 337.282 793.513 337.282 776.766 L 337.282 525.553 C 337.282 508.806 321.927 494.152 304.38 494.152 C 286.832 494.152 271.477 508.806 271.477 525.553 L 271.477 776.766 C 271.477 793.513 286.832 808.167 304.38 808.167 Z M 655.335 556.955 C 637.787 556.955 622.432 571.609 622.432 588.356 L 622.432 776.766 C 622.432 793.513 637.787 808.167 655.335 808.167 C 672.882 808.167 688.237 793.513 688.237 776.766 L 688.237 588.356 C 688.237 571.609 672.882 556.955 655.335 556.955 Z M 830.812 347.611 C 813.264 347.611 797.91 362.265 797.91 379.013 L 797.91 776.766 C 797.91 793.513 813.264 808.167 830.812 808.167 C 848.36 808.167 863.714 793.513 863.714 776.766 L 863.714 379.013 C 863.714 362.265 848.36 347.611 830.812 347.611 Z M 328.508 402.041 L 479.857 257.594 L 631.206 402.041 C 637.787 408.321 646.561 410.414 655.335 410.414 L 657.528 410.414 C 666.302 410.414 675.076 404.134 681.656 397.854 L 857.134 167.576 C 868.101 152.922 863.714 134.081 850.553 123.614 C 835.199 113.146 815.458 117.333 804.49 129.894 L 650.948 330.864 L 501.792 188.51 C 488.631 175.95 468.89 175.95 455.729 188.51 L 280.251 355.985 C 267.091 368.546 267.091 387.387 280.251 399.947 C 293.412 412.508 315.347 412.508 328.508 402.041 Z" p-id="2906" fill="#ff480a" style=""/>
</svg>