<?xml version="1.0" encoding="utf-8"?>
<svg t="1606811591431" class="icon" viewBox="0 0 1024 1024" version="1.1" p-id="2904" width="300" height="300" xmlns="http://www.w3.org/2000/svg">
  <path d="M 982.259 926.259 L 95.424 926.259 C 87.361 926.259 81.987 921.129 81.987 913.436 L 81.987 67.044 C 81.987 46.525 63.176 28.571 41.677 28.571 C 20.176 28.571 1.365 46.525 1.365 67.044 L 1.365 913.436 C 1.365 962.167 44.364 1003.203 95.424 1003.203 L 982.259 1003.203 C 1003.758 1003.203 1022.569 985.25 1022.569 964.731 C 1022.569 944.213 1003.758 926.259 982.259 926.259 Z" p-id="2905" fill="#ff480a" style=""/>
  <path d="M 431.346 451.767 L 431.346 836.49 C 431.346 857.009 450.157 874.962 471.657 874.962 C 493.156 874.962 511.968 857.009 511.968 836.49 L 511.968 451.767 C 511.968 431.249 493.156 413.294 471.657 413.294 C 450.157 413.294 431.346 431.249 431.346 451.767 Z M 256.667 874.962 C 278.165 874.962 296.977 857.009 296.977 836.49 L 296.977 528.711 C 296.977 508.193 278.165 490.24 256.667 490.24 C 235.168 490.24 216.355 508.193 216.355 528.711 L 216.355 836.49 C 216.355 857.009 235.168 874.962 256.667 874.962 Z M 686.647 567.184 C 665.148 567.184 646.336 585.138 646.336 605.656 L 646.336 836.49 C 646.336 857.009 665.148 874.962 686.647 874.962 C 708.145 874.962 726.958 857.009 726.958 836.49 L 726.958 605.656 C 726.958 585.138 708.145 567.184 686.647 567.184 Z M 901.638 310.702 C 880.137 310.702 861.327 328.655 861.327 349.174 L 861.327 836.49 C 861.327 857.009 880.137 874.962 901.638 874.962 C 923.137 874.962 941.948 857.009 941.948 836.49 L 941.948 349.174 C 941.948 328.655 923.137 310.702 901.638 310.702 Z M 286.228 377.387 L 471.657 200.415 L 657.086 377.387 C 665.148 385.082 675.898 387.646 686.647 387.646 L 689.335 387.646 C 700.084 387.646 710.834 379.952 718.895 372.258 L 933.887 90.127 C 947.323 72.174 941.948 49.09 925.823 36.267 C 907.013 23.442 882.826 28.571 869.388 43.96 L 681.272 290.183 L 498.531 115.775 C 482.406 100.387 458.221 100.387 442.096 115.775 L 227.105 320.961 C 210.981 336.35 210.981 359.434 227.105 374.822 C 243.229 390.212 270.103 390.212 286.228 377.387 Z" p-id="2906" fill="#ff480a" style=""/>
</svg>