<?xml version="1.0" encoding="utf-8"?>
<svg t="1606478980883" class="icon" viewBox="0 0 1024 1024" version="1.1" p-id="6219" width="300" height="300" xmlns="http://www.w3.org/2000/svg">
  <path d="M 657.947 803.262 L 221.34 803.262 C 199.51 803.262 184.957 817.816 184.957 839.646 C 184.957 861.477 203.149 876.03 221.34 876.03 L 657.947 876.03 C 679.777 876.03 694.33 861.477 694.33 839.646 C 694.33 817.816 676.139 803.262 657.947 803.262 Z M 949.018 2.817 L 221.34 2.817 C 199.51 2.817 184.957 17.37 184.957 39.201 C 184.957 61.031 199.51 75.585 221.34 75.585 L 912.634 75.585 C 934.464 75.585 949.018 90.138 949.018 111.968 L 949.018 803.262 C 949.018 825.092 963.571 839.646 985.401 839.646 C 1007.232 839.646 1021.785 825.092 1021.785 803.262 L 1021.785 75.585 C 1021.785 35.563 989.04 2.817 949.018 2.817 Z" fill="#00ffff" p-id="6220" style=""/>
  <path d="M 803.481 148.353 L 75.806 148.353 C 35.783 148.353 3.038 181.098 3.038 221.121 L 3.038 948.797 C 3.038 988.82 35.783 1021.564 75.806 1021.564 L 803.481 1021.564 C 843.504 1021.564 876.25 988.82 876.25 948.797 L 876.25 221.121 C 876.25 181.098 843.504 148.353 803.481 148.353 Z M 803.481 912.413 C 803.481 930.606 785.29 948.797 767.098 948.797 L 112.189 948.797 C 93.997 948.797 75.806 930.606 75.806 912.413 L 75.806 257.505 C 75.806 239.312 93.997 221.121 112.189 221.121 L 767.098 221.121 C 785.29 221.121 803.481 239.312 803.481 257.505 L 803.481 912.413 Z" fill="#00ffff" p-id="6221" style=""/>
</svg>