<?xml version="1.0" encoding="utf-8"?>
<svg t="1606478980883" class="icon" viewBox="0 0 1024 1024" version="1.1" p-id="6219" width="300" height="300" xmlns="http://www.w3.org/2000/svg">
  <defs/>
  <path d="M 625.295 749.528 L 265.074 749.528 C 247.063 749.528 235.056 761.536 235.056 779.547 C 235.056 797.558 250.065 809.565 265.074 809.565 L 625.295 809.565 C 643.306 809.565 655.313 797.558 655.313 779.547 C 655.313 761.536 640.304 749.528 625.295 749.528 Z M 865.442 89.124 L 265.074 89.124 C 247.063 89.124 235.056 101.131 235.056 119.142 C 235.056 137.153 247.063 149.161 265.074 149.161 L 835.423 149.161 C 853.434 149.161 865.442 161.168 865.442 179.179 L 865.442 749.528 C 865.442 767.539 877.449 779.547 895.46 779.547 C 913.471 779.547 925.478 767.539 925.478 749.528 L 925.478 149.161 C 925.478 116.141 898.462 89.124 865.442 89.124 Z" fill="#00ffff" p-id="6220" style=""/>
  <path d="M 745.368 209.198 L 145.001 209.198 C 111.981 209.198 84.964 236.214 84.964 269.234 L 84.964 869.602 C 84.964 902.622 111.981 929.638 145.001 929.638 L 745.368 929.638 C 778.388 929.638 805.405 902.622 805.405 869.602 L 805.405 269.234 C 805.405 236.214 778.388 209.198 745.368 209.198 Z M 745.368 839.583 C 745.368 854.593 730.359 869.602 715.35 869.602 L 175.019 869.602 C 160.01 869.602 145.001 854.593 145.001 839.583 L 145.001 299.253 C 145.001 284.243 160.01 269.234 175.019 269.234 L 715.35 269.234 C 730.359 269.234 745.368 284.243 745.368 299.253 L 745.368 839.583 Z" fill="#00ffff" p-id="6221" style=""/>
</svg>