<?xml version="1.0" encoding="utf-8"?>
<svg t="1614394486887" class="icon" viewBox="0 0 1024 1024" version="1.1" p-id="2679" width="200" height="200" xmlns="http://www.w3.org/2000/svg">
  <defs/>
  <path d="M 75.974 75.974 L 75.974 947.997 L 947.997 947.997 L 947.997 75.974 L 75.974 75.974 Z M 75.974 3.306 L 947.997 3.306 C 988.13 3.306 1020.665 35.84 1020.665 75.974 L 1020.665 947.997 C 1020.665 988.13 988.13 1020.665 947.997 1020.665 L 75.974 1020.665 C 35.84 1020.665 3.306 988.13 3.306 947.997 L 3.306 75.974 C 3.306 35.84 35.84 3.306 75.974 3.306 Z M 509.37 557.113 L 714.948 351.605 L 766.325 402.982 L 560.818 608.489 L 509.37 659.938 L 252.559 402.982 L 303.936 351.605 L 509.37 557.04 Z" fill="#1296db" p-id="2680" style=""/>
</svg>