<?xml version="1.0" encoding="utf-8"?>
<svg t="1611738160188" class="icon" viewBox="0 0 1024 1024" version="1.1" p-id="6839" width="200" height="200" xmlns="http://www.w3.org/2000/svg">
  <defs/>
  <path d="M 319.421 551.73 L 575.421 551.73 C 593.341 551.73 607.421 537.65 607.421 519.73 C 607.421 501.81 593.341 487.73 575.421 487.73 L 319.421 487.73 C 301.501 487.73 287.421 501.81 287.421 519.73 C 287.421 537.65 301.501 551.73 319.421 551.73 Z M 799.421 103.73 L 223.421 103.73 C 153.021 103.73 95.421 161.33 95.421 231.73 L 95.421 807.73 C 95.421 878.13 153.021 935.73 223.421 935.73 L 799.421 935.73 C 869.821 935.73 927.421 878.13 927.421 807.73 L 927.421 231.73 C 927.421 161.33 869.821 103.73 799.421 103.73 Z M 863.421 807.73 C 863.421 842.93 834.621 871.73 799.421 871.73 L 223.421 871.73 C 188.221 871.73 159.421 842.93 159.421 807.73 L 159.421 231.73 C 159.421 196.53 188.221 167.73 223.421 167.73 L 799.421 167.73 C 834.621 167.73 863.421 196.53 863.421 231.73 L 863.421 807.73 Z M 703.421 295.73 L 319.421 295.73 C 301.501 295.73 287.421 309.81 287.421 327.73 C 287.421 345.65 301.501 359.73 319.421 359.73 L 703.421 359.73 C 721.341 359.73 735.421 345.65 735.421 327.73 C 735.421 309.81 721.341 295.73 703.421 295.73 Z M 639.421 679.73 L 319.421 679.73 C 301.501 679.73 287.421 693.81 287.421 711.73 L 287.421 711.73 C 287.421 729.65 301.501 743.73 319.421 743.73 L 639.421 743.73 C 657.341 743.73 671.421 729.65 671.421 711.73 L 671.421 711.73 C 671.421 693.81 657.341 679.73 639.421 679.73 Z" p-id="6840" fill="#1296db"/>
</svg>