<?xml version="1.0" standalone="no"?><!DOCTYPE svg PUBLIC "-//W3C//DTD SVG 1.1//EN" "http://www.w3.org/Graphics/SVG/1.1/DTD/svg11.dtd"><svg t="1611727885691" class="icon" viewBox="0 0 1024 1024" version="1.1" xmlns="http://www.w3.org/2000/svg" p-id="4282" xmlns:xlink="http://www.w3.org/1999/xlink" width="200" height="200"><defs><style type="text/css"></style></defs><path d="M930.46 337.73H94.54c-34.57 0-62.69-28.12-62.69-62.69V107.85c0-34.57 28.12-62.69 62.69-62.69h835.92c34.57 0 62.69 28.12 62.69 62.69v167.18c0 34.58-28.12 62.7-62.69 62.7zM94.54 86.95c-11.52 0-20.9 9.38-20.9 20.9v167.18c0 11.52 9.38 20.9 20.9 20.9h835.92c11.53 0 20.9-9.38 20.9-20.9V107.85c0-11.52-9.37-20.9-20.9-20.9H94.54z" fill="#1afa29" p-id="4283"></path><path d="M825.97 254.14c-6.57 0-12.78-3.09-16.71-8.36l-62.69-83.59c-6.94-9.23-5.06-22.34 4.18-29.26 9.2-6.96 22.33-5.05 29.24 4.17l45.98 61.31 45.98-61.31c6.94-9.21 20.02-11.11 29.24-4.17 9.24 6.92 11.12 20.02 4.18 29.26l-62.69 83.59a20.862 20.862 0 0 1-16.71 8.36zM522.95 212.34H188.58c-11.54 0-20.9-9.36-20.9-20.9s9.36-20.9 20.9-20.9h334.37c11.55 0 20.9 9.36 20.9 20.9s-9.35 20.9-20.9 20.9zM930.46 645.97H470.7c-11.54 0-20.9-9.35-20.9-20.9s9.36-20.9 20.9-20.9h459.76c11.55 0 20.9 9.35 20.9 20.9s-9.35 20.9-20.9 20.9zM930.46 980.34H94.54c-11.54 0-20.9-9.35-20.9-20.9 0-11.55 9.36-20.9 20.9-20.9h835.92c11.55 0 20.9 9.35 20.9 20.9 0 11.55-9.35 20.9-20.9 20.9zM209.48 750.46c-69.14 0-125.39-56.24-125.39-125.39s56.24-125.39 125.39-125.39 125.39 56.24 125.39 125.39-56.25 125.39-125.39 125.39z m0-208.98c-46.09 0-83.59 37.49-83.59 83.59s37.5 83.59 83.59 83.59 83.59-37.49 83.59-83.59-37.5-83.59-83.59-83.59z" fill="#1afa29" p-id="4284"></path></svg>