<?xml version="1.0" encoding="utf-8"?>
<svg t="1611738160188" class="icon" viewBox="0 0 1024 1024" version="1.1" p-id="6839" width="200" height="200" xmlns="http://www.w3.org/2000/svg">
  <path d="M 276.99 551.314 L 590.345 551.314 C 612.28 551.314 629.515 534.08 629.515 512.145 C 629.515 490.21 612.28 472.975 590.345 472.975 L 276.99 472.975 C 255.054 472.975 237.82 490.21 237.82 512.145 C 237.82 534.08 255.054 551.314 276.99 551.314 Z M 864.531 2.942 L 159.482 2.942 C 73.308 2.942 2.804 73.447 2.804 159.62 L 2.804 864.669 C 2.804 950.843 73.308 1021.347 159.482 1021.347 L 864.531 1021.347 C 950.705 1021.347 1021.209 950.843 1021.209 864.669 L 1021.209 159.62 C 1021.209 73.447 950.705 2.942 864.531 2.942 Z M 942.869 864.669 C 942.869 907.756 907.617 943.009 864.531 943.009 L 159.482 943.009 C 116.395 943.009 81.142 907.756 81.142 864.669 L 81.142 159.62 C 81.142 116.534 116.395 81.281 159.482 81.281 L 864.531 81.281 C 907.617 81.281 942.869 116.534 942.869 159.62 L 942.869 864.669 Z M 747.023 237.958 L 276.99 237.958 C 255.054 237.958 237.82 255.193 237.82 277.128 C 237.82 299.064 255.054 316.298 276.99 316.298 L 747.023 316.298 C 768.958 316.298 786.192 299.064 786.192 277.128 C 786.192 255.193 768.958 237.958 747.023 237.958 Z M 668.684 707.992 L 276.99 707.992 C 255.054 707.992 237.82 725.226 237.82 747.161 L 237.82 747.161 C 237.82 769.097 255.054 786.331 276.99 786.331 L 668.684 786.331 C 690.619 786.331 707.853 769.097 707.853 747.161 L 707.853 747.161 C 707.853 725.226 690.619 707.992 668.684 707.992 Z" p-id="6840" fill="#1296db" style=""/>
</svg>