<?xml version="1.0" standalone="no"?><!DOCTYPE svg PUBLIC "-//W3C//DTD SVG 1.1//EN" "http://www.w3.org/Graphics/SVG/1.1/DTD/svg11.dtd"><svg t="1614392777073" class="icon" viewBox="0 0 1024 1024" version="1.1" xmlns="http://www.w3.org/2000/svg" p-id="6724" xmlns:xlink="http://www.w3.org/1999/xlink" width="200" height="200"><defs><style type="text/css"></style></defs><path d="M213.350476 430.819992a59.779999 59.779999 0 0 0 85.179998 0l169.319997-171.239997a153.259997 153.259997 0 0 0-10.82-225.239996C399.710472-13.5 312.850474-9.34 256.030475 42.759999 199.350476-9.46 112.470478-13.72 54.970479 34.379999A153.399997 153.399997 0 0 0 44.030479 259.599995zM96.030478 83.459998a82.279998 82.279998 0 0 1 53.059999-18.779999A94.399998 94.399998 0 0 1 216.030476 93.099998l39.999999 40.339999 39.999999-40.379999c33.379999-33.719999 85.999998-37.879999 119.999998-9.62a89.239998 89.239998 0 0 1 6.38 131.119998l-163.439997 171.279996-169.379997-171.219996a89.419998 89.419998 0 0 1-25.439999-66.939999A88.239998 88.239998 0 0 1 96.030478 83.459998zM521.17047 575.999989h-95.999998l-14.16-28.42A54.799999 54.799999 0 0 0 359.690473 511.99999h-143.419997a54.799999 54.799999 0 0 0-51.319999 35.499999l-14 28.42h-95.999998A54.839999 54.839999 0 0 0 0.03048 630.699988v338.519993A54.839999 54.839999 0 0 0 54.890479 1023.99998h466.279991A54.839999 54.839999 0 0 0 576.030469 969.219981V630.699988A54.839999 54.839999 0 0 0 521.17047 575.999989zM512.03047 959.999981H64.030479V639.999988h126.599997l17.62-35.62 14-28.299999h131.459997l14.18 28.419999 17.679999 35.5H512.03047zM969.270461 0a48.099999 48.099999 0 0 0-7.86 0.66L687.130467 46.359999C660.030467 50.879999 640.030468 77.879998 640.030468 109.719998V333.599993a162.719997 162.719997 0 0 0-63.999999-12.939999c-71.759999 0-127.999998 42.159999-127.999998 95.999998s56.239999 95.999998 127.999998 95.999998 127.999998-42.159999 127.999997-95.999998V109.719998a8.9 8.9 0 0 1 0-1.3l255.999995-42.659999V269.999995a159.999997 159.999997 0 0 0-63.999998-13.3c-70.699999 0-127.999998 42.979999-127.999998 95.999998s57.299999 95.999998 127.999998 95.999998 127.999998-42.979999 127.999997-95.999998V63.999999c0-35.819999-25.02-63.999999-54.759999-63.999999zM576.030469 448.659991c-38.499999 0-63.999999-19.26-63.999999-31.999999s25.5-31.999999 63.999999-32 63.999999 19.24 63.999999 32-25.5 31.999999-63.999999 31.999999z m319.999994-63.999999c-39.699999 0-63.999999-20.72-63.999999-31.999999s24.3-31.999999 63.999999-31.999999 63.999999 20.72 63.999998 31.999999-24.3 31.999999-63.999998 31.999999zM288.030474 671.999987a127.999998 127.999998 0 1 0 127.999998 127.999997 128.139997 128.139997 0 0 0-127.999998-127.999997z m0 191.999996a63.999999 63.999999 0 1 1 63.999999-63.999999 63.999999 63.999999 0 0 1-63.999999 63.999999z m560.379989-305.679994a31.999999 31.999999 0 0 0-57.259998-28.639999L656.030467 799.999984h220.619996l-104.399998 176.119997a31.999999 31.999999 0 0 0 12 43.659999A31.599999 31.599999 0 0 0 800.030464 1023.99998a31.999999 31.999999 0 0 0 27.82-16.12L986.910461 735.999986H759.530465z" p-id="6725" fill="#13227a"></path></svg>