<?xml version="1.0" standalone="no"?><!DOCTYPE svg PUBLIC "-//W3C//DTD SVG 1.1//EN" "http://www.w3.org/Graphics/SVG/1.1/DTD/svg11.dtd"><svg t="1614559901822" class="icon" viewBox="0 0 1024 1024" version="1.1" xmlns="http://www.w3.org/2000/svg" p-id="2451" xmlns:xlink="http://www.w3.org/1999/xlink" width="200" height="200"><defs><style type="text/css"></style></defs><path d="M83.348837 467.547287l351.652713 0c18.257364 0 32.545736-14.288372 32.545736-32.545736l0-351.652713c0-18.257364-14.288372-32.545736-32.545736-32.545736l-351.652713 0c-18.257364 0-32.545736 14.288372-32.545736 32.545736l0 351.652713c0 17.463566 15.082171 32.545736 32.545736 32.545736zm32.545736-351.652713l286.56124 0 0 286.56124-286.56124 0 0-286.56124z" p-id="2452" fill="#1296db"></path><path d="M973.196899 83.348837c0-18.257364-14.288372-32.545736-32.545736-32.545736l-351.652713 0c-18.257364 0-32.545736 14.288372-32.545736 32.545736l0 351.652713c0 18.257364 14.288372 32.545736 32.545736 32.545736l351.652713 0c18.257364 0 32.545736-14.288372 32.545736-32.545736l0-351.652713zm-65.091473 319.106977l-286.56124 0 0-286.56124 286.56124 0 0 286.56124z" p-id="2453" fill="#1296db"></path><path d="M83.348837 973.196899l351.652713 0c18.257364 0 32.545736-14.288372 32.545736-32.545736l0-351.652713c0-18.257364-14.288372-32.545736-32.545736-32.545736l-351.652713 0c-18.257364 0-32.545736 14.288372-32.545736 32.545736l0 351.652713c0 17.463566 15.082171 32.545736 32.545736 32.545736zm32.545736-351.652713l286.56124 0 0 286.56124-286.56124 0 0-286.56124z" p-id="2454" fill="#1296db"></path><path d="M940.651163 556.452713l-351.652713 0c-18.257364 0-32.545736 14.288372-32.545736 32.545736l0 351.652713c0 18.257364 14.288372 32.545736 32.545736 32.545736l351.652713 0c18.257364 0 32.545736-14.288372 32.545736-32.545736l0-351.652713c0-17.463566-15.082171-32.545736-32.545736-32.545736zm-32.545736 351.652713l-286.56124 0 0-286.56124 286.56124 0 0 286.56124z" p-id="2455" fill="#1296db"></path></svg>