<?xml version="1.0" encoding="utf-8"?>
<svg t="1612585598053" class="icon" viewBox="0 0 1024 1024" version="1.1" p-id="671" width="200" height="200" xmlns="http://www.w3.org/2000/svg">
  <path d="M 964.77 488.801 L 542.581 488.801 C 512.134 488.801 487.778 513.159 487.778 543.606 C 487.778 574.05 512.134 598.41 542.581 598.41 L 964.77 598.41 C 995.217 598.41 1019.574 574.05 1019.574 543.606 C 1019.574 515.188 995.217 488.801 964.77 488.801 Z M 644.068 237.112 L 966.801 237.112 C 995.217 237.112 1019.574 212.755 1019.574 180.279 C 1019.574 149.833 997.245 125.476 966.801 125.476 L 644.068 125.476 C 615.652 125.476 591.295 149.833 591.295 180.279 C 591.295 210.726 615.652 237.112 644.068 237.112 Z M 520.254 401.524 C 542.581 379.195 542.581 344.688 522.283 324.392 L 311.19 80.822 C 301.04 70.673 284.802 64.583 272.623 64.583 C 256.385 64.583 242.177 68.643 229.999 82.851 L 20.935 324.392 C -1.394 346.719 -1.394 381.225 20.935 403.552 C 31.083 413.701 45.291 417.76 59.499 417.76 C 73.708 417.76 87.916 411.672 100.095 399.493 L 215.791 265.528 L 215.791 963.764 L 325.396 963.764 L 325.396 267.559 L 441.093 401.524 C 451.242 411.672 465.451 417.76 479.659 417.76 C 495.897 417.76 510.106 413.701 520.254 401.524 Z M 964.77 854.159 L 542.581 854.159 C 512.134 854.159 487.778 878.515 487.778 908.96 C 487.778 939.408 512.134 963.764 542.581 963.764 L 964.77 963.764 C 995.217 963.764 1019.574 939.408 1019.574 908.96 C 1019.574 878.515 995.217 854.159 964.77 854.159 Z" p-id="672" fill="#00ffff" style=""/>
</svg>