<?xml version="1.0" encoding="utf-8"?>
<svg t="1612585598053" class="icon" viewBox="0 0 1024 1024" version="1.1" p-id="671" width="200" height="200" xmlns="http://www.w3.org/2000/svg">
  <defs/>
  <path d="M 860.371 491.114 L 533.507 491.114 C 509.935 491.114 491.078 509.972 491.078 533.544 C 491.078 557.115 509.935 575.974 533.507 575.974 L 860.371 575.974 C 883.943 575.974 902.801 557.115 902.801 533.544 C 902.801 511.543 883.943 491.114 860.371 491.114 Z M 612.08 296.253 L 861.943 296.253 C 883.943 296.253 902.801 277.395 902.801 252.252 C 902.801 228.68 885.514 209.823 861.943 209.823 L 612.08 209.823 C 590.08 209.823 571.222 228.68 571.222 252.252 C 571.222 275.824 590.08 296.253 612.08 296.253 Z M 516.221 423.542 C 533.507 406.255 533.507 379.54 517.792 363.826 L 354.361 175.251 C 346.503 167.393 333.932 162.679 324.502 162.679 C 311.931 162.679 300.931 165.822 291.502 176.822 L 129.642 363.826 C 112.355 381.112 112.355 407.827 129.642 425.113 C 137.499 432.97 148.499 436.113 159.499 436.113 C 170.5 436.113 181.5 431.399 190.929 421.97 L 280.502 318.253 L 280.502 858.836 L 365.36 858.836 L 365.36 319.825 L 454.934 423.542 C 462.791 431.399 473.792 436.113 484.792 436.113 C 497.363 436.113 508.364 432.97 516.221 423.542 Z M 860.371 773.978 L 533.507 773.978 C 509.935 773.978 491.078 792.835 491.078 816.406 C 491.078 839.979 509.935 858.836 533.507 858.836 L 860.371 858.836 C 883.943 858.836 902.801 839.979 902.801 816.406 C 902.801 792.835 883.943 773.978 860.371 773.978 Z" p-id="672" fill="#00ffff" style=""/>
</svg>