<?xml version="1.0" encoding="utf-8"?>
<svg t="1606810394544" class="icon" viewBox="0 0 1024 1024" version="1.1" p-id="8602" width="300" height="300" xmlns="http://www.w3.org/2000/svg">
  <defs/>
  <path d="M 822.407 149.245 C 850.71 149.241 873.66 172.176 873.676 200.479 L 873.676 628.356 L 148.559 628.356 L 148.559 200.479 C 148.559 172.183 171.497 149.245 199.793 149.245 L 822.407 149.245 Z M 221.271 729.602 L 221.271 830.863 L 322.525 830.863 L 322.525 823.728 L 322.525 736.738 L 322.525 729.602 Z M 460.484 729.602 L 460.484 830.863 L 561.745 830.863 L 561.745 823.728 L 561.745 736.738 L 561.745 729.602 Z M 677.947 729.602 L 677.947 830.863 L 779.201 830.863 L 779.201 823.728 L 779.201 736.738 L 779.201 729.602 Z M 873.669 686.118 L 873.669 823.171 C 873.645 851.453 850.71 874.366 822.428 874.362 L 199.793 874.362 C 171.497 874.362 148.559 851.424 148.559 823.128 L 148.559 686.118 Z M 163.173 91.483 C 143.693 91.483 125.968 99.232 112.96 108.308 C 106.581 112.754 101.358 117.506 97.676 121.738 C 95.94 123.687 94.397 125.8 93.066 128.045 C 91.575 130.643 90.797 133.133 90.797 135.317 L 90.797 859.741 C 90.797 899.714 123.192 932.117 163.173 932.117 L 859.077 932.117 C 899.043 932.117 931.431 899.721 931.431 859.741 L 931.431 163.859 L 931.446 156.709 L 931.089 156.709 C 927.492 120.089 896.624 91.483 859.055 91.483 Z" p-id="8603" fill="#ffcc00" style=""/>
</svg>