<?xml version="1.0" encoding="utf-8"?>
<svg t="1611886613714" class="icon" viewBox="0 0 1024 1024" version="1.1" p-id="2356" width="200" height="200" xmlns="http://www.w3.org/2000/svg">
  <defs/>
  <path d="M 997.51 1021.974 L 27.286 1021.974 C 14.528 1021.974 4.185 1012.054 4.185 999.816 L 4.185 24.869 C 4.185 12.631 14.528 2.711 27.286 2.711 L 997.51 2.711 C 1010.269 2.711 1020.611 12.631 1020.611 24.869 L 1020.611 999.816 C 1020.611 1012.054 1010.269 1021.974 997.51 1021.974 Z M 50.386 977.658 L 974.41 977.658 L 974.41 47.027 L 50.386 47.027 Z" p-id="2357" fill="#1afa29" style=""/>
  <path d="M 974.41 711.764 L 50.386 711.764 C 32.604 711.764 21.49 693.299 30.382 678.527 C 34.507 671.671 42.134 667.448 50.386 667.448 L 974.41 667.448 C 992.193 667.448 1003.306 685.913 994.416 700.685 C 990.289 707.54 982.663 711.764 974.41 711.764 Z M 281.393 911.185 L 188.99 911.185 C 176.233 911.185 165.89 901.265 165.89 889.027 L 165.89 800.395 C 165.89 788.158 176.233 778.237 188.99 778.237 L 281.393 778.237 C 294.151 778.237 304.493 788.158 304.493 800.395 L 304.493 889.027 C 304.493 901.265 294.151 911.185 281.393 911.185 Z M 212.091 866.869 L 258.291 866.869 L 258.291 822.554 L 212.091 822.554 Z M 558.6 911.185 L 466.197 911.185 C 453.438 911.185 443.096 901.265 443.096 889.027 L 443.096 800.395 C 443.096 788.158 453.438 778.237 466.197 778.237 L 558.6 778.237 C 571.358 778.237 581.701 788.158 581.701 800.395 L 581.701 889.027 C 581.701 901.265 571.358 911.185 558.6 911.185 Z M 489.296 866.869 L 535.499 866.869 L 535.499 822.554 L 489.296 822.554 Z M 835.807 911.185 L 743.404 911.185 C 730.645 911.185 720.302 901.265 720.302 889.027 L 720.302 800.395 C 720.302 788.158 730.645 778.237 743.404 778.237 L 835.807 778.237 C 848.564 778.237 858.906 788.158 858.906 800.395 L 858.906 889.027 C 858.906 901.265 848.564 911.185 835.807 911.185 Z M 766.505 866.869 L 812.706 866.869 L 812.706 822.554 L 766.505 822.554 Z" p-id="2358" fill="#1afa29" style=""/>
</svg>