<?xml version="1.0" encoding="utf-8"?>
<svg t="1606811099584" class="icon" viewBox="0 0 1024 1024" version="1.1" p-id="25404" width="300" height="300" xmlns="http://www.w3.org/2000/svg">
  <defs/>
  <path d="M 749.736 905.652 L 263.231 905.652 C 179.969 905.652 112.386 838.159 112.386 754.807 L 112.386 268.392 C 112.386 185.13 179.879 117.547 263.231 117.547 L 749.736 117.547 C 832.998 117.547 900.581 185.04 900.581 268.392 L 900.581 754.807 C 900.581 838.159 832.998 905.652 749.736 905.652 Z" fill="#1afa29" p-id="25405" style=""/>
  <path d="M 632.881 674.531 L 450.588 505.027 L 632.881 335.623 C 647.244 322.341 648.128 299.812 634.65 285.351 C 621.273 271.088 598.646 270.398 584.478 283.581 L 374.64 478.663 L 368.837 486.04 C 368.049 487.222 366.573 489.189 365.492 492.042 L 363.72 499.321 C 363.426 500.502 363.032 502.569 363.032 505.224 L 364.016 512.604 C 364.41 514.571 364.802 516.34 365.589 518.308 L 584.675 726.77 C 591.267 732.868 599.825 736.213 608.876 736.213 C 618.713 736.213 628.158 732.082 634.947 724.9 C 648.03 710.341 647.145 687.813 632.881 674.531 Z" fill="#FFFFFF" p-id="25406" style=""/>
</svg>