<?xml version="1.0" encoding="utf-8"?>
<svg t="1606811099584" class="icon" viewBox="0 0 1024 1024" version="1.1" p-id="25404" width="300" height="300" xmlns="http://www.w3.org/2000/svg">
  <path d="M 825.733 1020.968 L 197.001 1020.968 C 89.398 1020.968 2.057 933.744 2.057 826.024 L 2.057 197.41 C 2.057 89.807 89.281 2.466 197.001 2.466 L 825.733 2.466 C 933.336 2.466 1020.675 89.69 1020.675 197.41 L 1020.675 826.024 C 1020.675 933.744 933.336 1020.968 825.733 1020.968 Z" fill="#1afa29" p-id="25405" style=""/>
  <path d="M 674.715 722.28 L 439.13 503.223 L 674.715 284.295 C 693.277 267.13 694.42 238.015 677.001 219.326 C 659.714 200.894 630.472 200.002 612.162 217.039 L 340.979 469.152 L 333.48 478.685 C 332.462 480.213 330.554 482.755 329.157 486.442 L 326.867 495.849 C 326.487 497.375 325.978 500.046 325.978 503.477 L 327.249 513.015 C 327.759 515.558 328.265 517.844 329.282 520.387 L 612.417 789.791 C 620.935 797.672 631.996 801.995 643.693 801.995 C 656.405 801.995 668.612 796.656 677.385 787.374 C 694.293 768.56 693.149 739.445 674.715 722.28 Z" fill="#FFFFFF" p-id="25406" style=""/>
</svg>