<?xml version="1.0" encoding="utf-8"?>
<svg t="1606488516679" class="icon" viewBox="0 0 1024 1024" version="1.1" p-id="21605" width="300" height="300" xmlns="http://www.w3.org/2000/svg">
  <defs/>
  <path d="M 896.939 877.45 L 124.226 877.45 C 86.499 877.45 56.045 846.996 56.045 809.269 L 56.045 218.371 C 56.045 180.644 86.499 150.19 124.226 150.19 L 896.939 150.19 C 934.666 150.19 965.12 180.644 965.12 218.371 L 965.12 809.269 C 965.12 846.996 934.666 877.45 896.939 877.45 Z M 124.226 195.644 C 111.499 195.644 101.499 205.644 101.499 218.371 L 101.499 809.269 C 101.499 821.996 111.499 831.996 124.226 831.996 L 896.939 831.996 C 909.666 831.996 919.666 821.996 919.666 809.269 L 919.666 218.371 C 919.666 205.644 909.666 195.644 896.939 195.644 L 124.226 195.644 Z" fill="#e98f36" p-id="21606" style=""/>
  <path d="M 56.045 309.278 L 965.12 309.278 L 965.12 354.732 L 56.045 354.732 Z M 192.406 491.093 L 283.314 491.093 L 283.314 536.547 L 192.406 536.547 Z M 192.406 582.001 L 283.314 582.001 L 283.314 627.454 L 192.406 627.454 Z M 192.406 672.908 L 283.314 672.908 L 283.314 718.362 L 192.406 718.362 Z M 374.221 491.093 L 828.759 491.093 L 828.759 536.547 L 374.221 536.547 Z M 374.221 582.001 L 828.759 582.001 L 828.759 627.454 L 374.221 627.454 Z M 374.221 672.908 L 828.759 672.908 L 828.759 718.362 L 374.221 718.362 Z" fill="#e98f36" p-id="21607" style=""/>
  <path d="M 215.133 252.461 M 192.406 252.461 C 192.406 269.956 211.345 280.891 226.497 272.143 C 233.528 268.083 237.86 260.581 237.86 252.461 C 237.86 234.966 218.921 224.031 203.77 232.779 C 196.738 236.839 192.406 244.341 192.406 252.461 Z" fill="#e98f36" p-id="21608" style=""/>
  <path d="M 283.314 252.461 M 260.587 252.461 C 260.587 269.956 279.526 280.891 294.677 272.143 C 301.709 268.083 306.041 260.581 306.041 252.461 C 306.041 234.966 287.102 224.031 271.95 232.779 C 264.919 236.839 260.587 244.341 260.587 252.461 Z" fill="#e98f36" p-id="21609" style=""/>
  <path d="M 351.494 252.461 M 328.767 252.461 C 328.767 269.956 347.707 280.891 362.858 272.143 C 369.89 268.083 374.221 260.581 374.221 252.461 C 374.221 234.966 355.282 224.031 340.131 232.779 C 333.099 236.839 328.767 244.341 328.767 252.461 Z" fill="#e98f36" p-id="21610" style=""/>
</svg>