<?xml version="1.0" encoding="utf-8"?>
<svg t="1606488516679" class="icon" viewBox="0 0 1024 1024" version="1.1" p-id="21605" width="300" height="300" xmlns="http://www.w3.org/2000/svg">
  <path d="M 865.512 871.063 L 150.251 871.063 C 115.329 871.063 87.139 842.873 87.139 807.951 L 89.391 204.528 C 89.391 169.606 117.581 141.416 152.503 141.416 L 867.764 141.416 C 902.686 141.416 930.875 169.606 930.875 204.528 L 928.623 807.951 C 928.623 842.873 900.434 871.063 865.512 871.063 Z M 152.503 183.49 C 140.722 183.49 131.465 192.747 131.465 204.528 L 129.213 807.951 C 129.213 819.732 138.47 828.988 150.251 828.988 L 865.512 828.988 C 877.293 828.988 886.549 819.732 886.549 807.951 L 888.801 204.528 C 888.801 192.747 879.545 183.49 867.764 183.49 L 152.503 183.49 Z" fill="#1afa29" p-id="21606" style=""/>
  <path d="M 89.391 288.676 L 930.875 288.676 L 930.875 330.75 L 89.391 330.75 L 89.391 288.676 Z M 215.848 472.813 L 299.997 472.813 L 299.997 514.887 L 215.848 514.887 L 215.848 472.813 Z M 215.848 556.961 L 299.997 556.961 L 299.997 599.035 L 215.848 599.035 L 215.848 556.961 Z M 215.848 641.109 L 299.997 641.109 L 299.997 683.184 L 215.848 683.184 L 215.848 641.109 Z M 384.145 472.813 L 804.888 472.813 L 804.888 514.887 L 384.145 514.887 L 384.145 472.813 Z M 384.145 556.961 L 804.888 556.961 L 804.888 599.035 L 384.145 599.035 L 384.145 556.961 Z M 384.145 641.109 L 804.888 641.109 L 804.888 683.184 L 384.145 683.184 L 384.145 641.109 Z" fill="#1afa29" p-id="21607" style=""/>
  <path d="M 236.651 236.083 M 215.613 236.083 C 215.613 252.277 233.144 262.399 247.17 254.302 C 253.678 250.544 257.688 243.599 257.688 236.083 C 257.688 219.889 240.157 209.767 226.133 217.864 C 219.623 221.623 215.613 228.567 215.613 236.083 Z" fill="#1afa29" p-id="21608" style=""/>
  <path d="M 299.762 236.083 M 278.725 236.083 C 278.725 252.277 296.256 262.399 310.28 254.302 C 316.79 250.544 320.8 243.599 320.8 236.083 C 320.8 219.889 303.269 209.767 289.243 217.864 C 282.735 221.623 278.725 228.567 278.725 236.083 Z" fill="#1afa29" p-id="21609" style=""/>
  <path d="M 362.873 236.083 M 341.836 236.083 C 341.836 252.277 359.368 262.399 373.392 254.302 C 379.901 250.544 383.91 243.599 383.91 236.083 C 383.91 219.889 366.379 209.767 352.355 217.864 C 345.846 221.623 341.836 228.567 341.836 236.083 Z" fill="#1afa29" p-id="21610" style=""/>
</svg>