<?xml version="1.0" encoding="utf-8"?>
<svg t="1606488516679" class="icon" viewBox="0 0 1024 1024" version="1.1" p-id="21605" width="300" height="300" xmlns="http://www.w3.org/2000/svg">
  <path d="M 944.312 974.689 L 77.254 974.689 C 34.92 974.689 0.747 938.857 0.747 894.471 L 3.477 127.48 C 3.477 83.093 37.65 47.261 79.983 47.261 L 947.042 47.261 C 989.376 47.261 1023.548 83.093 1023.548 127.48 L 1020.818 894.471 C 1020.818 938.857 986.646 974.689 944.312 974.689 Z M 79.983 100.741 C 65.702 100.741 54.481 112.505 54.481 127.48 L 51.751 894.471 C 51.751 909.445 62.972 921.21 77.254 921.21 L 944.312 921.21 C 958.593 921.21 969.814 909.445 969.814 894.471 L 972.544 127.48 C 972.544 112.505 961.323 100.741 947.042 100.741 L 79.983 100.741 Z" fill="#1afa29" p-id="21606" style=""/>
  <path d="M 3.477 234.438 L 1023.548 234.438 L 1023.548 287.917 L 3.477 287.917 L 3.477 234.438 Z M 156.772 468.488 L 258.78 468.488 L 258.78 521.967 L 156.772 521.967 L 156.772 468.488 Z M 156.772 575.445 L 258.78 575.445 L 258.78 628.925 L 156.772 628.925 L 156.772 575.445 Z M 156.772 682.403 L 258.78 682.403 L 258.78 735.883 L 156.772 735.883 L 156.772 682.403 Z M 360.786 468.488 L 870.822 468.488 L 870.822 521.967 L 360.786 521.967 L 360.786 468.488 Z M 360.786 575.445 L 870.822 575.445 L 870.822 628.925 L 360.786 628.925 L 360.786 575.445 Z M 360.786 682.403 L 870.822 682.403 L 870.822 735.883 L 360.786 735.883 L 360.786 682.403 Z" fill="#1afa29" p-id="21607" style=""/>
  <path d="M 181.99 167.589 M 156.487 167.589 C 156.487 188.173 177.739 201.038 194.741 190.746 C 202.63 185.97 207.491 177.142 207.491 167.589 C 207.491 147.005 186.239 134.14 169.239 144.431 C 161.348 149.209 156.487 158.035 156.487 167.589 Z" fill="#1afa29" p-id="21608" style=""/>
  <path d="M 258.495 167.589 M 232.993 167.589 C 232.993 188.173 254.244 201.038 271.244 190.746 C 279.137 185.97 283.997 177.142 283.997 167.589 C 283.997 147.005 262.746 134.14 245.744 144.431 C 237.854 149.209 232.993 158.035 232.993 167.589 Z" fill="#1afa29" p-id="21609" style=""/>
  <path d="M 335 167.589 M 309.498 167.589 C 309.498 188.173 330.751 201.038 347.751 190.746 C 355.641 185.97 360.501 177.142 360.501 167.589 C 360.501 147.005 339.249 134.14 322.249 144.431 C 314.359 149.209 309.498 158.035 309.498 167.589 Z" fill="#1afa29" p-id="21610" style=""/>
</svg>