<?xml version="1.0" encoding="utf-8"?>
<svg t="1613955567961" class="icon" viewBox="0 0 1024 1024" version="1.1" p-id="2776" width="200" height="200" xmlns="http://www.w3.org/2000/svg">
  <defs/>
  <path d="M 531.482 159.454 L 512.189 178.578 L 453.604 120.543 L 453.604 209.589 L 426.283 209.589 L 426.298 120.529 L 367.713 178.578 L 348.406 159.454 L 439.943 68.76 L 531.482 159.454 Z M 436.592 772.65 L 438.774 772.523 L 447.647 772.734 C 452.998 772.805 460.294 772.875 469.475 772.903 L 574.139 772.861 L 687.675 772.495 C 718.095 772.495 742.725 748.61 742.725 718.29 L 742.725 553.703 L 742.655 550.464 C 740.528 503.765 692.337 488.683 660.383 505.23 L 660.143 503.146 C 654.242 461.32 608.952 448.279 578.448 464.08 L 578.209 461.996 C 572.435 421.156 529.144 407.777 498.768 421.831 L 496.908 422.733 L 496.908 306.817 L 496.839 303.578 C 493.656 233.529 386.809 234.6 386.809 306.817 L 386.809 590.671 L 384.147 587.883 L 377.782 581.391 C 363.783 567.293 355.347 560.435 344.448 554.238 C 321.675 541.297 299.467 543.029 280.301 562.28 C 258.446 583.889 258.446 619.184 280.301 640.792 L 396.033 757.032 C 407.103 768.158 420.974 773.185 436.592 772.664 Z M 632.626 512.554 L 632.626 553.703 L 660.791 553.703 C 660.791 517.961 714.559 517.961 714.559 553.703 L 714.559 718.29 C 714.559 732.852 702.73 744.343 687.661 744.343 L 488.023 744.766 C 459.857 744.738 442.732 744.625 439.972 744.385 L 437.619 744.385 C 428.565 745.132 421.707 742.892 416.003 737.161 L 300.255 620.921 C 289.338 610.304 289.338 592.768 300.255 582.151 C 309.973 572.406 318.282 571.758 330.534 578.729 C 340.096 584.164 348.278 591.291 364.699 608.302 L 386.556 631.216 L 390.921 635.651 L 414.975 659.818 L 414.975 306.817 C 414.975 271.075 468.743 271.075 468.743 306.817 L 468.743 471.389 L 496.908 471.389 C 496.908 435.646 550.691 435.646 550.691 471.389 L 550.691 512.54 L 578.857 512.54 C 578.857 476.797 632.626 476.797 632.626 512.54 Z M 531.482 865.287 L 512.189 846.162 L 453.604 904.198 L 453.604 815.152 L 426.283 815.152 L 426.298 904.212 L 367.713 846.162 L 348.406 865.287 L 439.943 955.981 L 531.482 865.287 Z" p-id="2777" fill="#13227a" style=""/>
</svg>