<?xml version="1.0" encoding="utf-8"?>
<svg t="1613955567961" class="icon" viewBox="0 0 1024 1024" version="1.1" p-id="2776" width="200" height="200" xmlns="http://www.w3.org/2000/svg">
  <path d="M 540.843 106.865 L 517.527 128.751 L 446.72 62.334 L 446.72 164.242 L 413.701 164.242 L 413.719 62.318 L 342.913 128.751 L 319.578 106.865 L 430.21 3.071 L 540.843 106.865 Z M 426.16 808.635 L 428.798 808.49 L 439.522 808.731 C 445.989 808.812 454.806 808.893 465.902 808.925 L 592.4 808.877 L 729.619 808.457 C 766.385 808.457 796.153 781.123 796.153 746.423 L 796.153 558.062 L 796.069 554.355 C 793.497 500.911 735.254 483.651 696.635 502.588 L 696.345 500.202 C 689.213 452.335 634.475 437.41 597.608 455.494 L 597.318 453.109 C 590.34 406.368 538.018 391.058 501.306 407.142 L 499.058 408.174 L 499.058 275.514 L 498.974 271.807 C 495.128 191.64 365.992 192.865 365.992 275.514 L 365.992 600.369 L 362.774 597.179 L 355.082 589.749 C 338.164 573.615 327.966 565.767 314.794 558.674 C 287.271 543.864 260.43 545.846 237.267 567.878 C 210.851 592.608 210.851 633.001 237.267 657.731 L 377.141 790.761 C 390.519 803.495 407.285 809.248 426.16 808.651 Z M 663.087 510.969 L 663.087 558.062 L 697.127 558.062 C 697.127 517.157 762.112 517.157 762.112 558.062 L 762.112 746.423 C 762.112 763.089 747.815 776.239 729.602 776.239 L 488.319 776.723 C 454.278 776.691 433.581 776.562 430.244 776.288 L 427.402 776.288 C 416.459 777.142 408.17 774.579 401.276 768.02 L 261.383 634.989 C 248.188 622.839 248.188 602.769 261.383 590.619 C 273.127 579.467 283.17 578.725 297.977 586.703 C 309.534 592.923 319.424 601.079 339.269 620.547 L 365.686 646.772 L 370.962 651.847 L 400.034 679.504 L 400.034 275.514 C 400.034 234.61 465.018 234.61 465.018 275.514 L 465.018 463.858 L 499.058 463.858 C 499.058 422.952 564.061 422.952 564.061 463.858 L 564.061 510.953 L 598.102 510.953 C 598.102 470.047 663.087 470.047 663.087 510.953 Z M 540.843 914.653 L 517.527 892.765 L 446.72 959.185 L 446.72 857.277 L 413.701 857.277 L 413.719 959.201 L 342.913 892.765 L 319.578 914.653 L 430.21 1018.448 L 540.843 914.653 Z" p-id="2777" fill="#13227a" style=""/>
</svg>