<?xml version="1.0" encoding="utf-8"?>
<svg t="1606487907824" class="icon" viewBox="0 0 1024 1024" version="1.1" p-id="19852" width="300" height="300" xmlns="http://www.w3.org/2000/svg">
  <g transform="matrix(1.022303, 0, 0, 1.022303, 4.138791, -25.995922)" style="">
    <path d="M 826.529 287.755 C 857.542 287.755 882.684 312.897 882.684 343.91 L 882.684 821.23 C 882.684 852.244 857.542 877.386 826.529 877.386 L 152.666 877.386 C 121.652 877.386 96.51 852.244 96.51 821.23 L 96.51 343.91 C 96.51 312.897 121.652 287.755 152.666 287.755 L 826.529 287.755 Z M 826.529 343.91 L 152.666 343.91 L 152.666 821.23 L 826.529 821.23 L 826.529 343.91 Z" fill="#00ffff" p-id="19853" style=""/>
    <path d="M 484.207 655.797 L 736.119 447.18 L 870.33 568.756 L 832.593 610.31 L 734.435 521.417 L 494.988 719.813 L 232.069 621.205 L 113.357 710.267 L 96.51 665.119 L 222.973 557.861 Z" fill="#00ffff" p-id="19854" style=""/>
    <path d="M 358.587 418.764 C 409.035 418.764 440.564 473.376 415.34 517.065 C 403.634 537.341 382 549.831 358.587 549.831 C 308.139 549.831 276.61 495.22 301.833 451.532 C 313.54 431.255 335.174 418.764 358.587 418.764 Z" fill="#00ffff" p-id="19855" style=""/>
  </g>
  <path d="M 312.955 144.646 C 333.666 144.608 346.652 167.005 336.329 184.96 C 332.378 191.833 325.598 196.613 317.798 198.025 L 312.955 198.456 L 124.622 198.456 C 103.912 198.493 90.925 176.097 101.248 158.142 C 105.199 151.269 111.979 146.489 119.779 145.077 L 124.622 144.646 L 312.955 144.646 Z M 595.454 144.646 C 616.165 144.608 629.151 167.005 618.828 184.96 C 614.877 191.833 608.098 196.613 600.297 198.025 L 595.454 198.456 L 407.121 198.456 C 386.41 198.493 373.425 176.097 383.747 158.142 C 387.698 151.269 394.479 146.489 402.278 145.077 L 407.121 144.646 L 595.454 144.646 Z M 877.953 144.646 C 898.665 144.608 911.65 167.005 901.327 184.96 C 897.377 191.833 890.597 196.613 882.796 198.025 L 877.953 198.456 L 689.621 198.456 C 668.909 198.493 655.924 176.097 666.246 158.142 C 670.196 151.269 676.977 146.489 684.778 145.077 L 689.621 144.646 L 877.953 144.646 Z" fill="#00ffff" p-id="19856" style=""/>
</svg>