<?xml version="1.0" encoding="utf-8"?>
<svg t="1606487907824" class="icon" viewBox="0 0 1024 1024" version="1.1" p-id="19852" width="300" height="300" xmlns="http://www.w3.org/2000/svg">
  <defs/>
  <g transform="matrix(1.066873, 0, 0, 1.066873, -13.420265, -45.899929)" style="">
    <path d="M 826.529 287.755 C 857.542 287.755 882.684 312.897 882.684 343.91 L 882.684 821.23 C 882.684 852.244 857.542 877.386 826.529 877.386 L 152.666 877.386 C 121.652 877.386 96.51 852.244 96.51 821.23 L 96.51 343.91 C 96.51 312.897 121.652 287.755 152.666 287.755 L 826.529 287.755 Z M 826.529 343.91 L 152.666 343.91 L 152.666 821.23 L 826.529 821.23 L 826.529 343.91 Z" fill="#00ffff" p-id="19853" style=""/>
    <path d="M 484.207 655.797 L 736.119 447.18 L 870.33 568.756 L 832.593 610.31 L 734.435 521.417 L 494.988 719.813 L 232.069 621.205 L 113.357 710.267 L 96.51 665.119 L 222.973 557.861 Z" fill="#00ffff" p-id="19854" style=""/>
    <path d="M 358.587 418.764 C 409.035 418.764 440.564 473.376 415.34 517.065 C 403.634 537.341 382 549.831 358.587 549.831 C 308.139 549.831 276.61 495.22 301.833 451.532 C 313.54 431.255 335.174 418.764 358.587 418.764 Z" fill="#00ffff" p-id="19855" style=""/>
  </g>
  <path d="M 308.86 132.182 C 330.474 132.142 344.026 155.516 333.253 174.254 C 329.13 181.426 322.054 186.415 313.914 187.888 L 308.86 188.338 L 112.316 188.338 C 90.703 188.377 77.15 165.004 87.923 146.266 C 92.046 139.094 99.122 134.105 107.262 132.632 L 112.316 132.182 L 308.86 132.182 Z M 603.675 132.182 C 625.289 132.142 638.841 155.516 628.068 174.254 C 623.945 181.426 616.87 186.415 608.729 187.888 L 603.675 188.338 L 407.131 188.338 C 385.517 188.377 371.966 165.004 382.738 146.266 C 386.861 139.094 393.938 134.105 402.077 132.632 L 407.131 132.182 L 603.675 132.182 Z M 898.49 132.182 C 920.105 132.142 933.656 155.516 922.883 174.254 C 918.761 181.426 911.685 186.415 903.544 187.888 L 898.49 188.338 L 701.947 188.338 C 680.332 188.377 666.781 165.004 677.553 146.266 C 681.676 139.094 688.752 134.105 696.893 132.632 L 701.947 132.182 L 898.49 132.182 Z" fill="#00ffff" p-id="19856" style=""/>
</svg>