<?xml version="1.0" encoding="utf-8"?>
<svg t="1606812438614" class="icon" viewBox="0 0 1174 1024" version="1.1" p-id="34046" width="343.9453125" height="300" xmlns="http://www.w3.org/2000/svg">
  <path d="M 966.385 108.538 L 195.457 108.538 C 148.236 108.538 109.738 146.047 109.738 192.055 L 109.738 825.24 C 109.738 871.249 148.236 908.758 195.457 908.758 L 966.385 908.758 C 1013.609 908.758 1052.105 871.249 1052.105 825.24 L 1052.105 192.055 C 1052.105 146.047 1013.609 108.538 966.385 108.538 Z M 989.615 743.317 L 989.615 825.134 C 989.615 837.672 979.145 847.766 966.385 847.766 L 195.457 847.766 C 182.589 847.766 172.227 837.566 172.227 825.134 L 172.227 192.055 C 172.227 179.517 182.698 169.423 195.457 169.423 L 966.385 169.423 C 979.255 169.423 989.615 179.624 989.615 192.055 L 989.615 743.317 Z M 966.385 847.872" p-id="34047" fill="#00ffff"/>
  <path d="M 740.447 780.11 C 716.486 780.11 694.922 765.626 685.774 743.299 C 676.626 721.082 681.637 695.38 698.625 678.39 C 715.507 661.4 740.991 656.281 763.099 665.43 C 785.208 674.688 799.584 696.36 799.584 720.429 C 799.693 753.428 773.12 780.11 740.447 780.11 Z M 424.939 780.11 C 400.98 780.11 379.415 765.626 370.267 743.299 C 361.119 721.082 366.128 695.38 383.118 678.39 C 399.999 661.4 425.483 656.281 447.592 665.43 C 469.7 674.688 484.076 696.36 484.076 720.429 C 484.076 753.428 457.611 780.11 424.939 780.11 Z M 523.5 720.538 C 523.5 741.775 534.828 761.487 553.124 772.16 C 571.421 782.833 593.965 782.833 612.262 772.16 C 630.558 761.487 641.884 741.883 641.884 720.538 C 641.884 687.647 615.419 660.964 582.747 660.964 C 550.075 660.964 523.5 687.647 523.5 720.538 Z" p-id="34048" fill="#00ffff"/>
  <circle style="fill: rgb(255, 255, 255);" cx="740.994" cy="720.379" r="32.479"/>
  <circle style="fill: rgb(255, 255, 255);" cx="425.326" cy="720.836" r="32.479"/>
</svg>