<?xml version="1.0" encoding="utf-8"?>
<svg t="1606812438614" class="icon" viewBox="0 0 1174 1024" version="1.1" p-id="34046" width="343.9453125" height="300" xmlns="http://www.w3.org/2000/svg">
  <defs/>
  <path d="M 975.385 112.538 L 204.457 112.538 C 157.236 112.538 118.738 150.047 118.738 196.055 L 118.738 829.24 C 118.738 875.249 157.236 912.758 204.457 912.758 L 975.385 912.758 C 1022.609 912.758 1061.105 875.249 1061.105 829.24 L 1061.105 196.055 C 1061.105 150.047 1022.609 112.538 975.385 112.538 Z M 998.615 747.317 L 998.615 829.134 C 998.615 841.672 988.145 851.766 975.385 851.766 L 204.457 851.766 C 191.589 851.766 181.227 841.566 181.227 829.134 L 181.227 196.055 C 181.227 183.517 191.698 173.423 204.457 173.423 L 975.385 173.423 C 988.255 173.423 998.615 183.624 998.615 196.055 L 998.615 747.317 Z M 975.385 851.872" p-id="34047" fill="#13227a" style=""/>
  <path d="M 749.447 784.11 C 725.486 784.11 703.922 769.626 694.774 747.299 C 685.626 725.082 690.637 699.38 707.625 682.39 C 724.507 665.4 749.991 660.281 772.099 669.43 C 794.208 678.688 808.584 700.36 808.584 724.429 C 808.693 757.428 782.12 784.11 749.447 784.11 Z M 433.939 784.11 C 409.98 784.11 388.415 769.626 379.267 747.299 C 370.119 725.082 375.128 699.38 392.118 682.39 C 408.999 665.4 434.483 660.281 456.592 669.43 C 478.7 678.688 493.076 700.36 493.076 724.429 C 493.076 757.428 466.611 784.11 433.939 784.11 Z M 532.5 724.538 C 532.5 745.775 543.828 765.487 562.124 776.16 C 580.421 786.833 602.965 786.833 621.262 776.16 C 639.558 765.487 650.884 745.883 650.884 724.538 C 650.884 691.647 624.419 664.964 591.747 664.964 C 559.075 664.964 532.5 691.647 532.5 724.538 Z" p-id="34048" fill="#13227a" style=""/>
  <circle style="fill: rgb(255, 255, 255);" cx="749.994" cy="724.379" r="32.479"/>
  <circle style="fill: rgb(255, 255, 255);" cx="434.326" cy="724.836" r="32.479"/>
</svg>