<?xml version="1.0" encoding="utf-8"?>
<svg t="1606487907824" class="icon" viewBox="0 0 1024 1024" version="1.1" p-id="19852" width="300" height="300" xmlns="http://www.w3.org/2000/svg">
  <g transform="matrix(1.292673, 0, 0, 1.292673, -120.853432, -164.370087)" style="">
    <path d="M 826.529 287.755 C 857.542 287.755 882.684 312.897 882.684 343.91 L 882.684 821.23 C 882.684 852.244 857.542 877.386 826.529 877.386 L 152.666 877.386 C 121.652 877.386 96.51 852.244 96.51 821.23 L 96.51 343.91 C 96.51 312.897 121.652 287.755 152.666 287.755 L 826.529 287.755 Z M 826.529 343.91 L 152.666 343.91 L 152.666 821.23 L 826.529 821.23 L 826.529 343.91 Z" fill="#00ffff" p-id="19853" style=""/>
    <path d="M 484.207 655.797 L 736.119 447.18 L 870.33 568.756 L 832.593 610.31 L 734.435 521.417 L 494.988 719.813 L 232.069 621.205 L 113.357 710.267 L 96.51 665.119 L 222.973 557.861 Z" fill="#00ffff" p-id="19854" style=""/>
    <path d="M 358.587 418.764 C 409.035 418.764 440.564 473.376 415.34 517.065 C 403.634 537.341 382 549.831 358.587 549.831 C 308.139 549.831 276.61 495.22 301.833 451.532 C 313.54 431.255 335.174 418.764 358.587 418.764 Z" fill="#00ffff" p-id="19855" style=""/>
  </g>
  <path d="M 273.627 51.402 C 299.815 51.353 316.235 79.674 303.183 102.377 C 298.187 111.068 289.614 117.113 279.751 118.898 L 273.627 119.443 L 35.485 119.443 C 9.298 119.49 -7.124 91.171 5.93 68.467 C 10.925 59.776 19.499 53.733 29.361 51.947 L 35.485 51.402 L 273.627 51.402 Z M 630.839 51.402 C 657.027 51.353 673.447 79.674 660.395 102.377 C 655.399 111.068 646.827 117.113 636.964 118.898 L 630.839 119.443 L 392.697 119.443 C 366.509 119.49 350.089 91.171 363.141 68.467 C 368.137 59.776 376.712 53.733 386.574 51.947 L 392.697 51.402 L 630.839 51.402 Z M 988.052 51.402 C 1014.241 51.353 1030.66 79.674 1017.607 102.377 C 1012.613 111.068 1004.039 117.113 994.175 118.898 L 988.052 119.443 L 749.911 119.443 C 723.721 119.49 707.301 91.171 720.354 68.467 C 725.348 59.776 733.923 53.733 743.787 51.947 L 749.911 51.402 L 988.052 51.402 Z" fill="#00ffff" p-id="19856" style=""/>
</svg>