<?xml version="1.0" encoding="utf-8"?>
<svg t="1606812438614" class="icon" viewBox="0 0 1174 1024" version="1.1" p-id="34046" width="343.9453125" height="300" xmlns="http://www.w3.org/2000/svg">
  <path d="M 1065.089 15.091 L 109.014 15.091 C 50.452 15.091 2.709 61.609 2.709 118.666 L 2.709 903.917 C 2.709 960.975 50.452 1007.492 109.014 1007.492 L 1065.089 1007.492 C 1123.653 1007.492 1171.394 960.975 1171.394 903.917 L 1171.394 118.666 C 1171.394 61.609 1123.653 15.091 1065.089 15.091 Z M 1093.898 802.319 L 1093.898 903.785 C 1093.898 919.334 1080.912 931.852 1065.089 931.852 L 109.014 931.852 C 93.056 931.852 80.205 919.203 80.205 903.785 L 80.205 118.666 C 80.205 103.117 93.19 90.599 109.014 90.599 L 1065.089 90.599 C 1081.049 90.599 1093.898 103.249 1093.898 118.666 L 1093.898 802.319 Z M 1065.089 931.984" p-id="34047" fill="#00ffff" style=""/>
  <path d="M 784.889 847.949 C 755.173 847.949 728.431 829.986 717.085 802.297 C 705.741 774.744 711.955 742.869 733.022 721.799 C 753.959 700.729 785.563 694.38 812.98 705.727 C 840.4 717.208 858.228 744.085 858.228 773.934 C 858.364 814.858 825.408 847.949 784.889 847.949 Z M 393.608 847.949 C 363.896 847.949 337.151 829.986 325.807 802.297 C 314.461 774.744 320.673 742.869 341.744 721.799 C 362.679 700.729 394.283 694.38 421.702 705.727 C 449.119 717.208 466.947 744.085 466.947 773.934 C 466.947 814.858 434.126 847.949 393.608 847.949 Z M 515.84 774.07 C 515.84 800.407 529.888 824.853 552.579 838.089 C 575.269 851.325 603.228 851.325 625.919 838.089 C 648.608 824.853 662.655 800.54 662.655 774.07 C 662.655 733.279 629.834 700.188 589.316 700.188 C 548.797 700.188 515.84 733.279 515.84 774.07 Z" p-id="34048" fill="#00ffff" style=""/>
  <circle style="fill: rgb(255, 255, 255);" cx="785.567" cy="773.872" r="40.279"/>
  <circle style="fill: rgb(255, 255, 255);" cx="394.088" cy="774.439" r="40.279"/>
</svg>