<?xml version="1.0" encoding="utf-8"?>
<svg t="1606479393532" class="icon" viewBox="0 0 1024 1024" version="1.1" p-id="9482" width="300" height="300" xmlns="http://www.w3.org/2000/svg">
  <path d="M 906.087 1.983 L 118.101 1.983 C 53.992 1.983 1.953 54.022 1.953 118.133 L 1.953 906.118 C 1.953 970.228 53.992 1022.266 118.101 1022.266 L 906.087 1022.266 C 970.197 1022.266 1022.236 970.228 1022.236 906.118 L 1022.236 118.133 C 1022.236 54.022 970.197 1.983 906.087 1.983 Z M 131.766 61.197 L 892.423 61.197 C 931.368 61.197 963.025 92.851 963.025 131.796 L 963.025 341.776 L 61.165 341.776 L 61.165 131.796 C 61.165 92.851 92.821 61.197 131.766 61.197 Z M 380.005 400.987 L 652.724 400.987 L 652.724 652.529 L 380.005 652.529 L 380.005 400.987 Z M 320.791 652.414 L 61.165 652.414 L 61.165 400.987 L 320.791 400.987 L 320.791 652.414 Z M 711.938 400.987 L 963.026 400.987 L 963.026 652.529 L 711.938 652.529 L 711.938 400.987 Z M 892.423 963.054 L 131.766 963.054 C 92.822 963.054 61.164 931.398 61.164 892.454 L 61.164 711.628 L 320.791 711.628 L 320.791 963.054 L 380.005 963.054 L 380.005 711.628 L 652.724 711.628 L 652.724 963.054 L 711.937 963.054 L 711.937 711.628 L 963.026 711.628 L 963.026 892.454 C 963.026 931.398 931.369 963.054 892.424 963.054 Z" fill="#4eb3ff" p-id="9483" style=""/>
</svg>