<?xml version="1.0" encoding="utf-8"?>
<svg t="1606479393532" class="icon" viewBox="0 0 1024 1024" version="1.1" p-id="9482" width="300" height="300" xmlns="http://www.w3.org/2000/svg">
  <defs/>
  <path d="M 824.271 91.225 L 184.188 91.225 C 132.111 91.225 89.84 133.496 89.84 185.573 L 89.84 825.656 C 89.84 877.733 132.111 920.004 184.188 920.004 L 824.271 920.004 C 876.348 920.004 918.619 877.733 918.619 825.656 L 918.619 185.573 C 918.619 133.496 876.348 91.225 824.271 91.225 Z M 195.288 139.324 L 813.172 139.324 C 844.806 139.324 870.521 165.038 870.521 196.672 L 870.521 367.239 L 137.939 367.239 L 137.939 196.672 C 137.939 165.038 163.653 139.324 195.288 139.324 Z M 396.933 415.337 L 618.464 415.337 L 618.464 619.665 L 396.933 619.665 L 396.933 415.337 Z M 348.833 619.572 L 137.939 619.572 L 137.939 415.337 L 348.833 415.337 L 348.833 619.572 Z M 666.563 415.337 L 870.522 415.337 L 870.522 619.665 L 666.563 619.665 L 666.563 415.337 Z M 813.172 871.905 L 195.288 871.905 C 163.654 871.905 137.938 846.191 137.938 814.557 L 137.938 667.671 L 348.833 667.671 L 348.833 871.905 L 396.933 871.905 L 396.933 667.671 L 618.464 667.671 L 618.464 871.905 L 666.562 871.905 L 666.562 667.671 L 870.522 667.671 L 870.522 814.557 C 870.522 846.191 844.807 871.905 813.173 871.905 Z" fill="#4eb3ff" p-id="9483" style=""/>
</svg>