<?xml version="1.0" encoding="utf-8"?>
<svg t="1606479999101" class="icon" viewBox="0 0 1024 1024" version="1.1" p-id="12134" width="300" height="300" xmlns="http://www.w3.org/2000/svg">
  <defs/>
  <path d="M 401.024 83.946 C 401.024 66.617 386.928 52.52 369.599 52.52 L 84.884 52.52 C 67.555 52.52 53.458 66.617 53.458 83.946 L 53.458 940.516 C 53.458 957.844 67.555 971.941 84.884 971.941 L 941.453 971.941 C 958.782 971.941 972.879 957.844 972.879 940.516 L 972.879 146.797 C 972.879 129.468 958.782 115.371 941.453 115.371 L 432.45 115.371 C 415.121 115.371 401.024 101.275 401.024 83.946 Z M 624.415 209.648 L 624.415 272.499 C 624.415 289.828 610.318 303.924 592.989 303.924 L 432.45 303.924 C 415.121 303.924 401.024 289.828 401.024 272.499 L 401.024 209.648 C 401.024 192.319 415.121 178.222 432.45 178.222 L 592.989 178.222 C 610.318 178.222 624.415 192.319 624.415 209.648 Z M 877.704 908.192 L 148.632 908.192 C 131.303 908.192 117.207 894.096 117.207 876.767 L 117.207 147.695 C 117.207 130.366 131.303 116.269 148.632 116.269 L 305.85 116.269 C 323.179 116.269 337.275 130.366 337.275 147.695 L 337.275 336.248 C 337.275 353.577 351.372 367.673 368.701 367.673 L 877.704 367.673 C 895.033 367.673 909.13 381.77 909.13 399.099 L 909.13 876.767 C 909.13 894.096 895.033 908.192 877.704 908.192 Z M 687.266 272.499 L 687.266 209.648 C 687.266 192.319 701.362 178.222 718.691 178.222 L 878.602 178.222 C 895.931 178.222 910.028 192.319 910.028 209.648 L 910.028 272.499 C 910.028 289.828 895.931 303.924 878.602 303.924 L 718.691 303.924 C 701.362 303.924 687.266 289.828 687.266 272.499 Z" p-id="12135" fill="#d4237a" style=""/>
  <path d="M 396.804 771.536 L 394.29 771.536 C 375.076 773.062 367.623 765.52 372.113 748.999 C 372.113 748.91 372.203 748.82 372.203 748.73 L 410.452 531.625 C 410.811 529.739 412.427 528.303 414.402 528.303 L 446.546 528.303 C 446.816 528.303 446.995 528.303 447.265 528.213 C 466.569 524.621 475.637 535.216 474.38 559.908 C 474.291 562.152 476.086 564.128 478.331 564.128 L 482.371 564.128 C 484.436 564.128 486.142 562.511 486.322 560.536 L 490.901 511.153 C 491.081 508.819 489.285 506.754 486.951 506.754 L 482.192 506.754 C 481.204 506.754 480.306 507.113 479.588 507.741 C 475.099 511.782 470.43 513.398 465.491 512.769 L 319.767 512.769 C 319.497 512.769 319.318 512.769 319.048 512.859 C 315.098 513.577 312.494 513.129 311.237 511.602 C 309.531 510.974 308.184 509.986 307.107 508.46 C 306.389 507.382 305.131 506.754 303.874 506.754 L 299.565 506.754 C 297.769 506.754 296.153 507.921 295.704 509.717 L 281.877 559.1 C 281.158 561.614 283.044 564.217 285.737 564.217 L 290.496 564.217 C 292.292 564.217 293.908 562.96 294.357 561.254 C 301.001 535.665 313.482 524.711 331.798 528.303 C 332.068 528.392 332.247 528.392 332.517 528.392 L 364.391 528.392 C 366.905 528.392 368.791 530.637 368.342 533.061 L 330.272 748.999 C 327.488 764.982 318.151 772.524 302.348 771.716 L 294.986 771.716 C 293.01 771.716 291.394 773.152 291.035 775.038 L 290.317 778.988 C 289.868 781.413 291.753 783.657 294.267 783.657 L 396.086 783.657 C 398.061 783.657 399.677 782.221 400.037 780.335 L 400.755 776.385 C 401.204 773.781 399.318 771.536 396.804 771.536 Z M 556.625 762.108 C 554.74 763.186 553.034 763.635 551.687 763.276 C 551.328 763.186 551.059 763.186 550.699 763.186 C 546.21 763.545 545.222 758.786 547.736 748.91 C 547.736 748.82 547.736 748.73 547.826 748.64 L 557.882 691.625 C 557.882 691.536 557.882 691.356 557.972 691.266 C 559.858 670.795 545.492 658.494 514.695 654.454 C 514.425 654.454 514.156 654.364 513.797 654.454 C 491.44 656.07 473.752 662.085 460.912 672.321 C 453.101 678.427 448.881 686.508 448.432 696.564 C 448.252 699.347 451.036 701.412 453.639 700.514 L 482.551 691.087 C 484.077 690.548 485.155 689.201 485.334 687.495 C 486.322 674.297 492.697 667.293 504.459 666.305 L 505.447 666.305 C 515.862 668.011 520.89 674.656 520.531 686.238 C 520.531 686.418 520.531 686.597 520.441 686.867 L 518.645 696.923 C 518.466 698 517.837 698.898 517.029 699.527 C 507.153 706.261 494.223 711.917 478.151 716.497 C 464.683 720.537 455.615 724.488 450.946 728.438 C 443.314 735.621 438.645 743.971 436.939 753.489 C 434.335 772.614 444.122 782.58 466.299 783.388 C 478.062 783.388 490.093 779.168 502.125 770.638 C 504.279 769.112 507.422 770.099 508.23 772.614 C 510.205 779.078 516.042 782.58 525.739 783.298 L 526.367 783.298 C 537.501 782.49 549.083 777.552 561.025 768.663 C 562.551 767.496 563.09 765.431 562.192 763.725 C 561.205 761.749 558.601 761.031 556.625 762.108 Z M 514.425 720.717 L 508.41 754.656 C 508.23 755.554 507.781 756.362 507.153 756.901 C 498.084 765.071 490.991 768.663 485.783 767.945 C 475.548 767.136 471.597 760.402 473.842 747.653 C 475.099 735.801 482.91 727.451 497.096 722.692 C 497.276 722.602 497.456 722.602 497.635 722.512 C 501.676 720.447 505.267 718.472 508.499 716.676 C 511.462 714.88 515.054 717.394 514.425 720.717 Z M 709.802 654.454 L 709.264 654.454 C 694.808 654.543 679.005 660.828 661.856 673.309 C 658.893 675.464 654.942 672.95 655.571 669.358 L 670.835 582.714 C 671.284 580.289 669.398 578.045 666.884 578.045 L 662.664 578.045 C 662.305 578.045 661.946 578.134 661.587 578.224 L 615.436 591.692 C 613.999 592.141 612.922 593.309 612.653 594.835 L 612.383 596.541 C 612.024 598.337 613.012 600.132 614.628 600.851 L 619.387 603.095 C 619.476 603.185 619.656 603.185 619.746 603.275 C 627.108 605.699 629.533 611.984 626.929 622.22 C 626.929 622.31 626.929 622.4 626.839 622.4 L 600.262 772.703 C 599.903 774.768 601.25 776.744 603.225 777.282 C 613.91 779.886 623.876 781.592 633.034 782.311 L 633.393 782.311 C 642.821 782.311 651.351 782.67 659.073 783.478 L 659.611 783.478 C 706.57 781.772 736.11 758.427 748.141 713.354 C 748.231 713.085 748.231 712.815 748.231 712.636 C 751.194 677.17 738.444 657.776 709.802 654.454 Z M 707.647 725.924 C 707.647 726.104 707.558 726.283 707.558 726.373 C 700.554 756.542 686.368 771.985 664.729 772.703 C 645.515 773.511 638.781 759.594 644.617 730.862 L 650.902 695.037 C 651.082 694.229 651.441 693.511 651.979 692.972 C 660.509 684.083 670.116 679.235 680.891 678.337 L 681.789 678.337 C 702.619 680.941 711.149 696.833 707.647 725.924 Z" p-id="12136" fill="#d4237a" style=""/>
</svg>