<?xml version="1.0" encoding="utf-8"?>
<svg t="1606479999101" class="icon" viewBox="0 0 1024 1024" version="1.1" p-id="12134" width="300" height="300" xmlns="http://www.w3.org/2000/svg">
  <path d="M 387.766 38.255 C 387.766 19.068 372.158 3.459 352.972 3.459 L 37.719 3.459 C 18.533 3.459 2.923 19.068 2.923 38.255 L 2.923 986.695 C 2.923 1005.881 18.533 1021.49 37.719 1021.49 L 986.158 1021.49 C 1005.346 1021.49 1020.954 1005.881 1020.954 986.695 L 1020.954 107.847 C 1020.954 88.659 1005.346 73.049 986.158 73.049 L 422.563 73.049 C 403.375 73.049 387.766 57.442 387.766 38.255 Z M 635.117 177.44 L 635.117 247.031 C 635.117 266.218 619.507 281.826 600.321 281.826 L 422.563 281.826 C 403.375 281.826 387.766 266.218 387.766 247.031 L 387.766 177.44 C 387.766 158.251 403.375 142.642 422.563 142.642 L 600.321 142.642 C 619.507 142.642 635.117 158.251 635.117 177.44 Z M 915.572 950.904 L 108.305 950.904 C 89.117 950.904 73.509 935.296 73.509 916.108 L 73.509 108.841 C 73.509 89.654 89.117 74.045 108.305 74.045 L 282.385 74.045 C 301.573 74.045 317.18 89.654 317.18 108.841 L 317.18 317.617 C 317.18 336.804 332.789 352.412 351.977 352.412 L 915.572 352.412 C 934.759 352.412 950.368 368.023 950.368 387.21 L 950.368 916.108 C 950.368 935.296 934.759 950.904 915.572 950.904 Z M 704.709 247.031 L 704.709 177.44 C 704.709 158.251 720.317 142.642 739.504 142.642 L 916.566 142.642 C 935.754 142.642 951.364 158.251 951.364 177.44 L 951.364 247.031 C 951.364 266.218 935.754 281.826 916.566 281.826 L 739.504 281.826 C 720.317 281.826 704.709 266.218 704.709 247.031 Z" p-id="12135" fill="#00ffff" style=""/>
  <path d="M 401.652 743.196 L 399.366 743.196 C 381.89 744.584 375.111 737.724 379.195 722.698 C 379.195 722.617 379.277 722.535 379.277 722.453 L 414.065 524.991 C 414.392 523.276 415.862 521.97 417.658 521.97 L 446.894 521.97 C 447.139 521.97 447.302 521.97 447.548 521.888 C 465.105 518.621 473.353 528.257 472.21 550.715 C 472.129 552.756 473.761 554.554 475.803 554.554 L 479.478 554.554 C 481.356 554.554 482.907 553.083 483.071 551.287 L 487.236 506.372 C 487.399 504.249 485.766 502.371 483.643 502.371 L 479.315 502.371 C 478.416 502.371 477.599 502.697 476.946 503.268 C 472.863 506.944 468.617 508.413 464.125 507.841 L 331.585 507.841 C 331.34 507.841 331.177 507.841 330.931 507.923 C 327.339 508.576 324.97 508.169 323.827 506.78 C 322.275 506.209 321.05 505.31 320.071 503.922 C 319.418 502.942 318.274 502.371 317.13 502.371 L 313.211 502.371 C 311.578 502.371 310.108 503.432 309.699 505.065 L 297.123 549.98 C 296.47 552.267 298.185 554.635 300.634 554.635 L 304.963 554.635 C 306.596 554.635 308.066 553.491 308.474 551.94 C 314.517 528.666 325.869 518.703 342.528 521.97 C 342.773 522.051 342.936 522.051 343.182 522.051 L 372.172 522.051 C 374.458 522.051 376.174 524.093 375.765 526.297 L 341.14 722.698 C 338.608 737.235 330.116 744.095 315.742 743.36 L 309.046 743.36 C 307.249 743.36 305.779 744.666 305.453 746.381 L 304.8 749.974 C 304.391 752.179 306.106 754.22 308.392 754.22 L 400.999 754.22 C 402.796 754.22 404.265 752.914 404.593 751.199 L 405.246 747.606 C 405.654 745.238 403.939 743.196 401.652 743.196 Z M 547.013 734.621 C 545.299 735.602 543.747 736.01 542.522 735.683 C 542.196 735.602 541.951 735.602 541.623 735.602 C 537.541 735.928 536.642 731.6 538.929 722.617 C 538.929 722.535 538.929 722.453 539.01 722.372 L 548.157 670.515 C 548.157 670.434 548.157 670.27 548.238 670.189 C 549.954 651.57 536.888 640.382 508.877 636.707 C 508.631 636.707 508.387 636.625 508.06 636.707 C 487.726 638.177 471.638 643.648 459.96 652.958 C 452.856 658.511 449.018 665.861 448.609 675.007 C 448.445 677.538 450.978 679.417 453.345 678.6 L 479.641 670.026 C 481.029 669.536 482.01 668.31 482.172 666.759 C 483.071 654.755 488.869 648.385 499.567 647.486 L 500.466 647.486 C 509.938 649.038 514.511 655.081 514.185 665.615 C 514.185 665.779 514.185 665.942 514.103 666.188 L 512.47 675.334 C 512.307 676.313 511.735 677.13 511 677.702 C 502.017 683.827 490.257 688.971 475.639 693.137 C 463.39 696.811 455.142 700.405 450.896 703.997 C 443.954 710.53 439.708 718.125 438.156 726.782 C 435.788 744.176 444.689 753.241 464.86 753.976 C 475.558 753.976 486.501 750.138 497.444 742.379 C 499.403 740.991 502.262 741.889 502.997 744.176 C 504.793 750.056 510.102 753.241 518.922 753.894 L 519.493 753.894 C 529.62 753.159 540.154 748.668 551.015 740.583 C 552.403 739.522 552.893 737.643 552.077 736.092 C 551.179 734.295 548.81 733.641 547.013 734.621 Z M 508.631 696.975 L 503.161 727.843 C 502.997 728.66 502.589 729.395 502.017 729.885 C 493.769 737.316 487.318 740.583 482.581 739.93 C 473.272 739.194 469.678 733.069 471.72 721.474 C 472.863 710.694 479.968 703.1 492.87 698.771 C 493.034 698.689 493.198 698.689 493.36 698.608 C 497.036 696.729 500.302 694.933 503.242 693.3 C 505.936 691.666 509.203 693.953 508.631 696.975 Z M 686.331 636.707 L 685.842 636.707 C 672.694 636.788 658.321 642.504 642.723 653.856 C 640.028 655.816 636.435 653.53 637.007 650.263 L 650.89 571.458 C 651.298 569.252 649.583 567.211 647.296 567.211 L 643.458 567.211 C 643.132 567.211 642.805 567.292 642.479 567.374 L 600.503 579.624 C 599.196 580.032 598.217 581.094 597.972 582.482 L 597.726 584.034 C 597.4 585.667 598.299 587.3 599.768 587.954 L 604.097 589.995 C 604.178 590.077 604.341 590.077 604.423 590.159 C 611.119 592.363 613.325 598.08 610.956 607.39 C 610.956 607.471 610.956 607.553 610.875 607.553 L 586.702 744.257 C 586.376 746.136 587.601 747.933 589.397 748.422 C 599.115 750.791 608.18 752.342 616.509 752.996 L 616.836 752.996 C 625.411 752.996 633.169 753.323 640.192 754.058 L 640.681 754.058 C 683.392 752.506 710.259 731.273 721.202 690.278 C 721.283 690.033 721.283 689.788 721.283 689.625 C 723.978 657.368 712.382 639.729 686.331 636.707 Z M 684.371 701.711 C 684.371 701.875 684.29 702.037 684.29 702.119 C 677.92 729.559 665.018 743.604 645.336 744.257 C 627.861 744.992 621.736 732.335 627.044 706.202 L 632.76 673.618 C 632.924 672.883 633.251 672.23 633.74 671.74 C 641.498 663.655 650.236 659.246 660.036 658.429 L 660.853 658.429 C 679.798 660.798 687.556 675.252 684.371 701.711 Z" p-id="12136" fill="#00ffff" style=""/>
</svg>