<?xml version="1.0" encoding="UTF-8"?>
<svg width="290px" height="290px" viewBox="0 0 290 290" version="1.1" xmlns="http://www.w3.org/2000/svg" xmlns:xlink="http://www.w3.org/1999/xlink">
    <!-- Generator: Sketch 60 (88103) - https://sketch.com -->
    <title>成功</title>
    <desc>Created with Sketch.</desc>
    <defs>
        <filter x="-5.4%" y="-5.4%" width="110.8%" height="110.8%" filterUnits="objectBoundingBox" id="filter-1">
            <feGaussianBlur stdDeviation="3.57142857" in="SourceGraphic"></feGaussianBlur>
        </filter>
        <filter x="-1.7%" y="-1.7%" width="103.4%" height="103.4%" filterUnits="objectBoundingBox" id="filter-2">
            <feGaussianBlur stdDeviation="1.42857143" in="SourceGraphic"></feGaussianBlur>
        </filter>
    </defs>
    <g id="Page-1" stroke="none" stroke-width="1" fill="none" fill-rule="evenodd">
        <g id="实名认证-认证失败备份" transform="translate(-227.000000, -317.000000)">
            <g id="成功" transform="translate(231.000000, 321.000000)">
                <circle id="Oval" stroke="#C06359" fill-opacity="0.101449275" fill="#C06359" opacity="0.4" cx="141" cy="141" r="80"></circle>
                <g id="Group-4" transform="translate(141.346717, 141.346717) rotate(-315.000000) translate(-141.346717, -141.346717) translate(96.346717, 96.346717)" fill="#C06359">
                    <path d="M45,-1.12265752e-12 C47.4852814,-1.12311406e-12 49.5,2.01471863 49.5,4.5 L49.5,40.5 L85.5,40.5 C87.9852814,40.5 90,42.5147186 90,45 C90,47.4852814 87.9852814,49.5 85.5,49.5 L49.5,49.5 L49.5,85.5 C49.5,87.9852814 47.4852814,90 45,90 C42.5147186,90 40.5,87.9852814 40.5,85.5 L40.5,49.5 L4.5,49.5 C2.01471863,49.5 -1.19340744e-12,47.4852814 -1.1937118e-12,45 C-1.19401616e-12,42.5147186 2.01471863,40.5 4.5,40.5 L40.5,40.5 L40.5,4.5 C40.5,2.01471863 42.5147186,-1.12220098e-12 45,-1.12265752e-12 Z" id="Combined-Shape"></path>
                </g>
                <circle id="Oval" stroke="#C06359" opacity="0.347826087" filter="url(#filter-1)" cx="141" cy="141" r="104"></circle>
                <circle id="Oval" stroke="#C06359" opacity="0.166666667" filter="url(#filter-2)" cx="141" cy="141" r="141"></circle>
            </g>
        </g>
    </g>
</svg>