<?xml version="1.0" encoding="UTF-8"?>
<svg width="360px" height="309px" viewBox="0 0 360 309" version="1.1" xmlns="http://www.w3.org/2000/svg" xmlns:xlink="http://www.w3.org/1999/xlink" style="background: #FFFFFF;">
    <!-- Generator: Sketch 60 (88103) - https://sketch.com -->
    <title>状态:60/异常态/空状态</title>
    <desc>Created with Sketch.</desc>
    <defs>
        <linearGradient x1="50%" y1="100%" x2="50%" y2="0%" id="linearGradient-1">
            <stop stop-color="#B4B8BF" stop-opacity="0" offset="0%"></stop>
            <stop stop-color="#B4B8BF" offset="100%"></stop>
        </linearGradient>
        <linearGradient x1="50%" y1="100%" x2="50%" y2="0%" id="linearGradient-2">
            <stop stop-color="#B4B8BF" stop-opacity="0" offset="0%"></stop>
            <stop stop-color="#B4B8BF" offset="100%"></stop>
        </linearGradient>
        <linearGradient x1="50%" y1="100%" x2="50%" y2="0%" id="linearGradient-3">
            <stop stop-color="#B4B8BF" stop-opacity="0" offset="0%"></stop>
            <stop stop-color="#B4B8BF" offset="100%"></stop>
        </linearGradient>
        <linearGradient x1="50%" y1="100%" x2="50%" y2="0%" id="linearGradient-4">
            <stop stop-color="#B4B8BF" stop-opacity="0" offset="0%"></stop>
            <stop stop-color="#B4B8BF" offset="100%"></stop>
        </linearGradient>
        <linearGradient x1="100%" y1="49.8792597%" x2="0%" y2="49.8911111%" id="linearGradient-5">
            <stop stop-color="#B4B8BF" stop-opacity="0" offset="0%"></stop>
            <stop stop-color="#B4B8BF" stop-opacity="0.911806468" offset="91.1806468%"></stop>
            <stop stop-color="#B4B8BF" offset="100%"></stop>
        </linearGradient>
    </defs>
    <g id="状态:60/异常态/空状态" stroke="none" stroke-width="1" fill="none" fill-rule="evenodd">
        <rect fill="#FFFFFF" x="0" y="0" width="360" height="309"></rect>
        <g id="@子组件/background/default/gary/hill">
            <path d="M0,237.6 C44.6097098,219.428571 104.60971,210.342857 180,210.342857 C255.39029,210.342857 315.39029,219.428571 360,237.6" id="路径-19" fill="url(#linearGradient-1)" opacity="0.16"></path>
            <path d="M248.914286,160.971429 L284.326902,125.558813 C288.343723,121.541991 294.856277,121.541991 298.873098,125.558813 L334.285714,160.971429 L334.285714,160.971429" id="路径-22备份-2" fill="url(#linearGradient-2)" opacity="0.26"></path>
            <path d="M50.4,108 L78.0983303,80.3016697 C82.1151515,76.2848485 88.6277056,76.2848485 92.6445269,80.3016697 L120.342857,108 L120.342857,108" id="路径-22" fill="url(#linearGradient-3)" opacity="0.26"></path>
            <path d="M24.6857143,139.371429 L43.1269017,120.930241 C47.143723,116.91342 53.656277,116.91342 57.6730983,120.930241 L76.1142857,139.371429 L76.1142857,139.371429" id="路径-22备份" fill="url(#linearGradient-4)" opacity="0.26"></path>
        </g>
        <ellipse id="椭圆形备份-8" fill="url(#linearGradient-5)" opacity="0.16" cx="179.485714" cy="242.228571" rx="77.1428571" ry="3.6"></ellipse>
        <path d="M96.8826631,225.257143 C53.8495052,223.3589 33.8232521,218.324684 36.8039037,210.154495 C41.2748811,197.899212 251.30523,196.867603 280.472174,176.574233 C309.639119,156.280864 200.553453,136.203947 200.553453,118.802961 C200.553453,107.202304 227.193027,94.6870311 280.472174,81.2571429" id="路径-20" stroke="#E6E8ED" stroke-width="3.6" stroke-linecap="round" stroke-dasharray="7.199999999999999" transform="translate(160.971429, 153.257143) rotate(-4.000000) translate(-160.971429, -153.257143) "></path>
        <g id="objects/element/mail" transform="translate(125.000000, 107.000000)">
            <rect id="矩形" fill="#E6E8ED" x="0.342857143" y="0.885714286" width="108.514286" height="125.485714" rx="9.29032258"></rect>
            <rect id="矩形" fill="#F0F2F5" x="10.6285714" y="27.6285714" width="57.0857143" height="7.71428571" rx="3.85714286"></rect>
            <rect id="矩形备份" fill="#F0F2F5" x="10.6285714" y="44.6" width="57.0857143" height="7.71428571" rx="3.85714286"></rect>
            <rect id="矩形备份-2" fill="#F0F2F5" x="10.6285714" y="62.6" width="79.2" height="7.71428571" rx="3.85714286"></rect>
        </g>
        <g id="@子组件/objects/grayelement/paperairplaneobjects/grayelement/paperairplane" transform="translate(288.514286, 59.142857) scale(-1, 1) rotate(-29.000000) translate(-288.514286, -59.142857) translate(257.657143, 28.285714)">
            <path d="M36.5796505,53.4129159 L40.6997834,36.7031926 L6.31568654,5.12326062 C6.21629763,5.03197728 6.06172724,5.03854815 5.9704439,5.13793706 C5.8955018,5.2195337 5.88483792,5.34134133 5.94446159,5.43471879 L36.5796505,53.4129159 L36.5796505,53.4129159 Z" id="路径-17" fill="#C9CDD4"></path>
            <polygon id="路径-14" fill="#B4B8BF" points="29.5134347 45.6920698 37.529355 41.0303592 36.5796505 53.4129159"></polygon>
            <path d="M5.87607774,4.48616056 C6.08186072,4.31152788 6.39024854,4.33678019 6.56488123,4.54256317 L6.56488123,4.54256317 L6.58057994,4.56106582 L57.7492093,26.4974798 C58.1407917,26.6653497 58.3221465,27.1188754 58.1542766,27.5104578 C58.0836661,27.6751676 57.9579138,27.8101554 57.7986127,27.8922426 L40.8513841,36.6250735 C40.7603118,36.6720027 40.6496337,36.6571329 40.5741774,36.5878303 L9.68157994,8.21506582 L37.3627898,40.8340827 C37.3641636,40.8357016 37.3655162,40.8373382 37.3668473,40.8389922 C37.4526114,40.9513076 37.4319672,41.104634 37.3246655,41.18647 L37.3246655,41.18647 L16.52236,57.0517888 C16.3852861,57.1563311 16.225178,57.2265414 16.0554199,57.2565506 C15.4680592,57.3603817 14.9077375,56.9684036 14.8039063,56.3810429 L14.8039063,56.3810429 L5.71105164,4.94383282 C5.68081516,4.77278857 5.74364196,4.59854894 5.87607774,4.48616056 Z" id="形状结合" fill="#D7DAE0"></path>
        </g>
    </g>
</svg>