<?xml version="1.0" encoding="utf-8"?>
<svg width="40px" height="40px" viewBox="0 0 40 40" version="1.1" xmlns="http://www.w3.org/2000/svg">
  <title>删 除</title>
  <desc>Created with Sketch.</desc>
  <g id="Page-1" stroke="none" stroke-width="1" fill="none" fill-rule="evenodd" style="" transform="matrix(0.909662, 0, 0, 0.909662, 1.659914, 1.912021)">
    <g id="房屋登记-合租" transform="translate(-679.000000, -2682.000000)" fill="#ff480a" fill-rule="nonzero">
      <g id="删-除" transform="translate(679.000000, 2682.000000)">
        <path d="M31.0184606,33.9035004 C31.0184606,35.2232973 29.9441996,36.2975009 28.6245009,36.2975009 L11.375556,36.2975009 C10.0558082,36.2975009 8.98160457,35.2232482 8.98160457,33.9035004 L8.98160457,8.49052438 L31.0184606,8.49052438 L31.0184606,33.9035004 L31.0184606,33.9035004 Z M13.7695402,4.1936853 C13.7695402,3.91744871 13.9843989,3.70259693 14.2606368,3.70259693 L25.7700958,3.70259693 C26.0463324,3.70259693 26.2611842,3.91744748 26.2611842,4.1936853 L26.2611842,5.63620521 L13.7695402,5.63620521 L13.7695402,4.1936853 L13.7695402,4.1936853 Z M38.2003804,5.63620521 L29.1155075,5.63620521 L29.1155075,4.1936853 C29.1155075,2.35210801 27.6116527,0.848253211 25.7700754,0.848253211 L14.2606163,0.848253211 C12.419039,0.848253211 10.9151842,2.35210801 10.9151842,4.1936853 L10.9151842,5.63620521 L1.7996602,5.63620521 C1.00164364,5.63620521 0.357091181,6.28075767 0.357091181,7.07872512 C0.357091181,7.87669257 1.00164364,8.52124503 1.79961109,8.52124503 L6.09653201,8.52124503 L6.09653201,33.903529 C6.09653201,36.8193099 8.45979146,39.182553 11.3755151,39.182553 L28.62446,39.182553 C31.5401918,39.182553 33.9034431,36.8192936 33.9034431,33.903529 L33.9034431,8.49055303 L38.200364,8.49055303 C38.9983315,8.49055303 39.6428839,7.84604967 39.6428839,7.04803312 C39.6428839,6.25001657 38.9983315,5.6362093 38.200364,5.6362093 L38.2003804,5.63620521 Z M20.0000244,31.9699412 C20.7980409,31.9699412 21.4425443,31.3253888 21.4425443,30.5273722 L21.4425443,15.1814131 C21.4425443,14.3833966 20.7980409,13.7388932 20.0000244,13.7388932 C19.2020078,13.7388932 18.5575045,14.3833966 18.5575045,15.1814131 L18.5575045,30.5273722 C18.5575045,31.3253888 19.2020078,31.9699412 20.0000244,31.9699412 M13.2784764,31.9699412 C14.0764929,31.9699412 14.7209963,31.3253888 14.7209963,30.5273722 L14.7209963,15.1814131 C14.7209963,14.3833966 14.0764929,13.7388932 13.2784764,13.7388932 C12.4804598,13.7388932 11.8359565,14.3833966 11.8359565,15.1814131 L11.8359565,30.5273722 C11.8666494,31.3253888 12.5112009,31.9699412 13.2784764,31.9699412 M26.7215724,31.9699412 C27.5195398,31.9699412 28.1640923,31.3253888 28.1640923,30.5273722 L28.1640923,15.1814131 C28.1640923,14.3833966 27.5195398,13.7388932 26.7215724,13.7388932 C25.9236049,13.7388932 25.2790525,14.3833966 25.2790525,15.1814131 L25.2790525,30.5273722 C25.2790525,31.3253888 25.9235558,31.9699412 26.7215724,31.9699412" id="形状"/>
      </g>
    </g>
  </g>
</svg>