<?xml version="1.0" encoding="UTF-8"?>
<svg width="48px" height="48px" viewBox="0 0 48 48" version="1.1" xmlns="http://www.w3.org/2000/svg" xmlns:xlink="http://www.w3.org/1999/xlink">
    <!-- Generator: Sketch 51.3 (57544) - http://www.bohemiancoding.com/sketch -->
    <title>密码不可见</title>
    <desc>Created with Sketch.</desc>
    <defs></defs>
    <g id="密码不可见" stroke="none" stroke-width="1" fill="none" fill-rule="evenodd">
        <g id="显示密码" fill-rule="nonzero">
            <rect id="Rectangle-path" fill="#000000" opacity="0" x="0" y="0" width="48" height="48"></rect>
            <path d="M4.248,25.632 C3.77920441,25.1513411 3.53318706,24.4962858 3.56967283,23.8258597 C3.6061586,23.1554337 3.92181098,22.5309454 4.44,22.104 L16.56,11.16 C20.7836344,7.33776336 27.2163656,7.33776336 31.44,11.16 L43.56,22.104 L43.776,22.32 C44.2364495,22.8103001 44.4700234,23.471318 44.4198321,24.1420555 C44.3696409,24.8127929 44.0402912,25.4316873 43.512,25.848 L31.2,36.432 C27.0530299,39.9729285 20.9469701,39.9729285 16.8,36.432 L4.488,25.872 L4.248,25.632 Z M18.648,34.152 C21.6863094,36.7807857 26.1936906,36.7807857 29.232,34.152 L41.136,24 L29.424,13.44 C26.3440309,10.655552 21.6559691,10.655552 18.576,13.44 L6.864,24 L18.648,34.152 Z" id="Shape" fill="#333333"></path>
            <path d="M24,30.312 C21.4470343,30.312 19.1454501,28.7741306 18.1684724,26.4154978 C17.1914947,24.0568651 17.7315226,21.3419613 19.536742,19.536742 C21.3419613,17.7315226 24.0568651,17.1914947 26.4154978,18.1684724 C28.7741306,19.1454501 30.312,21.4470343 30.312,24 C30.312,27.4860213 27.4860213,30.312 24,30.312 Z M24,27.312 C25.3417202,27.3217229 26.5567419,26.5209737 27.0769471,25.2841657 C27.5971523,24.0473577 27.3197463,22.618889 26.3744383,21.6666809 C25.4291302,20.7144728 24.0027168,20.4266854 22.7621582,20.937882 C21.5215996,21.4490786 20.7120352,22.6582446 20.712,24 C20.7056043,24.8761827 21.0491921,25.7186772 21.6665063,26.3404974 C22.2838205,26.9623175 23.1237939,27.3120233 24,27.312 Z" id="Shape" fill="#333333"></path>
        </g>
    </g>
</svg>