<?xml version="1.0" encoding="UTF-8"?>
<svg width="48px" height="48px" viewBox="0 0 48 48" version="1.1" xmlns="http://www.w3.org/2000/svg" xmlns:xlink="http://www.w3.org/1999/xlink">
    <!-- Generator: Sketch 51.3 (57544) - http://www.bohemiancoding.com/sketch -->
    <title>密码可见</title>
    <desc>Created with Sketch.</desc>
    <defs></defs>
    <g id="密码可见" stroke="none" stroke-width="1" fill="none" fill-rule="evenodd">
        <g id="隐藏" fill-rule="nonzero">
            <rect id="Rectangle-path" fill="#000000" opacity="0" x="0" y="0" width="48" height="48"></rect>
            <path d="M37.317834,23.5476076 C35.4863969,24.6705959 33.4901369,25.5615604 31.3876611,26.189626 L32.6192761,32.1540875 C32.7798233,32.9287623 32.2813932,33.6866005 31.5048957,33.8471476 C31.4078095,33.8676777 31.3107713,33.8770314 31.2136851,33.8770314 C30.5491437,33.8770314 29.9518047,33.4103558 29.8118356,32.7327672 L28.5982667,26.8556997 C27.0976402,27.1266986 25.5588474,27.2672088 24.0009114,27.2672088 C22.326091,27.2672088 20.6734586,27.1048973 19.0666176,26.792716 L18.036923,32.6898363 C17.9137425,33.3860842 17.3089685,33.8770314 16.6257677,33.8770314 C16.5436474,33.8770314 16.4614791,33.8695485 16.3774881,33.8565013 C15.597249,33.7202257 15.0745475,32.9773054 15.2108231,32.1970664 L16.2777013,26.0869935 C14.0692864,25.3942383 11.9829121,24.4101281 10.0875579,23.171023 L8.24258752,28.2229129 C8.03167453,28.805334 7.48100789,29.1655697 6.89676398,29.1655697 C6.73247536,29.1655697 6.566364,29.1375567 6.40581684,29.0778372 C5.66102583,28.8071567 5.27834128,27.9839868 5.5508925,27.2410665 L7.69111733,21.3807122 C5.97676402,19.9219724 4.4843054,18.2239169 3.28289419,16.322997 C2.85914948,15.6547141 3.05888606,14.7680832 3.7290397,14.3462093 C4.39732261,13.9205938 5.28395348,14.1222011 5.70582745,14.7923548 C9.45218344,20.7189765 16.4633498,24.4000008 24.0009114,24.4000008 C31.5384729,24.4000008 38.5477686,20.7189285 42.2941725,14.7923068 C42.7160465,14.1222011 43.6026774,13.9205938 44.2709603,14.3461613 C44.9411139,14.7680353 45.1408026,15.6546661 44.7171058,16.322949 C43.3826372,18.4343976 41.689079,20.2955634 39.7312589,21.8564901 C39.7350542,21.8655095 39.7387678,21.8745872 39.7423987,21.8837228 L42.2754652,28.2677145 C42.5666758,29.0031998 42.2082628,29.8357234 41.4709547,30.1287567 C41.2973604,30.1978299 41.1181539,30.2295843 40.9426889,30.2295843 C40.3733629,30.2295843 39.8338726,29.8880079 39.6099125,29.3242462 L37.317834,23.5476076 Z" id="Combined-Shape" fill="#333333"></path>
        </g>
    </g>
</svg>