<?xml version="1.0" standalone="no"?>
<svg class="icon" viewBox="0 0 1024 1024" version="1.1" xmlns="http://www.w3.org/2000/svg" xmlns:xlink="http://www.w3.org/1999/xlink" width="200" height="200">
	<path
		d="M804.43 413.285l-258.228 98.715 258.14 98.715c65.75 25.363 103.75 45.601 113.914 60.801 10.074 15.201 15.201 30.401 15.201 45.601 0 40.563-7.687 63.364-23.067 68.314-15.289 5.125-30.667 7.599-45.955 7.599-15.466 0-30.754-3.801-46.043-11.399-15.377-7.599-33.228-18.999-53.644-34.201l-237.461-212.628 53.731 318.941c5.037 15.201 7.599 29.164 7.599 41.801 0 12.725 0 21.562 0 26.601 0 30.401-7.599 51.964-22.976 64.513-15.377 12.725-33.228 18.999-53.644 18.999-15.643 0-32.522-5.037-50.814-15.201-18.293-10.074-27.307-32.875-27.307-68.314 0-10.074 1.326-20.238 3.889-30.401 2.652-10.074 3.889-22.8 3.889-38.001l62.391-318.941-241.968 212.628c-15.643 10.162-32.522 20.238-50.814 30.401s-35.085 15.201-50.639 15.201c-15.643 0-31.197-5.037-46.837-15.201-15.643-10.074-23.419-30.401-23.419-60.801 0-20.238 7.599-38.001 22.8-53.201s50.55-32.875 106.314-53.201l258.405-98.626-258.228-98.715c-35.438-15.201-65.84-29.075-91.114-41.801-25.363-12.637-38.001-34.201-38.001-64.513 0-25.275 7.599-44.275 22.889-57.001 15.377-12.548 30.578-18.999 46.043-18.999 15.289 0 31.902 3.801 49.842 11.399 17.764 7.599 34.377 18.999 49.842 34.201l237.549 212.628-53.644-318.941c0-15.201-1.326-27.749-3.889-38.001-2.652-10.074-3.801-20.238-3.801-30.401 0-20.238 7.599-39.15 22.976-57.001 15.377-17.586 33.317-26.511 53.644-26.511 31.283 0 51.877 10.162 62.481 30.401 10.339 20.238 15.643 38.001 15.643 53.201 0 10.162 0 21.562 0 34.201 0 12.725-2.652 24.037-7.866 34.201l-62.391 318.852 241.879-212.628c20.769-20.238 38.883-32.875 54.615-38.001 15.643-5.037 31.197-7.599 46.837-7.599 20.769 0 37.648 7.599 50.639 22.8s19.708 32.963 19.708 53.201c0 20.238-5.125 36.763-15.201 49.402-10.252 12.637-48.163 31.637-113.914 56.913z"
		fill="red"
	></path>
</svg>
