<?xml version="1.0" encoding="utf-8"?>
<svg t="1611547218749" class="icon" viewBox="0 0 1024 1024" version="1.1" p-id="3145" width="200" height="200" xmlns="http://www.w3.org/2000/svg">
  <defs/>
  <path d="M 237.901 827.295 C 224.21 840.972 202.027 840.972 188.335 827.295 C 174.658 813.604 174.658 791.421 188.335 777.73 L 776.013 190.052 C 795.282 171.169 827.766 180.226 834.485 206.354 C 837.541 218.238 834.159 230.855 825.569 239.618 L 237.901 827.295 Z" fill="#707070" p-id="3146" style=""/>
  <path d="M 188.335 239.618 C 169.258 220.54 177.986 187.964 204.047 180.981 C 216.142 177.74 229.047 181.198 237.901 190.052 L 825.569 777.73 C 844.837 796.613 836.438 829.274 810.451 836.519 C 798.148 839.949 784.954 836.415 776.013 827.295 L 188.335 239.618 Z" fill="#707070" p-id="3147" style=""/>
</svg>