<?xml version="1.0" encoding="UTF-8"?>
<svg width="38px" height="44px" viewBox="0 0 38 44" version="1.1" xmlns="http://www.w3.org/2000/svg" xmlns:xlink="http://www.w3.org/1999/xlink">
    <!-- Generator: Sketch 60 (88103) - https://sketch.com -->
    <title>定位 位置</title>
    <desc>Created with Sketch.</desc>
    <g id="Page-1" stroke="none" stroke-width="1" fill="none" fill-rule="evenodd">
        <g id="房屋详情-审核未通过说明" transform="translate(-30.000000, -766.000000)" fill="#ff480a" fill-rule="nonzero">
            <g id="定位-位置" transform="translate(30.000000, 766.000000)">
                <path d="M19.0000256,0 C8.99388114,0 0.882359986,8.15814231 0.882359986,18.2263767 C0.882359986,23.2578943 2.9115186,27.8131886 6.18823335,31.1131925 L19.0000256,44.0000512 L31.8117749,31.1131925 L31.8117744,31.1131929 C35.2179327,27.6902253 37.1262845,23.0552968 37.1177196,18.2263772 C37.1177196,8.15814278 29.0061266,0 19.0000251,0 L19.0000256,0 Z M19.0000256,26.3223861 L19.0000259,26.3223861 C14.5401652,26.3109946 10.9340087,22.6863362 10.9453685,18.2265056 C10.9453685,18.2247355 10.9453685,18.2229655 10.9453685,18.2211954 L10.9453685,18.2212066 C10.9325311,13.7627639 14.5363563,10.1380878 18.994756,10.1251837 C18.9965071,10.1251837 18.9982583,10.1251837 19.0000094,10.1251837 L19.0000097,10.1251837 C23.4598704,10.1365992 27.0660269,13.7612766 27.0546244,18.2211072 C27.0546244,18.2228629 27.0546244,18.2246187 27.0546244,18.2263745 L27.0546244,18.2264138 C27.0688575,22.6848135 23.4661674,26.3106498 19.007772,26.3249796 C19.0051771,26.3249796 19.0025822,26.3249796 18.9999873,26.3249796 L19.0000256,26.3223861 Z" id="形状"></path>
            </g>
        </g>
    </g>
</svg>