<?xml version="1.0" standalone="no"?><!DOCTYPE svg PUBLIC "-//W3C//DTD SVG 1.1//EN" "http://www.w3.org/Graphics/SVG/1.1/DTD/svg11.dtd"><svg t="1611532452527" class="icon" viewBox="0 0 1024 1024" version="1.1" xmlns="http://www.w3.org/2000/svg" p-id="1126" xmlns:xlink="http://www.w3.org/1999/xlink" width="200" height="200"><defs><style type="text/css"></style></defs><path d="M667.27936 113.93024 266.57792 113.93024c-26.90048 0-48.81408 21.92384-48.81408 48.82432l0 698.50112c0 26.9312 21.9136 48.82432 48.81408 48.82432l490.82368 0c26.9312 0 48.82432-21.89312 48.82432-48.82432L806.22592 264.89856 667.27936 113.93024zM678.79936 186.99264l60.90752 66.18112-60.90752 0L678.79936 186.99264zM765.22496 861.24544c0 4.31104-3.52256 7.8336-7.8336 7.8336L266.57792 869.07904c-4.31104 0-7.81312-3.52256-7.81312-7.8336L258.7648 162.75456c0-4.31104 3.50208-7.80288 7.81312-7.80288l371.21024 0 0 118.7328c0 11.30496 9.20576 20.46976 20.51072 20.46976l106.92608 0L765.22496 861.24544zM322.70336 492.92288l142.16192-98.97984 0 47.0528-107.50976 70.57408 0 0.86016 107.50976 70.58432 0 47.06304-142.16192-98.99008L322.70336 492.92288zM559.1552 393.94304l142.14144 97.6384 0 40.82688-142.14144 97.64864 0-47.06304 109.86496-70.58432 0-0.86016-109.86496-70.57408L559.1552 393.94304z" p-id="1127" fill="#707070"></path></svg>