<?xml version="1.0" encoding="UTF-8"?>
<svg width="32px" height="32px" viewBox="0 0 32 32" version="1.1" xmlns="http://www.w3.org/2000/svg" xmlns:xlink="http://www.w3.org/1999/xlink">
    <!-- Generator: Sketch 60 (88103) - https://sketch.com -->
    <title>system-tipsxian</title>
    <desc>Created with Sketch.</desc>
    <g stroke="none" stroke-width="1" fill="none" fill-rule="evenodd">
        <g transform="translate(-24.000000, -590.000000)" fill="#fff" fill-rule="nonzero">
            <g id="system-tipsxian" transform="translate(24.000000, 590.000000)">
                <path d="M16.0000205,0.60000256 C7.53001062,0.60000256 0.60000256,7.53001062 0.60000256,16.0000205 C0.60000256,24.4700303 7.53001062,31.4000384 16.0000205,31.4000384 C24.4700303,31.4000384 31.4000384,24.4700303 31.4000384,16.0000205 C31.4000384,7.53001062 24.4700303,0.60000256 16.0000205,0.60000256 Z M14.9000192,13.4333394 L12.7000166,13.4333394 L12.7000166,15.6333419 L14.9000192,15.6333419 L14.9000192,24.066708 L17.1000218,24.066708 L17.1000218,13.4333394 L14.9000192,13.4333394 Z M16.0000205,2.80000512 C23.2600289,2.80000512 29.2000358,8.74001203 29.2000358,16.0000205 C29.2000358,23.2600289 23.2600289,29.2000358 16.0000205,29.2000358 C8.74001203,29.2000358 2.80000512,23.2600289 2.80000512,16.0000205 C2.80000512,8.74001203 8.74001203,2.80000512 16.0000205,2.80000512 Z M16.0000205,8.30001152 C14.9875037,8.30001152 14.1666965,9.12081873 14.1666965,10.1333355 C14.1666965,11.1458867 14.9875037,11.9666939 16.0000205,11.9666939 C17.0125373,11.9666939 17.8333445,11.1458867 17.8333445,10.1333355 C17.8333445,9.12081873 17.0125373,8.30001152 16.0000205,8.30001152 Z" id="形状"></path>
            </g>
        </g>
    </g>
</svg>