<?xml version="1.0" encoding="UTF-8"?>
<svg width="88px" height="88px" viewBox="0 0 88 88" version="1.1" xmlns="http://www.w3.org/2000/svg" xmlns:xlink="http://www.w3.org/1999/xlink">
    <!-- Generator: Sketch 49 (51002) - http://www.bohemiancoding.com/sketch -->
    <title>系统消息</title>
    <desc>Created with Sketch.</desc>
    <defs></defs>
    <g id="Page-1" stroke="none" stroke-width="1" fill="none" fill-rule="evenodd">
        <g id="消息" transform="translate(-30.000000, -171.000000)">
            <g id="Group" transform="translate(0.000000, 141.000000)">
                <g id="Group-2">
                    <g id="系统消息" transform="translate(30.000000, 30.000000)">
                        <circle id="Oval" fill="rgba(255,72,10,0.5)" cx="44" cy="44" r="44"></circle>
                        <g id="通知-(4)" transform="translate(24.000000, 20.000000)" fill="#FFFFFF" fill-rule="nonzero">
                            <path d="M27.9081188,44.1795918 L12.0918812,44.1795918 C11.1578212,44.1795918 10.4,44.8987234 10.4,45.7861224 C10.4,46.6734695 11.157876,47.3926531 12.0918812,47.3926531 L27.9081188,47.3926531 C28.842124,47.3926531 29.6,46.6735215 29.6,45.7861224 C29.6,44.8987234 28.842124,44.1795918 27.9081188,44.1795918 Z" id="Shape"></path>
                            <path d="M39.2433383,35.1201631 L36.1254549,29.7464062 C35.2293547,27.6237806 32.2795449,27.986401 32.6285535,30.0173338 C32.656859,30.0887582 32.6783491,30.1629318 32.7169324,30.2296126 L36.5462437,36.8381761 C36.584882,36.9031858 36.6272577,36.9655002 36.6677647,37.0142306 L3.28456978,37.0142306 L7.21330739,30.2314454 C7.35137189,29.9958257 7.42320719,29.7267847 7.42320719,29.4514369 L7.42320724,19.828386 C7.42320724,15.2005695 11.0904907,10.402143 15.9839211,8.65701561 C17.1934695,8.27331827 18.0974293,8.10357077 18.6423224,8.02864255 C19.2627333,7.94465823 20.4410083,7.92212585 21.2639541,8.03042142 C22.0648052,8.1378545 23.0092169,8.36355562 24.126759,8.72197139 C28.9042196,10.4986872 32.5070876,15.2727485 32.5070876,19.8283321 L32.5070876,25.0096473 C32.5901901,26.4854103 35.4734409,26.6376386 35.7178019,25.0096473 L35.7178018,19.828386 C35.7178018,17.016151 34.6813287,14.0558384 32.7979464,11.4945321 C31.2122382,9.34188134 29.0811421,7.61120054 26.6778194,6.43272476 C26.6048849,2.8750885 23.6430385,0 19.9991688,0 C16.3706336,0 13.4218132,2.85196313 13.3250251,6.38906154 C10.9406643,7.54036911 8.7925301,9.2632875 7.18939894,11.4196039 C5.26924706,14.0007472 4.21249294,16.9863414 4.21249294,19.828386 L4.21249294,29.0361511 L0.408958702,35.6004585 C-0.139671805,36.5393795 -0.135989379,37.7066969 0.418137346,38.6456179 C0.970450331,39.5818437 2.00142726,40.1632653 3.10968071,40.1632653 L8.53146064,40.1632653 L12.2668969,40.1632653 L15.6010009,40.1632653 L24.3973918,40.1632653 L27.729627,40.1632653 L36.8868432,40.1632653 C38.6026465,40.1632653 40,38.7955283 40,37.1144942 C40,36.3759929 39.7311809,35.6699963 39.2433383,35.1201631 Z M19.9991688,2.9576174 C21.5884496,2.9576174 22.9327098,3.95793644 23.4447357,5.34556444 C21.2730228,4.92499596 18.7695044,4.91232823 16.5615166,5.32071414 C17.0804676,3.94575387 18.4192316,2.9576174 19.9991688,2.9576174 Z" id="Shape"></path>
                        </g>
                    </g>
                </g>
            </g>
        </g>
    </g>
</svg>