<?xml version="1.0" encoding="UTF-8"?>
<svg width="46px" height="46px" viewBox="0 0 46 46" version="1.1" xmlns="http://www.w3.org/2000/svg" xmlns:xlink="http://www.w3.org/1999/xlink">
    <!-- Generator: Sketch 49 (51002) - http://www.bohemiancoding.com/sketch -->
    <title>Combined Shape</title>
    <desc>Created with Sketch.</desc>
    <defs></defs>
    <g id="Page-1" stroke="none" stroke-width="1" fill="none" fill-rule="evenodd">
        <g id="反馈意见" transform="translate(-97.000000, -640.000000)" fill="#999999" fill-rule="nonzero">
            <g id="Group-8" transform="translate(0.000000, 496.000000)">
                <g id="Group-5" transform="translate(30.000000, 91.000000)">
                    <path d="M110.955718,66.5211131 L110.961034,66.5187046 C112.270767,69.4096585 113,72.6196684 113,76 C113,88.7025492 102.702549,99 90,99 C77.2974508,99 67,88.7025492 67,76 C67,63.2974508 77.2974508,53 90,53 C93.525915,53 96.8665217,53.7933989 99.8530291,55.2114058 C100.543906,55.539437 101.215833,55.9008939 101.86672,56.293687 L101.861763,56.3019021 C102.224576,56.5756848 102.45909,57.0104556 102.45909,57.5 C102.45909,58.3284271 101.787517,59 100.95909,59 C100.730383,59 100.513631,58.9488149 100.319665,58.8572752 L100.316679,58.8622221 C100.2944,58.848777 100.272094,58.8353756 100.249763,58.8220181 C100.21225,58.8018484 100.175695,58.7801287 100.140182,58.7569447 C99.6282955,58.4551701 99.1031713,58.1763568 98.5662912,57.9214437 C95.9138319,56.6620444 93.0068967,56 90,56 C78.954305,56 70,64.954305 70,76 C70,87.045695 78.954305,96 90,96 C101.045695,96 110,87.045695 110,76 C110,73.1720427 109.414486,70.4321563 108.296185,67.9080242 C108.175387,67.6918337 108.106541,67.4426687 108.106541,67.1774239 C108.106541,66.3489968 108.778114,65.6774239 109.606541,65.6774239 C110.199602,65.6774239 110.712276,66.0216018 110.955718,66.5211131 Z M88.5475116,74 L88.5475116,64.9524884 C88.5475116,64.1240613 89.2190844,63.4524884 90.0475116,63.4524884 C90.8759387,63.4524884 91.5475116,64.1240613 91.5475116,64.9524884 L91.5475116,74 L100.595023,74 C101.42345,74 102.095023,74.6715729 102.095023,75.5 C102.095023,76.3284271 101.42345,77 100.595023,77 L91.5475116,77 L91.5475116,86.0475116 C91.5475116,86.8759387 90.8759387,87.5475116 90.0475116,87.5475116 C89.2190844,87.5475116 88.5475116,86.8759387 88.5475116,86.0475116 L88.5475116,77 L79.5,77 C78.6715729,77 78,76.3284271 78,75.5 C78,74.6715729 78.6715729,74 79.5,74 L88.5475116,74 Z" id="Combined-Shape"></path>
                </g>
            </g>
        </g>
    </g>
</svg>