<?xml version="1.0" standalone="no"?><!DOCTYPE svg PUBLIC "-//W3C//DTD SVG 1.1//EN" "http://www.w3.org/Graphics/SVG/1.1/DTD/svg11.dtd"><svg t="1611725917081" class="icon" viewBox="0 0 1024 1024" version="1.1" xmlns="http://www.w3.org/2000/svg" p-id="2545" xmlns:xlink="http://www.w3.org/1999/xlink" width="200" height="200"><defs><style type="text/css"></style></defs><path d="M512 42.666667a469.333333 469.333333 0 1 0 469.333333 469.333333A469.333333 469.333333 0 0 0 512 42.666667z m0 864a394.666667 394.666667 0 1 1 394.666667-394.666667 395.146667 395.146667 0 0 1-394.666667 394.666667z" p-id="2546" fill="#ffffff"></path><path d="M670.4 300.8l-154.666667 154.666667a5.333333 5.333333 0 0 1-7.573333 0l-154.666667-154.666667a5.333333 5.333333 0 0 0-7.52 0l-45.173333 45.28a5.333333 5.333333 0 0 0 0 7.52l154.666667 154.666667a5.333333 5.333333 0 0 1 0 7.573333l-154.666667 154.666667a5.333333 5.333333 0 0 0 0 7.52l45.28 45.28a5.333333 5.333333 0 0 0 7.52 0l154.666667-154.666667a5.333333 5.333333 0 0 1 7.573333 0l154.666667 154.666667a5.333333 5.333333 0 0 0 7.52 0l45.28-45.28a5.333333 5.333333 0 0 0 0-7.52l-154.666667-154.666667a5.333333 5.333333 0 0 1 0-7.573333l154.666667-154.666667a5.333333 5.333333 0 0 0 0-7.52l-45.28-45.28a5.333333 5.333333 0 0 0-7.626667 0z" p-id="2547" fill="#ffffff"></path></svg>