<?xml version="1.0" encoding="UTF-8"?>
<svg width="31px" height="32px" viewBox="0 0 31 32" version="1.1" xmlns="http://www.w3.org/2000/svg" xmlns:xlink="http://www.w3.org/1999/xlink">
    <!-- Generator: Sketch 49 (51002) - http://www.bohemiancoding.com/sketch -->
    <title>搜索 (7)</title>
    <desc>Created with Sketch.</desc>
    <defs>
        <rect id="path-1" x="0" y="0" width="32" height="32"></rect>
    </defs>
    <g id="Page-1" stroke="none" stroke-width="1" fill="none" fill-rule="evenodd">
        <g id="首页-copy" transform="translate(-192.000000, -74.000000)">
            <g id="搜索" transform="translate(30.000000, 60.000000)">
                <g id="Group-3" transform="translate(161.000000, 14.000000)">
                    <g id="搜索-(7)">
                        <mask id="mask-2" fill="white">
                            <use xlink:href="#path-1"></use>
                        </mask>
                        <g id="Mask"></g>
                        <g mask="url(#mask-2)" fill="#AAAAAA" fill-rule="nonzero" id="Shape" stroke="#AAAAAA">
                            <g transform="translate(2.000000, 1.333333)">
                                <path d="M28.2856854,29.3333322 C28.0077114,29.3337354 27.7410621,29.2232294 27.5448617,29.0263168 L21.7665418,23.2480352 C21.3574835,22.8388561 21.3574835,22.1755767 21.7665418,21.7663976 C26.2602085,17.2722368 26.2602085,9.959402 21.7665418,5.46576509 C17.2728751,0.971604251 9.9605158,0.972652086 5.46580128,5.46576509 C0.972134606,9.95992592 0.972134606,17.2722368 5.46580128,21.7663976 C8.63185325,24.9319047 13.3942912,25.9781672 17.5987537,24.4352313 C18.1404819,24.2414913 18.7370983,24.5207691 18.9353064,25.0608754 C19.1335145,25.6009817 18.859171,26.19988 18.3207162,26.40254 C13.3523775,28.2257715 7.72442283,26.9888032 3.98363001,23.2480352 C-1.32787667,17.9370876 -1.32787667,9.29507513 3.98363001,3.98360363 C9.29461276,-1.32786788 17.9372064,-1.32786788 23.2481891,3.98360363 C28.3097857,9.04516667 28.5476456,17.1328749 23.9607211,22.4789249 L29.026509,27.5446793 C29.3260951,27.8443538 29.4157002,28.2949669 29.2535531,28.6864566 C29.0914061,29.0779462 28.709428,29.3332418 28.2856854,29.3333322 Z"></path>
                            </g>
                        </g>
                    </g>
                </g>
            </g>
        </g>
    </g>
</svg>