<?xml version="1.0" encoding="UTF-8"?>
<svg width="105px" height="104px" viewBox="0 0 105 104" version="1.1" xmlns="http://www.w3.org/2000/svg" xmlns:xlink="http://www.w3.org/1999/xlink">
    <title>Send Button</title>
    <defs>
        <path d="M28,0 L36,0 C51.463973,-2.84068575e-15 64,12.536027 64,28 L64,36 C64,51.463973 51.463973,64 36,64 L28,64 C12.536027,64 1.8937905e-15,51.463973 0,36 L0,28 C-1.8937905e-15,12.536027 12.536027,2.84068575e-15 28,0 Z" id="path-1"></path>
        <filter x="-46.9%" y="-46.9%" width="193.8%" height="193.8%" filterUnits="objectBoundingBox" id="filter-2">
            <feOffset dx="0" dy="0" in="SourceAlpha" result="shadowOffsetOuter1"></feOffset>
            <feGaussianBlur stdDeviation="10" in="shadowOffsetOuter1" result="shadowBlurOuter1"></feGaussianBlur>
            <feColorMatrix values="0 0 0 0 0.898039216   0 0 0 0 0.384313725   0 0 0 0 0.360784314  0 0 0 0.4 0" type="matrix" in="shadowBlurOuter1"></feColorMatrix>
        </filter>
        <circle id="path-3" cx="32" cy="32" r="32"></circle>
    </defs>
    <g id="司机端2" stroke="none" stroke-width="1" fill="none" fill-rule="evenodd">
        <g id="有正在进行中的行程" transform="translate(-216.000000, -713.000000)">
            <g id="路线图" transform="translate(226.000000, 205.000000)">
                <g id="Send-Button" transform="translate(10.514762, 528.000000)">
                    <g id="Container">
                        <g id="Background" fill="black" fill-opacity="1">
                            <use filter="url(#filter-2)" xlink:href="#path-1"></use>
                        </g>
                        <mask id="mask-4" fill="white">
                            <use xlink:href="#path-3"></use>
                        </mask>
                        <use id="Oval" fill="#E5625C" xlink:href="#path-3"></use>
                    </g>
                    <polygon id="Path" fill="#FFFFFF" transform="translate(30.812000, 29.984361) rotate(-109.000000) translate(-30.812000, -29.984361) " points="16.8 16.8 21.4495662 29.6654009 16.8 43.1687215 44.824 29.9843607"></polygon>
                </g>
            </g>
        </g>
    </g>
</svg>