<?xml version="1.0" encoding="utf-8"?>
<svg width="112px" height="112px" viewBox="0 0 112 112" version="1.1" xmlns="http://www.w3.org/2000/svg">
  <title>未命名</title>
  <desc>Created with Sketch.</desc>
  <g id="页面-1" stroke="none" stroke-width="1" fill="none" fill-rule="evenodd">
    <circle id="Oval" fill="#00ffff" opacity="0.3" cx="56" cy="56" r="56" transform="matrix(0, 1, -1, 0, 112, 0)"/>
    <circle id="Oval" fill="#00ffff" opacity="0.6" cx="56" cy="56" r="40" transform="matrix(0, 1, -1, 0, 112, 0)"/>
  </g>
  <g transform="matrix(1.072737, 0, 0, 1.072737, -4.006481, -5.466524)" style="" fill="#ff480a">
    <path d="M 67.481 69.764 L 62.778 72.046 C 62.778 72.046 62.294 74.605 62.571 76.334 C 62.848 78.063 64.023 77.579 64.23 77.371 C 64.438 77.164 67.481 69.764 67.481 69.764 Z M 67.481 43.629 L 62.778 41.347 C 62.778 41.347 62.294 38.789 62.571 37.06 C 62.848 35.331 64.023 35.815 64.23 36.022 C 64.438 36.23 67.481 43.629 67.481 43.629 Z" p-id="5421" style=""/>
    <path d="M 74.442 41.24 L 31.763 41.24 C 27.564 41.24 24.159 44.645 24.159 48.844 L 24.159 64.754 C 24.159 68.955 27.564 72.359 31.763 72.359 L 74.442 72.359 C 83.035 72.359 90.001 65.393 90.001 56.799 C 90.001 48.206 83.035 41.24 74.442 41.24 Z M 53.45 43.896 C 62.034 43.896 73.95 44.098 73.95 44.098 C 73.95 44.098 67.892 46.622 57.59 47.329 C 47.289 48.036 40.321 44.502 40.321 44.502 C 40.321 44.502 44.865 43.895 53.45 43.895 Z M 61.936 49.432 L 61.936 64.609 C 61.936 64.625 61.923 64.639 61.906 64.639 C 61.906 64.639 61.906 64.639 61.906 64.639 L 53.611 64.639 C 53.595 64.639 53.581 64.625 53.581 64.609 C 53.581 64.609 53.581 64.609 53.581 64.609 L 53.581 49.432 C 53.581 49.416 53.595 49.403 53.611 49.403 L 61.906 49.403 C 61.923 49.403 61.936 49.416 61.936 49.432 C 61.936 49.432 61.936 49.432 61.936 49.432 Z M 39.83 65.321 C 39.83 66.373 38.982 67.226 37.936 67.226 L 30.407 67.931 C 29.361 67.931 28.513 67.078 28.513 66.027 C 28.513 66.027 27.559 59.067 27.559 57.387 C 27.559 55.676 28.513 48.628 28.513 48.628 C 28.513 47.576 29.361 46.723 30.407 46.723 L 37.936 47.429 C 38.982 47.429 39.83 48.282 39.83 49.333 C 39.83 49.333 38.877 55.497 38.877 57.148 C 38.877 58.888 39.83 65.321 39.83 65.321 Z M 53.45 70.145 C 44.865 70.145 40.321 69.54 40.321 69.54 C 40.321 69.54 47.289 66.005 57.59 66.712 C 67.891 67.419 73.95 69.943 73.95 69.943 C 73.95 69.943 62.034 70.145 53.45 70.145 Z M 80.089 66.483 C 80.089 67.617 79.199 68.537 78.101 68.537 L 70.2 66.469 C 69.102 66.469 68.213 65.549 68.213 64.415 C 68.213 64.415 69.213 58.783 69.213 56.906 C 69.213 55.126 68.213 49.785 68.213 49.785 C 68.213 48.65 69.102 47.73 70.2 47.73 L 78.101 45.663 C 79.199 45.663 80.089 46.583 80.089 47.718 C 80.089 47.718 81.088 55.32 81.088 57.165 C 81.088 58.977 80.089 66.483 80.089 66.483 Z" p-id="5422" style=""/>
  </g>
</svg>