<?xml version="1.0" encoding="utf-8"?>
<svg t="1606451037640" class="icon" viewBox="0 0 1024 1024" version="1.1" p-id="3960" width="300" height="300" xmlns="http://www.w3.org/2000/svg">
  <path d="M 511.889 131.845 C 310.031 131.845 146.4 295.477 146.4 497.334 C 146.4 699.192 310.031 862.824 511.889 862.824 C 713.747 862.824 877.378 699.193 877.378 497.334 C 877.378 295.476 713.747 131.845 511.889 131.845 Z" p-id="3961" fill="rgba(255,255,255,0.7)" stroke="#ccc" stroke-width="8"/>
  <path d="M 527.761 381.204 L 527.76 381.204 L 715.928 569.307 C 722.025 575.339 722.025 585.198 715.928 591.295 C 712.88 594.344 708.922 595.836 704.902 595.836 C 700.88 595.836 696.923 594.344 693.875 591.295 L 532.365 429.786 L 532.365 719.789 C 532.365 728.417 525.425 735.357 516.798 735.357 C 508.172 735.357 501.23 728.417 501.23 719.789 L 501.23 429.786 L 339.721 591.295 C 336.673 594.344 332.716 595.836 328.695 595.836 C 324.674 595.836 320.717 594.344 317.668 591.295 C 311.571 585.263 311.571 575.404 317.668 569.307 L 505.772 381.204 C 511.804 375.107 521.663 375.107 527.761 381.204 Z M 324.739 342.35 C 316.111 342.35 309.171 335.409 309.171 326.783 C 309.171 318.156 316.111 311.215 324.739 311.215 L 708.924 311.215 C 717.551 311.215 724.49 318.156 724.49 326.783 C 724.49 335.409 717.551 342.35 708.924 342.35 L 324.739 342.35 Z" fill="#666" p-id="4541"/>
</svg>