<?xml version="1.0" encoding="UTF-8"?>
<svg width="24px" height="24px" viewBox="0 0 24 24" version="1.1" xmlns="http://www.w3.org/2000/svg" xmlns:xlink="http://www.w3.org/1999/xlink">
    <title>电话</title>
    <g id="司机端2" stroke="none" stroke-width="1" fill="none" fill-rule="evenodd">
        <g id="行程详情-运输中" transform="translate(-502.000000, -172.000000)" stroke="#FFFFFF" stroke-width="1.1">
            <g id="编组-5备份" transform="translate(0.000000, 128.000000)">
                <g id="操作按钮带图标" transform="translate(478.000000, 20.000000)">
                    <g id="电话" transform="translate(24.000000, 24.000000)">
                        <path d="M5.1441222,1.96372277 L9.67660834,7.27393488 C9.75168044,7.36537595 9.7849324,7.47807655 9.77788886,7.58819982 C9.77084532,7.69832309 9.72350626,7.80586904 9.63739631,7.88700083 L9.63739631,7.88700083 L7.70674829,9.70603478 C8.0313293,10.3799491 8.92903607,12.0871055 10.2837669,13.4431785 C11.966738,15.1252763 13.6049971,15.9599675 14.2891959,16.2934332 L14.2891959,16.2934332 L16.1357355,14.3322526 C16.2171032,14.2458332 16.3250394,14.1984497 16.435491,14.1915949 C16.5459425,14.18474 16.6589093,14.2184139 16.7503382,14.2941092 L16.7503382,14.2941092 L21.8797045,18.540784 C21.9752963,18.6196528 22.0297497,18.7298098 22.0405646,18.844113 C22.0514047,18.9586821 22.0184362,19.0773941 21.9396417,19.172567 L21.9396417,19.172567 L19.3547681,22.2872979 C19.2692758,22.3903632 19.1423239,22.45 19.0084157,22.45 C14.4071483,22.45 10.0972013,20.6637989 6.85604419,17.4184247 C3.3427324,13.9086773 1.55,9.59498214 1.55,5.00698344 C1.55,4.86221661 1.60660117,4.73025114 1.71249949,4.64230425 L1.71249949,4.64230425 L4.8151261,2.06562135 C4.91072221,1.98623027 5.02944783,1.95310312 5.1441222,1.96372277 L5.1441222,1.96372277 Z" id="Path备份"></path>
                    </g>
                </g>
            </g>
        </g>
    </g>
</svg>