<?xml version="1.0" encoding="UTF-8"?>
<svg width="24px" height="24px" viewBox="0 0 24 24" version="1.1" xmlns="http://www.w3.org/2000/svg" xmlns:xlink="http://www.w3.org/1999/xlink">
    <title>无</title>
    <g id="司机端2" stroke="none" stroke-width="1" fill="none" fill-rule="evenodd">
        <g id="行程详情-运输中" transform="translate(-545.000000, -1186.000000)" fill="#333333" fill-rule="nonzero">
            <g id="运输路线" transform="translate(0.000000, 962.000000)">
                <path d="M557,224 C558.670034,224 560.313131,224.349972 561.848485,225.022995 C562.400673,225.224902 562.683502,225.817162 562.481481,226.369041 C562.279461,226.92092 561.686869,227.203589 561.13468,227.001683 L561,226.947841 L561,226.947841 C556.003367,224.740325 550.171717,226.988222 547.962963,231.982053 C545.754209,236.975883 548.003367,242.804262 553,245.011778 C557.996633,247.219293 563.828283,244.971397 566.037037,239.977566 C567.222222,237.312395 567.154882,234.24341 565.875421,231.632081 C565.646465,231.107123 565.875421,230.474481 566.414141,230.245653 C566.912458,230.030286 567.505051,230.218732 567.760943,230.703309 C568.582492,232.345485 569,234.162647 569,236.00673 C569,242.629277 563.626263,248 557,248 C550.373737,248 545,242.629277 545,236.00673 C545,229.384184 550.387205,224 557,224 Z M561.056801,230.342831 C561.513812,229.885723 562.19967,229.885821 562.656778,230.342831 C563.113886,230.799842 563.113886,231.485699 562.656778,231.942808 L562.656778,231.942808 L558.599781,235.999805 L558.600172,235.999805 L562.657169,240.056801 C563.114277,240.513812 563.114277,241.19967 562.657169,241.656778 C562.42838,241.885449 562.142771,241.999697 561.857083,241.999697 C561.571395,241.999697 561.285707,241.885488 561.056997,241.656778 L561.056997,241.656778 L557,237.599781 L552.943003,241.656778 C552.714215,241.885449 552.428605,241.999697 552.142917,241.999697 C551.857229,241.999697 551.571542,241.885488 551.342831,241.656778 C550.885723,241.199767 550.885723,240.51391 551.342831,240.056801 L551.342831,240.056801 L555.399828,235.999805 L551.342831,231.942808 C550.885723,231.485797 550.885821,230.799939 551.342831,230.342831 C551.799842,229.885723 552.485699,229.885723 552.942808,230.342831 L552.942808,230.342831 L556.999805,234.399828 Z" id="无"></path>
            </g>
        </g>
    </g>
</svg>