<?xml version="1.0" encoding="UTF-8"?>
<svg width="36px" height="36px" viewBox="0 0 36 36" version="1.1" xmlns="http://www.w3.org/2000/svg" xmlns:xlink="http://www.w3.org/1999/xlink">
    <title>Fill 1备份</title>
    <g id="司机端2" stroke="none" stroke-width="1" fill="none" fill-rule="evenodd">
        <g id="行程详情-运输中" transform="translate(-666.000000, -821.000000)" fill="#666666">
            <g id="编组-5" transform="translate(24.000000, 630.000000)">
                <path d="M645.405864,198.345067 C645.602715,204.883263 648.244933,211.006983 652.896389,215.66135 L653.329122,216.08432 C657.992458,220.752277 664.111813,223.395414 670.652022,223.590761 L673.216178,220.500873 L667.453191,215.729297 L664.359574,219.012834 L663.275196,218.555891 C663.103799,218.482848 659.053078,216.753598 655.872914,213.570283 L655.429999,213.128627 C652.246441,209.943613 650.5206,205.88718 650.449326,205.717312 L649.991138,204.630161 L653.225606,201.579342 L648.477421,195.793658 L645.405864,198.345067 Z M672.237013,227 L671.439427,227 C663.697747,227 656.419346,223.983155 650.946545,218.503232 L650.512115,218.080262 C645.017253,212.579956 642,205.29774 642,197.556882 L642,196.758505 L648.933912,191 L657.863486,201.87661 L654.079193,205.442127 C654.739323,206.714434 656.023946,208.919313 657.82785,210.725004 L658.272462,211.166659 C660.078062,212.974048 662.277364,214.261643 663.550108,214.920729 L667.164703,211.081725 L678,220.052423 L672.237013,227 Z" id="Fill-1备份"></path>
            </g>
        </g>
    </g>
</svg>