<?xml version="1.0" encoding="UTF-8"?>
<svg width="80px" height="80px" viewBox="0 0 80 80" version="1.1" xmlns="http://www.w3.org/2000/svg" xmlns:xlink="http://www.w3.org/1999/xlink">
    <!-- Generator: Sketch 49 (51002) - http://www.bohemiancoding.com/sketch -->
    <title>Group 8</title>
    <desc>Created with Sketch.</desc>
    <defs>
        <filter x="-9.7%" y="-6.9%" width="119.4%" height="119.4%" filterUnits="objectBoundingBox" id="filter-1">
            <feOffset dx="0" dy="2" in="SourceAlpha" result="shadowOffsetOuter1"></feOffset>
            <feGaussianBlur stdDeviation="2" in="shadowOffsetOuter1" result="shadowBlurOuter1"></feGaussianBlur>
            <feColorMatrix values="0 0 0 0 0   0 0 0 0 0   0 0 0 0 0  0 0 0 0.0968070652 0" type="matrix" in="shadowBlurOuter1" result="shadowMatrixOuter1"></feColorMatrix>
            <feMerge>
                <feMergeNode in="shadowMatrixOuter1"></feMergeNode>
                <feMergeNode in="SourceGraphic"></feMergeNode>
            </feMerge>
        </filter>
    </defs>
    <g id="Page-1" stroke="none" stroke-width="1" fill="none" fill-rule="evenodd">
        <g id="详情页-登记入住弹窗" transform="translate(-622.000000, -313.000000)">
            <g id="Group-8" filter="url(#filter-1)" transform="translate(626.000000, 315.000000)">
                <circle id="Oval-2" fill="#FFFFFF" cx="36" cy="36" r="36"></circle>
                <path d="M34.6126984,34.6126984 L34.6126984,15.5169537 C34.6126984,14.7414049 35.2842712,14.1126984 36.1126984,14.1126984 C36.9411255,14.1126984 37.6126984,14.7414049 37.6126984,15.5169537 L37.6126984,34.6126984 L56.7084431,34.6126984 C57.4839919,34.6126984 58.1126984,35.2842712 58.1126984,36.1126984 C58.1126984,36.9411255 57.4839919,37.6126984 56.7084431,37.6126984 L37.6126984,37.6126984 L37.6126984,56.7084431 C37.6126984,57.4839919 36.9411255,58.1126984 36.1126984,58.1126984 C35.2842712,58.1126984 34.6126984,57.4839919 34.6126984,56.7084431 L34.6126984,37.6126984 L15.5169537,37.6126984 C14.7414049,37.6126984 14.1126984,36.9411255 14.1126984,36.1126984 C14.1126984,35.2842712 14.7414049,34.6126984 15.5169537,34.6126984 L34.6126984,34.6126984 Z" id="Combined-Shape" fill="#999999" fill-rule="nonzero" transform="translate(36.112698, 36.112698) rotate(-315.000000) translate(-36.112698, -36.112698) "></path>
            </g>
        </g>
    </g>
</svg>