<?xml version="1.0" encoding="UTF-8" standalone="no"?>
<svg width="168px" height="200px" viewBox="0 0 168 200" version="1.1" xmlns="http://www.w3.org/2000/svg" xmlns:xlink="http://www.w3.org/1999/xlink">
    <!-- Generator: Sketch 41.2 (35397) - http://www.bohemiancoding.com/sketch -->
    <title>Group 9</title>
    <desc>Created with Sketch.</desc>
    <defs>
        <filter x="-50%" y="-50%" width="200%" height="200%" filterUnits="objectBoundingBox" id="filter-1">
            <feOffset dx="1" dy="2" in="SourceAlpha" result="shadowOffsetOuter1"></feOffset>
            <feGaussianBlur stdDeviation="2" in="shadowOffsetOuter1" result="shadowBlurOuter1"></feGaussianBlur>
            <feColorMatrix values="0 0 0 0 0.0743024956   0 0 0 0 0.0341451122   0 0 0 0 0.202806122  0 0 0 1 0" type="matrix" in="shadowBlurOuter1" result="shadowMatrixOuter1"></feColorMatrix>
            <feMerge>
                <feMergeNode in="shadowMatrixOuter1"></feMergeNode>
                <feMergeNode in="SourceGraphic"></feMergeNode>
            </feMerge>
        </filter>
    </defs>
    <g id="管综移动界面" stroke="none" stroke-width="1" fill="none" fill-rule="evenodd">
        <g id="登录" transform="translate(-277.000000, -256.000000)">
            <g id="logo">
                <g transform="translate(280.000000, 258.000000)" id="Group-9">
                    <g>
                        <g id="police" filter="url(#filter-1)" fill="#DED8F1">
                            <path d="M158.082497,84.9304292 C152.246592,48.3427529 158.082497,19.5396207 158.082497,19.5396207 L128.851835,2.25518598 C128.851835,2.25518598 109.643845,17.1566623 99.6211736,17.2876291 C91.3850687,17.3930415 80.1383272,0 80.1383272,0 C80.1383272,0 69.1280899,16.4475245 60.6522846,17.2876291 C52.3874157,18.1021793 31.421623,2.25518598 31.421623,2.25518598 L0.602546816,20.395697 C0.602546816,20.395697 10.1010736,45.5349508 2.1941573,85.6810931 C-7.87006236,136.764568 20.3954058,160.530266 35.1705369,169.864053 C56.7755305,183.510164 80.1383272,191.658859 80.1383272,191.658859 C80.1383272,191.658859 102.245094,183.363225 125.106117,169.864053 C145.947266,157.553165 166.050137,134.876728 158.082497,84.9304292 Z M121.897328,164.551908 C100.557603,177.153478 79.9273906,184.896496 79.9273906,184.896496 C79.9273906,184.896496 58.1242446,177.287639 37.957453,164.551908 C24.1698875,155.841013 -2.21313371,133.662889 7.17992491,85.9845531 C14.5626964,48.5152461 8.18986255,24.0499927 8.18986255,24.0499927 L31.4248189,9.76821327 C31.4248189,9.76821327 52.9371285,24.8102394 60.6554805,24.0499927 C68.5655929,23.2705799 80.141523,9.76821327 80.141523,9.76821327 C80.141523,9.76821327 91.1901124,24.1490163 98.8765043,24.0499927 C108.231211,23.931803 128.107166,9.76821327 128.107166,9.76821327 L151.342122,23.2961344 C151.342122,23.2961344 147.235256,51.1281951 152.681248,85.2786095 C160.108764,131.896433 141.348215,153.06196 121.897328,164.551908 Z M144.151111,30.5248677 L125.237154,19.8782181 C125.237154,19.8782181 106.179376,32.6554755 97.9177028,32.6554755 C90.0395506,32.6554755 80.4067914,20.5873559 80.4067914,20.5873559 C80.4067914,20.5873559 69.7832708,31.9527262 61.4960298,32.6554755 C54.6725594,33.2304519 34.8765043,19.1658859 34.8765043,19.1658859 L15.9625468,31.2340055 C15.9625468,31.2340055 21.0825468,55.7248134 14.5626966,89.4471897 C6.26906367,132.35322 30.4052934,152.598784 42.5820725,160.437631 C60.3902124,171.898831 80.4067916,178.894379 80.4067916,178.894379 C80.4067916,178.894379 99.3878652,171.068309 118.234707,159.725299 C135.410038,149.388498 152.118752,130.685787 145.550961,88.7348575 C140.740974,58.0023594 144.151111,30.5248677 144.151111,30.5248677 Z M100.985868,120.186076 L106.281648,146.938459 L81.5861174,133.803439 L56.8905867,146.938459 L62.1895629,120.186077 L41.6264669,101.553641 L69.5979026,98.1580849 L81.5861174,73.5075612 L93.5743322,98.1580849 L121.545768,101.553641 L100.985868,120.186076 Z" id="Shape"></path>
                            <rect id="Rectangle-2" x="37.5" y="73.9608544" width="85.5" height="77.9587384"></rect>
                        </g>
                        <path d="M72.5,56.6564727 C72.5,54.0696343 74.1626,51.9724923 76.2851333,51.9724923 L83.7148,51.9724923 C85.8052667,51.9724923 87.4999333,54.0533277 87.4999333,56.6564727 L87.4999333,122.165807 C87.4999333,124.752645 85.8373333,126.849787 83.7148,126.849787 L76.2851333,126.849787 C74.1946667,126.849787 72.5,124.768952 72.5,122.165807 L72.5,56.6564727 L72.5,56.6564727 Z M95,94.0769832 C95,91.5001285 96.6626,89.4110566 98.7852,89.4110566 L106.214867,89.4110566 C108.305333,89.4110566 110,91.5311609 110,94.0769832 L110,122.183694 C110,124.760549 108.3374,126.849621 106.2148,126.849621 L98.7851333,126.849621 C96.6946667,126.849621 95,124.729517 95,122.183694 L95,94.0769832 L95,94.0769832 Z M50,75.3831593 C50,72.7922443 51.6626,70.6917744 53.7852,70.6917744 L61.2148667,70.6917744 C63.3053333,70.6917744 65,72.824691 65,75.3831593 L65,122.158236 C65,124.749151 63.3374,126.849621 61.2148667,126.849621 L53.7852,126.849621 C51.6947333,126.849621 50,124.716704 50,122.158236 L50,75.3831593 L50,75.3831593 Z" id="Shape" fill="#291A59"></path>
                        <path d="M51.5,149.730751 L55.46,149.730751 C57.905,149.730751 59.765,148.696299 59.765,146.462481 C59.765,144.963275 58.88,144.123719 57.68,143.83887 L57.68,143.763909 C58.625,143.434084 59.195,142.384639 59.195,141.365179 C59.195,139.296274 57.455,138.636623 55.175,138.636623 L51.5,138.636623 L51.5,149.730751 Z M53.72,143.149235 L53.72,140.330726 L55.04,140.330726 C56.375,140.330726 57.035,140.72052 57.035,141.695004 C57.035,142.579536 56.42,143.149235 55.01,143.149235 L53.72,143.149235 Z M53.72,148.021656 L53.72,144.798362 L55.265,144.798362 C56.795,144.798362 57.605,145.248124 57.605,146.327553 C57.605,147.481942 56.78,148.021656 55.265,148.021656 L53.72,148.021656 Z M63.8,145.158171 L64.13,143.943814 C64.46,142.789425 64.79,141.530092 65.075,140.315734 L65.135,140.315734 C65.465,141.5151 65.765,142.789425 66.11,143.943814 L66.44,145.158171 L63.8,145.158171 Z M67.7,149.730751 L70.025,149.730751 L66.455,138.636623 L63.845,138.636623 L60.29,149.730751 L62.54,149.730751 L63.32,146.882259 L66.92,146.882259 L67.7,149.730751 Z M74.735,149.730751 L76.955,149.730751 L76.955,138.636623 L74.735,138.636623 L74.735,149.730751 Z M79.685,149.730751 L81.785,149.730751 L81.785,145.278108 C81.785,144.003782 81.62,142.60952 81.515,141.410155 L81.59,141.410155 L82.715,143.793894 L85.925,149.730751 L88.175,149.730751 L88.175,138.636623 L86.075,138.636623 L86.075,143.059282 C86.075,144.318616 86.24,145.787838 86.36,146.942227 L86.285,146.942227 L85.175,144.543497 L81.95,138.636623 L79.685,138.636623 L79.685,149.730751 Z M90.92,149.730751 L93.14,149.730751 L93.14,145.233132 L97.085,145.233132 L97.085,143.374116 L93.14,143.374116 L93.14,140.480647 L97.76,140.480647 L97.76,138.636623 L90.92,138.636623 L90.92,149.730751 Z M103.925,149.94064 C106.865,149.94064 108.89,147.736807 108.89,144.138711 C108.89,140.540615 106.865,138.426734 103.925,138.426734 C100.985,138.426734 98.96,140.525623 98.96,144.138711 C98.96,147.736807 100.985,149.94064 103.925,149.94064 Z M103.925,148.021656 C102.275,148.021656 101.225,146.507457 101.225,144.138711 C101.225,141.754973 102.275,140.330726 103.925,140.330726 C105.575,140.330726 106.625,141.754973 106.625,144.138711 C106.625,146.507457 105.575,148.021656 103.925,148.021656 Z" id="BA-INFO" fill="#291A59"></path>
                    </g>
                </g>
            </g>
        </g>
    </g>
</svg>