<?xml version="1.0" encoding="UTF-8"?>
<svg width="30px" height="30px" viewBox="0 0 30 30" version="1.1" xmlns="http://www.w3.org/2000/svg" xmlns:xlink="http://www.w3.org/1999/xlink">
    <!-- Generator: Sketch 60 (88103) - https://sketch.com -->
    <title>男</title>
    <desc>Created with Sketch.</desc>
    <g id="Page-1" stroke="none" stroke-width="1" fill="none" fill-rule="evenodd">
        <g id="出租详情-整租退租" transform="translate(-324.000000, -1377.000000)" fill="#00BFF3" fill-rule="nonzero">
            <path d="M339,1377 C347.284273,1377 354,1383.71573 354,1392 L354,1392 L353.996782,1392.31383 C353.82973,1400.45322 347.179409,1407 339,1407 C330.715727,1407 324,1400.28427 324,1392 L324,1392 L324.003218,1391.68617 C324.17027,1383.54678 330.820591,1377 339,1377 Z M347.487437,1383.21106 L341.773869,1383.21106 C341.336683,1383.21106 340.98995,1383.55779 340.98995,1383.99498 C340.98995,1384.43216 341.220085,1384.84756 341.657271,1384.84756 L341.657271,1384.84756 L344.306638,1385.00879 L340.884,1388.43 L340.857671,1388.40911 C339.726589,1387.55718 338.334982,1387.03406 336.82699,1386.98387 L336.58794,1386.9799 C332.668342,1386.9799 329.472362,1390.17588 329.472362,1394.09548 C329.472362,1398.01508 332.653266,1401.21106 336.58794,1401.21106 C340.522613,1401.21106 343.703518,1398.01508 343.703518,1394.09548 C343.703518,1392.49564 343.171076,1391.01636 342.274311,1389.82575 L342.265,1389.813 L345.70325,1386.19498 L345.70325,1388.9397 C345.70325,1389.37689 346.251256,1389.72362 346.688442,1389.72362 C347.125628,1389.72362 347.472362,1389.37689 347.472362,1388.9397 L347.472362,1388.9397 L347.472362,1384.7789 L347.487437,1383.21106 Z M336.442196,1389.06531 C339.223479,1389.06531 341.467316,1391.30915 341.467316,1394.09043 C341.467316,1396.87172 339.223479,1399.11555 336.442196,1399.11555 C333.660914,1399.11555 331.417077,1396.87172 331.417077,1394.09043 C331.417077,1391.30915 333.660914,1389.06531 336.442196,1389.06531 Z M340.884,1388.43 L341.034077,1388.54633 C341.440541,1388.87281 341.810613,1389.24288 342.137085,1389.64934 L342.265,1389.813 L342.082594,1390.0063 L340.699254,1388.61476 L340.884,1388.43 Z" id="男"></path>
        </g>
    </g>
</svg>