<?xml version="1.0" encoding="UTF-8"?>
<svg width="30px" height="30px" viewBox="0 0 30 30" version="1.1" xmlns="http://www.w3.org/2000/svg" xmlns:xlink="http://www.w3.org/1999/xlink">
    <!-- Generator: Sketch 60 (88103) - https://sketch.com -->
    <title>女</title>
    <desc>Created with Sketch.</desc>
    <g id="Page-1" stroke="none" stroke-width="1" fill="none" fill-rule="evenodd">
        <g id="出租详情-整租退租" transform="translate(-356.000000, -1091.000000)" fill="#FF83B5" fill-rule="nonzero">
            <path d="M372.909091,1100 C371.813932,1100 370.794916,1100.42593 370.019825,1101.20164 C369.244113,1101.97735 368.818182,1102.99637 368.818182,1104.09091 C368.818182,1105.18607 369.244113,1106.20508 370.019825,1106.98018 C370.795536,1107.75589 371.814552,1108.18182 372.909091,1108.18182 C374.00425,1108.18182 375.022645,1107.75589 375.798357,1106.98018 C376.574069,1106.21994 377,1105.18545 377,1104.09091 C377,1102.99575 376.574069,1101.97673 375.798357,1101.20164 C375.023262,1100.42593 374.00425,1100 372.909091,1100 Z M371,1091 C362.715368,1091 356,1097.7157 356,1106 C356,1114.28365 362.715368,1121 371,1121 C379.283988,1121 386,1114.2843 386,1106 C386,1097.71635 379.284024,1091 371,1091 Z M377.912781,1108.60842 C376.653994,1109.8852 374.952035,1110.57664 373.160574,1110.57664 C371.706187,1110.57664 370.30593,1110.11544 369.153249,1109.24717 L368.000564,1110.39981 L370.766429,1113.16556 C371.15619,1113.53799 371.15619,1114.15869 370.766429,1114.54844 C370.39399,1114.93818 369.77326,1114.93818 369.383498,1114.54844 L366.617633,1111.78197 L365.553727,1112.84583 C365.163965,1113.2363 364.542512,1113.2363 364.15275,1112.84583 C363.762989,1112.4734 363.762989,1111.8527 364.15275,1111.46295 L365.216657,1110.39909 L362.450073,1107.63262 C362.060311,1107.2602 362.060311,1106.63949 362.450073,1106.24974 C362.822511,1105.86 363.443241,1105.86 363.833003,1106.24974 L366.598868,1109.0155 L367.751554,1107.86286 C366.882528,1106.71022 366.42131,1105.32735 366.42131,1103.8557 C366.42131,1102.06503 367.112778,1100.38046 368.389606,1099.10368 C369.648393,1097.8269 371.350352,1097.13547 373.141814,1097.13547 C374.932552,1097.13547 376.617188,1097.8269 377.893302,1099.10368 C379.170131,1100.38046 379.861598,1102.06431 379.879646,1103.8557 C379.881087,1105.6478 379.189623,1107.33237 377.91279,1108.60843 L377.912781,1108.60842 Z" id="女"></path>
        </g>
    </g>
</svg>