<?xml version="1.0" encoding="UTF-8"?>
<svg width="56px" height="56px" viewBox="0 0 56 56" version="1.1" xmlns="http://www.w3.org/2000/svg" xmlns:xlink="http://www.w3.org/1999/xlink">
    <title>ic_个人中心</title>
    <defs>
        <path d="M32.3086287,20.9071626 C32.3086287,18.5522537 30.3991849,16.642865 28.0442078,16.642865 C25.6892308,16.642865 23.779787,18.5522537 23.779787,20.9071626 C23.779787,23.2620715 25.6892308,25.1714602 28.0442078,25.1714602 C30.3991849,25.1714602 32.3086287,23.2620715 32.3086287,20.9071626 Z M35.1515759,20.9071626 C35.1515759,24.8321425 31.9693013,28.0143252 28.0442078,28.0143252 C24.1191144,28.0143252 20.9368397,24.8321425 20.9368397,20.9071626 C20.9368397,16.9821827 24.1191144,13.8 28.0442078,13.8 C31.9693013,13.8 35.1515759,16.9821827 35.1515759,20.9071626 Z M27.9992893,32.2344162 C23.0242966,32.2344162 18.8989814,35.889907 18.1689936,40.6677753 L37.8310073,40.6677753 C37.1009993,35.8897694 32.9754165,32.2344162 27.9992893,32.2344162 Z M15.2,43.5106404 L15.2117604,42.0820309 C15.2693723,35.08357 20.97556,29.4357577 27.9992893,29.4357577 C35.0241929,29.4357577 40.7306257,35.083324 40.7882396,42.0820309 L40.8,43.5106404 L15.2,43.5106404 Z" id="path-1"></path>
    </defs>
    <g id="司机端2" stroke="none" stroke-width="1" fill="none" fill-rule="evenodd">
        <g id="首页" transform="translate(-670.000000, -56.000000)">
            <g id="ic_个人中心" transform="translate(670.000000, 56.000000)">
                <circle id="椭圆形" fill="#FFFFFF" cx="28" cy="28" r="28"></circle>
                <mask id="mask-2" fill="white">
                    <use xlink:href="#path-1"></use>
                </mask>
                <use id="Combined-Shape" fill="#333333" fill-rule="nonzero" xlink:href="#path-1"></use>
            </g>
        </g>
    </g>
</svg>