<?xml version="1.0" encoding="UTF-8"?>
<svg width="56px" height="84px" viewBox="0 0 56 84" version="1.1" xmlns="http://www.w3.org/2000/svg" xmlns:xlink="http://www.w3.org/1999/xlink">
    <title>终点</title>
    <g id="司机端2" stroke="none" stroke-width="1" fill="none" fill-rule="evenodd">
        <g id="有正在进行中的行程" transform="translate(-509.000000, -205.000000)" fill-rule="nonzero">
            <g id="路线图" transform="translate(226.000000, 205.000000)">
                <g id="终点" transform="translate(283.000000, 0.000000)">
                    <path d="M23,81.4255028 C23,82.2917538 23.9533528,83.0947548 25.5,83.5265053 C27.0466472,83.9610058 28.9533528,83.9610058 30.5,83.5265053 C32.0466472,83.0947548 33,82.2917538 33,81.4255028 C33,80.0862513 30.7609329,79 28,79 C25.2390671,79 23,80.0862513 23,81.4255028 Z" id="路径" fill="#000000"></path>
                    <path d="M28,81.8458248 L28,81.8458248 C26.911591,81.8624491 26.0162542,80.9491028 26.000214,79.8055827 C25.999916,79.7843366 25.9999292,79.7630869 26.0002537,79.7418412 L26.0002537,53.3308104 C26.0002537,52.142809 26.8718697,51.227058 28,51.227058 C29.128125,51.227058 29.999741,52.142809 29.999741,53.3308104 L29.999741,79.7418412 L29.9997411,79.7418464 C30.0172036,80.8853407 29.1490485,81.8272082 28.0606654,81.8458248 C28.0404437,81.8458248 28.0202181,81.8458248 28,81.8458248 L28,81.8458248 Z" id="路径" fill="#D18E1E"></path>
                    <path d="M0,28 L0,27.9997601 C-0.015072018,43.4487787 12.4966644,55.9848533 27.9457532,56 C27.9637974,56 27.9818416,56 27.9998859,56 L27.999887,56 C43.4489758,56.0149342 55.9850228,43.503139 56,28.0541204 C56,28.0360762 56,28.0180321 56,27.999988 L56,28.0002402 C56.0150734,12.5512216 43.5033356,0.015062399 28.0542468,0 C28.0362858,0 28.0183249,0 28.000364,0 L28.0003637,0 C12.5512749,-0.0149347331 0.0152279104,12.496861 0,27.9458796 C0,27.9639238 0,27.9819679 0,28.000012 L0,28 Z" id="路径" fill="#F5A623"></path>
                    <path d="M39.9698433,17.9667674 L39.9698429,17.9667684 C38.8435143,20.6194528 37.2100648,23.0266868 35.1611739,25.053361 L35.1611727,25.05336 C37.2226256,26.6697677 39.5320887,27.9418954 42,28.8204035 C41.3553046,29.3639702 40.5639727,30.4055956 40.1670426,31.0983271 L40.1670429,31.0983272 C37.6272196,30.0645314 35.2813976,28.6069431 33.229615,26.787717 L33.2296142,26.7877177 C31.026747,28.6013738 28.5515355,30.0561257 25.8952563,31.0983279 C25.5969267,30.4536326 24.7550304,29.363971 24.1608993,28.8684404 C26.6891165,27.9759798 29.1667693,26.6385529 31.3460924,24.9522321 L31.3460898,24.9522292 C30.3567036,23.8619277 29.445945,22.7027796 28.6206796,21.4835232 L28.6206803,21.4835224 C27.7703303,22.4653318 26.8419769,23.3767778 25.8446979,24.2089405 L25.8446977,24.2089401 C25.4114181,23.6091965 24.8936693,23.0752718 24.3075417,22.623748 L24.3075413,22.6237486 C22.635576,25.3046227 20.764482,27.8560362 18.7100685,30.2564362 L24.2595051,29.462576 C24.2089408,30.2058718 24.3100695,31.2474973 24.3606338,31.8416283 C16.8771111,33.0298904 15.8354856,33.2776556 15.0921898,33.6745857 C14.9910611,33.131019 14.5460949,31.8416283 14.2477653,31.1969329 C14.943025,31.0477681 15.6382847,30.405601 16.5282171,29.3134112 C17.0237477,28.7698445 18.0653731,27.4804538 19.2536352,25.8446973 C16.0832509,26.191063 15.3399551,26.3907922 14.8924606,26.539957 C14.7432958,25.9938621 14.348894,24.6564352 14,23.9611755 C14.5460949,23.8145389 15.0921898,23.1192792 15.734357,22.1282181 C16.3790523,21.1877213 18.4623032,17.4712421 19.6505653,14 L22.325419,15.0921898 L22.3254205,15.0921865 C21.0242814,18.0946734 19.4661649,20.9791401 17.6684524,23.7134069 L20.889401,23.4656416 C21.5340964,22.4745805 22.1787918,21.3849189 22.6743223,20.2952573 L24.8056094,21.6352124 C27.4298988,19.3522323 29.21482,16.4776495 30.2058812,14.1011254 L33.080464,14.5966559 C32.683534,15.3879879 32.2866039,16.2804485 31.8416376,17.0743087 L37.8866048,17.0743087 L38.3821354,16.97318 L39.9698557,17.9667694 L39.9698433,17.9667674 Z M14.1011256,37.0952582 C16.8265437,36.6983281 20.8893886,35.8564318 24.8536331,35.1611721 L25.0533623,37.5882605 C21.3849192,38.3821207 17.5192752,39.1759809 14.5460919,39.7701119 L14.1011256,37.0952582 L14.1011256,37.0952582 Z M27.9759813,34.7162059 C31.9402257,35.707267 36.7488947,37.6388249 39.4743128,39.1254166 L37.8865924,41.3072679 C35.2117387,39.7220758 30.3525054,37.7879897 26.3907891,36.6983281 L27.9759813,34.7162059 L27.9759813,34.7162059 Z M31.2474942,29.6597716 C33.4268174,30.4536318 36.1016711,31.7910586 37.5427549,32.8326841 L35.9550345,34.8148063 C34.516479,33.7251448 31.8416253,32.2865892 29.6597739,31.4446929 L31.2474942,29.6622998 L31.2474942,29.6597716 Z M33.2296165,23.319003 C34.4178785,22.1787771 35.459504,20.8413502 36.3014003,19.4508308 L30.2564331,19.5013952 C30.999729,20.8413502 32.0388262,22.130741 33.2296165,23.319003 Z" id="形状" fill="#FFFFFF"></path>
                </g>
            </g>
        </g>
    </g>
</svg>