<?xml version="1.0" encoding="UTF-8"?>
<svg width="112px" height="112px" viewBox="0 0 112 112" version="1.1" xmlns="http://www.w3.org/2000/svg" xmlns:xlink="http://www.w3.org/1999/xlink">
    <!-- Generator: Sketch 59.1 (86144) - https://sketch.com -->
    <title>未命名</title>
    <desc>Created with Sketch.</desc>
    <g id="页面-1" stroke="none" stroke-width="1" fill="none" fill-rule="evenodd">
        <g id="marker-car" fill-rule="nonzero">
            <g id="司机端2" transform="translate(56.000000, 56.000000) rotate(90.000000) translate(-56.000000, -56.000000) ">
                <g id="有正在进行中的行程">
                    <g id="小车">
                        <circle id="Oval" fill="#5C8FE5" opacity="0.14" cx="56" cy="56" r="56"></circle>
                        <circle id="Oval" fill="#5CA3E5" opacity="0.14" cx="56" cy="56" r="40"></circle>
                        <g id="ic_货车" transform="translate(56.000000, 56.000000) rotate(180.000000) translate(-56.000000, -56.000000) translate(41.000000, 23.000000)">
                            <polygon id="路径" fill="#434448" points="14.8827336 41.1327432 26.3447684 41.1327432 26.3447684 39.6514088 3.51608949 39.6514088 3.51608949 41.1254084 14.882798 41.1254084"></polygon>
                            <path d="M2.56266643,54.2813893 L3.3473639,55.1320556 L3.3473639,55.7187228 C3.3473639,55.7187228 2.7606967,55.4913892 2.7606967,56.2320564 L2.7606967,59.9500586 C2.7606967,59.9500586 2.92936363,61.6220584 4.85802961,62.7953967 C6.76469706,63.9467306 8.51736648,65.0467341 14.8826936,65.2740669 L14.9853605,65.2740669 C21.3507005,65.0467334 23.0960223,63.9467306 25.0026768,62.7880619 C26.9313486,61.6147301 27.1073445,59.9427238 27.1073445,59.9427238 L27.1073445,56.2247216 C27.1073445,55.4840512 26.5133438,55.711388 26.5133438,55.711388 L26.5206772,55.1247208 L27.3053433,54.2740546 L27.3053433,47.0653509 L26.476675,46.0313475 C26.476675,46.0313475 26.5060083,42.3500128 26.5353417,41.4700074 C26.564675,40.5973369 25.1640096,40.7513414 25.1640096,40.7513414 L4.71133348,40.7513414 C4.71133348,40.7513414 3.31066232,40.5973414 3.34000141,41.4700074 C3.36933477,42.342678 3.39866813,46.0313475 3.39866813,46.0313475 L2.56999979,47.0653509 L2.56266643,54.2813378 L2.56266643,54.2813893 Z" id="路径" fill="#0668F9"></path>
                            <path d="M22.8466999,63.5581384 C22.8466999,63.5581384 25.3547028,62.0547417 25.4207029,59.4807387 C25.4867029,56.9067357 25.4207029,52.6827308 25.3107025,51.4434247 C25.2007022,50.2040928 24.9660352,48.1874231 24.9660352,48.1874231 C24.9660352,48.1874231 24.9440352,56.9947595 24.9440352,58.6301305 C24.9513685,60.6101328 24.7607019,61.4388012 22.8466999,63.5581384 L22.8466999,63.5581384 Z M17.5960264,60.0527351 C17.5960264,60.0527351 20.5806994,60.155402 21.3727003,58.8794033 C22.1573665,57.6107323 23.7047009,55.3667297 23.7047009,55.3667297 C23.7047009,55.3667297 22.120699,58.6227313 21.3580308,59.3267343 C20.5953625,60.0234025 18.7693582,60.2067331 17.5960264,60.0527351 L17.5960264,60.0527351 Z" id="形状" fill="#184C99"></path>
                            <path d="M24.2327015,50.9520593 C24.2327015,50.9520593 24.3793686,41.4920698 24.2327015,41.2647433 C24.0860344,41.0374098 23.8807013,40.8100763 23.7853679,40.780743 C23.6827011,40.7514096 24.4013684,40.6634098 24.5113688,41.8660769 C24.6287019,43.0687478 24.5113688,52.4407845 24.5113688,52.4407845 L24.2327015,50.9521154 L24.2327015,50.9520593 Z" id="路径" fill="#184C99"></path>
                            <path d="M4.82133124,63.140095 C6.7279987,64.3867616 8.48066812,65.574763 14.8680382,65.8241002 L14.9413718,65.8241002 C21.3287097,65.5820997 23.0813598,64.3940964 24.9880788,63.140095 C26.9167506,61.8714239 27.0927465,60.0747588 27.0927465,60.0747588 L27.0927465,56.0634236 C27.0927465,55.6160901 26.9094132,55.4914228 26.7480791,55.4767564 L26.6380788,55.4767564 C26.5940787,55.4840898 26.5500789,55.4914231 26.5060786,55.5060898 L26.5060786,59.5614271 C26.5060786,59.5614271 26.3374117,61.3654271 24.4087457,62.6267633 C22.5607436,63.8367626 20.8520764,64.9954313 14.9120823,65.2887643 C8.97207543,64.9954307 7.27076876,63.8440973 5.41541895,62.6267633 C3.48674717,61.3580923 3.31075126,59.5614271 3.31075126,59.5614271 L3.31075126,55.4767564 L3.31075126,55.5060905 C3.31075126,55.5060905 3.25208454,55.4840905 3.17875111,55.4767564 L3.06875077,55.4767564 C2.90741732,55.4987571 2.723677,55.6234243 2.723677,56.0707578 L2.723677,60.082093 C2.71675006,60.0674263 2.89275035,61.8714298 4.82141632,63.1400944 L4.82133124,63.140095 Z" id="路径" fill="#184C99"></path>
                            <path d="M7.01402911,63.5581384 C7.01402911,63.5581384 4.50602619,62.0547417 4.44002611,59.4807387 C4.37402604,56.9067357 4.44002611,52.6827308 4.55002645,51.4434247 C4.6600268,50.2040928 4.89469381,48.1874231 4.89469381,48.1874231 C4.89469381,48.1874231 4.91669381,56.9947595 4.91669381,58.6301305 C4.90936046,60.6101328 5.10736056,61.4388012 7.01402911,63.5581384 L7.01402911,63.5581384 Z M12.2647026,60.0527351 C12.2647026,60.0527351 9.2800296,60.155402 8.48802867,58.8794033 C7.70336253,57.6107323 6.15602811,55.3667297 6.15602811,55.3667297 C6.15602811,55.3667297 7.74002995,58.6227313 8.50269822,59.3267343 C9.26536649,60.0234025 11.0913708,60.2067331 12.2647026,60.0527351 Z" id="形状" fill="#184C99"></path>
                            <path d="M5.71600611,54.8900854 C6.22200692,55.6894211 7.05800553,56.1587564 8.46601146,56.686757 C10.8053468,57.3027575 14.2520203,57.339423 14.8826885,57.3469186 C14.8826885,57.3469186 18.8206952,57.3687578 21.4020007,56.686757 C22.8100002,56.1587564 23.6460033,55.6820863 24.1520061,54.8900854 C24.6580069,54.0907497 24.9146744,53.6287491 24.6873402,51.3700834 C24.4600067,49.1114112 24.1520061,46.339408 24.1520061,46.339408 C24.1520061,46.339408 23.5726724,46.6547414 22.4286693,46.7354085 C21.3433354,46.8160755 15.5353351,46.9920753 14.9339868,47.0140758 C14.3473196,46.9847424 8.51730976,46.8160755 7.43930421,46.7354085 C6.29530503,46.6474086 5.71596744,46.339408 5.71596744,46.339408 C5.71596744,46.339408 5.40796687,49.1114112 5.18063334,51.3700834 C4.94596633,53.6360839 5.20263335,54.0907561 5.71596744,54.8900854 L5.71600611,54.8900854 Z" id="路径" fill="#202016"></path>
                            <path d="M3.80199937,50.4314328 L3.80199937,43.0834193 C3.80199937,43.0834193 3.89000377,42.2034204 4.77733549,42.2034204 C5.66466914,42.2034204 5.03400231,45.1660891 5.0926689,46.163425 C5.15133562,47.1607609 4.66733515,50.2700993 4.66733515,50.2700993 L3.80199937,50.4314328 L3.80199937,50.4314328 Z" id="路径" fill="#8A8895"></path>
                            <path d="M4.41069991,53.2034096 L3.51603148,52.3674064 C3.51603148,52.3674064 0.729358708,51.0400701 0.663358631,50.8494047 C0.597358555,50.6587379 0.663358631,50.1820691 0.663358631,50.1820691 L3.17136155,50.90807 C3.17136155,50.90807 3.59669531,50.7834033 3.80202902,50.4314025 C4.00736274,50.0720688 4.66736479,50.2040689 4.66736479,50.2040689 L4.41069797,53.2034096 L4.41069991,53.2034096 Z M3.36203345,44.3300731 L3.10536663,44.3300731 L3.10536663,42.2840707 L3.36203345,42.2840707 L3.36203345,44.3300731 L3.36203345,44.3300731 Z" id="形状" fill="#5C546A"></path>
                            <path d="M5.71600611,50.9520593 C5.71600611,50.9520593 5.56933899,41.4920698 5.71600611,41.2647433 C5.86267324,41.0374098 6.06800631,40.8100763 6.16333968,40.780743 C6.26600654,40.7514096 5.54733918,40.6634098 5.43733884,41.8660769 C5.32000565,43.0687478 5.43733884,52.4407845 5.43733884,52.4407845 L5.71600611,50.9521154 L5.71600611,50.9520593 Z" id="路径" fill="#184C99"></path>
                            <path d="M6.61802865,55.3593691 C7.13869578,55.7260363 8.48070035,56.290705 10.5633637,56.5033683 C11.5533649,56.6720352 14.8533687,56.7307018 14.8533687,56.7307018 L15.0073687,56.7307018 C15.0073687,56.7307018 18.3000377,56.6720351 19.2973737,56.5033683 C21.3800435,56.2907011 22.7220429,55.7260369 23.2427087,55.3593691 C23.7633758,54.9927019 24.7167083,54.2740352 24.5407124,52.3160308 C24.3720454,50.3580264 23.9687115,46.596022 23.9687115,46.596022 C23.9687115,46.596022 22.8687081,47.0433556 21.3213736,47.0433556 C19.8547024,47.0433556 15.374032,47.2926889 14.926701,47.3146894 C14.4867002,47.2926893 9.99869309,47.0433556 8.5320283,47.0433556 C6.99202865,47.0433556 5.89202522,46.596022 5.89202522,46.596022 C5.89202522,46.596022 5.48869128,50.3580264 5.32002434,52.3160308 C5.15135741,54.2813636 6.10469049,54.9927013 6.618028,55.3593691 L6.61802865,55.3593691 Z" id="路径" fill="#8A8895"></path>
                            <path d="M1.7780445,1.32733631 L1.7780445,7.4946761 C1.7780445,8.0300102 2.14471166,7.90534353 2.14471166,7.90534353 L2.50404534,7.90534353 L14.9194074,7.92001025 L27.4081173,7.90534353 L27.767451,7.90534353 C27.767451,7.90534353 28.1341181,8.02267672 28.1341181,7.4946761 L28.1341181,1.32733631 C28.1341181,1.32733631 28.2514513,0.263925689 26.9974473,0.263925689 L2.91476692,0.263925689 C1.66076546,0.256666951 1.77809606,1.32733631 1.77809606,1.32733631 L1.7780445,1.32733631 Z" id="路径" fill="#5C546A"></path>
                            <path d="M2.82669806,39.7760678 L26.9753785,39.7760678 C27.4300456,39.7760678 27.7967121,39.4607344 27.7967121,39.0647365 L27.7967121,2.51538926 C27.7967121,2.11938879 27.4300449,1.80405796 26.9753785,1.80405796 L2.82669806,1.80405796 C2.3793645,1.80405796 2.01269926,2.11939137 2.01269926,2.51538925 L2.01269926,39.0647365 C2.01269926,39.4607369 2.37936643,39.7760678 2.82669806,39.7760678 L2.82669806,39.7760678 Z" id="路径" fill="#5C546A"></path>
                            <path d="M15.2053863,39.2260744 L26.6380949,39.2260744 C26.9974286,39.2260744 27.2834261,39.094024 27.2834261,38.9326906 L27.2834261,2.84534388 C27.2834261,2.68401043 26.9900925,2.55201027 26.6380949,2.55201027 L15.2053863,2.55201027 L15.2053863,39.2260744 L15.2053863,39.2260744 Z M28.4714017,24.508007 L28.4714017,16.6320194 L27.8040662,15.598016 L27.8040662,25.3880059 L28.4714017,24.508007 L28.4714017,24.508007 Z" id="形状" fill="#62A0FC"></path>
                            <path d="M16.1806921,39.2260744 L3.32537247,39.2260744 C2.92203853,39.2260744 2.59937163,39.094024 2.59937163,38.9326906 L2.59937163,2.84534388 C2.59937163,2.68401043 2.92203853,2.55201027 3.32537247,2.55201027 L16.1806921,2.55201027 L16.1806921,39.2260744 L16.1806921,39.2260744 Z M1.2573271,24.508007 L1.2573271,16.6320194 L2.01266059,15.598016 L2.01266059,25.3880059 L1.2573271,24.508007 L1.2573271,24.508007 Z" id="形状" fill="#62A0FC"></path>
                            <path d="M24.5333757,3.97467416 C24.5333757,3.79867374 24.6800428,3.65200726 24.8560426,3.65200726 C25.032043,3.65200726 25.1787095,3.79867438 25.1787095,3.97467416 L25.1787095,37.9720614 C25.1787095,38.1553946 25.0320423,38.2947283 24.8560426,38.2947283 C24.6800421,38.2947283 24.5333757,38.1480611 24.5333757,37.9720614 L24.5333757,3.97467416 L24.5333757,3.97467416 Z M22.8907085,3.97467416 C22.8907085,3.79867374 23.0373756,3.65200726 23.2133754,3.65200726 C23.3893758,3.65200726 23.5360423,3.79867438 23.5360423,3.97467416 L23.5360423,37.9720614 C23.5360423,38.1553946 23.3893752,38.2947283 23.2133754,38.2947283 C23.037375,38.2947283 22.8907085,38.1480611 22.8907085,37.9720614 L22.8907085,3.97467416 L22.8907085,3.97467416 Z M21.1087064,3.97467416 C21.1087064,3.79867374 21.2553736,3.65200726 21.4313733,3.65200726 C21.6073738,3.65200726 21.7540402,3.79867438 21.7540402,3.97467416 L21.7540402,37.9720614 C21.7540402,38.1553946 21.6073731,38.2947283 21.4313733,38.2947283 C21.2553729,38.2947283 21.1087064,38.1480611 21.1087064,37.9720614 L21.1087064,3.97467416 L21.1087064,3.97467416 Z M19.495372,3.97467416 C19.495372,3.79867374 19.6420391,3.65200726 19.8180389,3.65200726 C19.9940393,3.65200726 20.1407057,3.79867438 20.1407057,3.97467416 L20.1407057,37.9720614 C20.1407057,38.1553946 19.9940386,38.2947283 19.8180389,38.2947283 C19.6420384,38.2947283 19.495372,38.1480611 19.495372,37.9720614 L19.495372,3.97467416 L19.495372,3.97467416 Z M17.5593718,3.97467416 C17.5593718,3.79867374 17.706039,3.65200726 17.8820387,3.65200726 C18.0580392,3.65200726 18.2047056,3.79867438 18.2047056,3.97467416 L18.2047056,37.9720614 C18.2047056,38.1553946 18.0580385,38.2947283 17.8820387,38.2947283 C17.7060383,38.2947283 17.5593718,38.1480611 17.5593718,37.9720614 L17.5593718,3.97467416 L17.5593718,3.97467416 Z M15.821372,3.98200751 C15.821372,3.79867425 15.9680391,3.65934061 16.1440389,3.65934061 C16.3200393,3.65934061 16.4667058,3.80600774 16.4667058,3.98200751 L16.4667058,37.9793947 C16.4667058,38.162728 16.3200386,38.3020616 16.1440389,38.3020616 C15.9680385,38.3020616 15.821372,38.1553945 15.821372,37.9793947 L15.821372,3.98200751 Z M5.01933792,3.97467416 C5.01933792,3.79867374 4.8726708,3.65200726 4.69667102,3.65200726 C4.5206706,3.65200726 4.37400412,3.79867438 4.37400412,3.97467416 L4.37400412,37.9720614 C4.37400412,38.1553946 4.52067124,38.2947283 4.69667102,38.2947283 C4.87267144,38.2947283 5.01933792,38.1480611 5.01933792,37.9720614 L5.01933792,3.97467416 L5.01933792,3.97467416 Z M7.13134038,3.97467416 C7.13134038,3.79867374 6.98467325,3.65200726 6.80867348,3.65200726 C6.63267306,3.65200726 6.48600658,3.79867438 6.48600658,3.97467416 L6.48600658,37.9720614 C6.48600658,38.1553946 6.6326737,38.2947283 6.80867348,38.2947283 C6.9846739,38.2947283 7.13134038,38.1480611 7.13134038,37.9720614 L7.13134038,3.97467416 Z M8.9426751,3.97467416 C8.9426751,3.79867374 8.79600798,3.65200726 8.6200082,3.65200726 C8.44400778,3.65200726 8.2973413,3.79867438 8.2973413,3.97467416 L8.2973413,37.9720614 C8.2973413,38.1553946 8.44400843,38.2947283 8.6200082,38.2947283 C8.79600862,38.2947283 8.9426751,38.1480611 8.9426751,37.9720614 L8.9426751,3.97467416 Z M10.8713469,3.97467416 C10.8713469,3.79867374 10.7246798,3.65200726 10.54868,3.65200726 C10.3726796,3.65200726 10.2260131,3.79867438 10.2260131,3.97467416 L10.2260131,37.9720614 C10.2260131,38.1553946 10.3726802,38.2947283 10.54868,38.2947283 C10.7246804,38.2947283 10.8713469,38.1480611 10.8713469,37.9720614 L10.8713469,3.97467416 Z M12.9613515,3.98200751 C12.9613515,3.79867425 12.8146843,3.65934061 12.6386846,3.65934061 C12.4626841,3.65934061 12.3160177,3.80600774 12.3160177,3.98200751 L12.3160177,37.9793947 C12.3160177,38.162728 12.4626848,38.3020616 12.6386846,38.3020616 C12.814685,38.3020616 12.9613515,38.1553945 12.9613515,37.9793947 L12.9613515,3.98200751 L12.9613515,3.98200751 Z M14.728684,3.98200751 C14.728684,3.79867425 14.5820169,3.65934061 14.4060171,3.65934061 C14.2300167,3.65934061 14.0833502,3.80600774 14.0833502,3.98200751 L14.0833502,37.9793947 C14.0833502,38.162728 14.2300173,38.3020616 14.4060171,38.3020616 C14.5820175,38.3020616 14.728684,38.1553945 14.728684,37.9793947 L14.728684,3.98200751 L14.728684,3.98200751 Z" id="形状" fill="#FFFFFF"></path>
                            <polygon id="路径" fill="#FFE38A" points="14.9669522 3.10933838 14.8986855 3.10933838 14.8986855 2.54467099 14.9669522 2.54467099"></polygon>
                            <path d="M26.0513774,50.4387804 L26.0513774,43.1274408 C26.0513774,43.1274408 25.9633775,42.2547703 25.0833742,42.2547703 C24.1960405,42.2547703 24.8193738,45.2027758 24.7680407,46.192777 C24.709374,47.1901129 25.1933745,50.277447 25.1933745,50.277447 L26.0513774,50.4387804 L26.0513774,50.4387804 Z" id="路径" fill="#8A8895"></path>
                            <path d="M25.4427459,53.2107572 L26.3374143,52.3747541 C26.3374143,52.3747541 29.1240871,51.0474178 29.1900871,50.8567523 C29.2560872,50.6660856 29.1900871,50.1894168 29.1900871,50.1894168 L26.6820842,50.9154176 C26.6820842,50.9154176 26.2567505,50.790751 26.0514167,50.4387501 C25.846083,50.0794165 25.186081,50.2114166 25.186081,50.2114166 L25.4427478,53.2107572 L25.4427459,53.2107572 Z M26.7554126,44.3300731 L26.4987458,44.3300731 L26.4987458,42.2840707 L26.7554126,42.2840707 L26.7554126,44.3300731 L26.7554126,44.3300731 Z" id="形状" fill="#5C546A"></path>
                            <path d="M6.08268037,54.87539 C6.25868079,55.0587233 6.44934753,55.2200574 6.66201409,55.3593904 C7.18268122,55.7260575 8.52468579,56.2907262 10.6073491,56.5033896 C11.5973503,56.6720565 14.8973541,56.7307231 14.8973541,56.7307231 L15.0513541,56.7307231 C15.0513541,56.7307231 18.3440232,56.6720564 19.3413591,56.5033896 C21.4240289,56.2907224 22.7660283,55.7260582 23.2866942,55.3593904 C23.8073613,54.9927232 24.7606937,54.2740565 24.5846978,52.3160521 C24.4966979,51.3187161 24.3500308,49.8593797 24.2253641,48.66405 C14.7433316,54.5160589 8.73732463,55.0513879 6.08268037,54.875392 L6.08268037,54.87539 Z" id="路径" fill="#5C546A"></path>
                        </g>
                    </g>
                </g>
            </g>
        </g>
    </g>
</svg>