<?xml version="1.0" encoding="UTF-8"?>
<svg width="42px" height="42px" viewBox="0 0 42 42" version="1.1" xmlns="http://www.w3.org/2000/svg" xmlns:xlink="http://www.w3.org/1999/xlink">
    <!-- Generator: Sketch 49 (51002) - http://www.bohemiancoding.com/sketch -->
    <title>认证 (1)</title>
    <desc>Created with Sketch.</desc>
    <defs>
        <rect id="path-1" x="0" y="0" width="48" height="48"></rect>
    </defs>
    <g id="Page-1" stroke="none" stroke-width="1" fill="none" fill-rule="evenodd">
        <g id="个人-租客-未登录" transform="translate(-33.000000, -564.000000)">
            <g id="场所编号-copy-7" transform="translate(0.000000, 535.000000)">
                <g id="认证-(1)" transform="translate(30.000000, 26.000000)">
                    <mask id="mask-2" fill="white">
                        <use xlink:href="#path-1"></use>
                    </mask>
                    <g id="Mask"></g>
                    <g id="历史记录-(1)" mask="url(#mask-2)" fill="#333333" fill-rule="nonzero">
                        <g transform="translate(3.000000, 3.000000)" id="Shape">
                            <path d="M42,20.9592188 C41.9984467,20.1307916 41.3256146,19.460478 40.4971875,19.4620313 C39.6687604,19.4635846 38.9984467,20.1364166 39,20.9648437 L39,21 C39,30.94125 30.94125,39 21,39 C11.05875,39 3,30.94125 3,21 C3,11.05875 11.05875,3 21,3 C27.0225,3 32.3535938,5.9578125 35.62125,10.5 L33,10.5 C32.1715729,10.5 31.5,11.1715729 31.5,12 C31.5,12.8284271 32.1715729,13.5 33,13.5 L38.25,13.5 C39.0784271,13.5 39.75,12.8284271 39.75,12 L39.75,5.25 C39.75,4.42157288 39.0784271,3.75 38.25,3.75 C37.4215729,3.75 36.75,4.42157288 36.75,5.25 L36.75,7.11046875 C32.9020313,2.75015625 27.2723437,0 21,0 C9.4021875,0 0,9.4021875 0,21 C0,32.5978125 9.4021875,42 21,42 C32.5978125,42 42,32.5978125 42,21 L42,20.9592188 Z"></path>
                            <path d="M30.45,22.6676471 C30.45,21.8489661 29.786328,21.1852941 28.9676471,21.1852941 L20.8147059,21.1852941 L20.8147059,13.0323529 C20.8147059,12.213672 20.1510339,11.55 19.3323529,11.55 C18.513672,11.55 17.85,12.213672 17.85,13.0323529 L17.85,22.6676471 C17.85,23.486328 18.513672,24.15 19.3323529,24.15 L28.9676471,24.15 C29.786328,24.15 30.45,23.486328 30.45,22.6676471 Z"></path>
                        </g>
                    </g>
                </g>
            </g>
        </g>
    </g>
</svg>