<?xml version="1.0" encoding="UTF-8"?>
<svg width="120px" height="120px" viewBox="0 0 120 120" version="1.1" xmlns="http://www.w3.org/2000/svg" xmlns:xlink="http://www.w3.org/1999/xlink">
    <!-- Generator: Sketch 60 (88103) - https://sketch.com -->
    <title>外出签到</title>
    <desc>Created with Sketch.</desc>
    <defs>
        <rect id="path-1" x="0" y="6" width="70" height="60" rx="8"></rect>
        <filter x="-9.3%" y="-9.2%" width="118.6%" height="121.7%" filterUnits="objectBoundingBox" id="filter-2">
            <feOffset dx="0" dy="1" in="SourceAlpha" result="shadowOffsetOuter1"></feOffset>
            <feGaussianBlur stdDeviation="2" in="shadowOffsetOuter1" result="shadowBlurOuter1"></feGaussianBlur>
            <feColorMatrix values="0 0 0 0 0.309803922   0 0 0 0 0.250980392   0 0 0 0 0.694117647  0 0 0 1 0" type="matrix" in="shadowBlurOuter1"></feColorMatrix>
        </filter>
        <path d="M29.6414702,50.0378278 L16.4179557,37.80161 C15.8606814,37.2400975 15.8606814,36.3282175 16.4179557,35.7710716 L19.4357219,32.7236372 C19.9929534,32.1626812 20.8960999,32.1626812 21.4532457,32.7236372 L30.6587516,40.8829807 L50.5509605,21.4209097 C51.1039536,20.8596968 52.0071429,20.8596968 52.5642888,21.4209097 L55.5821406,24.4683441 C56.1392865,25.0293001 56.1392865,25.9373699 55.5821406,26.498326 L31.6548841,50.0378278 C31.0976098,50.5993403 30.1944205,50.5993403 29.6414702,50.0378278 Z" id="path-3"></path>
        <filter x="-17.5%" y="-17.0%" width="135.0%" height="147.5%" filterUnits="objectBoundingBox" id="filter-4">
            <feOffset dx="0" dy="2" in="SourceAlpha" result="shadowOffsetOuter1"></feOffset>
            <feGaussianBlur stdDeviation="2" in="shadowOffsetOuter1" result="shadowBlurOuter1"></feGaussianBlur>
            <feColorMatrix values="0 0 0 0 0.904761905   0 0 0 0 0.538974483   0 0 0 0 0.0868205868  0 0 0 0.333333333 0" type="matrix" in="shadowBlurOuter1"></feColorMatrix>
        </filter>
    </defs>
    <g id="专题任务" stroke="none" stroke-width="1" fill="none" fill-rule="evenodd">
        <g id="康复人员" transform="translate(-315.000000, -933.000000)">
            <g id="外出签到" transform="translate(315.000000, 933.000000)">
                <rect id="Rectangle-4" x="0" y="0" width="120" height="120"></rect>
                <rect id="Rectangle-12" fill="#4B5BBD" x="4" y="13" width="112" height="100" rx="8"></rect>
                <rect id="Rectangle-12" fill="#717FD5" x="4" y="8" width="112" height="100" rx="8"></rect>
                <g id="编组" transform="translate(25.000000, 26.000000)">
                    <g id="Rectangle-12">
                        <use fill="black" fill-opacity="1" filter="url(#filter-2)" xlink:href="#path-1"></use>
                        <use fill="#FFFFFF" fill-rule="evenodd" xlink:href="#path-1"></use>
                    </g>
                    <rect id="Rectangle-12备份" fill="#4B5BBD" x="12" y="0" width="8" height="18" rx="4"></rect>
                    <rect id="Rectangle-12备份-2" fill="#4B5BBD" x="50" y="0" width="8" height="18" rx="4"></rect>
                    <rect id="Rectangle-12备份" fill="#5867C4" x="12" y="0" width="8" height="16" rx="4"></rect>
                    <rect id="Rectangle-12备份-2" fill="#5867C4" x="50" y="0" width="8" height="16" rx="4"></rect>
                    <g id="Shape" fill-rule="nonzero">
                        <use fill="black" fill-opacity="1" filter="url(#filter-4)" xlink:href="#path-3"></use>
                        <use fill="#F7AF56" xlink:href="#path-3"></use>
                    </g>
                </g>
            </g>
        </g>
    </g>
</svg>