<?xml version="1.0" encoding="UTF-8"?>
<svg width="40px" height="42px" viewBox="0 0 40 42" version="1.1" xmlns="http://www.w3.org/2000/svg" xmlns:xlink="http://www.w3.org/1999/xlink">
    <!-- Generator: Sketch 49 (51002) - http://www.bohemiancoding.com/sketch -->
    <title>反馈</title>
    <desc>Created with Sketch.</desc>
    <defs>
        <rect id="path-1" x="0" y="0" width="48" height="48"></rect>
    </defs>
    <g id="Page-1" stroke="none" stroke-width="1" fill="none" fill-rule="evenodd">
        <g id="个人-租客-未登录" transform="translate(-36.000000, -764.000000)">
            <g id="场所编号-copy-8" transform="translate(0.000000, 735.000000)">
                <g id="反馈" transform="translate(30.000000, 26.000000)">
                    <mask id="mask-2" fill="white">
                        <use xlink:href="#path-1"></use>
                    </mask>
                    <g id="Mask"></g>
                    <g mask="url(#mask-2)" fill="#333333" fill-rule="nonzero" id="Shape">
                        <g transform="translate(6.000000, 3.000000)">
                            <path d="M31.6763653,41.982755 L4.52394216,41.982755 C2.02686303,41.982755 0,39.9621356 0,37.4726083 L0,7.40532209 C0,4.91602857 2.02686303,2.89536241 4.52394216,2.89536241 L25.6359223,2.89536241 C26.4710179,2.89536241 27.1441219,3.56615924 27.1441219,4.39872906 C27.1441219,5.23125212 26.4710648,5.9020022 25.6359223,5.9020022 L4.52394216,5.9020022 C3.69710098,5.9020022 3.01597707,6.58102794 3.01597707,7.40532209 L3.01597707,37.472655 C3.01597707,38.3050846 3.69710098,38.9762087 4.52394216,38.9762087 L31.6680641,38.9762087 C32.5032065,38.9762087 33.1760761,38.3051313 33.1760761,37.472655 L33.1760761,13.4107 C33.1760761,12.578364 33.8491801,11.9073334 34.6839943,11.9073334 C35.5191836,11.9073334 36.1920062,12.5783172 36.1920062,13.4107 L36.1920062,37.4643326 C36.200073,39.9541404 34.1653308,41.982755 31.6763653,41.982755 Z"></path>
                            <path d="M22.5822693,17.824618 C22.1929883,17.824618 21.8115435,17.6801739 21.5114649,17.3830676 C21.2271753,17.1039052 21.0672804,16.7239958 21.0672804,16.3276878 C21.0672804,15.9313797 21.2271753,15.5514703 21.5114649,15.272308 L36.5099987,0.439509995 C36.7921302,0.158212205 37.1760802,6.59811675e-16 37.5766033,0 C37.9771264,-6.59811675e-16 38.3610765,0.158212205 38.643208,0.439509995 C38.9275,0.7187183 39.0873926,1.09866376 39.0873926,1.49500589 C39.0873926,1.89134802 38.9275,2.27129348 38.643208,2.55050179 L23.6446742,17.3910072 C23.3528542,17.6802204 22.9633855,17.8246645 22.5822693,17.8246645 L22.5822693,17.824618 Z M16.3523654,17.824618 L7.29979875,17.824618 C6.46422414,17.824618 5.79072482,17.1584851 5.79072482,16.331704 C5.79072482,15.5050157 6.46422414,14.8388364 7.29979875,14.8388364 L16.3522715,14.8388364 C17.1879869,14.8388364 17.8612985,15.5050157 17.8612985,16.331704 C17.861017,17.1585315 17.1880338,17.824618 16.3523184,17.824618 L16.3523654,17.824618 Z M25.4132375,26.7821023 L7.29979875,26.7821023 C6.46427107,26.7821023 5.79081867,26.1159694 5.79081867,25.2892811 C5.79081867,24.4625464 6.46427107,23.7964135 7.29979875,23.7964135 L25.4050258,23.7964135 C26.2405535,23.7964135 26.9140059,24.4625464 26.9140059,25.2892811 C26.9140059,26.1159694 26.2405535,26.7821023 25.4132844,26.7821023 L25.4132375,26.7821023 Z"></path>
                        </g>
                    </g>
                </g>
            </g>
        </g>
    </g>
</svg>