<?xml version="1.0" encoding="UTF-8"?>
<svg width="48px" height="42px" viewBox="0 0 48 42" version="1.1" xmlns="http://www.w3.org/2000/svg" xmlns:xlink="http://www.w3.org/1999/xlink">
    <!-- Generator: Sketch 49 (51002) - http://www.bohemiancoding.com/sketch -->
    <title>认证 (1)</title>
    <desc>Created with Sketch.</desc>
    <defs>
        <rect id="path-1" x="0" y="0" width="48" height="48"></rect>
    </defs>
    <g id="Page-1" stroke="none" stroke-width="1" fill="none" fill-rule="evenodd">
        <g id="个人-租客-未登录" transform="translate(-30.000000, -464.000000)">
            <g id="场所编号-copy-11" transform="translate(0.000000, 435.000000)">
                <g id="认证-(1)" transform="translate(30.000000, 26.000000)">
                    <mask id="mask-2" fill="white">
                        <use xlink:href="#path-1"></use>
                    </mask>
                    <g id="Mask"></g>
                    <g id="首页-(3)" mask="url(#mask-2)" fill="#333333" fill-rule="nonzero" stroke="#333333" stroke-width="0.4">
                        <g transform="translate(1.000000, 4.000000)" id="Shape">
                            <path d="M44.7220227,25.0891044 C44.3696921,25.0891044 44.0223883,24.9449139 43.7670496,24.6641803 L24.5685303,3.27303121 C24.1370263,2.79244063 23.5727138,2.52940301 22.9803495,2.52940301 C22.3879852,2.52940301 21.8211143,2.79497498 21.3921686,3.27556555 L2.23193443,24.6667146 C1.76470359,25.1902556 0.955240798,25.2332949 0.429258233,24.7729346 C-0.0992826163,24.3075055 -0.14524269,23.5107452 0.321988154,22.9871598 L19.4797089,1.59601066 C20.4014687,0.566580222 21.644949,0 22.9777911,0 L22.9803495,0 C24.3131916,0 25.556627,0.566580222 26.4758285,1.59352078 L45.676951,22.9846699 C46.146785,23.5056765 46.0982666,24.3049712 45.5696809,24.7704002 C45.3358875,24.9755989 45.0343794,25.0889605 44.7220227,25.0891044 Z"></path>
                            <path d="M38.2337184,23.0000446 L38.2337184,35.6948052 C38.2337184,37.0963238 37.0962746,38.2338109 35.6947542,38.2338109 L30.6168704,38.2338109 L30.6168704,28.0779221 C30.6168704,25.2748848 28.3393942,23 25.5389419,23 L20.4609688,23 C17.6605166,23 15.3830404,25.2748848 15.3830404,28.0779221 L15.3830404,38.2337216 L10.3052012,38.2337216 C8.90622471,38.2337216 7.76619233,37.0962792 7.76619233,35.6947606 L7.76619233,23.0000446 L5.22727273,23 L5.22727273,35.6948052 C5.22727273,38.4952985 7.50474893,40.7727273 10.3052012,40.7727273 L17.9220938,40.7727273 L17.9220938,28.0779667 C17.9220938,26.678992 19.062037,25.538961 20.4610135,25.538961 L25.5389865,25.538961 C26.940507,25.538961 28.0779508,26.678992 28.0779508,28.0779667 L28.0779508,40.7727273 L35.6947988,40.7727273 C38.4952957,40.7727273 40.7727273,38.4952539 40.7727273,35.6948052 L40.7727273,23 L38.233763,23.0000446 L38.2337184,23.0000446 Z"></path>
                        </g>
                    </g>
                </g>
            </g>
        </g>
    </g>
</svg>