<?xml version="1.0" encoding="UTF-8"?>
<svg width="42px" height="42px" viewBox="0 0 42 42" version="1.1" xmlns="http://www.w3.org/2000/svg" xmlns:xlink="http://www.w3.org/1999/xlink">
    <!-- Generator: Sketch 49 (51002) - http://www.bohemiancoding.com/sketch -->
    <title>关于我们</title>
    <desc>Created with Sketch.</desc>
    <defs>
        <rect id="path-1" x="0" y="0" width="48" height="48"></rect>
    </defs>
    <g id="Page-1" stroke="none" stroke-width="1" fill="none" fill-rule="evenodd">
        <g id="个人-租客-未登录" transform="translate(-33.000000, -864.000000)">
            <g id="场所编号-copy-12" transform="translate(0.000000, 835.000000)">
                <g id="关于我们" transform="translate(30.000000, 26.000000)">
                    <mask id="mask-2" fill="white">
                        <use xlink:href="#path-1"></use>
                    </mask>
                    <g id="Mask"></g>
                    <path d="M33.9184096,8.9764098 C30.9993322,7.04472293 27.5811861,6 24,6 C14.0588745,6 6,14.0588745 6,24 C6,33.9411255 14.0588745,42 24,42 C33.9411255,42 42,33.9411255 42,24 C42,21.1148946 41.3228349,18.3332923 40.041319,15.8246208 L40.0456789,15.8223936 C39.9702031,15.6433653 39.9284798,15.4466212 39.9284798,15.2401322 C39.9284798,14.4117051 40.6000526,13.7401322 41.4284798,13.7401322 C41.9716127,13.7401322 42.4473239,14.028799 42.7105608,14.46108 L42.7129225,14.4598736 C42.7194757,14.4727019 42.726016,14.4855379 42.7325435,14.4983815 C42.757922,14.5429031 42.7810862,14.5888505 42.8018863,14.6360738 C44.2086403,17.4552404 45,20.6352042 45,24 C45,35.5979797 35.5979797,45 24,45 C12.4020203,45 3,35.5979797 3,24 C3,12.4020203 12.4020203,3 24,3 C28.2770399,3 32.255441,4.27862471 35.5738094,6.47448026 C35.9893,6.74119734 36.2645887,7.20729827 36.2645887,7.73769631 C36.2645887,8.56612343 35.5930158,9.23769631 34.7645887,9.23769631 C34.450671,9.23769631 34.1592759,9.1412654 33.9184096,8.9764098 Z" id="Combined-Shape" fill="#333333" fill-rule="nonzero" mask="url(#mask-2)"></path>
                    <g id="Group" mask="url(#mask-2)" fill="#333333">
                        <g transform="translate(19.000000, 13.000000)" id="Path">
                            <path d="M7.56361607,0.653587444 C6.74776786,0.653587444 6.171875,0.846412556 5.54799107,1.47309417 C4.92410714,1.85874439 4.73214286,2.48542601 4.73214286,3.25672646 C4.73214286,3.88340807 4.92410714,4.46188341 5.54799107,5.08856502 C6.171875,5.47421525 6.74776786,5.90807175 7.56361607,5.90807175 C8.37946429,5.90807175 8.95535714,5.71524664 9.57924107,5.08856502 C10.203125,4.7029148 10.3950893,4.07623318 10.3950893,3.25672646 C10.3950893,2.63004484 10.203125,2.05156951 9.57924107,1.47309417 C9.00334821,0.846412556 8.37946429,0.653587444 7.56361607,0.653587444 Z"></path>
                            <path d="M8.37946429,20.3217489 C7.75558036,20.3217489 7.37165179,20.3217489 7.1796875,20.1289238 C6.98772321,19.9360987 6.79575893,19.5022422 6.79575893,19.1165919 C6.79575893,18.9237668 6.79575893,18.4899103 6.98772321,18.1042601 C6.98772321,17.7186099 7.1796875,17.2847534 7.1796875,17.0919283 L8.37946429,13.0908072 C8.57142857,12.705157 8.57142857,12.2713004 8.57142857,11.8856502 C8.57142857,11.5 8.57142857,11.0661435 8.57142857,10.8733184 C8.57142857,10.0538117 8.1875,9.28251121 7.56361607,8.84865471 C6.93973214,8.22197309 6.171875,8.02914798 4.97209821,8.02914798 C4.34821429,8.02914798 3.77232143,8.22197309 2.95647321,8.41479821 C2.140625,8.60762332 1.56473214,8.80044843 0.748883929,9.23430493 L0.364955357,10.4394619 C0.556919643,10.4394619 0.748883929,10.2466368 1.18080357,10.2466368 C1.61272321,10.2466368 1.8046875,10.0538117 2.18861607,10.0538117 C2.8125,10.0538117 3.19642857,10.2466368 3.38839286,10.2466368 C3.58035714,10.4394619 3.77232143,10.8733184 3.77232143,11.2589686 C3.77232143,11.4517937 3.77232143,11.8856502 3.58035714,12.2713004 C3.58035714,12.6569507 3.38839286,13.0908072 3.38839286,13.2836323 L2.18861607,17.2847534 C1.99665179,17.6704036 1.99665179,18.1042601 1.99665179,18.4899103 C1.99665179,18.8755605 1.99665179,19.1165919 1.99665179,19.5022422 C1.99665179,20.3217489 2.38058036,20.9002242 3.00446429,21.5269058 C3.62834821,22.1535874 4.39620536,22.3464126 5.59598214,22.3464126 C6.41183036,22.3464126 6.98772321,22.3464126 7.61160714,22.1535874 C8.23549107,21.9607623 8.81138393,21.7679372 9.81919643,21.3340807 L10.203125,20.1289238 C10.0111607,20.1289238 9.81919643,20.3217489 9.38727679,20.3217489 C8.95535714,20.3217489 8.57142857,20.3217489 8.37946429,20.3217489 Z"></path>
                        </g>
                    </g>
                </g>
            </g>
        </g>
    </g>
</svg>