<?xml version="1.0" encoding="UTF-8"?>
<svg width="160px" height="160px" viewBox="0 0 160 160" version="1.1" xmlns="http://www.w3.org/2000/svg" xmlns:xlink="http://www.w3.org/1999/xlink">
    <!-- Generator: Sketch 50 (54983) - http://www.bohemiancoding.com/sketch -->
    <title>涉毒人员</title>
    <desc>Created with Sketch.</desc>
    <defs></defs>
    <g id="页面" stroke="none" stroke-width="1" fill="none" fill-rule="evenodd">
        <g id="Artboard-2" transform="translate(-295.000000, -171.000000)" fill-rule="nonzero">
            <g id="涉毒人员" transform="translate(295.000000, 171.000000)">
                <path d="M79.9915399,0.0867952034 C35.8267382,0.0867952034 0.0178349411,35.857359 0.0178349411,79.974875 C0.0178349411,101.770507 8.75421222,121.534218 22.9343623,135.947695 C37.4510897,150.712006 57.6457307,159.862955 79.9915399,159.862955 C101.869068,159.862955 121.697864,151.092077 136.126788,136.868637 C150.848389,122.38207 159.965245,102.238287 159.965245,79.974875 C159.965245,35.857359 124.156341,0.0867950321 79.9915399,0.0867952034 Z" id="Shape" fill="#8994D5"></path>
                <path d="M113.254162,44.3504925 L116.488232,44.9498359 C110.795684,36.8221557 111.381036,29.0306924 86.5767489,20.8737759 C74.0794855,16.7660814 65.1821366,11.328137 63.6455877,8.41912925 C63.0456019,13.4331478 63.2358414,15.143469 65.1236013,19.1780728 C60.4554198,19.9820699 56.3579564,18.1401855 52.0263523,16.4298643 C52.8751125,21.1807565 55.2604217,25.0837972 58.4798571,28.4021127 C54.3677599,29.0306922 48.8947197,31.2672661 42.4265809,44.9498359 L45.6606503,44.3504925 C45.4118757,45.0375447 45.1484673,45.7099786 44.9874955,46.4701213 C43.1143693,49.8615274 41.1680743,54.4516202 42.6021865,58.8662955 C42.9387639,58.2669521 43.4509467,57.682227 43.8753269,57.1705924 C45.2362701,74.0545324 60.6895606,87.3716488 79.4647232,87.3716488 C98.3276884,87.3716488 113.693176,74.0545324 115.054119,57.1705924 C115.566302,57.682227 115.990682,58.2815702 116.32726,58.8662955 C117.746738,54.4370021 113.502937,45.0229264 113.254162,44.3504925 Z" id="Shape" fill="#CC7C54"></path>
                <path d="M131.414705,127.966196 C128.605016,125.495732 122.400286,120.554804 103.551954,111.666981 C100.478857,110.219786 97.0838156,108.670264 93.2936621,107.003797 C93.1619579,106.945325 93.01562,106.886852 92.8839156,106.82838 C92.6790424,106.740671 92.4595354,106.638344 92.2546624,106.550635 L86.635284,106.506781 L71.8990496,106.404454 L66.806488,106.375218 C66.4991782,106.506781 66.1918685,106.638344 65.8845587,106.784525 C65.7674883,106.842998 65.6357841,106.886852 65.5187138,106.945325 C61.7578277,108.611792 58.3627867,110.161313 55.2896892,111.608508 C36.5291605,120.481713 30.1341908,125.51035 27.3391353,127.980814 C25.6562487,129.471863 24.2221364,132.30778 22.948996,135.962313 C37.4657235,150.726624 57.6603644,159.877573 80.0061736,159.877573 C101.883701,159.877573 121.712497,151.106695 136.141422,136.883255 C134.780479,132.77556 133.24393,129.57419 131.414705,127.966196 Z" id="Shape" fill="#FCC076"></path>
                <path d="M92.8839156,81.6851962 C92.854648,80.8958172 92.7814791,80.1356745 92.6351412,79.4340043 C91.7278457,74.7708209 88.4206074,71.7594861 84.4255806,70.4292363 C81.2061452,69.3474946 77.5330619,69.3474946 74.2989925,70.4438544 C70.3332334,71.7887224 67.0406289,74.785439 66.1333333,79.4193862 C65.9869954,80.1356745 65.9138264,80.8958174 65.8845587,81.6851962 L65.8845587,112.92414 C69.3820364,117.061071 73.9331474,119.312263 78.5427939,119.604625 C79.1427797,119.633862 79.7573992,119.64848 80.3573848,119.604625 C84.9231297,119.370735 89.4303395,117.163398 92.8985495,112.92414 L92.8985495,82.1091221 C92.8839158,81.9629408 92.8839158,81.8313776 92.8839156,81.6851962 Z" id="Shape" fill="#F7C5AA"></path>
                <path d="M92.8839156,81.6851962 C92.854648,80.8958172 92.7814791,80.1356745 92.6351412,79.4340043 C91.7278457,74.7708209 88.4206074,71.7594861 84.4255806,70.4292363 C81.2061452,69.3474946 77.5330619,69.3474946 74.2989925,70.4438544 C70.3332334,71.7887224 67.0406289,74.785439 66.1333333,79.4193862 C65.9869954,80.1356745 65.9138264,80.8958174 65.8845587,81.6851962 L65.8845587,102.735303 C67.9479242,104.240971 69.982022,105.483512 71.8990496,106.419072 C74.7380064,107.807794 77.3135547,108.538701 79.3915541,108.538701 C81.4110182,108.538701 83.8987639,107.837031 86.6499178,106.521399 C88.6401142,105.571221 90.7473811,104.299443 92.8985495,102.735303 L92.8985495,82.1091221 C92.8839158,81.9629408 92.8839158,81.8313776 92.8839156,81.6851962 Z" id="Shape" fill="#F7C5AA"></path>
                <polygon id="Shape" fill="#FFFFFF" points="78.52816 119.590007 65.869925 107.29616 65.5040801 106.930707 64.5821508 106.039001 55.0116471 111.228437 55.2896892 111.608508 68.8991211 130.465896 79.4500893 120.467095 78.52816 119.590007"></polygon>
                <polygon id="Shape" fill="#FFFFFF" points="94.2887602 106.039001 93.2936621 107.003797 92.8839156 107.398487 80.342751 119.590007 79.4354555 120.467095 89.9864237 130.451278 103.551954 111.666981 103.873898 111.213819 94.2887602 106.039001"></polygon>
                <g id="Group-3" transform="translate(42.000000, 29.000000)" fill="#FFDECC">
                    <g id="Group-5">
                        <path d="M37.4500893,0.0306924197 C9.92391563,0.0306924197 5.12403001,20.2183298 6.26546624,37.0437973 C6.26546624,37.1168881 6.28009998,37.2045968 6.28009998,37.2776874 C6.41180416,39.0757173 6.60204347,40.8298929 6.83618435,42.5109778 C7.24593063,45.3761312 7.78738126,48.0366309 8.35809938,50.3755318 C9.48490186,54.907152 10.7287746,58.1669951 11.3726616,59.1025554 C13.1140836,61.6607281 18.294448,66.4554748 23.8845587,70.3877516 C28.8015148,73.8522484 34.0111468,76.6443113 37.4500893,76.6443113 C40.8451303,76.6443113 46.010861,73.8961028 50.8839156,70.4754604 C56.5179277,66.5285653 61.7568274,61.6753461 63.5128832,59.1025554 C64.1421364,58.1669951 65.3860093,54.9510064 66.4981779,50.4486224 C67.0835298,48.1097216 67.6249804,45.4346039 68.0347267,42.5402141 C68.298135,40.7421842 68.5030083,38.8564454 68.6200785,36.9268522 L68.6200785,36.9122342 C69.746881,20.1160029 64.9030938,0.0306924197 37.4500893,0.0306924197 Z" id="Shape"></path>
                        <path d="M72.1614577,35.9474376 C71.912683,35.8743469 71.6492747,35.8158744 71.4005002,35.8158744 C70.7273456,35.8012564 70.0249233,36.0205283 69.3517685,36.4298359 C69.1176278,36.5760171 68.8834869,36.7368166 68.6493462,36.9268522 C67.5518114,37.8185581 66.5420793,39.2072805 65.8250233,40.9176017 C65.6786854,41.2538188 65.5469812,41.6192719 65.4299107,41.9847251 C65.0201645,43.2272661 64.8152912,44.440571 64.7860236,45.566167 C64.7713898,45.9608565 64.7860236,46.340928 64.8152912,46.7063812 C64.9616292,48.387466 65.5469812,49.732334 66.5128117,50.4486224 C66.7469524,50.6240399 66.995727,50.7556031 67.2737693,50.8433119 C69.6590782,51.6180728 72.6736406,48.9283368 74.0199499,44.8060243 C75.3662594,40.6983298 74.517499,36.7368166 72.1614577,35.9474376 Z M9.35319751,41.9847251 C9.23612707,41.63389 9.10442289,41.2830549 8.97271889,40.9614561 C8.29956424,39.36808 7.37763498,38.0524483 6.36790277,37.1461242 C6.32400137,37.1168879 6.29473372,37.0730335 6.2508325,37.0437973 C6.16302971,36.9560886 6.06059318,36.8829979 5.95815648,36.8099072 C5.15329766,36.1959457 4.30453728,35.8451106 3.48504472,35.8304925 C3.17773496,35.8304925 2.88505895,35.8743469 2.59238294,35.9620557 C0.221707696,36.7514347 -0.612418778,40.7129478 0.733890675,44.8206424 C2.08020013,48.928337 5.09476236,51.6326909 7.48007151,50.8579301 C7.80201501,50.7556033 8.08005728,50.5948038 8.34346547,50.3755318 C9.28002847,49.6300072 9.83611284,48.2412848 9.95318328,46.5601999 C9.96781702,46.2824555 9.98245093,45.9754748 9.96781702,45.6831121 C9.98245076,44.5136617 9.77757771,43.2565026 9.35319751,41.9847251 Z" id="Shape"></path>
                    </g>
                </g>
                <path d="M94.2887602,54.1007851 C92.3424652,50.5631976 91.6400429,46.5724481 93.4839014,42.6694076 C88.9474241,52.2296646 65.6796857,57.8430265 66.6894177,56.8636116 C69.777149,53.8376588 74.1526546,45.4468522 73.6112039,44.5697645 C72.455134,42.6986438 54.6604358,57.6237545 48.1044944,66.4823412 C43.7582565,45.5930337 57.9384065,25.6685225 79.2159486,25.6685225 C101.312983,25.6685225 116.707738,46.7478659 110.942022,66.9355032 C108.732319,59.0563311 102.790997,54.2762027 98.0935477,48.8674946 C96.410661,50.1977444 95.1667881,52.054247 94.2887602,54.1007851 Z" id="Shape" fill="#CC7C54"></path>
            </g>
        </g>
    </g>
</svg>