<?xml version="1.0" encoding="UTF-8"?>
<svg width="48px" height="48px" viewBox="0 0 48 48" version="1.1" xmlns="http://www.w3.org/2000/svg" xmlns:xlink="http://www.w3.org/1999/xlink">
    <!-- Generator: Sketch 50 (54983) - http://www.bohemiancoding.com/sketch -->
    <title>语音</title>
    <desc>Created with Sketch.</desc>
    <defs></defs>
    <g id="飞机稿2" stroke="none" stroke-width="1" fill="none" fill-rule="evenodd">
        <g id="请销假" transform="translate(-534.000000, -769.000000)" fill="#FFFFFF" fill-rule="nonzero">
            <g id="Group-Copy" transform="translate(368.000000, 749.000000)">
                <g id="语音" transform="translate(166.000000, 20.000000)">
                    <path d="M24,47.1597091 C22.6105054,47.1597091 21.4736624,45.9968675 21.4736624,44.5755964 L21.4736624,2.58411273 C21.4736624,1.16284165 22.6105054,0 24,0 C25.3894946,0 26.5263376,1.16284165 26.5263376,2.58411273 L26.5263376,44.5755964 C26.5263376,45.9968675 25.3894946,47.1597091 24,47.1597091 Z M13.2631688,39.5366159 C11.8736742,39.5366159 10.7368312,38.3737743 10.7368312,36.9525638 L10.7368312,10.8531887 C10.7368312,9.43197816 11.8736742,8.26913652 13.2631688,8.26913652 C14.6526634,8.26913652 15.7894472,9.43197816 15.7894472,10.8531887 L15.7894472,36.9525638 C15.7894472,38.3737743 14.6526042,39.5366159 13.2631688,39.5366159 Z M2.52627839,32.6888111 C1.13684304,32.6888111 0,31.5259694 0,30.1046983 L0,18.3470974 C0,16.9258264 1.13684304,15.7629847 2.52627839,15.7629847 C3.91571375,15.7629847 5.052616,16.9258264 5.052616,18.3470974 L5.052616,30.1046983 C5.17891215,31.5259694 4.04206911,32.6888111 2.52627839,32.6888111 Z M45.4737216,32.6888111 C44.084227,32.6888111 42.947384,31.5259694 42.947384,30.1046983 L42.947384,18.3470974 C42.947384,16.9258264 44.084227,15.7629847 45.4737216,15.7629847 C46.8632162,15.7629847 48,16.9258264 48,18.3470974 L48,30.1046983 C48,31.5259694 46.863157,32.6888111 45.4737216,32.6888111 Z M34.8631866,39.4074315 C33.473692,39.4074315 32.336849,38.2445899 32.336849,36.8233188 L32.336849,10.7240042 C32.336849,9.30273316 33.473692,8.13989152 34.8631866,8.13989152 C36.2526811,8.13989152 37.389465,9.30273316 37.389465,10.7240042 L37.389465,36.8233188 C37.389465,38.2445899 36.2526219,39.4074315 34.8631866,39.4074315 Z" id="Shape"></path>
                </g>
            </g>
        </g>
    </g>
</svg>