<?xml version="1.0" standalone="no"?><!DOCTYPE svg PUBLIC "-//W3C//DTD SVG 1.1//EN" "http://www.w3.org/Graphics/SVG/1.1/DTD/svg11.dtd"><svg t="1585578164898" class="icon" viewBox="0 0 1137 1024" version="1.1" xmlns="http://www.w3.org/2000/svg" p-id="2265" xmlns:xlink="http://www.w3.org/1999/xlink" width="222.0703125" height="200"><defs><style type="text/css"></style></defs><path d="M995.555556 136.533333h-113.777778V170.666667c0 59.733333-45.511111 108.088889-91.022222 108.088889s-91.022222-48.355556-91.022223-108.088889v-36.977778h-284.444444V170.666667c0 59.733333-34.133333 108.088889-91.022222 108.088889S227.555556 230.4 227.555556 170.666667v-36.977778l-110.933334-2.844445c-31.288889 0-56.888889 25.6-56.888889 56.888889V881.777778c0 31.288889 25.6 56.888889 56.888889 56.888889H995.555556c31.288889 0 56.888889-25.6 56.888888-56.888889V193.422222c0-31.288889-25.6-56.888889-56.888888-56.888889z m-2.844445 742.4H113.777778V352.711111h878.933333v526.222222z" p-id="2266" fill="#515151"></path><path d="M787.911111 233.244444c-31.288889 0-59.733333-31.288889-59.733333-68.266666v-71.111111c0-36.977778 25.6-68.266667 59.733333-68.266667 31.288889 0 59.733333 31.288889 59.733333 68.266667v71.111111c0 39.822222-25.6 68.266667-59.733333 68.266666zM321.422222 233.244444c-31.288889 0-59.733333-31.288889-59.733333-68.266666v-71.111111c0-36.977778 25.6-68.266667 59.733333-68.266667 31.288889 0 59.733333 31.288889 59.733334 68.266667v71.111111c-2.844444 39.822222-28.444444 68.266667-59.733334 68.266666z" p-id="2267" fill="#515151"></path></svg>