<?xml version="1.0" encoding="UTF-8"?>
<svg width="300px" height="84px" viewBox="0 0 300 84" version="1.1" xmlns="http://www.w3.org/2000/svg" xmlns:xlink="http://www.w3.org/1999/xlink">
    <!-- Generator: Sketch 59.1 (86144) - https://sketch.com -->
    <title>编组</title>
    <desc>Created with Sketch.</desc>
    <g id="页面-1" stroke="none" stroke-width="1" fill="none" fill-rule="evenodd">
        <g id="编组">
            <polygon id="矩形备份-7" fill="#FFFFFF" points="0 0 300 0 300 84 0 84"></polygon>
            <path d="M11,10 L85,10 C86.6568542,10 88,11.3431458 88,13 L88,67 C88,68.6568542 86.6568542,70 85,70 L11,70 C9.34314575,70 8,68.6568542 8,67 L8,13 C8,11.3431458 9.34314575,10 11,10 Z" id="矩形" fill="#F5F5FA"></path>
            <path d="M99,10 L200,10 C201.656854,10 203,11.3431458 203,13 L203,18 C203,19.6568542 201.656854,21 200,21 L99,21 C97.3431458,21 96,19.6568542 96,18 L96,13 C96,11.3431458 97.3431458,10 99,10 Z" id="矩形备份" fill="#F5F5FA"></path>
            <path d="M99,26 L288,26 C289.656854,26 291,27.3431458 291,29 L291,34 C291,35.6568542 289.656854,37 288,37 L99,37 C97.3431458,37 96,35.6568542 96,34 L96,29 C96,27.3431458 97.3431458,26 99,26 Z" id="矩形备份-2" fill="#F5F5FA"></path>
            <path d="M99,42 L216,42 C217.656854,42 219,43.3431458 219,45 L219,50 C219,51.6568542 217.656854,53 216,53 L99,53 C97.3431458,53 96,51.6568542 96,50 L96,45 C96,43.3431458 97.3431458,42 99,42 Z" id="矩形备份-3" fill="#F5F5FA"></path>
            <path d="M99,58 L141,58 C142.656854,58 144,59.3431458 144,61 L144,66 C144,67.6568542 142.656854,69 141,69 L99,69 C97.3431458,69 96,67.6568542 96,66 L96,61 C96,59.3431458 97.3431458,58 99,58 Z" id="矩形备份-4" fill="#F5F5FA"></path>
            <path d="M173,58 L215,58 C216.656854,58 218,59.3431458 218,61 L218,66 C218,67.6568542 216.656854,69 215,69 L173,69 C171.343146,69 170,67.6568542 170,66 L170,61 C170,59.3431458 171.343146,58 173,58 Z" id="矩形备份-5" fill="#F5F5FA"></path>
            <path d="M246,58 L288,58 C289.656854,58 291,59.3431458 291,61 L291,66 C291,67.6568542 289.656854,69 288,69 L246,69 C244.343146,69 243,67.6568542 243,66 L243,61 C243,59.3431458 244.343146,58 246,58 Z" id="矩形备份-6" fill="#F5F5FA"></path>
        </g>
    </g>
</svg>