<?xml version="1.0" encoding="UTF-8"?>
<svg width="1080px" height="2176px" viewBox="0 0 1080 2176" version="1.1" xmlns="http://www.w3.org/2000/svg" xmlns:xlink="http://www.w3.org/1999/xlink">
    <!-- Generator: Sketch 59.1 (86144) - https://sketch.com -->
    <title>未命名</title>
    <desc>Created with Sketch.</desc>
    <g id="页面-1" stroke="none" stroke-width="1" fill="none" fill-rule="evenodd">
        <rect id="矩形" fill="#FFFFFF" x="0" y="0" width="1080" height="602" rx="10"></rect>
        <rect id="矩形备份-3" fill="#FFFFFF" x="0" y="965" width="1080" height="1211" rx="10"></rect>
        <rect id="矩形备份-2" fill="#FFFFFF" x="0" y="635" width="1080" height="297" rx="10"></rect>
        <rect id="矩形" fill="#F5F5FA" x="36" y="663" width="540" height="62" rx="10"></rect>
        <rect id="矩形备份" fill="#F5F5FA" x="36" y="993" width="470" height="62" rx="10"></rect>
        <circle id="椭圆形" fill="#F5F5FA" cx="171.5" cy="838.5" r="70.5"></circle>
        <circle id="椭圆形备份-3" fill="#F5F5FA" cx="133.5" cy="1196.5" r="70.5"></circle>
        <circle id="椭圆形备份-7" fill="#F5F5FA" cx="133.5" cy="1421.5" r="70.5"></circle>
        <circle id="椭圆形备份-11" fill="#F5F5FA" cx="133.5" cy="1631.5" r="70.5"></circle>
        <circle id="椭圆形备份-15" fill="#F5F5FA" cx="133.5" cy="1843.5" r="70.5"></circle>
        <circle id="椭圆形备份-19" fill="#F5F5FA" cx="133.5" cy="2068.5" r="70.5"></circle>
        <circle id="椭圆形备份-4" fill="#F5F5FA" cx="395.5" cy="1196.5" r="70.5"></circle>
        <circle id="椭圆形备份-8" fill="#F5F5FA" cx="395.5" cy="1421.5" r="70.5"></circle>
        <circle id="椭圆形备份-12" fill="#F5F5FA" cx="395.5" cy="1631.5" r="70.5"></circle>
        <circle id="椭圆形备份-16" fill="#F5F5FA" cx="395.5" cy="1843.5" r="70.5"></circle>
        <circle id="椭圆形备份-20" fill="#F5F5FA" cx="395.5" cy="2068.5" r="70.5"></circle>
        <circle id="椭圆形备份-5" fill="#F5F5FA" cx="677.5" cy="1196.5" r="70.5"></circle>
        <circle id="椭圆形备份-9" fill="#F5F5FA" cx="677.5" cy="1421.5" r="70.5"></circle>
        <circle id="椭圆形备份-13" fill="#F5F5FA" cx="677.5" cy="1631.5" r="70.5"></circle>
        <circle id="椭圆形备份-17" fill="#F5F5FA" cx="677.5" cy="1843.5" r="70.5"></circle>
        <circle id="椭圆形备份-21" fill="#F5F5FA" cx="677.5" cy="2068.5" r="70.5"></circle>
        <circle id="椭圆形备份-6" fill="#F5F5FA" cx="939.5" cy="1196.5" r="70.5"></circle>
        <circle id="椭圆形备份-10" fill="#F5F5FA" cx="939.5" cy="1421.5" r="70.5"></circle>
        <circle id="椭圆形备份-14" fill="#F5F5FA" cx="939.5" cy="1631.5" r="70.5"></circle>
        <circle id="椭圆形备份-18" fill="#F5F5FA" cx="939.5" cy="1843.5" r="70.5"></circle>
        <circle id="椭圆形备份-22" fill="#F5F5FA" cx="939.5" cy="2068.5" r="70.5"></circle>
        <circle id="椭圆形备份" fill="#F5F5FA" cx="536.5" cy="838.5" r="70.5"></circle>
        <circle id="椭圆形备份-2" fill="#F5F5FA" cx="901.5" cy="838.5" r="70.5"></circle>
    </g>
</svg>