<?xml version="1.0" encoding="UTF-8"?>
<svg width="268px" height="68px" viewBox="0 0 268 68" version="1.1" xmlns="http://www.w3.org/2000/svg" xmlns:xlink="http://www.w3.org/1999/xlink">
    <!-- Generator: Sketch 59.1 (86144) - https://sketch.com -->
    <title>transport-card</title>
    <desc>Created with Sketch.</desc>
    <g id="页面-1" stroke="none" stroke-width="1" fill="none" fill-rule="evenodd">
        <g id="transport-card" transform="translate(-8.000000, -11.000000)">
            <rect id="矩形" x="0" y="0" width="283" height="92"></rect>
            <path d="M11,11 L112,11 C113.656854,11 115,12.3431458 115,14 L115,19 C115,20.6568542 113.656854,22 112,22 L11,22 C9.34314575,22 8,20.6568542 8,19 L8,14 C8,12.3431458 9.34314575,11 11,11 Z" id="矩形备份-8" fill="#F5F5FA"></path>
            <path d="M23.1962617,30 L130.803738,30 C132.568985,30 134,31.3431458 134,33 L134,38 C134,39.6568542 132.568985,41 130.803738,41 L23.1962617,41 C21.4310151,41 20,39.6568542 20,38 L20,33 C20,31.3431458 21.4310151,30 23.1962617,30 Z" id="矩形备份-10" fill="#F5F5FA"></path>
            <path d="M22.6635514,68 L112.336449,68 C113.807487,68 115,69.3431458 115,71 L115,76 C115,77.6568542 113.807487,79 112.336449,79 L22.6635514,79 C21.1925126,79 20,77.6568542 20,76 L20,71 C20,69.3431458 21.1925126,68 22.6635514,68 Z" id="矩形备份-12" fill="#F5F5FA"></path>
            <path d="M24.2897196,49 L168.71028,49 C171.079427,49 173,50.3431458 173,52 L173,57 C173,58.6568542 171.079427,60 168.71028,60 L24.2897196,60 C21.9205729,60 20,58.6568542 20,57 L20,52 C20,50.3431458 21.9205729,49 24.2897196,49 Z" id="矩形备份-11" fill="#F5F5FA"></path>
            <path d="M242.953271,11 L275.046729,11 C275.573206,11 276,12.3431458 276,14 L276,19 C276,20.6568542 275.573206,22 275.046729,22 L242.953271,22 C242.426794,22 242,20.6568542 242,19 L242,14 C242,12.3431458 242.426794,11 242.953271,11 Z" id="矩形备份-9" fill="#F5F5FA"></path>
        </g>
    </g>
</svg>