<?xml version="1.0" encoding="utf-8"?>
<svg t="1611576610864" class="icon" viewBox="0 0 1024 1024" version="1.1" p-id="3757" width="200" height="200" xmlns="http://www.w3.org/2000/svg">
  <defs/>
  <g id="页面-1" stroke="none" stroke-width="1" fill="none" fill-rule="evenodd" transform="matrix(5.122577, 0, 0, 5.122577, 205.69577, 113.548355)" style="">
    <g id="arrow-down" transform="translate(0.429688, 0.851562)" fill="#1AFA29" fill-rule="nonzero">
      <path d="M59.5703125,0.0444375 C60.5023125,0.0444375 61.3803125,0.4764375 61.9483125,1.2164375 L118.488312,74.7564375 C118.904312,75.2944375 119.110312,75.9404375 119.110312,76.5844375 C119.110312,77.2204375 118.908312,77.8544375 118.506312,78.3904375 C117.694312,79.4684375 116.262312,79.8704375 115.008312,79.3744375 L77.5703125,64.5864375 L77.5703125,151.252437 C77.5703125,152.910437 76.2283125,154.252437 74.5703125,154.252437 L44.5703125,154.252437 C42.9123125,154.252437 41.5703125,152.910437 41.5703125,151.252437 L41.5703125,64.5864375 L4.1343125,79.3744375 C2.8803125,79.8704375 1.4483125,79.4664375 0.6363125,78.3904375 C-0.1756875,77.3144375 -0.1716875,75.8264375 0.6543125,74.7564375 L57.1923125,1.2164375 C57.7603125,0.4784375 58.6383125,0.0444375 59.5703125,0.0444375 Z" id="路径" transform="translate(59.570674, 77.148438) rotate(180.000000) translate(-59.570674, -77.148438) "/>
    </g>
  </g>
</svg>