<?xml version="1.0" encoding="UTF-8"?>
<svg width="124px" height="112px" viewBox="0 0 124 112" version="1.1" xmlns="http://www.w3.org/2000/svg" xmlns:xlink="http://www.w3.org/1999/xlink">
    <!-- Generator: Sketch 50 (54983) - http://www.bohemiancoding.com/sketch -->
    <title>学习</title>
    <desc>Created with Sketch.</desc>
    <defs></defs>
    <g id="飞机稿2" stroke="none" stroke-width="1" fill="none" fill-rule="evenodd">
        <g id="涉毒人员" transform="translate(-137.000000, -1053.000000)">
            <g id="Group" transform="translate(24.000000, 604.000000)">
                <g id="学习" transform="translate(109.000000, 438.000000)">
                    <rect id="Rectangle-4-Copy-2" x="0" y="0" width="132" height="132"></rect>
                    <g id="Group-5" transform="translate(4.000000, 10.000000)">
                        <path d="M1.53206359,6.39518186 L11.6874835,2.0958842 C11.8905009,2.00993677 12.1162301,1.99348684 12.3295631,2.04909288 L53.592276,12.8043698 L69.1239465,12.8043698 L112.847085,1.06525934 C113.091072,0.99975194 113.350811,1.02901784 113.574104,1.14717558 L123.4917,6.39518186 L61.9496555,25.177834 L1.53206359,6.39518186 Z" id="Path-2" fill="#E5E5E5"></path>
                        <path d="M2.51994695,5.67844725 L52,19 L52,113 L1.48005305,99.3984758 C0.606824779,99.1633759 -1.5196636e-14,98.371567 -8.8817842e-15,97.4672443 L-1.11022302e-15,7.60967877 C-1.24549377e-15,6.50510927 0.8954305,5.60967877 2,5.60967877 C2.1755829,5.60967877 2.35040133,5.63280036 2.51994695,5.67844725 Z" id="Rectangle-7" fill="#4B5BBD"></path>
                        <rect id="Rectangle-8" fill="#5867C4" x="51" y="19" width="22" height="94"></rect>
                        <path d="M74.5199469,5.67844725 L124,19 L124,113 L73.4800531,99.3984758 C72.6068248,99.1633759 72,98.371567 72,97.4672443 L72,7.60967877 C72,6.50510927 72.8954305,5.60967877 74,5.60967877 C74.1755829,5.60967877 74.3504013,5.63280036 74.5199469,5.67844725 Z" id="Rectangle-7-Copy" fill="#8994D5" transform="translate(98.000000, 59.000000) scale(-1, 1) translate(-98.000000, -59.000000) "></path>
                        <polygon id="Rectangle-9" fill="#F7AF56" points="87.5676994 14.7168845 98.094912 11.8238029 98.094912 65.9896259 92.8313057 61.4750946 87.5676994 68.5216849"></polygon>
                        <polygon id="Rectangle-9-Copy" fill="#F7AF56" points="78.7381603 10.2436599 89.0438862 7.44010098 98.0572088 11.853521 87.6445732 14.7978767"></polygon>
                    </g>
                </g>
            </g>
        </g>
    </g>
</svg>