<?xml version="1.0" encoding="UTF-8"?>
<svg width="41px" height="40px" viewBox="0 0 41 40" version="1.1" xmlns="http://www.w3.org/2000/svg" xmlns:xlink="http://www.w3.org/1999/xlink">
    <!-- Generator: Sketch 49 (51002) - http://www.bohemiancoding.com/sketch -->
    <title>设置 (3)</title>
    <desc>Created with Sketch.</desc>
    <defs>
        <rect id="path-1" x="0" y="0" width="48" height="48"></rect>
    </defs>
    <g id="Page-1" stroke="none" stroke-width="1" fill="none" fill-rule="evenodd">
        <g id="个人-租客-未登录" transform="translate(-34.000000, -965.000000)">
            <g id="Group" transform="translate(0.000000, 935.000000)">
                <g id="设置-(3)" transform="translate(30.000000, 26.000000)">
                    <mask id="mask-2" fill="white">
                        <use xlink:href="#path-1"></use>
                    </mask>
                    <g id="Mask"></g>
                    <g mask="url(#mask-2)" fill-rule="nonzero" id="Shape">
                        <g transform="translate(4.000000, 4.000000)">
                            <path d="M40.2765958,14.4500666 C39.962766,13.3315579 38.9468085,12.5592543 37.7872341,12.5592543 C36.8457447,12.5592543 36.0106383,12.0852197 35.5531915,11.2969374 C35.0957447,10.5033289 35.106383,9.54460717 35.5797873,8.72969376 C36.1648937,7.72303597 36.0053192,6.45006662 35.1914894,5.61917446 C32.5638298,2.92942745 29.2446809,1.01198406 25.5851064,0.0798934987 C25.3723404,0.0266311662 25.1595745,0 24.9468086,0 C24.0372341,0 23.175532,0.479360836 22.7074468,1.2942743 C22.2393617,2.10918777 21.4148936,2.45539283 20.5,2.45539283 C19.5851064,2.45539283 18.7659574,2.10918777 18.2925532,1.2942743 C17.824468,0.479360836 16.9627659,7.39680546e-16 16.0531914,7.39680546e-16 C15.8404255,7.39680546e-16 15.6276595,0.0266311662 15.4148936,0.0798934987 C11.7606383,1.01198406 8.43617014,2.92942745 5.8085106,5.61917446 C4.99468079,6.45006662 4.83510633,7.72303597 5.42021273,8.72969376 C5.89361699,9.54460722 5.9042553,10.5033289 5.44680848,11.2969374 C4.98936166,12.0852197 4.15957441,12.5592543 3.21808507,12.5592543 C2.05319145,12.5592543 1.03191486,13.3315579 0.72340424,14.4500666 C0.207446787,16.2929427 0,18.1571238 0,20 C0,21.8375499 0.207446787,23.7070573 0.72340424,25.5499334 C1.03723404,26.6684421 2.0531915,27.4407457 3.21276594,27.4407457 C4.15425528,27.4407457 4.98936166,27.9147803 5.44680848,28.7030626 C5.9042553,29.4966711 5.89361699,30.4553928 5.42021273,31.2703062 C4.83510633,32.276964 4.99468079,33.5499334 5.8085106,34.3808255 C8.43617019,37.0705725 11.7553191,38.9880159 15.4148936,39.9201065 C15.6276596,39.9733688 15.8404255,40 16.0531914,40 C16.9627659,40 17.824468,39.5206392 18.2925532,38.7057257 C18.7606383,37.8908122 19.5851064,37.5446072 20.5,37.5446072 C21.4148936,37.5446072 22.2340426,37.8908122 22.7074468,38.7057257 C23.175532,39.5206392 24.0372341,40 24.9468086,40 C25.1595745,40 25.3723405,39.9733688 25.5851064,39.9201065 C29.2393617,38.9880159 32.5638299,37.0705725 35.1914894,34.3808255 C36.0053192,33.5499334 36.1648937,32.276964 35.5797873,31.2703062 C35.106383,30.4553928 35.0957447,29.4966711 35.5531915,28.7030626 C36.0106383,27.9147803 36.8404256,27.4407457 37.7819149,27.4407457 C38.9468085,27.4407457 39.9680851,26.6684421 40.2765958,25.5499334 C40.7925532,23.7070573 41,21.8428762 41,20 C40.9946809,18.1624501 40.7872341,16.2929427 40.2765958,14.4500666 Z M37.7819149,24.8521971 C35.9946809,24.8521971 34.2659575,25.7523302 33.3085107,27.4087883 C32.3510638,29.0652463 32.4414894,31.0252996 33.3351064,32.5699068 C31.069149,34.8921438 28.1808511,36.5858855 24.9414894,37.4114514 C24.0531915,35.8668442 22.4042553,34.8921438 20.4946809,34.8921438 C18.5851064,34.8921438 16.9361702,35.8668442 16.0478724,37.4114514 C12.8138297,36.5858854 9.92021268,34.8921438 7.65957434,32.5699068 C8.55319136,31.0252996 8.64361687,29.0652463 7.68617009,27.4087882 C6.73404244,25.7523302 4.99999987,24.852197 3.21808497,24.852197 C2.78191477,23.3075898 2.58510624,21.6830892 2.58510624,19.9999999 C2.58510624,18.3169107 2.78191477,16.6977363 3.21276584,15.1478029 C4.99999987,15.1478029 6.72872326,14.2476697 7.68617009,12.5912117 C8.64361693,10.9347536 8.55319136,8.97470036 7.65957434,7.43009314 C9.92553181,5.10785614 12.8138297,3.41411445 16.0531914,2.58854855 C16.9414893,4.13315573 18.5904255,5.10785614 20.4999999,5.10785614 C22.4095744,5.10785614 24.0585106,4.13315573 24.9468084,2.58854855 C28.1861701,3.41411445 31.074468,5.10785614 33.3404255,7.43009314 C32.4468084,8.97470031 32.3563829,10.9347536 33.3138297,12.5912117 C34.2659573,14.2476697 35.9999999,15.1478029 37.7819148,15.1478029 C38.218085,16.6924101 38.4148935,18.3169107 38.4148935,19.9999999 C38.4148935,21.6830892 38.2180851,23.3075899 37.7819149,24.8521971 Z" stroke="none" fill="#333333"></path>
                            <path d="M23.1052005,13.7302883 C22.2794158,13.4114457 21.4030627,13.25 20.5,13.25 C19.5237429,13.25 18.5753912,13.4419419 17.6780637,13.8180826 C16.8143455,14.1843715 16.0378583,14.7081019 15.3729801,15.3729801 C14.7081019,16.0378582 14.1843715,16.8143455 13.818017,17.6782185 C13.4410766,18.5667207 13.25,19.5175544 13.25,20.5 C13.25,21.4762571 13.4419419,22.4246088 13.8180826,23.3219363 C14.1843715,24.1856545 14.7081019,24.9621417 15.3729801,25.6270199 C16.0378582,26.2918981 16.8143455,26.8156285 17.6782185,27.181983 C18.5667207,27.5589234 19.5175544,27.75 20.5,27.75 C21.4762571,27.75 22.4246088,27.5580581 23.3219363,27.1819174 C24.1856545,26.8156285 24.9621417,26.2918981 25.6270199,25.6270199 C26.2918981,24.9621418 26.8156285,24.1856545 27.181983,23.3217815 C27.5589234,22.4332793 27.75,21.4824456 27.75,20.5 C27.75,19.6027148 27.5878555,18.7290029 27.2680121,17.8931 L23.1052005,13.7302883 Z" stroke="#333333" stroke-width="2.5" fill="none"></path>
                        </g>
                    </g>
                </g>
            </g>
        </g>
    </g>
</svg>