<?xml version="1.0" encoding="UTF-8"?>
<svg width="44px" height="44px" viewBox="0 0 44 44" version="1.1" xmlns="http://www.w3.org/2000/svg" xmlns:xlink="http://www.w3.org/1999/xlink">
    <!-- Generator: Sketch 49 (51002) - http://www.bohemiancoding.com/sketch -->
    <title>认证 (1)</title>
    <desc>Created with Sketch.</desc>
    <defs>
        <rect id="path-1" x="0" y="0" width="48" height="48"></rect>
    </defs>
    <g id="Page-1" stroke="none" stroke-width="1" fill="none" fill-rule="evenodd">
        <g id="个人-房东-未登录" transform="translate(-32.000000, -463.000000)">
            <g id="场所编号-copy-7" transform="translate(0.000000, 435.000000)">
                <g id="认证-(1)" transform="translate(30.000000, 26.000000)">
                    <g id="14发布">
                        <mask id="mask-2" fill="white">
                            <use xlink:href="#path-1"></use>
                        </mask>
                        <g id="Mask"></g>
                        <g mask="url(#mask-2)" fill="#333333" fill-rule="nonzero" id="Shape" stroke="#333333" stroke-width="0.6">
                            <g transform="translate(3.000000, 3.000000)">
                                <path d="M40.7583604,0 C40.1481952,0 39.5928539,0.508698169 39.6010034,0.508698169 C39.2300059,0.71635231 2.40333102,21.3325081 1.10015498,22.0943133 C0.366265928,22.5224774 -0.0548922577,23.2551283 0.00577125577,24.0064746 C0.0512688908,24.623641 0.41877996,25.1112905 0.981094123,25.3107954 C2.08598066,25.7004792 13.2407457,29.613485 13.2407457,29.613485 L13.4460516,29.683473 L14.150742,27.331512 L3.40780898,23.5946091 L36.3867959,4.50690105 C32.8878796,8.91805895 18.622715,26.8846961 17.9646989,27.7118699 C17.1153661,28.7677029 16.7198766,29.8305087 16.723363,31.0461896 L16.7350425,38.2468421 L16.7350425,40.7680205 C16.7863363,41.4948317 17.2728646,42 17.856228,42 C18.4395478,42 18.9342256,41.4948317 18.9867396,40.8601466 C18.9867396,40.8601466 19.010055,31.8850426 18.9867396,31.2246894 C18.965734,30.637854 19.2014152,29.9786774 19.4382296,29.6718374 C19.6762641,29.3731902 35.939969,8.87835844 39.1110322,4.87671281 C38.2091854,9.87583916 33.7605277,34.4621329 33.6940245,34.8226188 C33.6602063,35.0127977 33.5843769,35.0127977 33.5516918,35.0127977 C33.150319,34.8832808 22.1110849,31.1639838 21.6409427,31.0064891 L21.4426096,30.9388109 L20.7169136,33.3106439 L20.9327223,33.3852948 C21.0412368,33.4214654 31.8693253,37.101149 32.9450131,37.447646 C33.1596888,37.5165009 33.3778508,37.5526279 33.5983661,37.5526279 C34.7393806,37.5526279 35.6914317,36.6426103 35.9166101,35.3453058 C36.0040754,34.8319447 37.0588012,29.0185003 38.2768217,22.2856689 C39.956835,13.0235099 41.8585402,2.5246647 41.9063912,2.1956865 L41.9321035,2.0393249 C42.0230551,1.50151593 42.1735373,0.607840492 41.2250598,0.111998141 C41.0827271,0.0361706057 40.9275383,0 40.7583604,0 Z"></path>
                            </g>
                        </g>
                    </g>
                </g>
            </g>
        </g>
    </g>
</svg>