<?xml version="1.0" encoding="UTF-8"?>
<svg width="71px" height="41px" viewBox="0 0 71 41" version="1.1" xmlns="http://www.w3.org/2000/svg" xmlns:xlink="http://www.w3.org/1999/xlink">
    <!-- Generator: Sketch 60 (88103) - https://sketch.com -->
    <title>通知</title>
    <desc>Created with Sketch.</desc>
    <g id="萧山绍兴一期" stroke="none" stroke-width="1" fill="none" fill-rule="evenodd">
        <g id="app-康复人员备份-3" transform="translate(-44.000000, -567.000000)" fill-rule="nonzero">
            <g id="通知" transform="translate(44.000000, 568.000000)">
                <g id="编组-6" transform="translate(3.000000, 3.000000)">
                    <path d="M16.28,28.06 L16.28,22.417 L18.887,22.417 L18.887,25.618 L23.837,25.618 L23.837,22.417 L26.444,22.417 L26.444,25.717 C26.444,25.849 26.3945,25.9645 26.2955,26.0635 C26.1965,26.1625 26.081,26.212 25.949,26.212 L25.949,26.212 L23.837,26.212 L24.827,28.06 L29.645,28.06 C30.217,28.06 30.6955,27.8675 31.0805,27.4825 C31.4655,27.0975 31.658,26.619 31.658,26.047 L31.658,26.047 L31.658,10.438 C31.658,9.866 31.4655,9.3875 31.0805,9.0025 C30.6955,8.6175 30.217,8.425 29.645,8.425 L29.645,8.425 L27.929,8.425 L30.338,4.234 C30.536,3.904 30.6295,3.574 30.6185,3.244 C30.6075,2.914 30.5195,2.617 30.3545,2.353 C30.1895,2.089 29.964,1.8745 29.678,1.7095 C29.392,1.5445 29.051,1.462 28.655,1.462 L28.655,1.462 L11,1.462 L11,3.31 L24.926,3.31 C25.102,3.31 25.2285,3.365 25.3055,3.475 C25.3825,3.585 25.377,3.728 25.289,3.904 L25.289,3.904 L22.682,8.425 L19.58,8.425 L17.996,5.29 L12.947,5.29 L14.531,8.425 L13.079,8.425 C12.507,8.425 12.0285,8.6175 11.6435,9.0025 C11.2585,9.3875 11.066,9.866 11.066,10.438 L11.066,10.438 L11.066,28.06 L16.28,28.06 Z M18.887,14.563 L16.28,14.563 L16.28,10.768 C16.28,10.636 16.3295,10.5205 16.4285,10.4215 C16.5275,10.3225 16.643,10.273 16.775,10.273 L16.775,10.273 L18.887,10.273 L18.887,14.563 Z M26.444,14.563 L23.837,14.563 L23.837,10.273 L25.949,10.273 C26.081,10.273 26.1965,10.3225 26.2955,10.4215 C26.3945,10.5205 26.444,10.636 26.444,10.768 L26.444,10.768 L26.444,14.563 Z M18.887,20.569 L16.28,20.569 L16.28,16.411 L18.887,16.411 L18.887,20.569 Z M26.444,20.569 L23.837,20.569 L23.837,16.411 L26.444,16.411 L26.444,20.569 Z M62.9786667,31.591 C63.5506667,31.591 64.0291667,31.3985 64.4141667,31.0135 C64.7991667,30.6285 64.9916667,30.15 64.9916667,29.578 L64.9916667,29.578 L64.9916667,4.366 C64.9916667,3.794 64.7991667,3.3155 64.4141667,2.9305 C64.0291667,2.5455 63.5506667,2.353 62.9786667,2.353 L62.9786667,2.353 L54.0026667,2.353 C53.4306667,2.353 52.9521667,2.5455 52.5671667,2.9305 C52.1821667,3.3155 51.9896667,3.794 51.9896667,4.366 L51.9896667,4.366 L51.9896667,29.578 C51.9896667,30.15 52.1821667,30.6285 52.5671667,31.0135 C52.9521667,31.3985 53.4306667,31.591 54.0026667,31.591 L54.0026667,31.591 L62.9786667,31.591 Z M59.2496667,29.743 L57.6986667,29.743 C57.5666667,29.743 57.4511667,29.6935 57.3521667,29.5945 C57.2531667,29.4955 57.2036667,29.38 57.2036667,29.248 L57.2036667,29.248 L57.2036667,4.696 C57.2036667,4.564 57.2531667,4.4485 57.3521667,4.3495 C57.4511667,4.2505 57.5666667,4.201 57.6986667,4.201 L57.6986667,4.201 L59.2496667,4.201 C59.3816667,4.201 59.4971667,4.2505 59.5961667,4.3495 C59.6951667,4.4485 59.7446667,4.564 59.7446667,4.696 L59.7446667,4.696 L59.7446667,29.248 C59.7446667,29.38 59.6951667,29.4955 59.5961667,29.5945 C59.4971667,29.6935 59.3816667,29.743 59.2496667,29.743 L59.2496667,29.743 Z" id="通知" fill="#49495A"></path>
                    <path d="M51.5276667,31.954 L51.5276667,30.106 L50.7686667,29.743 C50.5046667,29.633 50.3506667,29.424 50.3066667,29.116 L50.3066667,29.116 L48.4256667,18.523 L44.8286667,18.523 L45.4556667,16.873 L51.0326667,16.873 L51.0326667,15.025 L45.8516667,15.025 L45.8516667,5.752 L50.7356667,5.752 L50.7356667,3.904 L40.1756667,3.904 L40.6706667,1 L36.1496667,1 L34.4666667,11.164 L38.9876667,11.164 L39.8786667,5.752 L40.6376667,5.752 L40.6376667,15.025 L34.8956667,15.025 L34.8956667,16.873 L40.1096667,16.873 L35.7206667,28.984 C35.6546667,29.204 35.4896667,29.369 35.2256667,29.479 L35.2256667,29.479 L34.4666667,29.809 L34.4666667,31.657 L39.7136667,29.743 C40.3736667,29.501 40.8246667,29.05 41.0666667,28.39 L41.0666667,28.39 L43.9706667,20.8 L45.1916667,28.126 C45.2576667,28.544 45.4116667,28.9015 45.6536667,29.1985 C45.8956667,29.4955 46.2036667,29.721 46.5776667,29.875 L46.5776667,29.875 L51.5276667,31.954 Z" id="路径" fill="#4987FF"></path>
                    <polygon id="路径" fill="#49495A" points="8.888 8.293 6.017 0.901 0.968 0.901 3.872 8.293"></polygon>
                    <path d="M0.935,31.921 L7.535,29.479 C7.975,29.303 8.3215,29.028 8.5745,28.654 C8.8275,28.28 8.954,27.862 8.954,27.4 L8.954,27.4 L8.954,13.441 C8.954,12.825 8.7395,12.308 8.3105,11.89 C7.8815,11.472 7.37,11.263 6.776,11.263 L6.776,11.263 L0.935,11.263 L0.935,13.045 L3.047,13.045 C3.289,13.045 3.487,13.1275 3.641,13.2925 C3.795,13.4575 3.872,13.65 3.872,13.87 L3.872,13.87 L3.872,28.324 C3.872,28.61 3.729,28.808 3.443,28.918 L3.443,28.918 L0.935,29.776 L0.935,31.921 Z" id="路径" fill="#49495A"></path>
                    <polygon id="路径" fill="#49495A" points="31.757 31.393 31.757 29.578 7.766 29.578 8.756 31.393"></polygon>
                </g>
            </g>
        </g>
    </g>
</svg>