<?xml version="1.0" encoding="UTF-8"?>
<svg width="460px" height="231px" viewBox="0 0 460 231" version="1.1" xmlns="http://www.w3.org/2000/svg" xmlns:xlink="http://www.w3.org/1999/xlink">
    <!-- Generator: Sketch 49 (51002) - http://www.bohemiancoding.com/sketch -->
    <title>Group Copy 2</title>
    <desc>Created with Sketch.</desc>
    <defs>
        <polygon id="path-1" points="167.90303 71.5090909 323.745455 71.5090909 378.945455 122.109091 114.236364 122.109091"></polygon>
        <polygon id="path-2" points="114.236364 119.042424 378.945455 119.042424 378.945455 134.375758 114.236364 134.375758"></polygon>
        <rect id="path-3" x="115.212121" y="132.354545" width="246.866667" height="98.6177292"></rect>
        <rect id="path-4" x="112.145455" y="151.242424" width="3.06666667" height="46" rx="1.53333333"></rect>
        <rect id="path-5" x="271.333333" y="151.242424" width="3.06666667" height="46" rx="1.53333333"></rect>
        <rect id="path-6" x="318.866667" y="151.242424" width="3.06666667" height="46" rx="1.53333333"></rect>
        <rect id="path-7" x="252.933333" y="188.042424" width="39.8666667" height="12.2666667" rx="6.13333333"></rect>
        <rect id="path-8" x="300.466667" y="188.042424" width="39.8666667" height="12.2666667" rx="6.13333333"></rect>
        <polygon id="path-9" points="109.915152 65.9333333 168.181818 14.7060606 227.981818 65.9333333 227.981818 230.975758 109.915152 230.975758"></polygon>
        <polygon id="path-10" points="244.848485 85.9363636 254.048485 73.669697 168.181818 0.418181818 83.8484848 73.669697 93.0484848 85.9363636 168.304226 19.85737"></polygon>
        <rect id="path-11" x="148.248485" y="204.909091" width="39.8666667" height="10.7333333" rx="1"></rect>
        <rect id="path-12" x="145.181818" y="212.575758" width="46" height="10.7333333" rx="1"></rect>
        <rect id="path-13" x="142.115152" y="220.242424" width="52.1333333" height="10.7333333" rx="1"></rect>
        <rect id="path-14" x="134.448485" y="120.575758" width="69" height="12.2666667" rx="6.13333333"></rect>
        <rect id="path-15" x="0" y="227.909091" width="460" height="3.06666667"></rect>
    </defs>
    <g id="Page-1" stroke="none" stroke-width="1" fill="none" fill-rule="evenodd">
        <g id="收藏-暂无收藏" transform="translate(-165.000000, -340.000000)">
            <g id="Group-Copy-2" transform="translate(165.000000, 340.000000)">
                <g id="Group-Copy">
                    <rect id="Rectangle-6" fill="#CCCCCC" x="295.727273" y="25.0909091" width="27.6" height="55.2"></rect>
                    <rect id="Rectangle-6" stroke="#979797" stroke-width="2" x="292.545455" y="21.9090909" width="25.6" height="53.2"></rect>
                    <g id="Rectangle">
                        <use fill="#FFFFFF" fill-rule="evenodd" xlink:href="#path-1"></use>
                        <path stroke="#999999" stroke-width="2" d="M168.300123,72.5090909 L116.754668,121.109091 L376.374653,121.109091 L323.356471,72.5090909 L168.300123,72.5090909 Z"></path>
                    </g>
                    <g id="Rectangle-Copy">
                        <use fill="#FFFFFF" fill-rule="evenodd" xlink:href="#path-2"></use>
                        <path stroke="#999999" stroke-width="2" d="M115.236364,120.042424 L115.236364,133.375758 L377.945455,133.375758 L377.945455,120.042424 L115.236364,120.042424 Z"></path>
                    </g>
                    <g id="Rectangle-Copy-2">
                        <use fill="#FFFFFF" fill-rule="evenodd" xlink:href="#path-3"></use>
                        <rect stroke="#999999" stroke-width="2" x="116.212121" y="133.354545" width="244.866667" height="96.6177292"></rect>
                    </g>
                    <rect id="Rectangle-7" fill="#F8F8F8" x="227.981818" y="134.375758" width="9.2" height="93.5333333"></rect>
                    <rect id="Rectangle-2-Copy-3" fill="#CCCCCC" x="262.20303" y="153.333333" width="27.6" height="49.0666667" rx="13.8"></rect>
                    <rect id="Rectangle-2-Copy-3" stroke="#999999" stroke-width="2" x="260.066667" y="152.242424" width="25.6" height="47.0666667" rx="12.8"></rect>
                    <rect id="Rectangle-2-Copy-5" fill="#CCCCCC" x="309.736364" y="153.333333" width="27.6" height="49.0666667" rx="13.8"></rect>
                    <rect id="Rectangle-2-Copy-5" stroke="#999999" stroke-width="2" x="307.6" y="152.242424" width="25.6" height="47.0666667" rx="12.8"></rect>
                    <g id="Rectangle-2-Copy-8" opacity="0.98999995">
                        <use fill="#FFFFFF" fill-rule="evenodd" xlink:href="#path-4"></use>
                        <rect stroke="#999999" stroke-width="2" x="113.145455" y="152.242424" width="1.06666667" height="44" rx="0.533333333"></rect>
                    </g>
                    <g id="Rectangle-2-Copy-4" opacity="0.98999995">
                        <use fill="#FFFFFF" fill-rule="evenodd" xlink:href="#path-5"></use>
                        <rect stroke="#999999" stroke-width="2" x="272.333333" y="152.242424" width="1.06666667" height="44" rx="0.533333333"></rect>
                    </g>
                    <g id="Rectangle-2-Copy-6" opacity="0.98999995">
                        <use fill="#FFFFFF" fill-rule="evenodd" xlink:href="#path-6"></use>
                        <rect stroke="#999999" stroke-width="2" x="319.866667" y="152.242424" width="1.06666667" height="44" rx="0.533333333"></rect>
                    </g>
                    <rect id="Rectangle-3-Copy-2" fill="#F8F8F8" x="255.024242" y="191.109091" width="39.8666667" height="12.2666667" rx="6.13333333"></rect>
                    <rect id="Rectangle-3-Copy-3" fill="#F8F8F8" x="302.557576" y="191.109091" width="39.8666667" height="12.2666667" rx="6.13333333"></rect>
                    <g id="Rectangle-3-Copy-2">
                        <use fill="#FFFFFF" fill-rule="evenodd" xlink:href="#path-7"></use>
                        <rect stroke="#999999" stroke-width="2" x="253.933333" y="189.042424" width="37.8666667" height="10.2666667" rx="5.13333333"></rect>
                    </g>
                    <g id="Rectangle-3-Copy-3">
                        <use fill="#FFFFFF" fill-rule="evenodd" xlink:href="#path-8"></use>
                        <rect stroke="#999999" stroke-width="2" x="301.466667" y="189.042424" width="37.8666667" height="10.2666667" rx="5.13333333"></rect>
                    </g>
                    <g id="Rectangle-Copy-2">
                        <use fill="#FFFFFF" fill-rule="evenodd" xlink:href="#path-9"></use>
                        <path stroke="#999999" stroke-width="2" d="M110.915152,66.3856756 L110.915152,229.975758 L226.981818,229.975758 L226.981818,66.3934427 L168.190331,16.0301055 L110.915152,66.3856756 Z"></path>
                    </g>
                    <polygon id="Rectangle-Copy-4" fill="#F8F8F8" fill-rule="nonzero" points="224.915152 80.2909091 224.915152 68.0242424 168.181818 19.8636364 112.981818 68.0242424 112.981818 80.2909091 168.181818 32.130303"></polygon>
                    <g id="Rectangle-Copy-2" fill-rule="nonzero">
                        <use fill="#FFFFFF" fill-rule="evenodd" xlink:href="#path-10"></use>
                        <path stroke="#999999" stroke-width="2" d="M244.691157,84.4794672 L252.685019,73.8209853 L168.187696,1.73763598 L85.2069423,73.8143069 L93.2003719,84.4722131 L168.298653,18.5314795 L244.691157,84.4794672 Z"></path>
                    </g>
                    <rect id="Rectangle-4" fill="#CCCCCC" x="157.030303" y="157.445455" width="30.6666667" height="53.6666667" rx="1"></rect>
                    <rect id="Rectangle-4" stroke="#979797" stroke-width="2" x="153.848485" y="155.309091" width="28.6666667" height="51.6666667" rx="1"></rect>
                    <rect id="Rectangle-5" fill="#F8F8F8" x="152.848485" y="204.909091" width="39.8666667" height="10.7333333" rx="1"></rect>
                    <rect id="Rectangle-5-Copy" fill="#F8F8F8" x="149.781818" y="212.575758" width="46" height="10.7333333" rx="1"></rect>
                    <rect id="Rectangle-5-Copy-2" fill="#F8F8F8" x="146.715152" y="220.242424" width="52.1333333" height="10.7333333" rx="1"></rect>
                    <g id="Rectangle-5">
                        <use fill="#FFFFFF" fill-rule="evenodd" xlink:href="#path-11"></use>
                        <rect stroke="#999999" stroke-width="2" x="149.248485" y="205.909091" width="37.8666667" height="8.73333333" rx="1"></rect>
                    </g>
                    <g id="Rectangle-5-Copy">
                        <use fill="#FFFFFF" fill-rule="evenodd" xlink:href="#path-12"></use>
                        <rect stroke="#999999" stroke-width="2" x="146.181818" y="213.575758" width="44" height="8.73333333" rx="1"></rect>
                    </g>
                    <g id="Rectangle-5-Copy-2">
                        <use fill="#FFFFFF" fill-rule="evenodd" xlink:href="#path-13"></use>
                        <rect stroke="#999999" stroke-width="2" x="143.115152" y="221.242424" width="50.1333333" height="8.73333333" rx="1"></rect>
                    </g>
                    <path d="M160.763636,73.6 L183.963636,73.6 C192.800192,73.6 199.963636,80.763444 199.963636,89.6 L199.963636,128.8 L144.763636,128.8 L144.763636,89.6 C144.763636,80.763444 151.92708,73.6 160.763636,73.6 Z" id="Rectangle-2-Copy" fill="#EAEAEA"></path>
                    <path d="M141.581818,125.709091 L194.781818,125.709091 L194.781818,87.5090909 C194.781818,79.2248197 188.066089,72.5090909 179.781818,72.5090909 L156.581818,72.5090909 C148.297547,72.5090909 141.581818,79.2248197 141.581818,87.5090909 L141.581818,125.709091 Z" id="Rectangle-2-Copy" stroke="#999999" stroke-width="2"></path>
                    <rect id="Rectangle-3-Copy-5" fill="#F5F5F5" x="134.448485" y="125.175758" width="69" height="12.2666667" rx="6.13333333"></rect>
                    <g id="Rectangle-3-Copy">
                        <use fill="#FFFFFF" fill-rule="evenodd" xlink:href="#path-14"></use>
                        <rect stroke="#999999" stroke-width="2" x="135.448485" y="121.575758" width="67" height="10.2666667" rx="5.13333333"></rect>
                    </g>
                    <g id="Rectangle-Copy-3">
                        <use fill="#FFFFFF" fill-rule="evenodd" xlink:href="#path-15"></use>
                        <rect stroke="#999999" stroke-width="2" x="1" y="228.909091" width="458" height="1.06666667"></rect>
                    </g>
                    <rect id="Rectangle-7" fill="#F8F8F8" x="227.981818" y="134.375758" width="131.518185" height="7.66666667"></rect>
                </g>
                <g id="Group-2" transform="translate(49.000000, 79.454545)">
                    <path d="M63.9864527,32.6487702 C70.19664,38.3690718 74.0887185,46.5780982 74.0887185,55.6982592 C74.0887185,60.0733991 73.1930228,64.2388568 71.5753975,68.0204668 C77.7721279,74.8956025 81.5454545,84.007101 81.5454545,94.0019342 C81.5454545,115.414452 64.2270146,132.772727 42.8636364,132.772727 C21.5002581,132.772727 4.18181818,115.414452 4.18181818,94.0019342 C4.18181818,84.007101 7.95514483,74.8956025 14.1518753,68.0204668 C12.5342499,64.2388568 11.6385542,60.0733991 11.6385542,55.6982592 C11.6385542,46.5780982 15.5306327,38.3690718 21.74082,32.6487702 C20.6365128,29.9626668 20.0273823,27.01975 20.0273823,23.934236 C20.0273823,11.2931111 30.2515215,1.04545455 42.8636364,1.04545455 C55.4757512,1.04545455 65.6998905,11.2931111 65.6998905,23.934236 C65.6998905,27.01975 65.0907599,29.9626668 63.9864527,32.6487702 Z" id="Combined-Shape" fill="#EAEAEA"></path>
                    <path d="M59.8046345,31.6033157 C66.0148218,37.3236173 69.9069003,45.5326437 69.9069003,54.6528046 C69.9069003,59.0279445 69.0112047,63.1934023 67.3935793,66.9750123 C73.5903097,73.850148 77.3636364,82.9616464 77.3636364,92.9564797 C77.3636364,114.368997 60.0451965,131.727273 38.6818182,131.727273 C17.3184399,131.727273 0,114.368997 0,92.9564797 C0,82.9616464 3.77332665,73.850148 9.97005708,66.9750123 C8.3524317,63.1934023 7.45673604,59.0279445 7.45673604,54.6528046 C7.45673604,45.5326437 11.3488146,37.3236173 17.5590018,31.6033157 C16.4546946,28.9172122 15.8455641,25.9742955 15.8455641,22.8887814 C15.8455641,10.2476565 26.0697033,0 38.6818182,0 C51.2939331,0 61.5180723,10.2476565 61.5180723,22.8887814 C61.5180723,25.9742955 60.9089418,28.9172122 59.8046345,31.6033157 Z" id="Combined-Shape" stroke="#999999" stroke-width="2"></path>
                    <path d="M38.6818182,148.454545 L38.6818182,33.4545455" id="Path-3" stroke="#999999" stroke-width="2" stroke-linecap="round"></path>
                    <path d="M24.0454545,55.4090909 L37.6363636,73.1818182" id="Path-4" stroke="#999999" stroke-width="2" stroke-linecap="round"></path>
                    <path d="M51.2272727,75.2727273 L38.6818182,93.0454545" id="Path-6" stroke="#999999" stroke-width="2" stroke-linecap="round"></path>
                </g>
                <g id="Group-3" transform="translate(354.000000, 36.000000)" stroke="#979797" stroke-width="2">
                    <path d="M12.9952842,21.9075356 L0,21.8984551 C1.39425619,13.6306516 8.52173051,7.33642385 17.1046955,7.33642385 C18.1776646,7.33642385 19.2278874,7.43478921 20.2470068,7.62307883 C24.9192362,2.9126369 31.3687464,3.55271368e-15 38.4917808,3.55271368e-15 C51.3728154,3.55271368e-15 62.0513053,9.52484123 64,21.9817758 L12.9807173,22 C12.9855195,21.9691605 12.9903752,21.938339 12.9952842,21.9075356 Z" id="Combined-Shape"></path>
                    <path d="M34,22 C32.6241003,13.4853877 25.5356532,7 16.9980052,7 C8.46857634,7 1.38555954,13.4729068 0,21.9754146" id="Oval-2"></path>
                </g>
                <path d="M159.52432,110.474513 C159.257735,110.474513 158.992488,110.392274 158.768492,110.230589 C158.372598,109.944813 158.174316,109.460425 158.257017,108.98116 L159.761441,100.265231 L153.388297,94.0926739 C153.037872,93.7532694 152.911711,93.2455932 153.062984,92.7830955 C153.21419,92.3205979 153.616579,91.9835887 154.100866,91.9136585 L162.908304,90.6420061 L166.847021,82.7120774 C167.063651,82.2760614 167.510572,82 167.999948,82 C168.489325,82 168.936246,82.2760614 169.152876,82.7120774 L173.091727,90.6420062 L181.899097,91.9136585 C182.383451,91.9835888 182.785774,92.3205979 182.937047,92.7830956 C183.088253,93.2455932 182.962158,93.7532695 182.611666,94.092674 L176.238656,100.265231 L177.743147,108.981093 C177.825848,109.460358 177.627633,109.944813 177.231672,110.230589 C176.835644,110.516365 176.310844,110.554158 175.877651,110.327799 L168.000015,106.212828 L160.122447,110.327799 C159.934344,110.426074 159.72883,110.474513 159.52432,110.474513 Z M157.04871,94.0698518 L162.04031,98.9044196 C162.343324,99.1979802 162.481606,99.6208219 162.410088,100.035147 L161.231714,106.861762 L167.401688,103.638783 C167.77622,103.443165 168.223677,103.443165 168.598276,103.638783 L174.768384,106.861762 L173.589943,100.035147 C173.518425,99.6207554 173.656706,99.1979137 173.959788,98.9043531 L178.951321,94.0697853 L172.053108,93.0737952 C171.634312,93.0133132 171.272369,92.7520229 171.085069,92.3748921 L167.999948,86.163943 L164.914962,92.3749587 C164.727662,92.752023 164.365652,93.0133133 163.946856,93.0738618 L157.04871,94.0698518 Z" id="Shape" fill="#999999" fill-rule="nonzero"></path>
            </g>
        </g>
    </g>
</svg>