<?xml version="1.0" encoding="UTF-8"?>
<svg width="18px" height="18px" viewBox="0 0 18 18" version="1.1" xmlns="http://www.w3.org/2000/svg" xmlns:xlink="http://www.w3.org/1999/xlink">
    <!-- Generator: Sketch 59.1 (86144) - https://sketch.com -->
    <title>已选择</title>
    <desc>Created with Sketch.</desc>
    <g id="已选择" stroke="none" stroke-width="1" fill="none" fill-rule="evenodd">
        <rect id="矩形" stroke="#0099DD" opacity="0.5" x="0.5" y="0.5" width="17" height="17" rx="2"></rect>
        <g id="dui" transform="translate(3.000000, 4.000000)" fill="#0099DD" fill-rule="nonzero">
            <path d="M11.8631748,0.187578334 C11.6731768,-0.0520547329 11.3561802,-0.0644301496 11.1561823,0.163952539 L4.63525095,7.57345198 L0.844290876,3.26455692 C0.643292992,3.03729927 0.32729632,3.04742461 0.137298321,3.28705768 C-0.0526996786,3.52669074 -0.0446997628,3.90807858 0.156298121,4.13533623 L4.29125458,8.83574447 C4.32325424,8.87174568 4.36025385,8.89199636 4.39725346,8.91562216 C4.41425328,8.92799758 4.42825313,8.94487314 4.44625294,8.95274841 C4.5072523,8.98312443 4.57125163,9 4.63525095,9 C4.69925028,9 4.76324961,8.98312443 4.82324897,8.95387345 C4.8402488,8.94599818 4.85424865,8.92912261 4.87024848,8.91787224 C4.90724809,8.89424644 4.94624768,8.87287072 4.97824734,8.83686951 L11.843175,1.03585689 C12.0441729,0.807474203 12.0531728,0.428336439 11.8631748,0.187578334 L11.8631748,0.187578334 Z" id="路径"></path>
        </g>
    </g>
</svg>