<?xml version="1.0" encoding="UTF-8"?>
<svg width="41px" height="36px" viewBox="0 0 41 36" version="1.1" xmlns="http://www.w3.org/2000/svg" xmlns:xlink="http://www.w3.org/1999/xlink">
    <!-- Generator: Sketch 49 (51002) - http://www.bohemiancoding.com/sketch -->
    <title>Path 2 Copy 2</title>
    <desc>Created with Sketch.</desc>
    <defs>
        <rect id="path-1" x="0" y="0" width="48" height="48"></rect>
    </defs>
    <g id="Symbols" stroke="none" stroke-width="1" fill="none" fill-rule="evenodd">
        <g id="tabbar-message" transform="translate(-455.000000, -21.000000)">
            <g id="Group-11">
                <g id="Group-7" transform="translate(451.333333, 15.000000)">
                    <g id="Path-2-Copy-2">
                        <mask id="mask-2" fill="white">
                            <use xlink:href="#path-1"></use>
                        </mask>
                        <g id="Mask"></g>
                        <path d="M17.7490941,31.4799042 C18.316259,32.0670426 18.3100741,33.0028114 17.7305393,33.5823462 C17.1447529,34.1681326 16.1950054,34.1681326 15.609219,33.5823462 L15.6163443,33.5752209 L7.43310005,25.3511165 C2.85563332,20.7524316 2.85563332,13.2973627 7.43310005,8.69877657 C12.0071277,4.10009167 19.4217502,5.84259009 23.999217,10.4411762 C28.5765855,5.84259009 35.9942541,4.10004231 40.5720157,8.69877657 C45.1426533,13.2973627 45.1426533,20.7524316 40.5720648,25.3511165 C33.8017406,32.1525229 28.7239975,37.2535777 25.3388354,40.6542809 C24.6743312,41.262347 23.4665436,41.4265434 22.9057851,40.6542809 C22.3450265,39.8820183 22.6469734,39.1702864 23.4111551,38.3384204 C26.7518438,34.982395 31.7628769,29.948357 38.4442543,23.2363062 C41.8519234,19.8076894 41.8519121,14.2421312 38.4458526,10.8152431 C35.4869215,7.84275588 30.0293883,8.63553812 26.1254368,12.5575858 L23.9992398,14.6936384 L21.8730199,12.5576086 C17.9691091,8.63568606 12.5154188,7.84315192 9.55929715,10.8152089 C6.14689716,14.2433529 6.14689716,19.8064664 9.55969666,23.2350855 L17.7563591,31.4726752 L17.7490941,31.4799042 Z" id="Combined-Shape" fill="#666666" fill-rule="nonzero" mask="url(#mask-2)"></path>
                    </g>
                </g>
            </g>
        </g>
    </g>
</svg>