<?xml version="1.0" encoding="UTF-8"?>
<svg width="48px" height="48px" viewBox="0 0 48 48" version="1.1" xmlns="http://www.w3.org/2000/svg" xmlns:xlink="http://www.w3.org/1999/xlink">
    <!-- Generator: Sketch 60 (88103) - https://sketch.com -->
    <title>登记</title>
    <desc>Created with Sketch.</desc>
    <g id="租客" stroke="none" stroke-width="1" fill="none" fill-rule="evenodd">
        <g id="租房登记-房屋详情" transform="translate(-201.000000, -1898.000000)">
            <g id="Group-5" transform="translate(0.000000, 1883.000000)">
                <g id="修改登记" transform="translate(201.000000, 15.000000)">
                    <rect id="Mask" x="0" y="0" width="48" height="48"></rect>
                    <path d="M35,41 L13.0909,41 C9.72726222,41 7,38.2943907 7,34.9575387 L7,13.2228308 C7,9.88596613 9.72727501,7.18041176 13.0909,7.18041176 L26.727275,7.18041176 C27.3636378,7.18041176 27.818185,7.63134101 27.818185,8.26263858 C27.818185,8.89393615 27.3636378,9.3448654 26.727275,9.3448654 L13.0909,9.3448654 C10.9999877,9.3448654 9.27271497,11.0583898 9.27271497,13.1326593 L9.27271497,34.8673672 C9.27271497,36.9416367 10.9999877,38.6551611 13.0909,38.6551611 L35,38.6551611 C37.0909072,38.6551611 38.81818,36.9416367 38.81818,34.8673672 L38.81818,20.4376903 C38.81818,19.8063928 39.2727272,19.3554635 39.90909,19.3554635 C40.5454527,19.3554635 41,19.8063928 41,20.4376903 L41,34.957581 C41,38.2944456 38.3636327,41 35,41 L35,41 Z M40.54544,8.80370972 L25.2726999,24.0450567 C24.9090634,24.4057989 24.1817899,24.4057989 23.8181547,24.0450567 L23.7272457,23.9548713 C23.3636091,23.5941292 23.3636091,22.8726445 23.7272457,22.5119036 L38.9999857,7.2705566 C39.3636222,6.90981447 40.0908957,6.90981447 40.4545309,7.2705566 L40.54544,7.36074203 C40.9999872,7.72148416 40.9999872,8.44296885 40.54544,8.80370972 Z" id="形状" stroke="#333333" stroke-width="0.6" fill="#333333" fill-rule="nonzero"></path>
                </g>
            </g>
        </g>
    </g>
</svg>