<?xml version="1.0" encoding="utf-8"?>
<svg width="41px" height="36px" viewBox="0 0 41 36" version="1.1" xmlns="http://www.w3.org/2000/svg">
  <title>Path 2 Copy 2</title>
  <desc>Created with Sketch.</desc>
  <defs>
    <rect id="path-1" x="0" y="0" width="48" height="48"/>
  </defs>
  <g id="Symbols" stroke="none" stroke-width="1" fill="none" fill-rule="evenodd">
    <g id="tabbar-message" transform="translate(-455.000000, -21.000000)">
      <g id="Group-11">
        <g id="Group-7" transform="translate(451.333333, 15.000000)">
          <g id="Path-2-Copy-2">
            <mask id="mask-2" fill="white">
              <rect x="-0.37" y="-0.109" width="49.084" height="49.084"/>
            </mask>
            <g id="Mask"/>
            <path d="M 17.78 32.082 C 18.36 32.683 18.353 33.64 17.761 34.232 C 17.162 34.831 16.19 34.831 15.591 34.232 L 15.599 34.225 L 7.231 25.815 C 2.55 21.113 2.55 13.489 7.231 8.787 C 11.908 4.084 19.49 5.866 24.171 10.568 C 28.852 5.866 36.437 4.084 41.118 8.787 C 45.792 13.489 45.792 21.113 41.118 25.815 C 34.195 32.77 29.002 37.986 25.541 41.464 C 24.861 42.086 23.626 42.254 23.053 41.464 C 22.479 40.674 22.788 39.946 23.569 39.096 C 26.986 35.664 32.11 30.516 38.942 23.653 C 42.427 20.146 42.427 14.455 38.944 10.951 C 35.918 7.911 30.337 8.722 26.345 12.733 L 24.171 14.917 L 21.997 12.733 C 18.005 8.722 12.428 7.912 9.405 10.951 C 5.915 14.457 5.915 20.145 9.405 23.651 L 17.787 32.075 L 17.78 32.082 Z" id="Combined-Shape" fill="#929292" fill-rule="nonzero" mask="url(#mask-2)" style=""/>
          </g>
        </g>
      </g>
    </g>
  </g>
</svg>