<?xml version="1.0" encoding="UTF-8"?>
<svg width="41px" height="36px" viewBox="0 0 41 36" version="1.1" xmlns="http://www.w3.org/2000/svg" xmlns:xlink="http://www.w3.org/1999/xlink">
    <!-- Generator: Sketch 49 (51002) - http://www.bohemiancoding.com/sketch -->
    <title>Path 2 Copy 2</title>
    <desc>Created with Sketch.</desc>
    <defs>
        <rect id="path-1" x="0" y="0" width="48" height="48"></rect>
    </defs>
    <g id="Symbols" stroke="none" stroke-width="1" fill="none" fill-rule="evenodd">
        <g id="tabbar-collect" transform="translate(-455.000000, -21.000000)">
            <g id="Group-11">
                <g id="Group-7" transform="translate(451.333333, 15.000000)">
                    <g id="Path-2-Copy-2">
                        <mask id="mask-2" fill="white">
                            <use xlink:href="#path-1"></use>
                        </mask>
                        <g id="Mask"></g>
                        <path d="M40.5720648,25.3511165 L23.9992661,42 L7.43310005,25.3511165 C2.85563332,20.7524316 2.85563332,13.2973627 7.43310005,8.69877657 C12.0071277,4.10009167 19.4217502,5.84259009 23.999217,10.4411762 C28.5765855,5.84259009 35.9942541,4.10004231 40.5720157,8.69877657 C45.1426533,13.2973627 45.1426533,20.7524316 40.5720648,25.3511165 Z" id="Shape" fill="#DFF8D4" fill-rule="nonzero" mask="url(#mask-2)"></path>
                        <path d="M38.4450135,23.2355422 C41.8519234,19.8068626 41.8516591,14.2418767 38.4458526,10.8152431 C35.4869215,7.84275588 30.0293883,8.63553812 26.1254368,12.5575858 L23.9992398,14.6936384 L21.8730199,12.5576086 C17.9691091,8.63568606 12.5154188,7.84315192 9.55929715,10.8152089 C6.14689716,14.2433529 6.14689716,19.8064664 9.55969666,23.2350855 L23.9996917,37.7471817 L38.4450135,23.2355422 Z M40.5720648,25.3511165 L23.9992661,42 L7.43310005,25.3511165 C2.85563332,20.7524316 2.85563332,13.2973627 7.43310005,8.69877657 C12.0071277,4.10009167 19.4217502,5.84259009 23.999217,10.4411762 C28.5765855,5.84259009 35.9942541,4.10004231 40.5720157,8.69877657 C45.1426533,13.2973627 45.1426533,20.7524316 40.5720648,25.3511165 Z" id="Shape" fill="#7EBB66" fill-rule="nonzero" mask="url(#mask-2)"></path>
                    </g>
                </g>
            </g>
        </g>
    </g>
</svg>