<?xml version="1.0" encoding="UTF-8"?>
<svg width="40px" height="43px" viewBox="0 0 40 43" version="1.1" xmlns="http://www.w3.org/2000/svg" xmlns:xlink="http://www.w3.org/1999/xlink">
    <!-- Generator: Sketch 49 (51002) - http://www.bohemiancoding.com/sketch -->
    <title>Path 2</title>
    <desc>Created with Sketch.</desc>
    <defs>
        <rect id="path-1" x="0" y="0" width="48" height="48"></rect>
    </defs>
    <g id="Symbols" stroke="none" stroke-width="1" fill="none" fill-rule="evenodd">
        <g id="tabbar-message" transform="translate(-54.000000, -16.000000)">
            <g id="Path-2" transform="translate(50.000000, 15.000000)">
                <mask id="mask-2" fill="white">
                    <use xlink:href="#path-1"></use>
                </mask>
                <g id="Mask"></g>
                <path d="M19.1417838,21.7631751 L19.1417838,35.2234493 C19.1417838,36.0518765 18.4702109,36.7234493 17.6417838,36.7234493 C16.8133567,36.7234493 16.1417838,36.0518765 16.1417838,35.2234493 L16.1417838,19.7631751 C16.1417838,19.2108904 16.5894991,18.7631751 17.1417838,18.7631751 L31.1545667,18.7631751 C31.7068515,18.7631751 32.1545667,19.2108904 32.1545667,19.7631751 L32.1545667,42.4511466 C32.1545667,43.0034314 31.7068515,43.4511466 31.1545667,43.4511466 L5.98796988,43.4511466 C5.43568513,43.4511466 4.98796988,43.0034314 4.98796988,42.4511466 L4.98796988,17.5432631 C4.98796988,17.23837 5.1270653,16.9501332 5.36574815,16.760422 L23.7472594,2.15033527 C24.1115474,1.86079001 24.6274148,1.86079001 24.9917028,2.15033527 L43.3866078,16.7710677 C43.6252906,16.9607788 43.764386,17.2490156 43.764386,17.5539088 L43.764386,41.7824865 C43.7491269,42.6107731 43.065298,43.2698621 42.2370114,43.2546029 C41.4087248,43.2393438 40.7496359,42.5555149 40.764895,41.7272283 L40.7375986,18.4977642 L24.3694811,5.48797335 L7.98796988,18.5084099 L7.98796988,40.4511466 L29.1545667,40.4511466 L29.1545667,21.7631751 L19.1417838,21.7631751 Z" id="Path-4" fill="#929292" fill-rule="nonzero" mask="url(#mask-2)"></path>
            </g>
        </g>
    </g>
</svg>