<?xml version="1.0" encoding="utf-8"?>
<svg width="40px" height="39px" viewBox="0 0 40 39" version="1.1" xmlns="http://www.w3.org/2000/svg">
  <title>Path 2 Copy</title>
  <desc>Created with Sketch.</desc>
  <defs>
    <rect id="path-1" x="0" y="0" width="48" height="48"/>
  </defs>
  <g id="Symbols" stroke="none" stroke-width="1" fill="none" fill-rule="evenodd" style="" transform="matrix(1.004047, 0, 0, 1.004047, -0.000098, -0.154424)">
    <g id="tabbar-home" transform="translate(-255.000000, -21.000000)">
      <g id="Group-11">
        <g id="Group-6" transform="translate(250.666667, 15.000000)">
          <g id="Path-2-Copy">
            <g id="消息-(4)">
              <mask id="mask-2" fill="white">
                <rect x="0" y="0" width="48" height="48" transform="matrix(1, 0, 0, 1, 0, 0)"/>
              </mask>
              <g id="Mask"/>
              <g id="Group-10" mask="url(#mask-2)">
                <g transform="translate(4.000000, 6.000000)">
                  <g id="消息-(4)" stroke-width="1" fill="none" fill-rule="evenodd" transform="translate(19.833333, 16.000000) scale(-1, 1) translate(-19.833333, -16.000000) translate(6.333333, 13.000000)">
                    <path d="M21,2.58875 C21,3.51362128 21.4946495,4.36823761 22.297619,4.83067326 C23.1005885,5.29310891 24.0898877,5.29310891 24.8928572,4.83067326 C25.6958267,4.36823761 26.1904762,3.51362128 26.1904762,2.58875 C26.1904762,1.66387872 25.6958267,0.809262392 24.8928572,0.34682674 C24.0898877,-0.115608913 23.1005885,-0.115608913 22.297619,0.34682674 C21.4946495,0.809262392 21,1.66387872 21,2.58875 Z" id="Shape" fill="#666666" fill-rule="nonzero"/>
                    <path d="M10,2.58875 C9.99999996,3.51362128 10.4946495,4.36823761 11.297619,4.83067326 C12.1005885,5.29310891 13.0898877,5.29310891 13.8928572,4.83067326 C14.6958267,4.36823761 15.1904762,3.51362128 15.1904762,2.58875 C15.1904762,1.66387872 14.6958267,0.809262392 13.8928572,0.34682674 C13.0898877,-0.115608913 12.1005885,-0.115608913 11.297619,0.34682674 C10.4946495,0.809262392 9.99999996,1.66387872 10,2.58875 Z" id="Shape-Copy" fill="#666666" fill-rule="nonzero"/>
                    <path d="M0,2.58875 C-3.9078108e-08,3.51362128 0.494649539,4.36823761 1.29761902,4.83067326 C2.10058849,5.29310891 3.0898877,5.29310891 3.89285717,4.83067326 C4.69582665,4.36823761 5.19047623,3.51362128 5.19047619,2.58875 C5.19047623,1.66387872 4.69582665,0.809262392 3.89285717,0.34682674 C3.0898877,-0.115608913 2.10058849,-0.115608913 1.29761902,0.34682674 C0.494649539,0.809262392 -3.9078108e-08,1.66387872 0,2.58875 Z" id="Shape-Copy-2" fill="#666666" fill-rule="nonzero"/>
                  </g>
                  <path d="M 9.585 28.429 C 10.398 28.429 11.057 29.088 11.057 29.9 C 11.057 30.713 10.398 31.373 9.585 31.373 L 1.715 31.373 C 1.173 31.373 0.733 30.934 0.733 30.392 L 0.733 2.221 C 0.733 1.679 1.173 1.24 1.715 1.24 L 38.78 1.24 C 39.323 1.24 39.762 1.679 39.762 2.221 L 39.762 30.392 C 39.762 30.934 39.323 31.373 38.78 31.373 L 21.616 31.373 L 15.513 37.47 C 14.938 38.044 14.007 38.044 13.432 37.469 C 12.858 36.894 12.858 35.963 13.433 35.387 L 20.109 28.716 C 20.294 28.532 20.543 28.429 20.803 28.429 L 36.818 28.429 L 36.818 4.183 L 3.677 4.183 L 3.677 28.429 L 9.585 28.429 Z" id="Path-6" fill="#929292" fill-rule="nonzero" style=""/>
                </g>
              </g>
            </g>
          </g>
        </g>
      </g>
    </g>
  </g>
</svg>