<?xml version="1.0" encoding="utf-8"?>
<svg width="40px" height="43px" viewBox="0 0 40 43" version="1.1" xmlns="http://www.w3.org/2000/svg">
  <title>Path 2 Copy 3</title>
  <desc>Created with Sketch.</desc>
  <defs>
    <rect id="path-1" x="0" y="0" width="48" height="48"/>
    <path d="M40,42 C40,30.954305 31.045695,21 20,21 C8.954305,21 -1.98951858e-13,30.954305 -1.98951858e-13,42 C0.0334859053,42.0223784 40.011087,42.0173241 40,42 Z" id="path-3"/>
  </defs>
  <g id="Symbols" stroke="none" stroke-width="1" fill="none" fill-rule="evenodd" style="" transform="matrix(0.984987, 0, 0, 0.995887, 0.290643, 0.574365)">
    <g id="tabbar-user" transform="translate(-656.000000, -18.000000)">
      <g id="Group-11">
        <g id="Group-8" transform="translate(652.000000, 15.000000)">
          <g id="Path-2-Copy-3">
            <mask id="mask-2" fill="white">
              <rect x="0" y="0" width="48" height="48" transform="matrix(1, 0, 0, 1, 0, 0)"/>
            </mask>
            <g id="Mask"/>
            <g id="个人中心1" mask="url(#mask-2)">
              <g transform="translate(4.000000, 3.000000)">
                <g id="Oval-2" fill="none">
                  <path d="M40,42 C40,30.954305 31.045695,21 20,21 C8.954305,21 -1.98951858e-13,30.954305 -1.98951858e-13,42 C0.0334859053,42.0223784 40.011087,42.0173241 40,42 Z" transform="matrix(1, 0, 0, 1, 0, 0)" fill="rgba(255,72,10,0.5)" fill-rule="evenodd"/>
                  <path stroke="#ff480a" stroke-width="3" d="M38.4419107,40.5056322 C37.6804428,30.7190188 29.5339829,22.5 20,22.5 C10.4656329,22.5 2.3189006,30.7196812 1.55799725,40.5068154 C1.6143478,40.5069239 1.67218934,40.5070315 1.73151375,40.507138 C2.79578965,40.5090501 4.33037119,40.5106377 6.26664633,40.5118774 C9.87370392,40.5141868 14.7899139,40.5152188 20.0166201,40.5148884 C25.0940296,40.5145676 30.0675992,40.512978 33.7583613,40.5104559 C35.6811882,40.509142 37.2180558,40.5076032 38.2833997,40.5058937 C38.3374752,40.5058069 38.3903146,40.5057198 38.4419107,40.5056322 Z"/>
                </g>
                <path d="M20,24 C13.372583,24 8,18.627417 8,12 C8,5.372583 13.372583,0 20,0 C26.627417,0 32,5.372583 32,12 C32,18.627417 26.627417,24 20,24 Z" id="Oval" fill="rgba(255,72,10,0.5)" fill-rule="nonzero"/>
                <path d="M20,21 C24.9705627,21 29,16.9705627 29,12 C29,7.02943725 24.9705627,3 20,3 C15.0294373,3 11,7.02943725 11,12 C11,16.9705627 15.0294373,21 20,21 Z M20,24 C13.372583,24 8,18.627417 8,12 C8,5.372583 13.372583,0 20,0 C26.627417,0 32,5.372583 32,12 C32,18.627417 26.627417,24 20,24 Z" id="Oval" fill="#ff480a" fill-rule="nonzero"/>
              </g>
            </g>
          </g>
        </g>
      </g>
    </g>
  </g>
</svg>