<?xml version="1.0" encoding="utf-8"?>
<svg width="40px" height="42px" viewBox="0 0 40 42" version="1.1" xmlns="http://www.w3.org/2000/svg">
  <title>Path 2 Copy 3</title>
  <desc>Created with Sketch.</desc>
  <defs>
    <rect id="path-1" x="0" y="0" width="48" height="48"/>
  </defs>
  <g id="Symbols" stroke="none" stroke-width="1" fill="none" fill-rule="evenodd" style="" transform="matrix(0.978287, 0, 0, 0.978287, 0.425721, 0.500585)">
    <g id="tabbar-collect" transform="translate(-656.000000, -18.000000)">
      <g id="Group-11">
        <g id="Group-8" transform="translate(652.000000, 15.000000)">
          <g id="Path-2-Copy-3">
            <mask id="mask-2" fill="white">
              <rect x="0" y="0" width="48" height="48" transform="matrix(1, 0, 0, 1, 0, 0)"/>
            </mask>
            <g id="Mask"/>
            <g id="个人中心1" mask="url(#mask-2)" fill="#929292">
              <g transform="translate(4.000000, 3.000000)">
                <path d="M0.248058385,38.991984 C0.0515371984,39.9739639 0.0142168377,40.978355 0.0140117079,41.9967035 C8.697155,41.9909189 31.3146084,41.9878218 39.9982208,41.9967035 C39.9974994,40.9981257 39.9143406,39.9316697 39.7801322,39.0257632 C30.5234519,38.9926188 9.03034144,38.982003 0.248058385,38.991984 Z M39.7845391,39.0343172 C39.1489455,34.656589 37.1379297,30.5913804 34.211691,27.4330039 L32.0110399,29.4719091 C34.4824979,32.1394273 36.1388534,35.4853265 36.7437871,39.0145051 C38.0806458,39.0201053 39.1275435,39.02667 39.7845391,39.0343172 Z M19.9997188,24 L19.9997188,21 C9.96593332,21 1.65792343,29.2141131 0.220086367,38.9987221 C0.725754148,38.9962411 1.78926766,38.9939343 3.25605431,38.991984 C4.67510886,30.6962756 11.8066751,24 19.9997188,24 Z" id="Oval-Copy" fill-rule="nonzero"/>
                <path d="M34.248579,27.4435374 C33.697261,26.9955916 32.8128552,26.9037053 32.2041083,27.2942222 C31.6413046,27.742168 31.4805036,28.7069743 32.0318215,29.4535507 C32.0433073,29.4650365 34.248579,27.4894806 34.248579,27.4435374 Z" id="Oval-2" fill-rule="evenodd"/>
                <path d="M20,21 C24.9705627,21 29,16.9705627 29,12 C29,7.02943725 24.9705627,3 20,3 C15.0294373,3 11,7.02943725 11,12 C11,16.9705627 15.0294373,21 20,21 Z M20,24 C13.372583,24 8,18.627417 8,12 C8,5.372583 13.372583,0 20,0 C26.627417,0 32,5.372583 32,12 C32,18.627417 26.627417,24 20,24 Z" id="Oval" fill-rule="nonzero"/>
              </g>
            </g>
          </g>
        </g>
      </g>
    </g>
  </g>
</svg>