<?xml version="1.0" encoding="UTF-8"?>
<svg width="36px" height="44px" viewBox="0 0 36 44" version="1.1" xmlns="http://www.w3.org/2000/svg" xmlns:xlink="http://www.w3.org/1999/xlink">
    <title>定位</title>
    <g id="司机端2" stroke="none" stroke-width="1" fill="none" fill-rule="evenodd">
        <g id="行程详情-导航搜索" transform="translate(-32.000000, -363.000000)" fill="#999999" fill-rule="nonzero">
            <g id="编组-2" transform="translate(0.000000, 315.000000)">
                <g id="定位" transform="translate(32.000000, 48.000000)">
                    <path d="M18.0044514,13.7552102 L18.0044513,13.7552102 C20.5251987,13.7588839 22.5656753,15.8053254 22.5620279,18.3260643 C22.5583543,20.8468118 20.5119128,22.8872884 17.9911739,22.8836409 C15.4704264,22.8799673 13.4299498,20.8335258 13.4335973,18.3127869 C13.4353532,17.1096906 13.9120512,15.955944 14.7600147,15.1024848 L14.7600148,15.1024846 C15.6184283,14.2385067 16.7865394,13.7534405 18.00446,13.7552102 M18.00446,11.0055886 L18.0044604,11.0055886 C13.950006,11.0118327 10.6682253,14.3036001 10.6743612,18.3580759 C10.6805179,22.4125303 13.9722853,25.694311 18.0267612,25.6881751 C22.0812155,25.6820184 25.3629963,22.3902509 25.3568603,18.3357751 C25.353901,16.38989 24.5785192,14.5247777 23.2010941,13.1503003 L23.2010941,13.1503003 C21.825521,11.769051 19.9538302,10.9966095 18.0044904,11.0055886 L18.00446,11.0055886 Z" id="形状"></path>
                    <path d="M30.5973176,5.34166637 L30.5973171,5.3416659 C23.8744187,-1.61317814 12.7864488,-1.8012096 5.83160473,4.92166263 C5.68923921,5.05927967 5.54921807,5.19930124 5.41160061,5.34166675 L5.41160086,5.3416665 C-1.53391895,12.5250186 -1.53391895,23.9214186 5.41160036,31.1047707 L18.0044666,44.0000513 L30.5973328,31.1047707 L30.597333,31.1047705 C37.5428528,23.9214184 37.5428528,12.5250184 30.5973326,5.34166633 L30.5973176,5.34166637 Z M28.700142,29.2900692 L18.0044772,40.2881914 L7.30881238,29.2900692 L7.30881028,29.2900671 C1.40356513,23.2003139 1.40356513,13.5210761 7.30881443,7.43127993 L7.30881392,7.43128046 C13.0399495,1.52423061 22.4746089,1.38161717 28.3816588,7.11277981 C28.4894236,7.21733579 28.5956026,7.32351428 28.7001585,7.4312796 L28.7001597,7.43128077 C34.6054048,13.521034 34.6054048,23.2002718 28.7001574,29.2900679 L28.700142,29.2900692 Z" id="形状"></path>
                </g>
            </g>
        </g>
    </g>
</svg>