<?xml version="1.0" encoding="UTF-8"?>
<svg width="24px" height="24px" viewBox="0 0 24 24" version="1.1" xmlns="http://www.w3.org/2000/svg" xmlns:xlink="http://www.w3.org/1999/xlink">
    <title>证书</title>
    <g id="司机端2" stroke="none" stroke-width="1" fill="none" fill-rule="evenodd">
        <g id="行程详情-运输中" transform="translate(-69.000000, -1186.000000)" fill="#333333" fill-rule="nonzero">
            <g id="运输路线" transform="translate(0.000000, 962.000000)">
                <g id="证书" transform="translate(69.000000, 224.000000)">
                    <path d="M20.7250585,0 C21.9868519,0 23.0240507,0.870327966 23.1082933,1.98045069 L23.1138173,2.12655738 L23.1138173,21.8616393 C23.1138173,23.0013365 22.1315252,23.9204905 20.8885982,23.995108 L20.7250585,24 L3.18875878,24 C1.92696541,24 0.889766633,23.129672 0.805524016,22.0195493 L0.8,21.8734426 L0.8,2.12740047 C0.8,0.993073153 1.78862081,0.0790626925 3.02601019,0.00486447237 L3.18875878,0 L20.7250585,0 Z M20.7250585,2.07288056 L3.18875878,2.07288056 C3.0401511,2.07288056 2.91298682,2.1625538 2.87968698,2.26669639 L2.87119438,2.31962529 L2.87119438,21.6668852 C2.87119438,21.7720776 2.97500892,21.8782221 3.11566857,21.9064023 L3.18875878,21.91363 L20.7250585,21.91363 C20.8733326,21.91363 21.0007352,21.8235965 21.0341099,21.7196598 L21.042623,21.6668852 L21.042623,2.31962529 C21.042623,2.19690086 20.9013198,2.07288056 20.7250585,2.07288056 Z M14.2897424,11.3235597 C16.3737419,11.3235597 18.0552693,13.0429792 18.0552693,15.1691803 C18.0552693,17.2900337 16.3646617,19.0139578 14.2897424,19.0139578 C12.2155286,19.0139578 10.5250585,17.2898932 10.5250585,15.1691803 C10.5250585,13.0431193 12.2064484,11.3235597 14.2897424,11.3235597 Z M14.2897424,13.3880094 C13.3283001,13.3880094 12.5524122,14.1812016 12.5524122,15.1691803 C12.5524122,16.15747 13.3277622,16.9503513 14.2897424,16.9503513 C15.2524493,16.9503513 16.0279157,16.15759 16.0279157,15.1691803 C16.0279157,14.1857242 15.243841,13.3880094 14.2897424,13.3880094 Z M9.4557377,9.27400468 L9.4557377,11.35363 L5.01545667,11.35363 L5.01545667,9.27400468 L9.4557377,9.27400468 Z M18.689274,5.05854801 L18.689274,7.12215457 L5.01545667,7.12215457 L5.01545667,5.05854801 L18.689274,5.05854801 Z" id="形状"></path>
                </g>
            </g>
        </g>
    </g>
</svg>