<?xml version="1.0" encoding="UTF-8"?>
<svg width="26px" height="26px" viewBox="0 0 26 26" version="1.1" xmlns="http://www.w3.org/2000/svg" xmlns:xlink="http://www.w3.org/1999/xlink">
    <title>前进</title>
    <g id="司机端2" stroke="none" stroke-width="1" fill="none" fill-rule="evenodd">
        <g id="行程详情-运输中" transform="translate(-448.000000, -1273.000000)" fill="#FFFFFF" fill-rule="nonzero">
            <g id="操作按钮备份" transform="translate(0.000000, 1238.000000)">
                <g id="前进" transform="translate(448.000000, 35.000000)">
                    <path d="M10.8580238,23.4110197 L10.8553951,23.408391 L22.6276735,12.6176616 L10.8553951,1.82640637 L10.857498,1.82377769 L10.857498,1.8237777 C10.6396314,1.6260619 10.5151848,1.34567675 10.5147182,1.05147165 L10.5147182,1.05147181 C10.5147182,0.470760359 10.9854786,0 11.56619,0 C11.8400984,0 12.0871943,0.107250125 12.2743563,0.279165766 L12.2764592,0.276537086 L24.894121,11.842727 L24.892018,11.8453557 C25.1017867,12.0372493 25.2353236,12.3111577 25.2353236,12.6176617 C25.2353236,12.9246915 25.1017867,13.1980742 24.892018,13.3904935 L24.8946467,13.3931222 L12.276985,24.9593121 L12.2743563,24.9566835 C12.0871943,25.1280734 11.8400984,25.2353235 11.56619,25.2353235 L11.56619,25.2353235 C10.9854785,25.2353235 10.5147182,24.7645631 10.5147182,24.1838517 C10.5147182,24.1838517 10.5147182,24.1838517 10.5147182,24.1838517 C10.5147182,23.8768219 10.6482551,23.6034392 10.8580237,23.4110199 L10.8580238,23.4110197 Z M7.36030277,11.5661898 L15.7720773,11.5661898 L15.7720772,11.5661898 C16.3527887,11.5661898 16.823549,12.0369501 16.823549,12.6176616 C16.823549,13.198373 16.3527887,13.6691334 15.7720772,13.6691334 L7.36030273,13.6691334 L7.36030268,13.6691334 C6.77959123,13.6691334 6.30883087,13.198373 6.30883087,12.6176616 C6.30883087,12.0369501 6.77959123,11.5661898 7.36030268,11.5661898 L7.36030277,11.5661898 Z M1.0514719,11.5661898 L3.15441553,11.5661898 L3.15441548,11.5661898 C3.73512693,11.5661898 4.20588729,12.0369501 4.20588729,12.6176616 C4.20588729,13.198373 3.73512693,13.6691334 3.15441548,13.6691334 L1.05147186,13.6691334 L1.05147181,13.6691334 C0.470760359,13.6691334 0,13.198373 0,12.6176616 C0,12.0369501 0.470760359,11.5661898 1.05147181,11.5661898 L1.0514719,11.5661898 Z" id="形状"></path>
                </g>
            </g>
        </g>
    </g>
</svg>