<?xml version="1.0" encoding="UTF-8"?>
<svg width="24px" height="24px" viewBox="0 0 24 24" version="1.1" xmlns="http://www.w3.org/2000/svg" xmlns:xlink="http://www.w3.org/1999/xlink">
    <title>有</title>
    <g id="司机端2" stroke="none" stroke-width="1" fill="none" fill-rule="evenodd">
        <g id="行程详情-运输中" transform="translate(-294.000000, -1186.000000)" fill="#333333" fill-rule="nonzero">
            <g id="运输路线" transform="translate(0.000000, 962.000000)">
                <path d="M306,224 C312.626263,224 318,229.370723 318,235.99327 C318,242.615816 312.612795,248 306,248 C304.329966,248 302.686869,247.650028 301.151515,246.977005 C300.599327,246.775098 300.316498,246.182838 300.518519,245.630959 C300.720539,245.07908 301.313131,244.796411 301.86532,244.998317 L302,245.052159 L302,245.052159 C306.996633,247.259675 312.828283,245.011778 315.037037,240.017947 C317.245791,235.024117 314.996633,229.195738 310,226.988222 C305.003367,224.780707 299.171717,227.028603 296.962963,232.022434 C295.777778,234.687605 295.845118,237.75659 297.124579,240.367919 C297.353535,240.892877 297.124579,241.525519 296.585859,241.754347 C296.087542,241.969714 295.494949,241.781268 295.239057,241.296691 C294.417508,239.654515 294,237.837353 294,235.99327 C294,229.370723 299.373737,224 306,224 Z M313.151515,231.833988 C313.569024,232.251262 313.569024,232.910824 313.151515,233.328099 L304.814815,241.646663 C304.599327,241.835109 304.329966,241.956254 304.060606,241.956254 C303.777778,241.956254 303.508418,241.84857 303.319865,241.646663 L298.579125,236.908581 C298.161616,236.491307 298.161616,235.831744 298.579125,235.41447 C298.996633,234.997196 299.656566,234.997196 300.074074,235.41447 L304.074074,239.412227 L311.656566,231.833988 C312.074074,231.416713 312.734007,231.416713 313.151515,231.833988 Z" id="有"></path>
            </g>
        </g>
    </g>
</svg>