<?xml version="1.0" encoding="UTF-8"?>
<svg width="24px" height="24px" viewBox="0 0 24 24" version="1.1" xmlns="http://www.w3.org/2000/svg" xmlns:xlink="http://www.w3.org/1999/xlink">
    <title>导航</title>
    <g id="司机端2" stroke="none" stroke-width="1" fill="none" fill-rule="evenodd">
        <g id="行程详情-运输中" transform="translate(-632.000000, -172.000000)" fill="#FFFFFF" fill-rule="nonzero">
            <g id="编组-5备份" transform="translate(0.000000, 128.000000)">
                <g id="操作按钮带图标" transform="translate(478.000000, 20.000000)">
                    <g id="导航" transform="translate(154.000000, 24.000000)">
                        <path d="M14.2000142,22.0000233 C13.9000138,22.0000233 13.6000135,21.800023 13.6000135,21.5000227 L11.3000108,13.1000129 L2.90000105,10.8000102 C2.54173832,10.6800258 2.32584129,10.4706276 2.32584129,10.1643755 C2.32584129,9.73209677 2.57202422,9.58116993 2.80000093,9.50000873 L21.0000221,2.40000047 C21.3000225,2.30000035 21.7000229,2.40000047 21.9000232,2.80000093 C22.0000233,3.00000116 22.0000233,3.10000128 21.9000232,3.30000151 L14.8000149,21.6000228 C14.7000148,21.800023 14.5000145,22.0000233 14.2000142,22.0000233 Z M12.0000116,11.9000115 C12.2000119,12.0000116 12.4000121,12.1000118 12.5000122,12.4000121 L14.4000144,19.20002 L20.2000212,4.20000256 L5.10000361,10.0000093 L12.0000116,11.9000115 Z" id="形状"></path>
                    </g>
                </g>
            </g>
        </g>
    </g>
</svg>