<?xml version="1.0" encoding="UTF-8"?>
<svg width="72px" height="72px" viewBox="0 0 72 72" version="1.1" xmlns="http://www.w3.org/2000/svg" xmlns:xlink="http://www.w3.org/1999/xlink">
    <!-- Generator: Sketch 50 (54983) - http://www.bohemiancoding.com/sketch -->
    <title>语音</title>
    <desc>Created with Sketch.</desc>
    <defs></defs>
    <g id="飞机稿2" stroke="none" stroke-width="1" fill="none" fill-rule="evenodd">
        <g id="请销假" transform="translate(-24.000000, -1247.000000)">
            <g id="语音" transform="translate(24.000000, 1247.000000)">
                <circle id="Oval" stroke="#999999" fill="#FFFFFF" cx="36" cy="36" r="35.5"></circle>
                <path d="M35.7062328,43.0707006 C31.6236013,43.0707006 28.3028806,39.7499799 28.3028806,35.6676703 L28.3028806,23.4030303 C28.3028805,19.3210427 31.6236012,16 35.7062328,16 C39.7882203,16 43.1092631,19.3210427 43.1092631,23.4030303 L43.1092631,35.6676703 C43.1092631,39.7499798 39.7882203,43.0707006 35.7062328,43.0707006 Z M48.4803162,52.1357013 C49.5474129,52.1357013 50.4124656,53.000754 50.4124656,54.0678506 C50.4124656,55.1349473 49.5474129,56 48.4803162,56 L22.9321494,56 C21.8650527,56 21,55.1349473 21,54.0678506 C21,53.000754 21.8650527,52.1357013 22.9321494,52.1357013 L33.7740834,52.1357013 L33.7740834,50.1111308 C26.5758611,49.1614794 21,42.9892282 21,35.5356401 C21.0001621,34.4686581 21.8651674,33.6037842 22.9321494,33.6037842 C23.9991314,33.6037842 24.8641367,34.4686581 24.8642987,35.5356401 C24.8642987,41.5137102 29.7278407,46.3775742 35.7059108,46.3775742 C41.6843029,46.3775742 46.5481669,41.5137102 46.5481669,35.5356401 C46.5481669,34.4685435 47.4132196,33.6034907 48.4803162,33.6034907 C49.5474129,33.6034907 50.4124656,34.4685435 50.4124656,35.5356401 C50.4124656,42.9892283 44.8369266,49.1611573 37.6383822,50.1111308 L37.6383822,52.1357013 L48.4803162,52.1357013 Z" id="Combined-Shape" fill="#999999" fill-rule="nonzero"></path>
            </g>
        </g>
    </g>
</svg>