<?xml version="1.0" encoding="UTF-8"?>
<svg width="72px" height="72px" viewBox="0 0 72 72" version="1.1" xmlns="http://www.w3.org/2000/svg" xmlns:xlink="http://www.w3.org/1999/xlink">
    <!-- Generator: Sketch 50 (54983) - http://www.bohemiancoding.com/sketch -->
    <title>语音</title>
    <desc>Created with Sketch.</desc>
    <defs></defs>
    <g id="飞机稿2" stroke="none" stroke-width="1" fill="none" fill-rule="evenodd">
        <g id="请销假-语音" transform="translate(-24.000000, -1247.000000)">
            <g id="Group-5" transform="translate(0.000000, 1231.000000)">
                <g id="语音" transform="translate(24.000000, 16.000000)">
                    <circle id="Oval" stroke="#999999" fill="#FFFFFF" cx="36" cy="36" r="35.5"></circle>
                    <path d="M18.6676332,47.2483009 L18.6676332,48.4988673 C18.6676332,49.8763027 19.8661351,51 21.3352664,51 L50.6599009,51 C52.1339779,51.0000023 53.3297012,49.8809373 53.3323668,48.4988673 L53.3323668,47.2483009 C53.3270516,45.867265 52.1328795,44.749652 50.6599009,44.7471681 L21.3352664,44.7471681 C19.8641747,44.7521385 18.6729345,45.8690274 18.6676332,47.2483009 Z M39.9990335,42.2505664 L42.6666667,42.2505664 C44.1369763,42.2480825 45.3289846,41.1324981 45.3342999,39.7539647 L45.3342999,34.7516991 C45.3316401,33.3713959 44.1388567,32.2530602 42.6666667,32.2505664 L39.9990335,32.2505664 C38.5257404,32.2505664 37.3314003,33.3703617 37.3314003,34.7516991 L37.3314003,39.7539647 C37.3314003,41.1268691 38.5250695,42.2505664 39.9990335,42.2505664 Z M39.9990335,31 L42.6666667,31 C44.1388567,30.9975063 45.3316401,29.8791704 45.3342999,28.4988672 L45.3342999,23.5011328 C45.3316401,22.1208296 44.1388567,21.0024938 42.6666667,21 L39.9990335,21 C39.2915332,21 38.6130102,21.2635115 38.112732,21.7325648 C37.6124537,22.2016182 37.3314003,22.8377912 37.3314003,23.5011328 L37.3314003,28.5033983 C37.3314003,29.8808337 38.5250695,31 39.9990335,31 Z M50.6647336,42.2505664 L53.3275342,42.2505664 C54.79973,42.2505753 55.9946756,41.1342643 56,39.7539647 L56,34.7516991 C55.9973344,33.3696291 54.8016111,32.2505642 53.3275342,32.2505664 L50.6647336,32.2505664 C49.1906567,32.2505641 47.9949334,33.369629 47.9922677,34.7516991 L47.9922677,39.7539647 C47.9922677,41.1268691 49.1907696,42.2505664 50.6647336,42.2505664 Z M50.6647336,31 L53.3275342,31 C54.8016111,31.0000023 55.9973344,29.8809373 56,28.4988672 L56,23.5011328 C55.9973344,22.1190627 54.8016111,20.9999978 53.3275342,21 L50.6647336,21 C49.1906567,20.9999977 47.9949333,22.1190627 47.9922677,23.5011328 L47.9922677,28.5033983 C47.9922677,29.8808337 49.1907696,31 50.6647336,31 Z M29.3333334,31 C27.864202,31 26.6657001,29.8808337 26.6657001,28.5033983 L26.6657001,23.5011328 C26.6683599,22.1208296 27.8611433,21.0024938 29.3333334,21 L31.9961339,21 C32.7036342,21 33.3821571,21.2635115 33.8824354,21.7325648 C34.3827137,22.2016182 34.6637671,22.8377912 34.6637671,23.5011328 L34.6637671,28.4988672 C34.6637671,29.1622089 34.3827137,29.7983818 33.8824354,30.2674352 C33.3821571,30.7364886 32.7036342,31 31.9961339,31 L29.3333334,31 Z M18.6676332,42.2505664 C17.1985019,42.2505664 16,41.1268691 16,39.7539647 L16,34.7516991 C16.0026598,33.3713959 17.1954432,32.2530602 18.6676332,32.2505664 L21.3352664,32.2505664 C22.8066719,32.2530656 23.9980694,33.3721292 23.9980669,34.7516991 L23.9980669,39.7539647 C23.9954071,41.1317654 22.8047874,42.2480726 21.3352664,42.2505664 L18.6676332,42.2505664 Z M29.3333334,42.2505664 C27.864202,42.2505664 26.6657001,41.1268691 26.6657001,39.7539647 L26.6657001,34.7516991 C26.6683599,33.3713959 27.8611434,32.2530601 29.3333334,32.2505664 L31.9961339,32.2505664 C33.469427,32.2505664 34.6637671,33.3703617 34.6637671,34.7516991 L34.6637671,39.7539647 C34.6611014,41.1335323 33.4675418,42.2505686 31.9961339,42.2505664 L29.3333334,42.2505664 Z M18.6676332,31 C17.1985019,31 16,29.8808337 16,28.5033983 L16,23.5011328 C16.0026598,22.1208296 17.1954432,21.0024938 18.6676332,21 L21.3352664,21 C22.806672,21.0024992 23.9980694,22.1215629 23.9980669,23.5011328 L23.9980669,28.4988672 C23.9980694,29.8784372 22.806672,30.9975008 21.3352664,31 L18.6676332,31 Z" id="Combined-Shape" fill="#999999" fill-rule="nonzero"></path>
                </g>
            </g>
        </g>
    </g>
</svg>