<?xml version="1.0" encoding="utf-8"?>
<svg t="1606475757567" class="icon" viewBox="0 0 1024 1024" version="1.1" p-id="5627" width="300" height="300" xmlns="http://www.w3.org/2000/svg">
  <defs/>
  <path d="M 513.176 61.608 C 264.729 61.608 63.091 263.246 63.091 511.694 C 63.091 760.14 264.729 961.778 513.176 961.778 C 761.623 961.778 963.261 760.14 963.261 511.694 C 963.261 263.246 761.623 61.608 513.176 61.608 Z M 568.086 742.137 C 568.086 766.441 548.283 786.245 523.978 786.245 L 501.923 786.245 C 477.62 786.245 457.815 766.441 457.815 742.137 L 457.815 478.837 C 457.815 454.533 477.62 434.729 501.923 434.729 L 523.978 434.729 C 548.283 434.729 568.086 454.533 568.086 478.837 L 568.086 742.137 Z M 513.176 369.017 C 483.02 369.017 458.266 344.261 458.266 314.106 C 458.266 283.95 483.02 259.196 513.176 259.196 C 543.332 259.196 568.086 283.95 568.086 314.106 C 568.086 344.261 543.332 369.017 513.176 369.017 Z" p-id="5628" fill="#1afa29" style=""/>
</svg>