<?xml version="1.0" encoding="utf-8"?>
<svg t="1606475427845" class="icon" viewBox="0 0 1024 1024" version="1.1" p-id="4657" width="300" height="300" xmlns="http://www.w3.org/2000/svg">
  <defs/>
  <path d="M 790.02 546.663 C 780.896 555.902 768.625 561.36 755.653 561.95 L 596.651 579.078 L 594.866 579.078 C 566.524 579.078 543.485 556.036 543.485 527.694 L 543.485 524.961 L 567.25 380.912 C 568.119 368.295 573.599 356.44 582.648 347.605 L 834.429 101.906 L 103.525 101.906 C 48.069 101.906 3.102 146.873 3.102 202.328 L 3.102 816.241 C 3.102 871.696 48.069 916.663 103.525 916.663 L 920.456 916.663 C 975.913 916.663 1020.879 871.696 1020.879 816.241 L 1020.879 312.122 L 790.02 546.663 Z M 175.493 247.964 L 399.825 247.964 C 418.291 247.964 433.298 262.971 433.298 281.438 C 433.298 299.905 418.291 314.911 399.825 314.911 L 175.493 314.911 C 157.027 314.911 142.019 299.905 142.019 281.438 C 142.019 262.971 156.971 247.964 175.493 247.964 Z M 175.493 475.867 L 399.825 475.867 C 418.291 475.867 433.298 490.873 433.298 509.34 C 433.298 527.807 418.291 542.815 399.825 542.815 L 175.493 542.815 C 157.027 542.815 142.019 527.807 142.019 509.34 C 142.019 490.873 156.971 475.867 175.493 475.867 Z M 835.712 767.871 L 175.493 767.871 C 157.027 767.871 142.019 752.864 142.019 734.397 C 142.019 715.931 157.027 700.923 175.493 700.923 L 835.712 700.923 C 854.178 700.923 869.187 715.931 869.187 734.397 C 869.187 752.864 854.178 767.871 835.712 767.871 Z" fill="#FF623E" p-id="4658" style=""/>
  <path d="M 929.886 102.409 L 636.933 388.219 C 634.589 390.508 633.082 393.409 632.525 396.645 L 611.492 501.362 C 609.875 511.292 618.131 520.052 628.118 518.992 L 740.869 496.286 C 744.384 495.894 747.62 494.333 750.074 491.823 L 1020.823 216.721 L 1020.823 202.383 C 1020.879 150.108 980.933 107.205 929.886 102.409 Z M 745.277 463.258 C 732.644 476.751 711.463 477.451 697.966 464.819 L 668.956 437.65 C 655.44 425.026 654.741 403.827 667.393 390.34 C 680.017 376.825 701.216 376.124 714.703 388.778 L 743.714 415.948 C 757.23 428.571 757.93 449.769 745.277 463.258 Z" fill="#FF623E" p-id="4659" style=""/>
</svg>