<?xml version="1.0" standalone="no"?><!DOCTYPE svg PUBLIC "-//W3C//DTD SVG 1.1//EN" "http://www.w3.org/Graphics/SVG/1.1/DTD/svg11.dtd"><svg t="1606475427845" class="icon" viewBox="0 0 1024 1024" version="1.1" xmlns="http://www.w3.org/2000/svg" p-id="4657" xmlns:xlink="http://www.w3.org/1999/xlink" width="300" height="300"><defs><style type="text/css"></style></defs><path d="M769.3312 539.1872a47.34976 47.34976 0 0 1-31.5392 14.0288l-145.92 15.7184h-1.6384c-26.0096 0-47.1552-21.1456-47.1552-47.1552v-2.5088l21.8112-132.1984a47.25248 47.25248 0 0 1 14.1312-30.5664l231.0656-225.4848H139.3152c-50.8928 0-92.16 41.2672-92.16 92.16v563.4048c0 50.8928 41.2672 92.16 92.16 92.16h749.7216c50.8928 0 92.16-41.2672 92.16-92.16V323.9424l-211.8656 215.2448zM205.3632 265.0624h205.8752c16.9472 0 30.72 13.7728 30.72 30.72s-13.7728 30.72-30.72 30.72H205.3632c-16.9472 0-30.72-13.7728-30.72-30.72s13.7216-30.72 30.72-30.72z m0 209.152h205.8752c16.9472 0 30.72 13.7728 30.72 30.72s-13.7728 30.72-30.72 30.72H205.3632c-16.9472 0-30.72-13.7728-30.72-30.72s13.7216-30.72 30.72-30.72z m605.9008 267.9808H205.3632c-16.9472 0-30.72-13.7728-30.72-30.72s13.7728-30.72 30.72-30.72h605.9008c16.9472 0 30.72 13.7728 30.72 30.72s-13.7728 30.72-30.72 30.72z" fill="#FF623E" p-id="4658"></path><path d="M897.6896 131.4816l-268.8512 262.2976c-2.1504 2.0992-3.5328 4.7616-4.0448 7.7312l-19.3024 96.1024c-1.4848 9.1136 6.0928 17.152 15.2576 16.1792l103.4752-20.8384c3.2256-0.3584 6.1952-1.792 8.448-4.096l248.4736-252.4672V223.232c0.0512-47.9744-36.608-87.3472-83.456-91.7504z m-169.4208 331.1616a30.72 30.72 0 0 1-43.4176 1.4336l-26.624-24.9344a30.68416 30.68416 0 0 1-1.4336-43.4176 30.68416 30.68416 0 0 1 43.4176-1.4336l26.624 24.9344a30.68416 30.68416 0 0 1 1.4336 43.4176z" fill="#FF623E" p-id="4659"></path></svg>