<?xml version="1.0" encoding="utf-8"?>
<svg t="1606475048116" class="icon" viewBox="0 0 1024 1024" version="1.1" p-id="3592" width="300" height="300" xmlns="http://www.w3.org/2000/svg">
  <defs/>
  <path d="M 836.065 596.251 C 924.686 596.251 996.528 668.093 996.528 756.714 C 996.528 845.336 924.686 917.177 836.065 917.177 C 747.443 917.177 675.602 845.336 675.602 756.714 C 675.602 668.093 747.443 596.251 836.065 596.251 Z M 760.937 114.862 C 843.402 114.862 911.055 180.829 912.4 262.018 L 912.42 264.482 L 912.424 552.552 C 892.951 545.341 872.546 540.96 851.83 539.544 L 851.827 264.482 C 851.827 215.119 810.916 174.7 760.92 174.7 L 185.251 174.7 C 135.753 174.7 95.162 214.297 94.356 263.004 L 94.343 264.482 L 94.343 713.308 C 94.343 762.195 134.439 802.263 183.753 803.06 L 185.251 803.072 L 623.189 803.075 C 627.668 824.026 635.227 844.197 645.622 862.931 L 185.232 862.927 C 102.768 862.927 35.115 796.926 33.77 715.771 L 33.75 713.306 L 33.75 264.482 C 33.75 183.01 100.577 116.21 182.739 114.883 L 185.232 114.862 L 760.937 114.862 Z M 892.005 694.025 L 891.69 694.366 L 817.171 775.889 L 778.627 736.478 L 775.179 733.479 C 764.291 725.464 748.893 726.284 738.916 736.046 C 727.943 746.785 727.643 764.317 738.163 775.422 L 738.485 775.756 L 797.826 836.4 L 801.073 839.25 C 812.312 847.683 828.4 846.549 838.316 836.037 L 838.628 835.701 L 933.151 732.249 L 935.952 728.637 C 943.345 717.319 941.666 701.991 931.362 692.576 C 920.026 682.221 902.505 682.901 892.006 694.025 Z M 331.655 257.347 C 397.853 257.347 452.032 311.492 452.032 377.673 C 452.081 409.222 439.634 439.506 417.413 461.902 C 465.082 490.173 496.527 542.059 497.152 601.477 L 497.16 603.28 L 497.16 657.406 C 497.16 685.711 475.027 708.093 448.326 708.538 L 447.515 708.544 L 215.811 708.544 C 188.984 708.544 166.6 686.446 166.155 658.262 L 166.149 657.406 L 166.149 603.28 C 166.149 543.109 197.746 490.476 245.897 461.902 C 223.676 439.506 211.229 409.222 211.278 377.673 C 211.278 311.492 265.456 257.347 331.656 257.347 Z M 639.508 663.432 L 617.538 663.435 C 600.983 663.435 587.452 649.885 587.452 633.366 C 587.452 616.978 600.714 603.552 617.041 603.285 L 617.538 603.282 L 681.95 603.276 C 664.506 620.786 650.156 641.126 639.508 663.432 Z M 332.511 497.996 L 331.671 497.999 C 273.693 497.626 226.463 544.463 226.349 602.442 L 226.352 603.282 L 226.352 648.392 L 436.99 648.392 L 436.99 603.263 C 437.33 545.62 390.99 498.556 333.348 498.002 L 332.509 497.996 Z M 737.881 452.87 C 754.451 452.87 767.983 466.42 767.983 482.956 C 767.983 499.344 754.703 512.77 738.376 513.037 L 737.881 513.042 L 587.435 513.042 C 570.881 513.042 557.349 499.492 557.349 482.956 C 557.349 466.567 570.612 453.142 586.94 452.874 L 587.435 452.87 L 737.883 452.87 Z M 331.653 317.52 C 298.461 317.607 271.571 344.482 271.464 377.674 C 271.571 410.865 298.461 437.741 331.654 437.827 C 364.845 437.742 391.736 410.865 391.842 377.674 C 391.735 344.482 364.845 317.607 331.654 317.52 Z M 737.881 302.477 C 754.451 302.477 767.983 316.009 767.983 332.545 C 767.983 348.934 754.703 362.359 738.376 362.627 L 737.881 362.631 L 557.349 362.631 C 540.776 362.631 527.246 349.099 527.246 332.545 C 527.246 316.174 540.525 302.748 556.853 302.481 L 557.348 302.477 L 737.879 302.477 Z" fill="#4eb3ff" p-id="3593" style=""/>
</svg>