<?xml version="1.0" encoding="utf-8"?>
<svg t="1606475048116" class="icon" viewBox="0 0 1024 1024" version="1.1" p-id="3592" width="300" height="300" xmlns="http://www.w3.org/2000/svg">
  <path d="M 849.984 598.888 C 943.246 598.888 1018.849 674.491 1018.849 767.751 C 1018.849 861.013 943.246 936.615 849.984 936.615 C 756.723 936.615 681.121 861.013 681.121 767.751 C 681.121 674.491 756.723 598.888 849.984 598.888 Z M 770.923 92.296 C 857.706 92.296 928.901 161.716 930.316 247.156 L 930.337 249.75 L 930.341 552.9 C 909.849 545.312 888.376 540.702 866.575 539.211 L 866.572 249.75 C 866.572 197.802 823.519 155.267 770.905 155.267 L 165.099 155.267 C 113.009 155.267 70.293 196.937 69.445 248.193 L 69.431 249.75 L 69.431 722.073 C 69.431 773.519 111.626 815.685 163.522 816.524 L 165.099 816.537 L 625.964 816.54 C 630.677 838.587 638.633 859.815 649.571 879.529 L 165.078 879.525 C 78.297 879.525 7.102 810.069 5.687 724.665 L 5.666 722.071 L 5.666 249.75 C 5.666 164.012 75.992 93.715 162.455 92.318 L 165.078 92.296 L 770.923 92.296 Z M 908.853 701.78 L 908.522 702.139 L 830.102 787.93 L 789.539 746.456 L 785.911 743.3 C 774.453 734.865 758.249 735.728 747.75 746.002 C 736.203 757.302 735.887 775.752 746.957 787.439 L 747.297 787.79 L 809.744 851.609 L 813.161 854.608 C 824.988 863.482 841.919 862.29 852.353 851.227 L 852.682 850.874 L 952.153 742.006 L 955.101 738.205 C 962.882 726.294 961.114 710.163 950.271 700.256 C 938.342 689.359 919.904 690.074 908.854 701.78 Z M 319.167 242.24 C 388.831 242.24 445.846 299.221 445.846 368.866 C 445.898 402.067 432.799 433.936 409.415 457.504 C 459.58 487.256 492.671 541.858 493.328 604.387 L 493.337 606.285 L 493.337 663.245 C 493.337 693.031 470.045 716.584 441.946 717.053 L 441.093 717.059 L 197.258 717.059 C 169.027 717.059 145.471 693.805 145.003 664.145 L 144.996 663.245 L 144.996 606.285 C 144.996 542.964 178.247 487.575 228.919 457.504 C 205.535 433.936 192.436 402.067 192.488 368.866 C 192.488 299.221 249.503 242.24 319.168 242.24 Z M 643.137 669.585 L 620.018 669.588 C 602.595 669.588 588.356 655.33 588.356 637.945 C 588.356 620.7 602.312 606.57 619.494 606.29 L 620.018 606.287 L 687.801 606.28 C 669.444 624.707 654.342 646.112 643.137 669.585 Z M 320.068 495.489 L 319.184 495.492 C 258.171 495.099 208.468 544.388 208.348 605.403 L 208.351 606.287 L 208.351 653.758 L 430.016 653.758 L 430.016 606.266 C 430.375 545.605 381.609 496.078 320.949 495.495 L 320.066 495.489 Z M 746.66 448 C 764.098 448 778.339 462.26 778.339 479.661 C 778.339 496.907 764.364 511.036 747.181 511.317 L 746.66 511.322 L 588.338 511.322 C 570.918 511.322 556.677 497.063 556.677 479.661 C 556.677 462.414 570.634 448.286 587.817 448.004 L 588.338 448 L 746.662 448 Z M 319.165 305.563 C 284.235 305.655 255.937 333.937 255.825 368.867 C 255.937 403.796 284.235 432.079 319.166 432.169 C 354.095 432.08 382.393 403.796 382.505 368.867 C 382.392 333.937 354.095 305.655 319.166 305.563 Z M 746.66 289.733 C 764.098 289.733 778.339 303.974 778.339 321.375 C 778.339 338.622 764.364 352.75 747.181 353.032 L 746.66 353.036 L 556.677 353.036 C 539.237 353.036 524.998 338.796 524.998 321.375 C 524.998 304.148 538.972 290.018 556.155 289.737 L 556.676 289.733 L 746.658 289.733 Z" fill="#4eb3ff" p-id="3593" style=""/>
</svg>