<?xml version="1.0" encoding="UTF-8"?>
<svg width="188px" height="188px" viewBox="0 0 188 188" version="1.1" xmlns="http://www.w3.org/2000/svg" xmlns:xlink="http://www.w3.org/1999/xlink">
    <!-- Generator: Sketch 60 (88103) - https://sketch.com -->
    <title>Group 5</title>
    <desc>Created with Sketch.</desc>
    <defs>
        <linearGradient x1="50%" y1="0%" x2="50%" y2="100%" id="linearGradient-1">
            <stop stop-color="#ECF3E9" offset="0%"></stop>
            <stop stop-color="#DAE8D4" offset="100%"></stop>
        </linearGradient>
        <circle id="path-2" cx="94" cy="94" r="94"></circle>
    </defs>
    <g id="Page-1" stroke="none" stroke-width="1" fill="none" fill-rule="evenodd">
        <g id="我的房产-登记弹窗" transform="translate(-281.000000, -411.000000)">
            <g id="Group-7" transform="translate(88.000000, 351.000000)">
                <g id="Group-5" transform="translate(193.000000, 60.000000)">
                    <g id="默认头像-男">
                        <mask id="mask-3" fill="white">
                            <use xlink:href="#path-2"></use>
                        </mask>
                        <use id="Mask" fill="url(#linearGradient-1)" xlink:href="#path-2"></use>
                        <g mask="url(#mask-3)" fill-rule="nonzero" id="Shape">
                            <g transform="translate(36.000000, 23.000000)">
                                <polygon fill="#FDCC9B" points="45.8151261 148.440678 69.210084 148.440678 69.210084 120.915254 45.8151261 120.915254"></polygon>
                                <path d="M46.0746831,124.668362 C46.0746831,124.668362 56.1218765,131.047893 69.9243266,129.52891 L69.9243266,121.528867 L46.0746831,121.528867 L46.0746831,124.667868 L46.0746831,124.668362 Z M23.2406027,80.1126821 C23.2406027,87.4035038 18.0647458,93.3779065 11.569548,93.3779065 C5.17560934,93.3779065 0,87.5050328 0,80.1126821 C0,72.8218604 5.17560934,66.8474576 11.6710548,66.8474576 C18.0647458,66.9489867 23.2406027,72.8218604 23.2406027,80.1126821 Z M116,80.1126821 C116,87.4035038 110.824143,93.3779065 104.328945,93.3779065 C97.8337474,93.3779065 92.6578905,87.4032568 92.6578905,80.1126821 C92.6578905,72.8218604 97.8334998,66.8474576 104.328945,66.8474576 C110.824391,66.8474576 116,72.8218604 116,80.1126821 Z" fill="#FFD8B7"></path>
                                <path d="M105.229459,54.905481 C105.229459,35.1077123 90.7762882,20.6440678 58.487395,20.6440678 C26.1985017,20.6440678 11.7453304,35.1082128 11.7453304,54.905481 C11.7453304,74.7032496 8.36227963,126.813559 58.487395,126.813559 C108.61251,126.813559 105.229459,74.7032496 105.229459,54.905481 Z" fill="#FFDFBF"></path>
                                <path d="M40.9409338,76.1864407 C40.9409338,79.1903971 38.7525458,81.5932203 36.0669842,81.5932203 C33.3814227,81.5932203 31.1932773,79.1901529 31.1932773,76.1864407 C31.1932773,73.1824842 33.3816654,70.779661 36.0672269,70.779661 C38.6535478,70.779661 40.9411765,73.1827285 40.9411765,76.1864407 L40.9409338,76.1864407 Z" fill="#3B2519"></path>
                                <path d="M36.0672269,74.7118644 C36.0672269,75.7603028 35.1575921,76.6779661 34.1176471,76.6779661 C33.0777021,76.6779661 32.1680672,75.7606225 32.1680672,74.7118644 C32.1680672,73.6631063 33.0777021,72.7457627 34.1176471,72.7457627 C35.2872681,72.7457627 36.0672269,73.6631063 36.0672269,74.7118644 Z" fill="#FFFFFF"></path>
                                <path d="M27.7822125,62.3717578 C30.1352408,63.5417619 34.0231782,58.4716646 42.8218267,62.8591208 C44.4588135,63.6390442 45.3800086,56.0338983 35.9668973,56.0338983 C27.7819629,56.0338983 26.3501298,61.6886409 27.7819629,62.3715199 L27.7822125,62.3717578 Z" fill="#353834"></path>
                                <path d="M85.7815126,76.1864407 C85.7815126,79.1903971 83.5930701,81.5932203 80.9076843,81.5932203 C78.2222986,81.5932203 76.0336134,79.1901529 76.0336134,76.1864407 C76.0336134,73.1824842 78.222056,70.779661 80.9076843,70.779661 C83.5933127,70.779661 85.7815126,73.1827285 85.7815126,76.1864407 L85.7815126,76.1864407 Z" fill="#3B2519"></path>
                                <path d="M80.907563,74.7118644 C80.907563,75.7603028 79.9979282,76.6779661 78.9579832,76.6779661 C77.9180382,76.6779661 77.0084034,75.7606225 77.0084034,74.7118644 C77.0084034,73.6631063 77.9180382,72.7457627 78.9579832,72.7457627 C79.9979282,72.7457627 80.907563,73.6631063 80.907563,74.7118644 Z" fill="#FFFFFF"></path>
                                <path d="M89.1923227,62.3717578 C86.8392696,63.5417619 82.9512911,58.4716646 74.1527993,62.8591208 C72.5157952,63.6390442 71.5953391,56.0338983 81.007801,56.0338983 C89.1928218,56.0338983 90.6246701,61.6886409 89.1928218,62.3715199 L89.1923227,62.3717578 Z" fill="#353834"></path>
                                <path d="M57.9987059,96.8348682 C52.7940286,96.8348682 49.7142857,93.0728298 49.7142857,94.8495886 C49.7142857,96.730098 51.2015585,100.178591 57.9987059,100.178591 C64.7958534,100.178591 66.2831261,96.6258377 66.2831261,94.8495886 C66.389619,93.0730847 63.2028651,96.8348682 57.9987059,96.8348682 L57.9987059,96.8348682 Z M57.9987059,113.867537 C56.1935092,113.867537 55.1311715,112.509093 55.1311715,113.136185 C55.1311715,113.763276 55.6620812,115.016949 57.9987059,115.016949 C60.3353306,115.016949 60.8662404,113.763021 60.8662404,113.136185 C60.8662404,112.509348 59.8041618,113.867537 57.9987059,113.867537 Z" fill="#FDC594"></path>
                                <path d="M57.0252101,107.654566 C49.4585973,107.654566 44.8403361,104.628535 44.8403361,105.311755 C44.8403361,106.092613 47.0023967,109.118644 57.0252101,109.118644 C67.0480234,109.118644 69.210084,106.092613 69.210084,105.311755 C69.210084,104.530898 64.6901092,107.654566 57.0252101,107.654566 L57.0252101,107.654566 Z" fill="#FAAA7F"></path>
                                <path d="M57.9997469,132.711864 L57.9997469,166.426311 L0,166.426311 C0,152.757646 30.5740978,132.711864 57.9997469,132.711864 Z M57.9997469,132.711864 L57.9997469,166.426311 L115.999747,166.426311 C116.101336,152.757646 85.5267431,132.711864 57.9997469,132.711864 Z" fill="#FFB155"></path>
                                <path d="M57.2150353,132.711864 C51.4658081,132.711864 45.7156137,133.54356 39.9663866,134.99947 C39.9663866,134.99947 46.2116036,143.525424 57.2150353,143.525424 C67.3263621,143.525424 74.0670855,136.24714 75.0588235,135.207204 C69.2099631,133.54356 63.1625616,132.711864 57.2150353,132.711864 L57.2150353,132.711864 Z" fill="#FC7B33"></path>
                                <path d="M45.8160934,132.589643 C45.8160934,132.589643 49.1864202,136.644068 57.5129678,136.644068 C65.7410922,136.644068 69.210084,132.589643 69.210084,132.589643 C69.210084,132.589643 57.016983,128.440913 45.8151261,132.589643 L45.8160934,132.589643 Z" fill="#FDCC9B"></path>
                                <path d="M95.8591015,15.4979899 C95.8591015,15.4979899 78.7651701,-6.38858457 43.1622305,1.85690728 C7.55929086,10.1023991 4.92899974,31.6840173 6.04156847,52.6542329 C7.05297215,73.6244485 9.88509988,85.9423983 13.3239711,84.4151334 C16.6616773,82.8881169 14.9423651,69.0436473 15.3467785,65.8877966 C15.7511919,62.7321942 18.8868148,48.2768187 40.5321861,50.4142444 C62.1773107,52.5519186 80.3835641,44.6118797 80.3835641,44.6118797 C80.3835641,44.6118797 87.7671318,53.9771174 92.5216421,55.7082659 C102.130347,59.2711389 98.9949711,83.0922489 102.838503,83.0922489 C106.580869,83.1943149 125.191782,28.120896 95.8591015,15.4984866 L95.8591015,15.4979899 Z" fill="#353834"></path>
                            </g>
                        </g>
                    </g>
                    <circle id="Oval-3" fill="#59C08A" cx="161" cy="161" r="27"></circle>
                    <path d="M159.000351,170 C158.487746,170 157.977167,169.804282 157.586129,169.414864 L149.585038,161.41464 C148.804987,160.633785 148.804987,159.366663 149.585038,158.585809 C150.367115,157.804955 151.633431,157.804955 152.413481,158.585809 L159.000351,165.171618 L171.586519,152.587154 C172.366569,151.804282 173.632885,151.804282 174.414962,152.587154 C175.195013,153.368008 175.195013,154.633113 174.414962,155.413967 L160.414572,169.414864 C160.023534,169.804282 159.510929,170 159.000351,170 L159.000351,170 Z" id="Shape" fill="#FFFFFF" fill-rule="nonzero"></path>
                </g>
            </g>
        </g>
    </g>
</svg>