<?xml version="1.0" standalone="no"?><!DOCTYPE svg PUBLIC "-//W3C//DTD SVG 1.1//EN" "http://www.w3.org/Graphics/SVG/1.1/DTD/svg11.dtd"><svg t="1614039469314" class="icon" viewBox="0 0 1024 1024" version="1.1" xmlns="http://www.w3.org/2000/svg" p-id="3836" xmlns:xlink="http://www.w3.org/1999/xlink" width="200" height="200"><defs><style type="text/css"></style></defs><path d="M604.6 148.5c-2.2-1.8-5-4-8.2-6.2-7.5 5.2-16.2 8.4-25.4 10.2-0.6-1.6-1.9-4.4-3.1-5.9 8.2-1.2 16-3.9 22.7-8-4.8-2.9-10-5.8-14.7-7.9 2.3-2.8 4.7-6.4 7.1-10.1l-10.3-0.7 0.4-6.3 13.4 1c1.1-2.1 2.2-4.1 3-6.2l6.5 1.7c-0.8 1.6-1.5 3.3-2.5 5l16.2 1.1 1.1-0.2 4.1 2c-3.2 8.4-7.8 15-13.4 20.2 3 2 5.9 4 8 5.8l-4.9 4.5zM592.9 95c-5.4 5.5-12.2 10.5-18.5 13.3-0.7-1.7-2.3-4.4-3.6-5.8 7.2-2.5 14.9-8 20.3-14.1L572.9 87l0.4-6.2 20.5 1.5 1.3-18.4 6.9 0.5-1.3 18.4 20.3 1.4-0.4 6.2-18.7-1.4c4.8 3.2 12.9 9.4 15.1 11.3l-4.5 5.1c-2.2-2.5-8-7.8-12.6-11.5l-1 13.6-6.9-0.5 0.9-12z m-9.5-14.2c-0.6-3.5-2.8-9.2-5.2-13.5l5.5-1.8c2.5 4.1 4.8 9.5 5.6 13.3l-5.9 2z m6.7 40.3c-1.7 2.7-3.4 5.4-4.9 7.5 3.6 1.9 7.4 4 10.9 6.1 4.1-3.3 7.6-7.4 10.2-12.5l-16.2-1.1z m29.3-50.8c-3.2 4.3-6.7 9-9.7 12.1l-4.6-2.6c2.7-3.4 6.4-8.8 8.4-12.7l5.9 3.2z m35.4 24c-3.3 14.6-7.5 26.7-13.5 36.6 4.4 9.4 10.4 17.2 18.3 22.2-1.8 1.3-4 3.6-5.3 5.4-7.3-5.2-13.1-12.4-17.4-21.2-6.5 8.2-14.5 14.6-25 19.4-0.6-1.6-2.5-4.8-3.6-6.2 11.1-4.5 19.4-11.2 25.6-20.3-3.2-8-5.4-17.2-6.9-27.2-2.3 4.7-4.9 8.9-7.7 12.5-1.1-1.3-3.7-3.8-5.2-4.9 8.3-9.9 13.9-26.2 17.6-43.2l6.7 1.5c-1.2 5.8-2.8 11.5-4.6 17l28 2-0.5 6.9-6.5-0.5z m-22.9-1.7c1.1 10.9 3.2 21.2 6.3 30.3 4.2-8.1 7.3-17.9 9.6-29.2l-15.9-1.1zM791 194l-10.6 25.9c-1.5 3.8-3.1 5.2-5.8 5.4-2.6 0.2-6.2-0.9-12-3.4 0.4-1.8 0.7-4.9 0.6-7.2 3.9 1.7 7.6 3.2 8.6 3.6 1.1 0.5 1.7 0.3 2.3-1.1l9.7-23.7c-4.4-0.3-8.5-0.7-12.3-1l1-7.2c3.8 0.4 8.7 0.9 14 1.4l8.2-20.2-11.4-4.7 2.6-6.4 11.4 4.7 7.5-18.4 6.4 2.6-7.5 18.4 10.4 4.2-2.6 6.4-10.4-4.2-7.4 18.3 10.8 0.9-1.6 6.6-11.9-0.9z m47.9 12.5l-4.6 11.3L852 225l-11.8 29-6.3-2.6 1.4-3.4-28.3-11.5-1.5 3.8-6-2.4 11.9-29.2 16.3 6.7 4.6-11.3-18.2-7.4c-6.4 13.3-15.2 27.8-27.6 36-0.6-1.7-2.7-4.8-4-6.1 15.3-10.2 24.2-29.9 30.2-44.5l11.3-27.7 48.3 19.7-9.7 23.7-17.3-7.1-4.1 10.1 20.5 8.3-2.4 5.9-20.4-8.5z m4.5 21.8L815 216.8l-5.7 13.9 28.3 11.5 5.8-13.9z m-8.6-30.3l4.1-10.1-17.8-7.3-1.6 4c-0.8 2-1.6 4-2.6 6.1l17.9 7.3z m-6.5-35.2l-4.8 11.7 35.1 14.3 4.8-11.7-35.1-14.3zM183.7 201.4L163.5 212l-2.9-5.5c5.6-2.8 12.9-6.6 21-10.6l-3.1-7.7-11.1 4.4c-3.8 1.5-6.4 3.2-6.9 4.2-0.9-1.2-3.2-4-4.7-5.4 1.4-0.9 2.3-3.1 3.1-5.9 0.4-1.3 1.3-4.4 1.9-8.2l-10.3 4.1-2.1-5.4 13.5-5.4c0.3-2.6 0.5-5.1 0.6-7.7l7.7-0.8c-0.2 1.9-0.6 3.7-0.9 5.6l21.7-8.6 2.1 5.4-25.1 10c-1.1 4.6-2.2 8.9-3.7 12.8l11.9-4.8-2.4-6 6.5-2.6 2.4 6 14.4-5.8 2.2 5.6-14.4 5.8 2.8 7c4.4-2.3 8.8-4.7 13.3-7l2.2 5.2-13.3 7.1 3.6 9-6.5 2.6-3.3-8z m-6.6 14.2l60-23.9 13.6 34.1-6.8 2.7-1.2-3.1-46.7 18.7 1.3 3.2-6.6 2.6-13.6-34.3z m8.7 2.9l3 7.5 46.7-18.6-3-7.5-46.7 18.6z m54.8 1.5l-3.1-7.7-46.7 18.7 3.1 7.7 46.7-18.7z m-1.7-56.6l-10.8 4.3 8.7 21.8-6.4 2.5-8.7-21.8-12.4 4.9c2.4 7.7 3.8 16.9 1.4 24.8-1.5-0.5-4.9-1.3-6.6-1.4 2.9-9.7-0.3-19.9-3.4-27.5l-5.5-13.8c9.8-4.9 21.3-11.4 27.2-16.4l5.8 3.7c-6.1 4.9-15.9 10.5-24.9 15l3.7 9.2 0.3 0.6 29.3-11.7 2.3 5.8zM440.9 144.7c4.9-0.4 5.5-2.7 5.1-16.3 1.8 1.2 5.2 2.2 7.3 2.5 0.2 15.9-1.8 20.1-11.3 20.8l-18.5 1.4c-10.2 0.8-13.1-1.6-13.8-10.5l-2.5-33.9-2.2 0.3c-2.6 19.5-11.2 38.5-35.8 50.6-1.2-1.8-3.5-4.4-5.4-5.7 22.7-10.6 31-27.1 33.9-44.4l-35.8 2.7-0.5-7.3 37-2.8c0.6-7.4 0.4-15 0.1-22.1l-32.7 2.5-0.5-7.1 76.7-5.8 0.5 7.1-36.8 2.8c0.3 7.1 0.4 14.7-0.1 22.1l44.2-3.3 0.5 7.3-35.8 2.7 2.5 33.9c0.3 3.5 1.3 4.2 6.4 3.8l17.5-1.3z" fill="#BBB" p-id="3837"></path><path d="M149.6 635.1h-30.7c-3.3 0-6-2.7-6-6v-30.7c0-3.3 2.7-6 6-6h30.7c3.3 0 6 2.7 6 6v30.7c0 3.3-2.7 6-6 6zM918 720.4h-30.7c-3.3 0-6-2.7-6-6v-30.7c0-3.3 2.7-6 6-6H918c3.3 0 6 2.7 6 6v30.7c0 3.3-2.7 6-6 6zM842.2 677.7h-81.9c-11.8 0-21.3-9.6-21.3-21.3 0-11.8 9.6-21.3 21.3-21.3h60.5c11.8 0 21.3-9.6 21.3-21.3s-9.6-21.3-21.3-21.3H739c-11.8 0-21.3-9.6-21.3-21.3 0-11.8 9.6-21.3 21.3-21.3h32c11.8 0 21.3-9.6 21.3-21.3S782.8 507 771 507H244.5c-11.8 0-21.3 9.6-21.3 21.3s9.6 21.3 21.3 21.3h81.8c11.8 0 21.3 9.6 21.3 21.3 0 11.8-9.6 21.3-21.3 21.3H201.8c-11.8 0-21.3 9.6-21.3 21.3s9.6 21.3 21.3 21.3H283.6c11.8 0 21.3 9.6 21.3 21.3 0 11.8-9.6 21.3-21.3 21.3H184c-11.8 0-21.3 9.6-21.3 21.3S172.3 720 184 720H272.9c-1.2 0-2.4 0.1-3.6 0.3 10.1 1.7 17.8 10.5 17.8 21s-7.7 19.3-17.8 21c1.2 0.2 2.3 0.3 3.6 0.3h-60.5c-11.8 0-21.3 9.6-21.3 21.3 0 11.8 9.6 21.3 21.3 21.3h601.2c11.8 0 21.3-9.6 21.3-21.3 0-11.8-9.6-21.3-21.3-21.3h-28.4c-11.8 0-21.3-9.6-21.3-21.3s9.6-21.3 21.3-21.3H842.1c11.8 0 21.3-9.6 21.3-21.3s-9.4-21-21.2-21z" fill="#EBF9FF" p-id="3838"></path><path d="M509.9 944.6h-0.4c-4.7 0-9.4-0.1-14.2-0.3h-0.2l0.3-7.1h0.2c4.7 0.2 9.3 0.3 13.8 0.3h0.1l0.3-0.4v0.1l0.1 7.4z m6.8-0.1l-0.2-7.1h0.2c4.7-0.1 9.4-0.3 14-0.6h0.2v0.2l0.5 6.9h-0.2c-4.8 0.3-9.6 0.6-14.3 0.7h-0.2z m14-7.6h-0.2 0.2z m-42.3 6.9h-0.2c-4.7-0.3-9.5-0.7-14.2-1.3h-0.2l0.8-7h0.2c4.7 0.5 9.4 1 13.9 1.2l0.2 0.2-0.5 6.9z m49.8-0.5l-0.6-7.1h0.2c4.6-0.4 9.3-0.9 13.9-1.6l0.3 0.1 0.9 6.8-0.2 0.1c-4.8 0.6-9.6 1.2-14.2 1.6l-0.3 0.1z m-71.1-1.6l-0.2-0.1c-4.6-0.6-9.4-1.4-14.1-2.2h-0.2l1.3-7h0.2c4.5 0.9 9.2 1.6 13.8 2.2l1.5 0.4H468l-0.9 6.7z m92.4-1.1l-1.1-7h0.2c4.6-0.7 9.1-1.6 13.6-2.5l0.3-0.1 0.1 0.2 1.4 6.8h-0.2c-4.7 1-9.4 1.8-14.2 2.6h-0.1z m-113.6-2.5h-0.2v-0.2l-0.1 0.2c-4.7-1-9.4-2.1-14-3.2h-0.1l1.7-6.9h0.2c4.5 1.2 9.1 2.2 13.6 3.2h0.3v0.2l-1.4 6.7z m134.7-1.6l-1.6-6.9h0.2c4.5-1 9-2.2 13.6-3.5h0.2l0.1 0.1 1.8 6.7-0.1 0.1c-4.7 1.3-9.3 2.5-13.9 3.6l-0.3-0.1zM425 933.1h-0.2v-0.2l-0.1 0.2v-0.1 0.1c-4.7-1.3-9.3-2.7-13.7-4.2h-0.1l2.2-6.8h0.2c4.4 1.5 8.9 2.8 13.3 4.1l0.3-0.9v1l1.1 0.3h-1.1l-1.9 6.5z m190-6.7c-4.4 1.6-9 3.1-13.4 4.4l-0.2 0.1-2.1-6.8 0.2-0.1c4.4-1.4 8.8-2.8 13.1-4.3l2.4 6.7z m-210.5 0.2l-0.2-0.1 0.1-0.1-0.1 0.1c-4.5-1.6-9-3.3-13.4-5.1l-0.2-0.1 2.7-6.6 0.1 0.1c4.4 1.8 8.8 3.4 13 4.9l0.2-0.5v0.6l0.9 0.3h-0.9v0.3l-0.1-0.1-2.1 6.3z m217.2-2.6l-2.5-6.7 0.1-0.1c4.4-1.7 8.8-3.5 13-5.3l0.1-0.1 0.1 0.1 2.8 6.4-0.2 0.1c-4.4 1.9-8.9 3.7-13.2 5.4l-0.2 0.2z m-237.3-5.3l-0.2-0.1 0.1-0.1-0.1 0.1 0.1-0.2-0.1 0.2c-4.4-1.9-8.8-4-13.1-6l-0.1-0.1 3.1-6.4 0.1 0.1c4.2 2.1 8.5 4 12.7 5.9l0.1 0.2-2.6 6.4z m-19.5-9.2l-0.2-0.1c-4.3-2.2-8.5-4.6-12.6-6.9l-0.1-0.1 3.6-6.2 0.1 0.1c4 2.3 8.1 4.6 12.3 6.7h0.3l-0.1 0.2-3.3 6.3z m-18.7-10.6l-0.3-0.2c-4-2.4-8-5-12-7.7l-0.1-0.1 4-5.9 0.1 0.1c3.8 2.6 7.8 5.1 11.8 7.6l0.1 0.1-0.1 0.1-3.5 6z m3.3-6.1l0.1 0.1-0.1-0.1z m-21.3-5.7l-0.2-0.1c-3.8-2.7-7.6-5.5-11.5-8.5l-0.1-0.1 4.4-5.6 0.1 0.1c3.6 2.7 7.3 5.5 11.3 8.3l0.1 0.1-0.1 0.2-4 5.6z m-17.1-13l-0.2-0.1c-3.7-3-7.4-6.2-10.9-9.3l-0.1-0.1 4.8-5.3 0.1 0.1c3.5 3.1 7 6.2 10.6 9l0.2-0.2v0.2h0.3l-0.3 0.3v0.7l-0.2-0.4-4.3 5.1zM294.9 860l-0.2-0.1c-3.4-3.2-6.8-6.5-10.2-10l-0.1-0.1 5.1-5 0.1 0.1c3.2 3.3 6.6 6.6 10 9.8l0.1 0.1-0.1 0.1-4.7 5.1z m-15.3-15.2l-0.1-0.1c-3.2-3.4-6.4-7-9.5-10.7l-0.1-0.1 5.4-4.6 0.1 0.1c3 3.5 6.2 7 9.3 10.4l0.1 0.1-0.1 0.1-5.1 4.8z m464.7-5.3l-5.3-4.7 0.1-0.1c3.2-3.5 6.2-7.1 9.1-10.7l0.1-0.1 5.5 4.5-0.1 0.2c-3.1 3.7-6.2 7.4-9.3 10.9h-0.1z m-478.8-10.9l-0.3-0.3c-3-3.7-5.9-7.5-8.7-11.2l-0.1-0.1 5.7-4.2 0.1 0.1c2.7 3.7 5.6 7.3 8.5 10.9l0.2-0.2v0.4l0.1 0.1-0.1 0.1-5.4 4.4z m492.6-5.6l-5.6-4.4 0.1-0.1c2.9-3.7 5.7-7.4 8.3-11.1l0.2-0.2 0.5-0.4-0.2 0.6 5.5 3.9-0.1 0.1c-2.7 3.9-5.6 7.8-8.5 11.5l-0.2 0.1z m-505.6-11.5l-0.1-0.2c-2.7-3.9-5.4-7.9-8-11.8l-0.1-0.2 6-3.8 0.1 0.2c2.6 4 5.2 7.9 7.8 11.6l0.1 0.1-0.2 0.1-5.6 4z m518.2-5.9l-5.9-4 0.1-0.1c2.5-3.7 5-7.6 7.5-11.7l0.1-0.3 0.1 0.1 0.3-0.4v0.5l5.8 3.6-0.1 0.3c-2.5 4.1-5.1 8.1-7.7 12h-0.2z m-530-12l-0.1-0.2c-2.5-4-4.9-8.2-7.2-12.4l-0.1-0.1 6.3-3.4 0.1 0.2c2.2 4 4.5 8 6.9 11.9l0.1-0.1v1.2l-0.2-0.5-5.8 3.4z m541.4-6.2l-6.2-3.6 0.1-0.2c2.4-4.1 4.7-8.3 6.8-12.3l0.1-0.2 0.2 0.1 6.2 3.1-0.1 0.3c-2.3 4.4-4.6 8.6-6.9 12.6l-0.2 0.2z m-261.7-0.5c-0.1 0-0.2-0.1-0.2-0.2 0-0.2 0.4-0.2 0.4 0-0.1 0.1-0.1 0.2-0.2 0.2z m-290.3-12l-0.1-0.1c-2.3-4.4-4.4-8.8-6.3-12.9l-0.1-0.2 6.4-3 0.1 0.2c1.9 4.2 4 8.4 6.2 12.6l0.1 0.1-0.2 0.1-6.1 3.2z m562.2-6.5l-6.4-3.1 0.1-0.1c2-4.2 4-8.4 5.9-12.7h-0.1l0.7-0.7-0.2 0.6 6.2 2.7-0.1 0.2c-2 4.5-4 8.9-6 13.1h-0.1z m-571.4-12.8l-0.2-0.3h0.1c-1.8-4.1-3.6-8.5-5.3-13.1l-0.1-0.2 6.7-2.5 0.1 0.1c1.7 4.4 3.4 8.8 5.3 13l0.1 0.1-0.2 0.1-6.5 2.8z m580.2-6.8l-6.6-2.7 0.1-0.1c1.7-4.3 3.4-8.7 5-13.1l0.1-0.2h0.2l6.5 2.3v0.2c-1.6 4.4-3.3 8.9-5.2 13.4l-0.1 0.2zM213 735.7l-0.1-0.2c-1.6-4.5-3.1-9.1-4.5-13.6v-0.2l6.8-2.1v0.2c1.4 4.4 2.8 8.9 4.4 13.3l0.1 0.2-6.7 2.4z m595.6-7.2l-6.8-2.2 0.1-0.2c1.5-4.6 2.8-9 4.1-13.4l0.1-0.2 6.8 1.9v0.1c-1.3 4.7-2.7 9.3-4.2 13.8l-0.1 0.2z m-602.1-13.3l-1.2-0.1 1.1-0.3c-1.3-4.5-2.5-9.1-3.5-13.7v-0.2l6.9-1.6v0.2c1 4.4 2.2 9 3.5 13.5l0.2 0.2h-0.3l-6.7 2z m608.1-7.3l-6.9-1.8v-0.2c1.1-4.4 2.2-9 3.1-13.5l-0.9-0.3h1.1l6.8 1.4-0.1 0.3c-1 4.7-2 9.4-3.2 13.9l0.1 0.2z m-613.2-13.6l-0.6-0.1 0.5-0.3c-0.9-4.6-1.8-9.2-2.6-13.9v-0.2l7-1.1v0.2c0.7 4.6 1.6 9.2 2.5 13.7h1.6l-1.5 0.3h-0.2l-6.7 1.4z m617.8-7.4l-7-1.3v-0.1c0.8-4.6 1.5-9.1 2.2-13.7v-0.3h0.1l0.3-1.4v1.4l6.7 0.9-0.1 0.4c-0.6 4.6-1.4 9.4-2.2 14v0.1z m-621.5-13.8v-0.1c-0.7-4.8-1.2-9.6-1.6-14.3v-0.2l7.1-0.7v0.2c0.4 4.7 1 9.4 1.6 13.9v0.2l-0.1 0.1-7 0.9z m624.7-7.5l-7.1-0.8v-0.2c0.5-4.7 0.9-9.4 1.2-13.8l-0.3-0.3 0.5-0.1 6.9 0.5v0.2c-0.3 4.8-0.8 9.5-1.3 14.3v0.2z m-626.9-13.9v-0.2c-0.3-4.7-0.5-9.5-0.7-14.3v-0.2l7.1-0.1v0.2c0.1 4.8 0.4 9.4 0.6 13.9l0.4 0.2-7.4 0.5z m628.6-7.5l-7.1-0.3v-0.2c0.2-4.8 0.3-9.6 0.3-14v-0.9H824.4v0.9c0 4.6-0.1 9.4-0.3 14.3v0.2z m-629.4-14v-0.5c0-4.7 0.1-9.4 0.3-14v-0.1l7.1 0.3v0.2c-0.2 4.5-0.3 9.1-0.3 13.7l-0.2 0.5h-6.9z m622.5-8v-0.2c-0.1-4.7-0.3-9.4-0.6-14l0.2-0.1v-0.1l6.9-0.5 0.1 0.2c0.3 4.8 0.5 9.6 0.6 14.3v0.2l-7.2 0.2z m-614.9-13l-7-0.5 0.1-0.2c0.3-4.8 0.7-9.6 1.2-14.3v-0.2l7.1 0.8v0.2c-0.5 4.6-0.9 9.3-1.2 14l-0.2 0.2z m613.7-7.9v-0.2c-0.4-4.7-1-9.4-1.6-13.9l0.1-0.3 6.9-1v0.2c0.6 4.7 1.2 9.5 1.6 14.2v0.2l-7 0.8z m-611.4-13h-0.2l-6.9-1.1c0.7-4.9 1.4-9.6 2.2-14.2v-0.2l7 1.3v0.2c-0.8 4.6-1.6 9.2-2.2 13.8v0.2z m608.8-7.9v-0.2c-0.7-4.6-1.6-9.1-2.5-13.6v-0.1V566.2l0.2-0.1 6.8-1.4v0.1l0.2 0.1-0.1 0.1c1 4.6 1.8 9.3 2.6 13.9v0.2l-7.2 1.3z m-605.3-12.8h-0.2l-6.8-1.6c0.9-4.6 2-9.2 3.2-14l0.1-0.2 6.9 1.7v0.2c-1.1 4.6-2.2 9.1-3.1 13.7l-0.1 0.2z m601.2-7.8v-0.1c-1.1-4.5-2.2-9.1-3.5-13.6l-0.1-0.2 0.2-0.1 6.7-1.9v0.1h0.6l-0.4 0.2 0.1 0.1h-0.2c1.2 4.4 2.4 9 3.5 13.6v0.2l-6.9 1.7zM213 547.2h-0.2l-6.7-1.9 0.1-0.2c1.3-4.6 2.7-9.1 4.2-13.7v-0.2l6.8 2.2-0.1 0.1c-1.4 4.3-2.8 8.8-4.1 13.4v0.3z m590.9-7.7l-0.1-0.1c-1.4-4.4-2.8-8.9-4.4-13.3l-0.1-0.2 0.2-0.1 6.5-2.3 0.1 0.2c1.6 4.4 3.1 9 4.5 13.6l0.1 0.1-6.8 2.1z m-584.5-12.4h-0.2l-6.5-2.3 0.1-0.3c1.6-4.6 3.3-9.1 5.1-13.4l0.1-0.2 6.6 2.7-0.1 0.1c-1.7 4.3-3.4 8.8-5 13.1l-0.1 0.3z m577.6-7.4l-0.1-0.2c-1.7-4.4-3.5-8.8-5.3-12.9l-0.2-0.3h0.2l6.3-2.8 0.1 0.2c1.9 4.3 3.7 8.8 5.4 13.2l0.1 0.1-6.5 2.7z m-569.9-12.2h-0.2l-6.4-2.8 0.1-0.2c1.9-4.3 3.9-8.8 6-13.1l0.1-0.1 6.4 3.1-0.1 0.1c-2.1 4.3-4.1 8.5-5.9 12.7v0.3z m561.8-7.1l-0.1-0.2c-2-4.2-4-8.3-6.1-12.3l-0.1 0.1-0.1-0.5h0.1v-0.7l0.2 0.5 6-3.1 0.1 0.2c2.2 4.2 4.3 8.5 6.3 12.8l0.1 0.1-6.4 3.1z m-552.8-11.9l-0.2-0.1-6.2-3.2 0.1-0.1c2.2-4.2 4.5-8.5 6.9-12.6l0.1-0.1 6.2 3.6-0.1 0.1c-2.2 3.9-4.5 8-6.7 12.3l-0.1 0.1z m543.3-6.8l-0.1-0.1c-2.3-4.2-4.7-8.3-7-12.1l-0.1-0.2 6.1-3.7 0.1 0.2c2.5 4.1 4.9 8.3 7.2 12.4l0.1 0.1-6.3 3.4z m-532.9-11.4l-0.3-0.2-5.9-3.6 0.2-0.2c2.4-4 5-8 7.7-12l0.1-0.1 5.9 4-0.1 0.2c-2.6 3.8-5.1 7.8-7.5 11.8v0.1z m522.2-6.6l-0.1-0.1c-2.5-3.9-5.1-7.8-7.8-11.6l-0.1-0.1 0.1-0.1 5.7-4 0.1 0.2c2.7 3.9 5.4 7.9 8 11.9l0.1 0.1-6 3.7z m-510.9-11.1h-0.1l-5.7-4.1 0.2-0.1c2.8-4 5.7-7.8 8.5-11.5l0.1-0.1 5.6 4.4-0.1 0.1c-2.8 3.5-5.6 7.3-8.4 11.2l-0.1 0.1z m498.9-6.2l-0.1-0.1c-2.7-3.7-5.6-7.4-8.6-11.1l-0.1-0.1 0.1-0.1 5.4-4.4 0.1 0.1c3 3.7 6 7.5 8.8 11.3l0.1 0.1-5.7 4.3z m-486.1-10.6h-0.5l0.2-0.2-5.2-4.3 0.1-0.1c3-3.7 6.1-7.4 9.3-10.9l0.1-0.1 5.3 4.7-0.1 0.1c-3.2 3.6-6.1 7-9 10.5l0.5 0.2h-0.7z m473-5.8l-0.1-0.1c-3.1-3.6-6.2-7-9.3-10.4l-0.1-0.2 5.2-4.8 0.1 0.1c3.2 3.4 6.4 7 9.6 10.7l0.1 0.1-5.5 4.6z m-459.1-9.9l-5.4-5 0.1-0.1c3.4-3.6 6.8-7 10-10.3l0.1-0.1 5 5.1-0.1 0.1c-3.3 3.3-6.6 6.6-9.7 10v0.3z m445-5.6l-0.1-0.1c-3.2-3.3-6.6-6.6-10-9.8l-0.1-0.1 0.1-0.1 4.7-5.1 0.1 0.1c3.5 3.2 6.9 6.6 10.3 10l0.1 0.1-5.1 5zM299.2 405h-0.8l0.5-0.2-4.6-4.9 0.1-0.1v-0.4l0.2 0.2c3.6-3.3 7.1-6.5 10.6-9.4l0.1-0.1 4.6 5.4-0.1 0.1c-3.6 3-7 6.1-10.3 9.2l0.2 0.2h-0.5z m415.1-5l-0.1-0.1c-3.4-3-6.9-6-10.6-9.1h-0.3l4.6-5.7 0.1 0.1c3.7 3 7.4 6.1 10.9 9.3l0.1 0.1-4.7 5.4zM315 391.3l-4.5-5.5 0.2-0.1c3.7-3 7.5-6 11.3-8.8l0.1-0.1 4.2 5.7-0.1 0.1c-3.6 2.7-7.3 5.6-11 8.6l-0.2 0.1z m383.1-4.8l-0.1-0.1c-3.7-2.8-7.4-5.6-11.3-8.4l-0.8-0.3h0.8l3.9-5.6 0.1 0.1c3.9 2.7 7.8 5.6 11.6 8.5l0.1 0.1-4.3 5.7z m-366.4-7.9l-0.1-0.1-4.2-5.8h0.4c3.8-2.7 7.8-5.4 11.8-8l0.1-0.1 3.8 6-0.1 0.1c-3.9 2.6-7.8 5.2-11.6 7.9h-0.1z m349.4-4.4l-0.2-0.1c-3.7-2.5-7.6-5-11.7-7.5l-0.3-0.2v-0.2l3.6-5.9 0.3 0.2c4.1 2.5 8.1 5.1 12 7.6l0.1 0.1-3.8 6zM349.3 367l-0.1-0.1-3.6-5.9 0.3-0.3v0.1c4-2.5 8.1-4.8 12.2-7.1l0.1-0.1 3.4 6.3-0.2 0.1c-4.1 2.3-8.1 4.6-12 6.9l-0.1 0.1z m313.9-3.9l-0.1-0.1c-4.1-2.3-8.2-4.6-12.3-6.7l-0.2-0.1 3.2-6.3 0.2 0.1c4.2 2.2 8.4 4.5 12.6 6.9l0.1 0.1-3.5 6.1z m-295.8-6.4v-0.3l-3.2-6.1 0.2-0.1c4.1-2.1 8.4-4.2 12.8-6.3l0.1-0.1 3 6.5-0.2 0.1c-4.3 2-8.5 4.1-12.6 6.2l-0.1 0.1z m277.3-3.5l-0.1-0.1c-4.3-2.1-8.6-4.1-12.8-5.9l-0.2-0.1 2.8-6.5 0.2 0.1c4.3 1.9 8.8 3.9 13.1 6l0.2 0.1-3.2 6.4z m-258-5.4l-0.2-0.2h-0.1l-0.1-0.2-2.8-6.4h0.2c4.2-1.8 8.7-3.7 13.2-5.4l0.1-0.1 2.6 6.7h-0.2c-4.2 1.6-8.5 3.4-12.8 5.3v0.3z m238.8-3.2l-0.2-0.1c-4.2-1.7-8.6-3.4-13.1-5h-0.2l0.1-0.2 2.3-6.6 0.2 0.1c4.4 1.6 8.9 3.3 13.4 5.1l0.1 0.1-2.6 6.6zM406 339.9h-0.8l0.5-0.3-2.3-6.4 0.3-0.2v0.1c4.4-1.5 8.9-3.1 13.4-4.4h0.2l2.1 6.8h-0.1c-4.4 1.4-8.8 2.8-13.1 4.3l0.1 0.1h-0.3z m199.7-2.6l-0.2-0.1c-4.3-1.4-8.8-2.8-13.2-4l-0.3 0.5-0.1-0.6 2-6.9 0.2 0.1c4.6 1.2 9.2 2.7 13.7 4.2h0.2l-2.3 6.8zM426 333.5l-0.2-0.1-1.9-6.7 0.2-0.1c4.7-1.3 9.3-2.5 13.9-3.6h0.1l1.6 6.9h-0.2c-4.2 1.1-8.8 2.3-13.5 3.6z m159.5-2.1h-0.2c-4.7-1.2-9.2-2.2-13.6-3.1h-0.3l1.5-7 0.3 0.1c4.6 0.9 9.2 2 13.8 3.2l0.2 0.1-1.7 6.7z m-138.8-2.9l-0.4-0.1-1.4-6.8 0.2-0.1c4.6-1 9.3-1.8 14.1-2.6h0.2l1.1 7h-0.2c-4.5 0.8-9.1 1.6-13.6 2.6zM565 327h-0.2c-4.6-0.8-9.3-1.6-13.8-2.2l-0.2-0.1 0.9-7 0.3 0.1c4.6 0.6 9.4 1.4 14.1 2.2h0.2l-1.3 7z m-97.7-1.7l-0.3-0.4h-0.1l-0.1-0.2-0.9-6.9h0.2c4.7-0.6 9.5-1.2 14.2-1.6h0.2l0.6 7.1h-0.2c-4.6 0.4-9.3 1-13.8 1.6v0.4z m76.9-1.4h-0.2c-4.7-0.5-9.4-1-13.9-1.2l-0.2-0.2 0.5-7h0.2c4.7 0.3 9.5 0.7 14.3 1.3h0.2l-0.9 7.1z m-56.1-1.2l-0.2-0.2-0.5-6.9 0.2 0.2v-0.2c4.6-0.3 9.4-0.5 14.3-0.7h0.2l0.2 7.1h-0.2c-4.6 0.2-9.3 0.4-14 0.7z m35.1-0.4h-0.2c-4.4-0.2-9-0.3-13.5-0.3l-0.7-0.2v-6.9h0.7c4.6 0 9.2 0.1 13.8 0.3h0.2l-0.3 7.1zM84.4 891.2h21.3v7.1H84.4zM112.9 891.2h67.6v7.1h-67.6z" fill="#BBB" p-id="3839"></path><path d="M358.4 891.2H579v7.1H358.4zM625.2 958.8H514.9v-7.1h105.8c-1.7-10.2-2.6-34.5 24.1-49.4l3.5 6.2c-29 16.1-20.1 44.4-19.7 45.6l1.5 4.7h-4.9z" fill="#BBB" p-id="3840"></path><path d="M287.2 926.8H618v7.1H287.2zM188.9 898.3h-8.4v-3.5l-2.5 2.5c-12-12.4-12.1-32.5-0.3-44 6.7-6.5 15.8-9.5 25-8.3l-0.9 7.1c-7-0.9-14 1.4-19.1 6.3-8.9 8.6-8.7 24.5 0.5 33.9l5.7 6z" fill="#BBB" p-id="3841"></path><path d="M207.5 870.5c-15.7-18.8-13.2-46.9 5.6-62.6 9.1-7.6 20.6-11.2 32.5-10.1 11.8 1.1 22.5 6.7 30.1 15.8l-5.5 4.6c-6.4-7.7-15.4-12.4-25.3-13.3-9.9-0.9-19.6 2.1-27.3 8.5-15.8 13.2-17.9 36.8-4.7 52.6l-5.4 4.5z" fill="#BBB" p-id="3842"></path><path d="M271.3 824.6l-6.6-2.8c3.7-8.8 10.6-15.5 19.4-19.1 8.8-3.6 18.5-3.5 27.2 0.2l-2.8 6.6c-7-3-14.7-3-21.8-0.1-6.9 2.8-12.4 8.2-15.4 15.2zM258.7 933.9c-9.5 0-18.4-3.8-25.1-10.5-6.7-6.7-10.4-15.7-10.3-25.2h7.1c0 7.6 2.9 14.8 8.3 20.1 5.4 5.4 12.5 8.4 20.1 8.4l-0.1 7.2z" fill="#BBB" p-id="3843"></path><path d="M223.2 891.2h42.7v7.1h-42.7zM644 910.7c-3.9-7.5-5.2-16.2-3.6-24.5 1.9-9.8 7.5-18.3 15.8-23.8 8.3-5.6 18.2-7.6 28-5.7 14.6 2.8 26.1 14 29.4 28.6l-6.9 1.5c-2.6-11.8-11.9-20.9-23.8-23.1-7.9-1.5-16 0.1-22.7 4.6-6.7 4.5-11.2 11.4-12.8 19.3-1.3 6.8-0.3 13.7 2.9 19.8l-6.3 3.3z" fill="#BBB" p-id="3844"></path><path d="M799.4 939.2l-5.7-4.2c18-24.5 12.7-59.1-11.8-77.1-24.5-18-59.1-12.7-77.1 11.8l-5.7-4.2c20.3-27.7 59.3-33.7 87-13.3 27.6 20.3 33.6 59.4 13.3 87z" fill="#BBB" p-id="3845"></path><path d="M891.7 958.8h-83.3v-7.1c12.8 0 23.1-10.4 23.1-23.1s-10.4-23.1-23.1-23.1v-7.1c16.7 0 30.2 13.6 30.2 30.2 0 9.3-4.2 17.6-10.8 23.1h63.8v7.1zM899.1 951.7h39.1v7.1h-39.1z" fill="#BBB" p-id="3846"></path><path d="M357.8 420.1c5.6 10.4 1.7 23.3-8.7 28.9l-78.4 42c-10.4 5.6-23.3 1.7-28.9-8.7l-62.2-116c-5.6-10.4-1.7-23.3 8.7-28.9l78.4-42c10.4-5.6 23.3-1.7 28.9 8.7l7.2 13.5" fill="#FFFFFF" p-id="3847"></path><path d="M260.6 495.3c-8.3 0-16.3-4.4-20.4-12.2l-62.2-116c-6-11.2-1.8-25.3 9.5-31.3l78.4-42c11.2-6 25.3-1.8 31.3 9.5l7.2 13.5c0.5 0.9 0.1 1.9-0.7 2.4-0.9 0.5-1.9 0.1-2.4-0.7l-7.2-13.5c-5.1-9.5-17-13.1-26.5-8l-78.4 42c-4.6 2.5-8 6.6-9.5 11.6s-1 10.3 1.5 14.9l62.2 116c5.1 9.5 17 13.1 26.5 8l78.4-42c9.5-5.1 13.1-17 8-26.5-0.5-0.9-0.1-1.9 0.7-2.4 0.9-0.5 1.9-0.1 2.4 0.7 6 11.2 1.8 25.3-9.5 31.3l-78.4 42c-3.4 1.8-7.2 2.7-10.9 2.7z" fill="#BBB" p-id="3848"></path><path d="M331 371.7c-0.6 0-1.2-0.3-1.6-0.9l-19-35.4c-0.5-0.9-0.1-1.9 0.7-2.4 0.9-0.5 1.9-0.1 2.4 0.7l19 35.4c0.5 0.9 0.1 1.9-0.7 2.4-0.3 0.2-0.6 0.2-0.8 0.2zM281.7 341.6c-0.6 0-1.2-0.3-1.6-0.9-0.5-0.9-0.1-1.9 0.7-2.4l11.6-6.2c0.9-0.5 1.9-0.1 2.4 0.7 0.5 0.9 0.1 1.9-0.7 2.4l-11.6 6.2c-0.2 0.1-0.5 0.2-0.8 0.2zM205.5 382.4c-0.6 0-1.2-0.3-1.6-0.9-0.5-0.9-0.1-1.9 0.7-2.4l63.6-34.1c0.9-0.5 1.9-0.1 2.4 0.7 0.5 0.9 0.1 1.9-0.7 2.4l-63.6 34.1c-0.2 0.1-0.5 0.2-0.8 0.2zM241.4 396.9c-0.6 0-1.2-0.3-1.6-0.9-0.5-0.9-0.1-1.9 0.7-2.4l65.9-35.3c0.9-0.5 1.9-0.1 2.4 0.7 0.5 0.9 0.1 1.9-0.7 2.4l-65.9 35.3c-0.2 0.2-0.5 0.2-0.8 0.2zM219.6 408.6c-0.6 0-1.2-0.3-1.6-0.9-0.5-0.9-0.1-1.9 0.7-2.4l10.9-5.9c0.9-0.5 1.9-0.1 2.4 0.7s0.1 1.9-0.7 2.4l-10.9 5.9c-0.3 0.2-0.6 0.2-0.8 0.2zM233.6 434.9c-0.6 0-1.2-0.3-1.6-0.9-0.5-0.9-0.1-1.9 0.7-2.4l87.8-47c0.9-0.5 1.9-0.1 2.4 0.7 0.5 0.9 0.1 1.9-0.7 2.4l-87.8 47c-0.2 0.1-0.5 0.2-0.8 0.2zM284.6 441.4c-0.6 0-1.2-0.3-1.6-0.9-0.5-0.9-0.1-1.9 0.7-2.4l50.9-27.3c0.9-0.5 1.9-0.1 2.4 0.7 0.5 0.9 0.1 1.9-0.7 2.4l-50.9 27.3c-0.2 0.1-0.5 0.2-0.8 0.2z" fill="#BBB" p-id="3849"></path><path d="M247.7 461.2c-0.6 0-1.2-0.3-1.6-0.9-0.5-0.9-0.1-1.9 0.7-2.4l27.2-14.6c0.9-0.5 1.9-0.1 2.4 0.7 0.5 0.9 0.1 1.9-0.7 2.4L248.5 461c-0.2 0.1-0.5 0.2-0.8 0.2z" fill="#BBB" p-id="3850"></path><path d="M323 694.1c8 6.7 8.9 18.6 2.2 26.6l-50.8 60c-6.7 8-18.6 8.9-26.6 2.2L159 707.8c-8-6.7-8.9-18.6-2.2-26.6l50.8-60c6.7-8 18.6-8.9 26.6-2.2l10.3 8.7" fill="#FFFFFF" p-id="3851"></path><path d="M260 789.1c-4.7 0-9.4-1.6-13.3-4.9l-88.8-75.1c-4.2-3.6-6.8-8.5-7.2-14-0.5-5.5 1.3-10.8 4.8-15l50.8-60c3.6-4.2 8.5-6.8 14-7.2 5.5-0.5 10.8 1.3 15 4.8l10.3 8.7c0.8 0.6 0.8 1.8 0.2 2.5-0.6 0.8-1.8 0.8-2.5 0.2l-10.3-8.7c-3.5-2.9-7.9-4.4-12.5-4-4.5 0.4-8.7 2.5-11.6 6l-50.8 60c-2.9 3.5-4.4 7.9-4 12.5s2.5 8.7 6 11.6l88.8 75.1c7.2 6.1 18 5.2 24.1-2l50.8-60c6.1-7.2 5.2-18-2-24.1-0.8-0.6-0.8-1.8-0.2-2.5 0.6-0.7 1.8-0.8 2.5-0.2 8.7 7.4 9.8 20.4 2.4 29.1l-50.8 60c-4 4.7-9.8 7.2-15.7 7.2z" fill="#BBB" p-id="3852"></path><path d="M284.6 663.4c-0.4 0-0.8-0.1-1.1-0.4l-27.1-22.9c-0.8-0.6-0.8-1.8-0.2-2.5 0.6-0.8 1.8-0.8 2.5-0.2l27.1 22.9c0.8 0.6 0.8 1.8 0.2 2.5-0.4 0.4-0.9 0.6-1.4 0.6zM234.3 654.6c-0.4 0-0.8-0.1-1.1-0.4-0.8-0.6-0.8-1.8-0.2-2.5l7.5-8.9c0.6-0.7 1.8-0.8 2.5-0.2 0.8 0.6 0.8 1.8 0.2 2.5l-7.5 8.9c-0.4 0.4-0.9 0.6-1.4 0.6zM185 712.9c-0.4 0-0.8-0.1-1.1-0.4-0.8-0.6-0.8-1.8-0.2-2.5l41.2-48.7c0.6-0.7 1.8-0.8 2.5-0.2 0.8 0.6 0.8 1.8 0.2 2.5l-41.2 48.7c-0.4 0.4-0.9 0.6-1.4 0.6zM219.2 713.2c-0.4 0-0.8-0.1-1.1-0.4-0.8-0.6-0.8-1.8-0.2-2.5l42.7-50.5c0.6-0.7 1.8-0.8 2.5-0.2 0.8 0.6 0.8 1.8 0.2 2.5l-42.7 50.5c-0.3 0.4-0.8 0.6-1.4 0.6zM205.1 730c-0.4 0-0.8-0.1-1.1-0.4-0.8-0.6-0.8-1.8-0.2-2.5l7.1-8.4c0.6-0.8 1.8-0.8 2.5-0.2 0.8 0.6 0.8 1.8 0.2 2.5l-7.1 8.4c-0.4 0.3-0.9 0.6-1.4 0.6zM225.2 747c-0.4 0-0.8-0.1-1.1-0.4-0.8-0.6-0.8-1.8-0.2-2.5l56.9-67.2c0.6-0.7 1.8-0.8 2.5-0.2 0.8 0.6 0.8 1.8 0.2 2.5l-56.9 67.2c-0.4 0.3-0.9 0.6-1.4 0.6zM269.2 735.7c-0.4 0-0.8-0.1-1.1-0.4-0.8-0.6-0.8-1.8-0.2-2.5l32.9-38.9c0.6-0.7 1.8-0.8 2.5-0.2 0.8 0.6 0.8 1.8 0.2 2.5l-32.9 38.9c-0.4 0.4-0.9 0.6-1.4 0.6z" fill="#BBB" p-id="3853"></path><path d="M245.3 764c-0.4 0-0.8-0.1-1.1-0.4-0.8-0.6-0.8-1.8-0.2-2.5l17.6-20.8c0.6-0.8 1.8-0.8 2.5-0.2 0.8 0.6 0.8 1.8 0.2 2.5l-17.6 20.8c-0.4 0.4-0.9 0.6-1.4 0.6z" fill="#BBB" p-id="3854"></path><path d="M780 571.4c-7.8 8.9-21.3 9.8-30.1 2L683 514.8c-8.9-7.8-9.8-21.3-2-30.1l86.7-99c7.8-8.9 21.3-9.8 30.1-2l66.9 58.6c8.9 7.8 9.8 21.3 2 30.1l-10.1 11.5" fill="#FFFFFF" p-id="3855"></path><path d="M763.9 580.5c-5.6 0-11-2-15.2-5.7l-66.9-58.6c-9.6-8.4-10.6-23-2.2-32.6l86.7-99c4.1-4.6 9.7-7.4 15.9-7.8 6.1-0.4 12.1 1.6 16.8 5.7l66.9 58.6c9.6 8.4 10.6 23 2.2 32.6L858 485.1c-0.6 0.7-1.8 0.8-2.5 0.2-0.7-0.6-0.8-1.8-0.2-2.5l10.1-11.5c7.1-8.1 6.3-20.5-1.8-27.6L796.7 385c-3.9-3.4-9-5.2-14.2-4.8-5.2 0.3-10 2.7-13.4 6.6l-86.7 99c-7.1 8.1-6.3 20.5 1.8 27.6l66.9 58.6c3.9 3.4 9 5.2 14.2 4.8 5.2-0.3 10-2.7 13.4-6.6 0.6-0.7 1.8-0.8 2.5-0.2 0.7 0.6 0.8 1.8 0.2 2.5-4.1 4.6-9.7 7.4-15.9 7.8-0.5 0.1-1.1 0.2-1.6 0.2z" fill="#BBB" p-id="3856"></path><path d="M817.5 530.4c-0.4 0-0.8-0.1-1.2-0.4-0.7-0.6-0.8-1.8-0.2-2.5l26.5-30.2c0.6-0.7 1.8-0.8 2.5-0.2 0.7 0.6 0.8 1.8 0.2 2.5l-26.5 30.2c-0.3 0.4-0.8 0.6-1.3 0.6zM838.3 482.3c-0.4 0-0.8-0.1-1.2-0.4l-9.9-8.7c-0.7-0.6-0.8-1.8-0.2-2.5s1.8-0.8 2.5-0.2l9.9 8.7c0.7 0.6 0.8 1.8 0.2 2.5-0.3 0.4-0.8 0.6-1.3 0.6zM817.7 464.3c-0.4 0-0.8-0.1-1.2-0.4l-54.3-47.6c-0.7-0.6-0.8-1.8-0.2-2.5 0.6-0.7 1.8-0.8 2.5-0.2l54.3 47.6c0.7 0.6 0.8 1.8 0.2 2.5-0.3 0.4-0.8 0.6-1.3 0.6zM818.7 504.8c-0.4 0-0.8-0.1-1.2-0.4L761.2 455c-0.7-0.6-0.8-1.8-0.2-2.5s1.8-0.8 2.5-0.2l56.3 49.3c0.7 0.6 0.8 1.8 0.2 2.5-0.3 0.5-0.8 0.7-1.3 0.7zM753.1 447.3c-0.4 0-0.8-0.1-1.2-0.4l-9.3-8.2c-0.7-0.6-0.8-1.8-0.2-2.5 0.6-0.7 1.8-0.8 2.5-0.2l9.3 8.2c0.7 0.6 0.8 1.8 0.2 2.5-0.3 0.4-0.8 0.6-1.3 0.6zM799 527.2c-0.4 0-0.8-0.1-1.2-0.4l-74.9-65.6c-0.7-0.6-0.8-1.8-0.2-2.5 0.6-0.7 1.8-0.8 2.5-0.2l74.9 65.6c0.7 0.6 0.8 1.8 0.2 2.5-0.3 0.4-0.8 0.6-1.3 0.6zM779.4 549.6c-0.4 0-0.8-0.1-1.2-0.4l-43.4-38c-0.7-0.6-0.8-1.8-0.2-2.5 0.6-0.7 1.8-0.8 2.5-0.2l43.4 38c0.7 0.6 0.8 1.8 0.2 2.5-0.3 0.4-0.8 0.6-1.3 0.6z" fill="#BBB" p-id="3857"></path><path d="M727.7 504.3c-0.4 0-0.8-0.1-1.2-0.4l-23.2-20.4c-0.7-0.6-0.8-1.8-0.2-2.5s1.8-0.8 2.5-0.2l23.2 20.4c0.7 0.6 0.8 1.8 0.2 2.5-0.3 0.4-0.8 0.6-1.3 0.6z" fill="#BBB" p-id="3858"></path><path d="M427 496.7l-36.5-51c-2.7-3.8-1.9-9 1.8-11.8 3.7-2.8 8.8-1.9 11.5 1.8l36.5 51c2.7 3.8 1.9 9-1.8 11.8-3.7 2.7-8.9 1.9-11.5-1.8z" fill="#FFFFFF" p-id="3859"></path><path d="M433.6 501.9c-0.5 0-1 0-1.5-0.1-2.7-0.4-5-1.9-6.6-4.1l-36.5-51c-3.2-4.5-2.3-10.9 2.1-14.2 2.1-1.6 4.8-2.3 7.4-1.9 2.7 0.4 5 1.9 6.6 4.1l36.5 51c3.2 4.5 2.3 10.9-2.1 14.2-1.7 1.3-3.8 2-5.9 2z m-5.2-6.3c1 1.4 2.5 2.4 4.2 2.6 1.7 0.3 3.4-0.2 4.7-1.2 2.9-2.2 3.5-6.4 1.4-9.3l-36.5-51c-1-1.4-2.5-2.4-4.2-2.6-1.7-0.3-3.4 0.2-4.7 1.2-2.9 2.2-3.5 6.4-1.4 9.3l36.5 51z" fill="#BBB" p-id="3860"></path><path d="M381.8 547.7l-20.3-14.3c-3.7-2.6-4.7-7.9-2.1-11.7 2.6-3.8 7.7-4.8 11.4-2.2l20.3 14.3c3.7 2.6 4.7 7.9 2.1 11.7-2.5 3.9-7.6 4.9-11.4 2.2z" fill="#FFFFFF" p-id="3861"></path><path d="M386.5 551c-2 0-4-0.6-5.7-1.8l-20.3-14.3c-4.5-3.2-5.7-9.5-2.6-14.2 1.5-2.3 3.8-3.8 6.5-4.3 2.6-0.5 5.3 0.1 7.5 1.7l20.3 14.3c4.5 3.2 5.7 9.5 2.6 14.2-1.5 2.3-3.8 3.8-6.5 4.3-0.6 0-1.2 0.1-1.8 0.1z m-20.3-31.2c-0.4 0-0.8 0-1.1 0.1-1.7 0.3-3.2 1.3-4.2 2.8-2 3-1.3 7.2 1.7 9.3l20.3 14.3c1.4 1 3.1 1.4 4.8 1.1 1.7-0.3 3.2-1.3 4.2-2.8 2-3 1.3-7.2-1.7-9.3L369.8 521c-1.1-0.8-2.3-1.2-3.6-1.2z" fill="#BBB" p-id="3862"></path><path d="M490.2 473.7l2.4-25.2c0.4-4.6 4.5-8 9-7.6 4.5 0.5 7.8 4.6 7.4 9.2l-2.4 25.2c-0.4 4.6-4.5 8-9 7.6-4.6-0.4-7.9-4.5-7.4-9.2z" fill="#FFFFFF" p-id="3863"></path><path d="M498.4 484.8c-0.3 0-0.7 0-1-0.1-5.5-0.6-9.5-5.6-9-11.2l2.4-25.2c0.3-2.8 1.6-5.2 3.7-7 2.1-1.7 4.7-2.5 7.2-2.2 5.5 0.6 9.5 5.6 9 11.2l-2.4 25.2c-0.3 2.8-1.6 5.2-3.7 7-1.8 1.5-4 2.3-6.2 2.3z m-6.5-10.9c-0.4 3.7 2.2 6.9 5.8 7.3 1.7 0.2 3.3-0.3 4.6-1.4 1.4-1.1 2.2-2.7 2.4-4.5l2.4-25.2c0.4-3.7-2.2-6.9-5.8-7.3-1.7-0.2-3.3 0.3-4.6 1.4-1.4 1.1-2.2 2.7-2.4 4.5l-2.4 25.2z" fill="#BBB" p-id="3864"></path><path d="M333.2 750.6a186.9 80.1 0 1 0 373.8 0 186.9 80.1 0 1 0-373.8 0Z" fill="#D4E7FD" p-id="3865"></path><path d="M393.9 645.3l29.7 137h205.3l22.3-137z" fill="#D4E7FD" p-id="3866"></path><path d="M632 787.9H420.7l-34.4-158.8h271.5L632 787.9z m-205.6-7.1h199.5l23.5-144.6H395.1l31.3 144.6z" fill="#BBB" p-id="3867"></path><path d="M592 573.6H456.4l-49.3 59h230.1z" fill="#D4E7FD" p-id="3868"></path><path d="M417.7 620l-10.6 12.6h230.1l-9.7-12.6z" fill="#A0C7F3" p-id="3869"></path><path d="M644.4 636.2H399.5l55.2-66.1h139l50.7 66.1z m-229.7-7.1H630l-39.7-51.9H458.1l-43.4 51.9z" fill="#BBB" p-id="3870"></path><path d="M497.5 594.7a8.2 8.4 0 1 0 16.4 0 8.2 8.4 0 1 0-16.4 0Z" fill="#BBB" p-id="3871"></path><path d="M530.4 594.7a8.2 8.4 0 1 0 16.4 0 8.2 8.4 0 1 0-16.4 0Z" fill="#BBB" p-id="3872"></path><path d="M540.6 619.7c-0.8 0-1.6-0.6-1.7-1.4-0.1-0.4-2.1-9.1-16.7-9.1-14.8 0-16.7 9-16.7 9.1-0.2 1-1.2 1.6-2.1 1.4-1-0.2-1.6-1.1-1.4-2.1 0.1-0.5 2.5-12 20.2-12s20.1 11.5 20.2 12c0.2 1-0.4 1.9-1.4 2.1h-0.4z" fill="#BBB" p-id="3873"></path><path d="M624.2 622.9l-7-1.3 1.6-8.6 7 1.3-1.6 8.6z m-198-0.3l-1.5-14.5 7.1-0.7 1.5 14.5-7.1 0.7zM627 607.7l-7-1.3v-0.2l2.6-14.2 7 1.3v0.2l-2.6 14.2z m-203-6.3l-1.5-14.5 7.1-0.7 1.5 14.5-7.1 0.7z m206.9-14.7l-7-1.3v-0.2l2.6-14.2 7 1.3v0.2l-2.6 14.2z m-209.2-6.5l-1.5-14.5 7.1-0.7 1.5 14.5-7.1 0.7z m213.1-14.5l-7-1.3v-0.2l2.6-14.2 7 1.3v0.2l-2.6 14.2zM419.5 559l-1.5-14.5 7.1-0.7 1.5 14.5-7.1 0.7zM635 547.7l-14.6-0.2 0.2-6.9 14.4 0.2v6.9z m-21.3 0l-14.6-0.2 0.2-6.9 14.4 0.2v6.9z m-21.4 0l-14.6-0.2 0.2-6.9 14.4 0.2v6.9z m-21.3 0l-14.6-0.2 0.2-6.9 14.4 0.2v6.9z m-21.4 0l-14.6-0.2 0.2-6.9 14.4 0.2v6.9z m-21.3 0l-14.6-0.2 0.2-6.9 14.4 0.2v6.9z m-21.4 0l-14.6-0.2 0.2-6.9 14.4 0.2v6.9z m-21.3 0l-14.6-0.2 0.2-6.9 14.4 0.2v6.9z m-21.4 0l-14.6-0.2 0.2-6.9 14.4 0.2v6.9z m-21.3 0l-14.6-0.2 0.2-6.9 14.4 0.2v6.9z" fill="#BBB" p-id="3874"></path><path d="M436.5 536.2l-1-14.5 7.1-0.5 1 14.6-7.1 0.4z m176.3-6l-7-1 2-14.4 7.1 1-2.1 14.4zM435 514.8l-0.9-12.2 10 0.2-0.2 6.9h-2.2l0.3 4.2-0.2 0.4-6.8 0.5z m177.7-5l-12.4-0.2 0.2-6.9h16.2l-0.9 6.4-3-0.4v1.1z m-19.2 0l-14.5-0.2 0.2-6.9 14.4 0.2v6.9z m-21.3 0l-14.6-0.2 0.2-6.9 14.4 0.2v6.9z m-21.4 0l-14.6-0.2 0.2-6.9 14.4 0.2v6.9z m-21.3 0l-14.5-0.2 0.2-6.9 14.4 0.2v6.9z m-21.4 0l-14.6-0.2 0.2-6.9 14.4 0.2v6.9z m-21.3 0l-14.6-0.2 0.2-6.9 14.4 0.2v6.9z m-21.3 0l-14.6-0.2 0.2-6.9 14.4 0.2v6.9z" fill="#BBB" p-id="3875"></path><path d="M562.8 669c-0.9-1.6-3.1-2.7-5.7-2.7h-73.9c-2.6 0-4.8 1.1-5.7 2.7-6.2 1.7-10.7 7.4-10.7 14.2 0 8.1 6.5 14.7 14.4 14.7h78c7.9 0 14.4-6.6 14.4-14.7-0.1-6.8-4.7-12.5-10.8-14.2z m-3.7 20.5h-78c-3.4 0-6.2-2.8-6.2-6.3s2.8-6.3 6.2-6.3h78c3.4 0 6.2 2.8 6.2 6.3s-2.8 6.3-6.2 6.3z" fill="#BBB" p-id="3876"></path><path d="M390.4 282.9m-7.1 0a7.1 7.1 0 1 0 14.2 0 7.1 7.1 0 1 0-14.2 0Z" fill="#BBB" p-id="3877"></path><path d="M173.4 464.3m-7.1 0a7.1 7.1 0 1 0 14.2 0 7.1 7.1 0 1 0-14.2 0Z" fill="#BBB" p-id="3878"></path><path d="M120 665.3c-4.9 0-8.9-4-8.9-8.9s4-8.9 8.9-8.9 8.9 4 8.9 8.9-4 8.9-8.9 8.9z m0-14.2c-2.9 0-5.3 2.4-5.3 5.3s2.4 5.3 5.3 5.3 5.3-2.4 5.3-5.3-2.3-5.3-5.3-5.3z" fill="#BBB" p-id="3879"></path><path d="M630.5 450.1c-8.8 0-16-7.2-16-16s7.2-16 16-16 16 7.2 16 16-7.2 16-16 16z m0-24.9c-4.9 0-8.9 4-8.9 8.9s4 8.9 8.9 8.9 8.9-4 8.9-8.9-4-8.9-8.9-8.9z" fill="#BBB" p-id="3880"></path><path d="M883.1 699.1c-8.8 0-16-7.2-16-16s7.2-16 16-16 16 7.2 16 16-7.2 16-16 16z m0-24.9c-4.9 0-8.9 4-8.9 8.9s4 8.9 8.9 8.9 8.9-4 8.9-8.9-4-8.9-8.9-8.9z" fill="#BBB" p-id="3881"></path><path d="M527.3 272.2c-8.8 0-16-7.2-16-16s7.2-16 16-16 16 7.2 16 16-7.1 16-16 16z m0-24.9c-4.9 0-8.9 4-8.9 8.9s4 8.9 8.9 8.9 8.9-4 8.9-8.9-4-8.9-8.9-8.9z" fill="#BBB" p-id="3882"></path><path d="M737.2 738.2c-8.8 0-16-7.2-16-16s7.2-16 16-16 16 7.2 16 16-7.1 16-16 16z m0-24.9c-4.9 0-8.9 4-8.9 8.9s4 8.9 8.9 8.9 8.9-4 8.9-8.9-4-8.9-8.9-8.9z" fill="#BBB" p-id="3883"></path><path d="M763.9 560.3m-7.1 0a7.1 7.1 0 1 0 14.2 0 7.1 7.1 0 1 0-14.2 0Z" fill="#BBB" p-id="3884"></path><path d="M888.4 595.9m-7.1 0a7.1 7.1 0 1 0 14.2 0 7.1 7.1 0 1 0-14.2 0Z" fill="#BBB" p-id="3885"></path></svg>