<?xml version="1.0" encoding="UTF-8"?>
<svg width="460px" height="259px" viewBox="0 0 460 259" version="1.1" xmlns="http://www.w3.org/2000/svg" xmlns:xlink="http://www.w3.org/1999/xlink">
    <!-- Generator: Sketch 49 (51002) - http://www.bohemiancoding.com/sketch -->
    <title>浏览记录为空</title>
    <desc>Created with Sketch.</desc>
    <defs>
        <rect id="path-1" x="0" y="254" width="460" height="3.06666667"></rect>
        <path d="M29.0949766,123 L45,123 L35,256 L25,256 L29.0949766,123 Z M252.905023,123 L257,256 L247,256 L237,123 L252.905023,123 Z" id="path-2"></path>
        <rect id="path-3" x="0" y="110" width="282" height="15" rx="2"></rect>
    </defs>
    <g id="Page-1" stroke="none" stroke-width="1" fill="none" fill-rule="evenodd">
        <g id="个人-租客-浏览记录（空）" transform="translate(-145.000000, -313.000000)">
            <g id="浏览记录为空" transform="translate(145.000000, 314.000000)">
                <g id="Rectangle-Copy-3">
                    <use fill="#FFFFFF" fill-rule="evenodd" xlink:href="#path-1"></use>
                    <rect stroke="#999999" stroke-width="2" x="1" y="255" width="458" height="1.06666667"></rect>
                </g>
                <g id="Group-2" transform="translate(100.000000, 0.000000)">
                    <g id="Combined-Shape">
                        <use fill="#FFFFFF" fill-rule="evenodd" xlink:href="#path-2"></use>
                        <path stroke="#999999" stroke-width="2" d="M30.0646612,124 L26.0312632,255 L34.0723653,255 L43.9219894,124 L30.0646612,124 Z M251.935339,124 L238.078011,124 L247.927635,255 L255.968737,255 L251.935339,124 Z"></path>
                    </g>
                    <g id="Rectangle-21">
                        <use fill="#FFFFFF" fill-rule="evenodd" xlink:href="#path-3"></use>
                        <rect stroke="#999999" stroke-width="2" x="1" y="111" width="280" height="13" rx="2"></rect>
                    </g>
                    <g id="Group-13" transform="translate(10.000000, 0.000000)">
                        <path d="M46.972486,17.1062988 L64.1249958,0.906706261 C64.4440028,0.605421849 64.9221522,0.547293956 65.3040539,0.763369945 L102.012581,21.5326683 C102.493262,21.8046324 102.66246,22.4147716 102.390496,22.8954524 C102.346025,22.9740526 102.291111,23.0462666 102.227253,23.1101246 L68.1650631,57.172315 C67.7745388,57.5628392 67.1413738,57.5628392 66.7508496,57.172315 C66.6772082,57.0986736 66.6155225,57.0139807 66.5680231,56.921299 L46.7691763,18.2894028 C46.5663752,17.8936933 46.649219,17.4116066 46.972486,17.1062988 Z" id="Path-14" fill="#EAEAEA"></path>
                        <path d="M42.6591095,17.833312 L62.4579563,56.4652082 L96.5201467,22.4030178 L59.8116193,1.63371941 L42.6591095,17.833312 Z M41.2858625,16.3792857 L58.4383723,0.179693109 C59.0763863,-0.422875716 60.032685,-0.539131501 60.7964885,-0.106979523 L97.5050158,20.6623189 C98.4663773,21.2062471 98.8047739,22.4265255 98.2608456,23.3878869 C98.1719033,23.5450874 98.0620763,23.6895154 97.9343603,23.8172314 L63.8721699,57.8794217 C63.0911213,58.6604703 61.8247914,58.6604703 61.0437428,57.8794217 C60.8964601,57.7321391 60.7730886,57.5627532 60.6780898,57.3773898 L40.879243,18.7454936 C40.4736408,17.9540745 40.6393285,16.9899011 41.2858625,16.3792857 Z" id="Path-14" fill="#979797" fill-rule="nonzero"></path>
                        <path d="M49.0398557,7.73563261 L44.0669284,2.38017249 L42.3147304,4.13237056 L47.2876576,9.48783068 L49.0398557,7.73563261 Z M40.8491434,5.49327276 C40.1171382,4.70495947 40.1398364,3.47883744 40.9005168,2.718157 L42.6527149,0.96595893 C43.4337635,0.184910346 44.7000934,0.184910346 45.481142,0.96595893 C45.5071577,0.992297627 45.5071577,0.992297627 45.5325154,1.01927029 L50.5054427,6.37473041 C51.2374479,7.16304371 51.2147497,8.38916574 50.4540693,9.14984617 L48.7018712,10.9020442 C47.9208226,11.6830928 46.6544926,11.6830928 45.8734441,10.9020442 C45.8474284,10.8757055 45.8474284,10.8757055 45.8220706,10.8487329 L40.8491434,5.49327276 Z" id="Path-15" fill="#979797" fill-rule="nonzero"></path>
                        <path d="M43.3109471,7.24404446 C43.718066,6.87085205 44.3506334,6.89835498 44.7238258,7.30547397 C45.0970182,7.71259296 45.0695153,8.34516033 44.6623963,8.71835274 L1.72662571,48.0761425 C1.31950672,48.4493349 0.686939347,48.4218319 0.31374694,48.0147129 C-0.0594454676,47.607594 -0.0319425384,46.9750266 0.375176451,46.6018342 L43.3109471,7.24404446 Z" id="Path-16" fill="#979797" fill-rule="nonzero"></path>
                        <rect id="Rectangle-24" fill="#CBCBCB" x="12" y="102" width="64" height="8" rx="2"></rect>
                        <path d="M8,100 L8,108 L68,108 L68,100 L8,100 Z M8,98 L68,98 C69.1045695,98 70,98.8954305 70,100 L70,108 C70,109.104569 69.1045695,110 68,110 L8,110 C6.8954305,110 6,109.104569 6,108 L6,100 C6,98.8954305 6.8954305,98 8,98 Z" id="Rectangle-24" fill="#999999" fill-rule="nonzero"></path>
                        <path d="M0.53322406,48.7381913 C0.0363132581,47.9296087 0.176102765,46.8831399 0.867827689,46.2333377 L5.53076361,41.8530039 C5.6215931,41.7676793 5.72019866,41.6910307 5.82529381,41.6240583 C6.75680033,41.0304512 7.9931492,41.3043728 8.58675629,42.2358793 L43.219531,96.582695 C43.4241765,96.9038311 43.5328892,97.2767163 43.5328892,97.6575157 C43.5328892,98.7620852 42.6374587,99.6575157 41.5328892,99.6575157 L32.943853,99.6575157 C32.2488981,99.6575157 31.603762,99.296759 31.2398984,98.7046733 L0.53322406,48.7381913 Z M2.23717861,47.6910338 L32.943853,97.6575157 L41.5328892,97.6575157 L6.90011454,43.3107001 L2.23717861,47.6910338 Z" id="Path-17" fill="#979797" fill-rule="nonzero"></path>
                    </g>
                </g>
                <g id="Group-3" transform="translate(189.000000, 67.000000)">
                    <path d="M50.1135417,167.979076 L83.9003958,177.900613 L83.9003958,187.790007 C83.9003958,188.342292 83.4526805,188.790007 82.9003958,188.790007 C82.348111,188.790007 81.9003958,188.342292 81.9003958,187.790007 L81.9003958,179.397759 L50.1135417,170.063524 L50.1135417,188 C50.1135417,188.552285 49.6658264,189 49.1135417,189 C48.5612569,189 48.1135417,188.552285 48.1135417,188 L48.1135417,169.991076 L14,179.410487 L14,187.790007 C14,188.342292 13.5522847,188.790007 13,188.790007 C12.4477153,188.790007 12,188.342292 12,187.790007 L12,177.887884 L48.1135417,167.916235 L48.1135417,124.928612 C48.1135417,124.376327 48.5612569,123.928612 49.1135417,123.928612 C49.6658264,123.928612 50.1135417,124.376327 50.1135417,124.928612 L50.1135417,167.979076 Z" id="Combined-Shape" fill="#999999" fill-rule="nonzero"></path>
                    <path d="M20.2895495,0.928611875 L82.6237903,0.928611875 C90.0321839,0.928611875 96.1580888,6.70018186 96.5989767,14.0954448 L102.381884,111.095445 C102.842029,118.813727 96.958147,125.443653 89.2398647,125.903798 C88.9624502,125.920337 88.6846047,125.928612 88.4066976,125.928612 L14.8127619,125.928612 C7.08077541,125.928612 0.812761912,119.660598 0.812761912,111.928612 C0.812761912,111.665386 0.820185621,111.402212 0.835024185,111.139405 L6.31181173,14.1394047 C6.73039533,6.7258234 12.8641606,0.928611875 20.2895495,0.928611875 Z" id="Rectangle-23" fill="#FFFFFF"></path>
                    <path d="M24.2895495,3.92861188 L86.6237903,3.92861188 C94.0321839,3.92861188 100.158089,9.70018186 100.598977,17.0954448 L106.381884,114.095445 C106.842029,121.813727 100.958147,128.443653 93.2398647,128.903798 C92.9624502,128.920337 92.6846047,128.928612 92.4066976,128.928612 L18.8127619,128.928612 C11.0807754,128.928612 4.81276191,122.660598 4.81276191,114.928612 C4.81276191,114.665386 4.82018562,114.402212 4.83502418,114.139405 L10.3118117,17.1394047 C10.7303953,9.7258234 16.8641606,3.92861188 24.2895495,3.92861188 Z" id="Rectangle-23" fill="#EAEAEA"></path>
                    <path d="M20.2895495,2.92861188 C13.9249305,2.92861188 8.66741735,7.89765032 8.30863141,14.2521485 L2.83184386,111.252149 C2.81912509,111.477412 2.81276191,111.70299 2.81276191,111.928612 C2.81276191,118.556029 8.18534491,123.928612 14.8127619,123.928612 L88.4066976,123.928612 C88.6449037,123.928612 88.883057,123.921519 89.1208408,123.907343 C95.7365114,123.512933 100.779839,117.830139 100.385429,111.214469 L94.6025215,14.2144687 C94.2246176,7.87567186 88.973842,2.92861188 82.6237903,2.92861188 L20.2895495,2.92861188 Z M20.2895495,0.928611875 L82.6237903,0.928611875 C90.0321839,0.928611875 96.1580888,6.70018186 96.5989767,14.0954448 L102.381884,111.095445 C102.842029,118.813727 96.958147,125.443653 89.2398647,125.903798 C88.9624502,125.920337 88.6846047,125.928612 88.4066976,125.928612 L14.8127619,125.928612 C7.08077541,125.928612 0.812761912,119.660598 0.812761912,111.928612 C0.812761912,111.665386 0.820185621,111.402212 0.835024185,111.139405 L6.31181173,14.1394047 C6.73039533,6.7258234 12.8641606,0.928611875 20.2895495,0.928611875 Z" id="Rectangle-23" fill="#999999" fill-rule="nonzero"></path>
                </g>
                <g id="盆栽" transform="translate(43.000000, 147.000000)">
                    <path d="M17.2383498,104.573854 L55.037458,104.573854 C56.0096378,104.573854 56.8410038,103.87476 57.0078015,102.916996 L65.1288905,56.285157 C65.3184025,55.1969663 64.5898795,54.1611836 63.5016888,53.9716716 C63.3883737,53.9519374 63.2735675,53.9420152 63.1585469,53.9420152 L8.73766843,53.9420152 C7.63309893,53.9420152 6.73766843,54.8374457 6.73766843,55.9420152 C6.73766843,56.0623057 6.74852075,56.182351 6.77009342,56.3006913 L15.2707748,102.93253 C15.4440557,103.88309 16.2721245,104.573854 17.2383498,104.573854 Z" id="Path-11" fill="#D8D8D8"></path>
                    <path d="M11.2593827,106.57056 L49.0171815,106.57056 C49.9982971,106.57056 50.8345467,105.858881 50.9914428,104.890392 L59.1611418,54.4603917 C59.3377801,53.3700373 58.5970668,52.3429369 57.5067124,52.1662986 C57.4009632,52.1491672 57.2940084,52.1405599 57.1868806,52.1405599 L2.70781916,52.1405599 C1.60324966,52.1405599 0.707819155,53.0359904 0.707819155,54.1405599 C0.707819155,54.2526091 0.717235402,54.3644602 0.735968497,54.4749324 L9.28753208,104.904933 C9.45062919,105.866744 10.2838414,106.57056 11.2593827,106.57056 Z" id="Path-11" stroke="#999999" stroke-width="2"></path>
                    <path d="M30.7887747,52.2620194 C30.7498215,52.8129287 30.2716435,53.2279512 29.7207342,53.188998 C29.1698248,53.1500448 28.7548024,52.6718668 28.7937555,52.1209574 C29.7129137,39.1214343 24.033442,29.198679 11.6423566,22.212216 C11.1612724,21.9409663 10.9911678,21.3310792 11.2624174,20.8499949 C11.5336671,20.3689107 12.1435542,20.1988061 12.6246385,20.4700557 C25.6715632,27.8263005 31.7639364,38.4704469 30.7887747,52.2620194 Z" id="Path-12" fill="#979797" fill-rule="nonzero"></path>
                    <path d="M30.6491663,51.8859659 C34.5204352,30.4594481 39.0220924,16.5061021 44.1541377,10.0259279 C48.0869694,5.05998702 48.393835,4.01036382 53.9952189,1.25412729" id="Path-13" stroke="#979797" stroke-width="2" stroke-linecap="round"></path>
                    <path d="M29.9385392,22.1024312 C33.0937441,19.0203221 34.6713465,15.5782805 34.6713465,11.7763062 C34.6713465,7.97433197 33.0937441,4.5322903 29.9385392,1.4501812 C26.7833344,4.5322903 25.2057319,7.97433197 25.2057319,11.7763062 C25.2057319,15.5782805 26.7833344,19.0203221 29.9385392,22.1024312 Z" id="Oval-11" fill="#EAEAEA" transform="translate(29.938539, 11.776306) rotate(-30.000000) translate(-29.938539, -11.776306) "></path>
                    <path d="M14.2226766,46.699252 C17.3778815,43.6171429 18.9554839,40.1751013 18.9554839,36.373127 C18.9554839,32.5711528 17.3778815,29.1291111 14.2226766,26.047002 C11.0674717,29.1291111 9.4898693,32.5711528 9.4898693,36.373127 C9.4898693,40.1751013 11.0674717,43.6171429 14.2226766,46.699252 Z" id="Oval-11-Copy-4" fill="#EAEAEA" transform="translate(14.222677, 36.373127) rotate(-260.000000) translate(-14.222677, -36.373127) "></path>
                    <path d="M49.2624116,31.6670845 C52.4176165,28.5849754 53.9952189,25.1429337 53.9952189,21.3409594 C53.9952189,17.5389852 52.4176165,14.0969435 49.2624116,11.0148344 C46.1072067,14.0969435 44.5296043,17.5389852 44.5296043,21.3409594 C44.5296043,25.1429337 46.1072067,28.5849754 49.2624116,31.6670845 Z" id="Oval-11-Copy" fill="#EAEAEA" transform="translate(49.262412, 21.340959) rotate(-285.000000) translate(-49.262412, -21.340959) "></path>
                    <path d="M31.9385392,22.1024312 C35.0937441,19.0203221 36.6713465,15.5782805 36.6713465,11.7763062 C36.6713465,7.97433197 35.0937441,4.5322903 31.9385392,1.4501812 C28.7833344,4.5322903 27.2057319,7.97433197 27.2057319,11.7763062 C27.2057319,15.5782805 28.7833344,19.0203221 31.9385392,22.1024312 Z" id="Oval-11" stroke="#979797" stroke-width="2" transform="translate(31.938539, 11.776306) rotate(-30.000000) translate(-31.938539, -11.776306) "></path>
                    <path d="M15.2226766,44.699252 C18.3778815,41.6171429 19.9554839,38.1751013 19.9554839,34.373127 C19.9554839,30.5711528 18.3778815,27.1291111 15.2226766,24.047002 C12.0674717,27.1291111 10.4898693,30.5711528 10.4898693,34.373127 C10.4898693,38.1751013 12.0674717,41.6171429 15.2226766,44.699252 Z" id="Oval-11-Copy-4" stroke="#979797" stroke-width="2" transform="translate(15.222677, 34.373127) rotate(-260.000000) translate(-15.222677, -34.373127) "></path>
                    <path d="M49.2624116,29.6670845 C52.4176165,26.5849754 53.9952189,23.1429337 53.9952189,19.3409594 C53.9952189,15.5389852 52.4176165,12.0969435 49.2624116,9.01483441 C46.1072067,12.0969435 44.5296043,15.5389852 44.5296043,19.3409594 C44.5296043,23.1429337 46.1072067,26.5849754 49.2624116,29.6670845 Z" id="Oval-11-Copy" stroke="#979797" stroke-width="2" transform="translate(49.262412, 19.340959) rotate(-285.000000) translate(-49.262412, -19.340959) "></path>
                </g>
                <g id="床头柜" transform="translate(324.000000, 174.000000)" fill-rule="nonzero">
                    <path d="M93.7334753,0 L2.26941694,0 C1.01612806,0 0,1.01704078 0,2.27531513 L0,69.8815086 C0,71.1359232 0.0510956235,74.3086273 4.36337344,74.2488014 L91.6375906,74.2488014 C94.7987708,73.8396692 96,71.1349583 96,69.8815086 L96,2.27531513 C96,1.01704078 94.9867641,0 93.7334753,0 Z" id="Shape" fill="#FFFFFF"></path>
                    <path d="M97.7334753,3 L6.26941694,3 C5.01612806,3 4,4.01704078 4,5.27531513 L4,72.8815086 C4,74.1359232 4.05109562,77.3086273 8.36337344,77.2488014 L95.6375906,77.2488014 C98.7987708,76.8396692 100,74.1349583 100,72.8815086 L100,5.27531513 C100,4.01704078 98.9867641,3 97.7334753,3 Z" id="Shape" fill="#D4D4D4"></path>
                    <path d="M93.7334753,0 L2.26941694,0 C1.01612806,0 0,1.01704078 0,2.27531513 L0,69.8815086 C0,71.1359232 0.0510956235,74.3086273 4.36337344,74.2488014 L13.0910844,74.2488014 L13.0910844,81.409579 C13.0910844,81.7463411 13.3706642,82.0194175 13.7109803,82.0194175 L16.1979353,82.0194175 C16.5392155,82.0194175 16.8187953,81.7463411 16.8187953,81.409579 L16.8187953,74.2488014 L79.1821688,74.2488014 L79.1821688,81.409579 C79.1821688,81.7463411 79.4627126,82.0194175 79.8049569,82.0194175 L82.2880556,82.0194175 C82.6293358,82.0194175 82.9098797,81.7463411 82.9098797,81.409579 L82.9098797,74.2488014 L91.6375906,74.2488014 C94.7987708,73.8396692 96,71.1349583 96,69.8815086 L96,2.27531513 C96,1.01704078 94.9867641,0 93.7334753,0 Z M2.18216875,71 L2.18216875,39 C2.18216875,38.4477153 2.629884,38 3.18216875,38 L92.8177831,38 C93.3700678,38 93.8177831,38.4477153 93.8177831,39 L93.8177831,71 C93.8177831,71.5522847 93.3700678,72 92.8177831,72 L3.18216875,72 C2.629884,72 2.18216875,71.5522847 2.18216875,71 Z M93.5345423,35.9876091 L3.18216875,35.9876091 C2.629884,35.9876091 2.18216875,35.5398938 2.18216875,34.9876091 L2.18216875,2.99790507 C2.18216875,2.44562032 2.629884,1.99790507 3.18216875,1.99790507 L92.8177831,1.99790507 C93.3700678,1.99790507 93.8177831,2.44562032 93.8177831,2.99790507 L93.8177831,35.7043684 L93.8177831,35.7043684 C93.8177831,35.8607979 93.6909719,35.9876091 93.5345423,35.9876091 Z" id="Shape" fill="#999999"></path>
                </g>
                <g id="艺术品" transform="translate(324.000000, 0.000000)" fill-rule="nonzero">
                    <path d="M2,2 L2,67 L56,67 L56,2 L2,2 Z M0,0 L58,0 L58,69 L0,69 L0,0 Z" id="Shape" fill="#999999"></path>
                    <path d="M18.7499999,48 L18.7499999,22.4536083 C18.7499999,18.7175258 21.775,15.7113402 25.5,15.7113402 C29.225,15.7113402 32.25,18.7298969 32.25,22.4536083 L32.25,47.7896908 L36,47.7896908 L36,22.4536083 C36,16.6762887 31.3,12 25.5,12 C19.7,12 15,16.6886598 15,22.4536083 L15,48 L18.7499999,48 Z" id="Shape" fill="#CCCCCC"></path>
                    <path d="M26,35.1864407 C21.9831461,35.1864407 18.7078652,31.779661 18.7078651,27.5720339 L18.7078651,24 L15,24 L15,27.5720339 C15,33.8771186 19.9191011,38.9999999 26,39 L26,35.1864407 Z" id="Shape" fill="#CCCCCC"></path>
                    <path d="M16.9315961,25.6734694 L33.0104235,25.6734694 C34.037785,25.6734694 34.867101,24.8530612 34.867101,23.8367347 C34.867101,22.8204081 34.037785,22 33.0104235,22 L16.9315961,22 C15.9042345,22 15.0749186,22.8204082 15.0749186,23.8367347 C15.0749186,24.8530611 15.9042346,25.6734693 16.9315961,25.6734694 Z M10,58 C10,47.6285714 18.503583,39.2285714 29,39.2285714 C39.4964169,39.2285714 48,47.6285714 48,58 L44.2866449,58 C44.2866449,49.6612245 37.4416938,42.9020408 29,42.9020408 C20.5583061,42.9020408 13.7133551,49.6612245 13.7133551,58 L10,58 Z M13.7133551,58 L10,58 C10,47.6285714 18.503583,39.2285714 29,39.2285714 C39.4964169,39.2285714 48,47.6285714 48,58 L44.2866449,58 C44.2866449,49.6612245 37.4416938,42.9020408 29,42.9020408 C20.5583061,42.9020408 13.7133551,49.6612245 13.7133551,58 Z" id="Shape" fill="#CCCCCC"></path>
                    <path d="M32.2727273,52 L32.2727273,30.243355 L32.2727273,22.031896 C32.2727273,18.4099232 29.3347108,15.4701712 25.714876,15.4701713 C24.46281,15.4701713 23.2603306,15.8174838 22.2190083,16.4624926 L20,13.4731246 C22.5661157,11.2528056 25.8512396,10 29.3223141,10 L29.7438017,10 C37.6157025,10 44,16.3880686 44,24.264619 L44,51.8635559 L32.2727273,52 Z" id="Shape" fill="#FFFFFF"></path>
                    <path d="M32.3263212,52 L32.3263212,30.243355 L32.3263212,22.031896 C32.3263212,18.4099232 29.4079015,15.4701712 25.8122114,15.4701713 C24.5684967,15.4701713 23.2755259,15.7926757 22.2411493,16.4500886 L20,13.4731246 C22.5489995,11.2528056 25.9722935,10 29.4202155,10 L29.8388917,10 C37.6582863,10 44,16.3880686 44,24.264619 L44,51.8635559 L32.3263212,52 Z M40.2811698,48.191967 L40.2811698,24.264619 C40.2811698,19.2533963 36.8086198,15.0608387 32.1662391,13.9816893 C34.5059005,15.8670999 36.0082094,18.7696397 36.0082093,22.019492 L36.0082093,29.7844064 C36.0082093,29.9332546 36.0205233,30.0821028 36.0205234,30.230951 L36.0205234,48.229179 L40.2811698,48.191967 Z" id="Shape" fill="#CCCCCC"></path>
                </g>
            </g>
        </g>
    </g>
</svg>