<svg xmlns="http://www.w3.org/2000/svg" width="142.76" height="142.698" viewBox="0 0 142.76 142.698">
  <g id="组_1" data-name="组 1" transform="translate(-209.941 -228.567)">
    <path id="路径_1" data-name="路径 1" d="M260.193,268.267a14.348,14.348,0,0,0-3.917-5.407,16.07,16.07,0,0,0-5.931-3,25.654,25.654,0,0,0-7.4-.856H232v34h10.943c2.538,0,4.893.131,7.068-.568L245.311,276h9.749l3.1,11.13a17.08,17.08,0,0,0,2.032-3.593,18.688,18.688,0,0,0,1.4-7.419A20.046,20.046,0,0,0,260.193,268.267Z" fill="#2e4391"/>
    <path id="路径_2" data-name="路径 2" d="M297,341.125,331.119,302H309.888l-7.077,26h-9.3l-12.2-37.555L269.118,328h-9.341l-7.392-26.862a27.909,27.909,0,0,1-8.021.862H222V260.314c-8,11.34-12.059,24.971-12.059,39.636a71.306,71.306,0,0,0,71.38,71.315A69.929,69.929,0,0,0,333.014,349H297Z" fill="#2e4391"/>
    <path id="路径_3" data-name="路径 3" d="M255.134,252.082a24.122,24.122,0,0,1,13.31,13.843,28.79,28.79,0,0,1-.091,20.351,25.13,25.13,0,0,1-5.328,8.309,23.8,23.8,0,0,1-2.219,2.006l4.049,15.077L276.963,276h8.752l11.926,35.322L300.146,302H296v-8h6.424l5.1-18h9.75l-5.108,18H342v8.816L308.2,341h31.676a72.452,72.452,0,0,0,12.82-40.938,71.482,71.482,0,0,0-71.407-71.5A72.242,72.242,0,0,0,230.209,250h14.155A26.965,26.965,0,0,1,255.134,252.082Z" fill="#7dbc30"/>
    <path id="路径_4" data-name="路径 4" d="M308.2,341,342,302.816V294H312.168l5.108-18h-9.75l-5.1,18H296v8h4.146l-2.505,9.322L285.715,276h-8.752l-12.108,35.668L260.806,296.7a24.412,24.412,0,0,0,2.219-2.062,25.26,25.26,0,0,0,5.328-8.336,28.834,28.834,0,0,0,.091-20.367,24.233,24.233,0,0,0-13.31-13.856A26.965,26.965,0,0,0,244.364,250H230.209A46.218,46.218,0,0,0,222,260.314V302h22.364a27.909,27.909,0,0,0,8.021-.862L259.777,328h9.341l12.2-37.555L293.514,328h9.3l7.077-26h21.231L297,341.125V349h36.014a38.394,38.394,0,0,0,6.867-8Zm-50.044-53.87L255.06,276h-9.749l4.7,16.432c-2.175.7-4.53.568-7.068.568H232V259h10.943a25.654,25.654,0,0,1,7.4.856,16.175,16.175,0,0,1,5.931,3.073,14.213,14.213,0,0,1,3.917,5.372,19.665,19.665,0,0,1,1.4,7.777,18.933,18.933,0,0,1-1.4,7.468A17.036,17.036,0,0,1,258.161,287.13Z" fill="#fff"/>
  </g>
</svg>
