<?xml version="1.0" encoding="utf-8"?>
<svg width="400" height="160" viewBox="0 0 400 160" xmlns="http://www.w3.org/2000/svg">
  <g id="组_1" data-name="组 1" transform="matrix(1, 0, 0, 1, -202.785812, -224.654984)">
    <path id="路径_1" data-name="路径 1" d="M 263.943 272.744 C 263.081 270.659 261.739 268.806 260.026 267.337 C 258.28 265.934 256.26 264.913 254.095 264.337 C 251.683 263.693 249.19 263.405 246.695 263.481 L 235.75 263.481 L 235.75 297.481 L 246.693 297.481 C 249.231 297.481 251.586 297.612 253.761 296.913 L 249.061 280.477 L 258.81 280.477 L 261.91 291.607 C 262.73 290.496 263.413 289.289 263.942 288.014 C 264.909 285.662 265.385 283.137 265.342 280.595 C 265.406 277.91 264.931 275.241 263.943 272.744 Z" fill="#2e4391"/>
    <path id="路径_2" data-name="路径 2" d="M 300.75 345.602 L 334.869 306.477 L 313.638 306.477 L 306.561 332.477 L 297.261 332.477 L 285.061 294.922 L 272.868 332.477 L 263.527 332.477 L 256.135 305.615 C 253.517 306.289 250.815 306.579 248.114 306.477 L 225.75 306.477 L 225.75 264.791 C 217.75 276.131 213.691 289.762 213.691 304.427 C 213.686 343.84 245.658 375.783 285.071 375.742 C 304.66 375.888 323.412 367.811 336.764 353.477 L 300.75 353.477 Z" fill="#2e4391"/>
    <path id="路径_3" data-name="路径 3" d="M 258.884 256.559 C 265.046 259.132 269.865 264.144 272.194 270.402 C 274.642 276.97 274.61 284.206 272.103 290.753 C 270.894 293.847 269.083 296.672 266.775 299.062 C 266.078 299.776 265.337 300.446 264.556 301.068 L 268.605 316.145 L 280.713 280.477 L 289.465 280.477 L 301.391 315.799 L 303.896 306.477 L 299.75 306.477 L 299.75 298.477 L 306.174 298.477 L 311.274 280.477 L 321.024 280.477 L 315.916 298.477 L 345.75 298.477 L 345.75 307.293 L 311.95 345.477 L 343.626 345.477 C 351.934 333.438 356.403 319.166 356.446 304.539 C 356.456 265.083 324.495 233.08 285.039 233.039 C 265.84 233.113 247.461 240.827 233.959 254.477 L 248.114 254.477 C 251.809 254.426 255.475 255.134 258.884 256.559 Z" fill="#7dbc30"/>
    <path id="路径_4" data-name="路径 4" d="M 311.95 345.477 L 345.75 307.293 L 345.75 298.477 L 315.918 298.477 L 321.026 280.477 L 311.276 280.477 L 306.176 298.477 L 299.75 298.477 L 299.75 306.477 L 303.896 306.477 L 301.391 315.799 L 289.465 280.477 L 280.713 280.477 L 268.605 316.145 L 264.556 301.177 C 265.338 300.536 266.079 299.847 266.775 299.115 C 269.083 296.714 270.894 293.881 272.103 290.779 C 274.61 284.227 274.642 276.986 272.194 270.412 C 269.856 264.156 265.04 259.143 258.884 256.556 C 255.475 255.132 251.809 254.425 248.114 254.477 L 233.959 254.477 C 230.744 257.505 227.98 260.978 225.75 264.791 L 225.75 306.477 L 248.114 306.477 C 250.815 306.579 253.517 306.289 256.135 305.615 L 263.527 332.477 L 272.868 332.477 L 285.068 294.922 L 297.264 332.477 L 306.564 332.477 L 313.641 306.477 L 334.872 306.477 L 300.75 345.602 L 300.75 353.477 L 336.764 353.477 C 339.41 351.139 341.721 348.447 343.631 345.477 Z M 261.906 291.607 L 258.81 280.477 L 249.061 280.477 L 253.761 296.909 C 251.586 297.609 249.231 297.477 246.693 297.477 L 235.75 297.477 L 235.75 263.477 L 246.693 263.477 C 249.188 263.401 251.681 263.689 254.093 264.333 C 256.262 264.933 258.283 265.98 260.024 267.406 C 261.736 268.862 263.079 270.703 263.941 272.778 C 264.929 275.249 265.406 277.894 265.341 280.555 C 265.384 283.113 264.908 285.654 263.941 288.023 C 263.412 289.295 262.73 290.499 261.911 291.607 Z" fill="#fff"/>
  </g>
  <g id="组_2" data-name="组 2" transform="matrix(1, 0, 0, 1, -204.420456, -217.854172)">
    <path id="路径_5" data-name="路径 5" d="M370.533,278.917V267.18h52.015v11.737H403.52v51.748H389.561V278.917Z" fill="#2e4391"/>
    <path id="路径_6" data-name="路径 6" d="M432.15,319.639q2.843,2.757,8.18,2.757a11.256,11.256,0,0,0,6.58-1.912,7.934,7.934,0,0,0,3.378-4.046H461.4q-2.667,8.27-8.179,11.826a24.079,24.079,0,0,1-13.338,3.556,26.273,26.273,0,0,1-9.781-1.733,20.318,20.318,0,0,1-7.379-4.935,22.188,22.188,0,0,1-4.668-7.646,27.964,27.964,0,0,1-1.645-9.782,26.82,26.82,0,0,1,1.689-9.6,22.222,22.222,0,0,1,12.226-12.8,23.8,23.8,0,0,1,9.558-1.867,21.866,21.866,0,0,1,10.225,2.267,20.426,20.426,0,0,1,7.158,6.091,25.069,25.069,0,0,1,4.046,8.713,32.547,32.547,0,0,1,.889,10.226H429.037Q429.306,316.883,432.15,319.639Zm14.27-24.185q-2.267-2.488-6.891-2.489a10.992,10.992,0,0,0-5.023,1.022,9.56,9.56,0,0,0-3.2,2.535,9.247,9.247,0,0,0-1.69,3.2,14.426,14.426,0,0,0-.579,3.024h20.54A14.6,14.6,0,0,0,446.42,295.454Z" fill="#2e4391"/>
    <path id="路径_7" data-name="路径 7" d="M471.361,291.453a15.135,15.135,0,0,1,4.979-4.712,21.7,21.7,0,0,1,6.8-2.534,38.735,38.735,0,0,1,7.6-.756,51.673,51.673,0,0,1,7.023.489,21.515,21.515,0,0,1,6.492,1.912,12.8,12.8,0,0,1,4.8,3.956,11.066,11.066,0,0,1,1.867,6.714V320.44a47.854,47.854,0,0,0,.356,5.957,10.745,10.745,0,0,0,1.244,4.268h-12.8a17.907,17.907,0,0,1-.577-2.179,18.539,18.539,0,0,1-.312-2.267,16.455,16.455,0,0,1-7.112,4.357,28.588,28.588,0,0,1-8.359,1.244,22.557,22.557,0,0,1-6.135-.8,14.03,14.03,0,0,1-4.979-2.489,11.583,11.583,0,0,1-3.334-4.268,14.433,14.433,0,0,1-1.2-6.135,13.382,13.382,0,0,1,1.379-6.447,11.529,11.529,0,0,1,3.556-4.045,15.935,15.935,0,0,1,4.98-2.267,53.4,53.4,0,0,1,5.646-1.2q2.844-.444,5.6-.711a33.7,33.7,0,0,0,4.89-.8,8.52,8.52,0,0,0,3.378-1.555,3.417,3.417,0,0,0,1.156-2.979,6.7,6.7,0,0,0-.667-3.245,4.914,4.914,0,0,0-1.778-1.868,7.03,7.03,0,0,0-2.579-.889,21.266,21.266,0,0,0-3.156-.222,9.58,9.58,0,0,0-5.868,1.6q-2.135,1.6-2.49,5.335H469.138A14.665,14.665,0,0,1,471.361,291.453ZM496.3,309.281a20.671,20.671,0,0,1-2.579.667q-1.38.267-2.889.444t-3.024.444a22.894,22.894,0,0,0-2.8.712,8.29,8.29,0,0,0-2.4,1.2,5.7,5.7,0,0,0-1.645,1.911,6.139,6.139,0,0,0-.622,2.934,5.927,5.927,0,0,0,.622,2.846,4.759,4.759,0,0,0,1.69,1.822,7.108,7.108,0,0,0,2.489.934,15.87,15.87,0,0,0,2.934.266,11.161,11.161,0,0,0,5.779-1.244,8.329,8.329,0,0,0,3.023-2.979,9.52,9.52,0,0,0,1.2-3.512,23.975,23.975,0,0,0,.223-2.845v-4.713A5.653,5.653,0,0,1,496.3,309.281Z" fill="#2e4391"/>
    <path id="路径_8" data-name="路径 8" d="M532.978,284.7v6.224h.178a17.989,17.989,0,0,1,6-5.513,16.267,16.267,0,0,1,8.046-1.956,18.511,18.511,0,0,1,7.958,1.69,11.172,11.172,0,0,1,5.468,5.957,19.572,19.572,0,0,1,5.557-5.335,14.779,14.779,0,0,1,8.314-2.312,24.558,24.558,0,0,1,6.758.889,13.626,13.626,0,0,1,5.335,2.845,13.065,13.065,0,0,1,3.467,5.113,20.734,20.734,0,0,1,1.245,7.6v30.765H578.68V304.612q0-2.31-.177-4.356a9.309,9.309,0,0,0-.978-3.557,5.948,5.948,0,0,0-2.357-2.4,8.543,8.543,0,0,0-4.223-.888,8.085,8.085,0,0,0-4.313,1.022,7.414,7.414,0,0,0-2.578,2.667,10.7,10.7,0,0,0-1.245,3.735,28.548,28.548,0,0,0-.312,4.223v25.608H549.872V304.88q0-2.045-.089-4.046a11.418,11.418,0,0,0-.755-3.69,5.689,5.689,0,0,0-2.224-2.712,8.391,8.391,0,0,0-4.579-1.022,9.489,9.489,0,0,0-2.356.4,7.844,7.844,0,0,0-2.846,1.512,8.829,8.829,0,0,0-2.355,3.2,12.965,12.965,0,0,0-.978,5.468v26.675H521.063V284.7Z" fill="#2e4391"/>
  </g>
</svg>