<?xml version="1.0" encoding="UTF-8"?>
<svg width="160px" height="160px" viewBox="0 0 160 160" version="1.1" xmlns="http://www.w3.org/2000/svg" xmlns:xlink="http://www.w3.org/1999/xlink">
    <!-- Generator: Sketch 50 (54983) - http://www.bohemiancoding.com/sketch -->
    <title>社工人员</title>
    <desc>Created with Sketch.</desc>
    <defs>
        <path d="M79.9594643,0.0399105145 C124.098929,0.0399105145 159.881071,35.8147651 159.881071,79.9454139 C159.881071,124.076063 124.098929,159.851096 79.9594643,159.851096 C35.82,159.851096 0.0378571429,124.076242 0.0378571429,79.9455928 C0.0378571429,35.8149441 35.82,0.0399105145 79.9594643,0.0399105145 Z" id="path-1"></path>
    </defs>
    <g id="页面" stroke="none" stroke-width="1" fill="none" fill-rule="evenodd">
        <g id="Artboard-2" transform="translate(-295.000000, -379.000000)">
            <g id="社工人员" transform="translate(295.000000, 379.000000)">
                <mask id="mask-2" fill="white">
                    <use xlink:href="#path-1"></use>
                </mask>
                <use id="Mask" fill="#8994D5" fill-rule="nonzero" xlink:href="#path-1"></use>
                <g id="Group-4" mask="url(#mask-2)">
                    <g transform="translate(24.000000, 25.000000)">
                        <g id="Group" transform="translate(0.000000, 80.000000)">
                            <path d="M69.9622642,0 L69.9622642,14.7545355 C69.9622642,14.7545355 61.9344103,17 52.9997933,17 C43.9727663,17 42.0377358,14.7545355 42.0377358,14.7545355 L42.0377358,0 L69.9622642,0 Z" id="Shape" fill="#F7C5AA" fill-rule="nonzero"></path>
                            <polygon id="Shape" fill="#EDF2F2" fill-rule="nonzero" points="56.6364357 54.9952961 34.8679245 18 77.1320755 18"></polygon>
                            <polygon id="Shape" fill="#EF6565" fill-rule="nonzero" points="61.2830189 23.4658534 58.7047398 27.4614932 60.2258744 51.7281483 56.3625611 55 51.8356038 51.6506907 53.350931 27.4614932 50.7169811 23.3419212 56.0277353 17"></polygon>
                            <path d="M98.3798414,18.1127213 C88.8758829,13.61022 77.3495669,14.0149415 77.3495669,14.0149415 C68.0806751,27.8387557 61.1992841,39.2115428 56.7053938,48.1333027 C56.6116901,48.3193336 56.6116901,50.6082327 56.7053938,55 C77.7358762,55 96.4204487,45.4025404 112,34.1097122 C110.922116,30.4284456 107.608874,22.4851123 98.3798414,18.1127213 Z M34.6417053,14.0149415 C34.6417053,14.0149415 22.5856945,13.504093 13.7398542,18.4564848 C6.4147304,22.5572626 1.48289598,31.2442842 0,34.1161078 C15.5778888,45.4049387 35.6784441,55 56.7053938,55 C56.9062904,50.6734649 56.9062904,48.3236067 56.7053938,47.9504254 C52.0032485,39.2158159 44.6486857,27.9039879 34.6417053,14.0149415 Z" id="Shape" fill="#312B28" fill-rule="nonzero"></path>
                            <polygon id="Shape" fill="#FFFFFF" fill-rule="nonzero" points="73.8196073 8 56 17.0322456 65.2524056 28 81.3584906 14.4516316"></polygon>
                            <polygon id="Shape" fill="#FFFFFF" fill-rule="nonzero" points="38.1805146 8 56 17.1802118 46.7478549 28 30.6415094 14.5573222"></polygon>
                        </g>
                        <g id="Group-2" transform="translate(18.000000, 0.000000)">
                            <path d="M5,28.5959894 C5,28.5959894 8.72986201,62.3437299 11.15375,68.7949969 C14.5240909,77.7650681 20.8606818,80.2073622 26.3876461,82.9675981 C30.1179383,84.8301159 32.9255276,85.9440716 37.9835065,86.0596868 C43.7162013,86.1909132 45.0761201,84.920846 48.8084172,83.485239 C56.2352273,80.6288631 60.0484578,77.4499085 63.2675081,70.8562864 C65.9318263,65.3988774 69.9363555,30.3996177 69.9363555,30.3996177 L59.1136039,17 L5,28.5959894 Z" id="Shape" fill="#FFDECC" fill-rule="nonzero"></path>
                            <path d="M72.0713999,44.1322497 C71.8226252,44.059159 71.5592169,44.0006866 71.3104424,44.0006866 C70.6372878,43.9860685 69.9348655,44.2053404 69.2617107,44.614648 C69.02757,44.7608293 68.7934291,44.9216287 68.5592884,45.1116644 C67.4617535,46.0033702 66.4520215,47.3920926 65.7349655,49.1024138 C65.5886275,49.4386309 65.4569234,49.8040841 65.3398529,50.1695373 C64.9301066,51.4120783 64.7252334,52.6253831 64.6959658,53.7509792 C64.681332,54.1456687 64.6959658,54.5257401 64.7252334,54.8911933 C64.8715713,56.5722782 65.4569234,57.9171462 66.4227538,58.6334345 C66.6568946,58.808852 66.9056692,58.9404152 67.1837114,59.028124 C69.5690204,59.8028849 72.5835828,57.1131489 73.9298921,52.9908365 C75.2762016,48.8831419 74.4274412,44.9216287 72.0713999,44.1322497 Z M9.2631397,50.1695373 C9.14606926,49.8187022 9.01436508,49.467867 8.88266107,49.1462682 C8.20950643,47.5528921 7.28757717,46.2372604 6.27784495,45.3309363 C6.23394356,45.3017 6.20467591,45.2578456 6.16077468,45.2286095 C6.0729719,45.1409007 5.97053537,45.06781 5.86809867,44.9947193 C5.06323985,44.3807578 4.21447946,44.0299227 3.3949869,44.0153046 C3.08767715,44.0153046 2.79500114,44.059159 2.50232512,44.1468678 C0.131649883,44.9362468 -0.702476591,48.89776 0.643832862,53.0054545 C1.99014232,57.1131491 5.00470455,59.817503 7.3900137,59.0427422 C7.71195719,58.9404154 7.98999946,58.7796159 8.25340765,58.560344 C9.18997065,57.8148193 9.74605503,56.4260969 9.86312547,54.745012 C9.87775921,54.4672676 9.89239312,54.1602869 9.87775921,53.8679243 C9.89239295,52.6984738 9.68751989,51.4413147 9.2631397,50.1695373 Z" id="Shape" fill="#FFDECC" fill-rule="nonzero"></path>
                            <path d="M33.1542289,0.671588367 C7.64965909,3.11218222 4.91779221,22.211568 4.47409903,26.384999 C4.07050325,30.1775798 5.17391492,44.5774529 5.17391492,44.5774529 C5.17391492,44.5774529 6.63951299,45.7976896 6.79311688,46.48458 C7.20149351,48.3069107 7.24220779,52.6905511 7.30852273,52.6690665 C7.74743506,52.5247021 8.5967289,52.6690665 8.5967289,52.6690665 C8.5967289,52.6690665 8.24973214,36.5951515 9.11228896,33.6002847 C10.0601299,30.3086516 16.5850568,27.1579825 16.5850568,27.1579825 C16.5850568,27.1579825 16.5876786,28.4691641 16.069651,29.7349034 C15.438888,31.2760789 14.2658847,32.8271466 14.2658847,32.8271466 C14.2658847,32.8271466 17.6087744,32.7497092 20.1925893,32.0540085 C24.0476461,31.0162538 27.6655114,29.219581 27.6655114,29.219581 C27.6655114,29.219581 27.6917289,30.2659915 27.1502597,31.281025 C26.6638474,32.1931178 25.6040422,33.0848078 25.6040422,33.0848078 C25.6040422,33.0848078 37.4443425,32.175961 46.218888,29.219581 C53.3022484,26.8326215 57.6844318,22.2752491 57.6844318,22.2752491 C57.6844318,22.2752491 63.4590747,24.4302054 65.5452192,34.1154525 C67.2729545,42.13819 66.5769562,48.7395404 66.5757224,53.9572178 C66.5757224,53.8773073 68.1216315,53.9572178 68.1216315,53.9572178 C68.1216315,53.9572178 68.1731412,49.3398739 68.3797971,47.7730405 C68.745763,44.9934838 71.4693019,44.2777303 71.4720779,44.1961196 C71.5422484,41.9816555 73.5878328,30.5697132 71.4717695,21.2313118 C69.8066477,13.8829449 63.1427679,7.0347529 59.3606575,5.25477324 C55.5787013,3.4751027 48.1747159,-0.7658735 33.1542289,0.671588367 Z" id="Shape" fill="#312B28" fill-rule="nonzero"></path>
                        </g>
                    </g>
                </g>
            </g>
        </g>
    </g>
</svg>