<?xml version="1.0" encoding="utf-8"?>
<svg width="64px" height="64px" viewBox="0 0 64 64" version="1.1" xmlns="http://www.w3.org/2000/svg">
  <title>logo_white_27</title>
  <desc>Created with Sketch.</desc>
  <g id="logo_white_27" stroke="none" stroke-width="1" fill="none" fill-rule="evenodd" transform="matrix(2.363617, 0, 0, 2.363617, 4.501713, -0.051286)" style="">
    <g id="火山引擎logo" fill-rule="nonzero">
      <path d="M19.2811765,13.1505882 L16.2,26.4917647 C16.1364706,26.7141176 16.3270588,26.9047059 16.5176471,26.9047059 L22.68,26.9047059 C22.9023529,26.9047059 23.0611765,26.7141176 22.9976471,26.4917647 L19.9164706,13.1505882 C19.8529412,12.8011765 19.3447059,12.8011765 19.2811765,13.1505882 Z" id="路径" fill="#37E2E2"/>
      <path d="M2.25529412,18.2329412 L0.317647059,26.5235294 C0.254117647,26.7458824 0.444705882,26.9364706 0.635294118,26.9364706 L4.44705882,26.9364706 C4.66941176,26.9364706 4.82823529,26.7458824 4.76470588,26.5235294 L2.85882353,18.2329412 C2.82705882,17.8835294 2.31882353,17.8835294 2.25529412,18.2329412 Z" id="路径" fill="#37E2E2"/>
      <path d="M6.44823529,8.1 L2.19176471,26.5235294 C2.12823529,26.7458824 2.31882353,26.9364706 2.50941176,26.9364706 L10.9905882,26.9364706 C11.2129412,26.9364706 11.3717647,26.7458824 11.3082353,26.5235294 L7.05176471,8.1 C7.02,7.75058824 6.51176471,7.75058824 6.44823529,8.1 Z" id="路径" fill="#1678FF"/>
      <path d="M13.5635294,0.508235294 L7.56,26.5235294 C7.49647059,26.7458824 7.68705882,26.9364706 7.87764706,26.9364706 L19.8529412,26.9364706 C20.0752941,26.9364706 20.2341176,26.7458824 20.1705882,26.5235294 L14.1988235,0.508235294 C14.1352941,0.158823529 13.6270588,0.158823529 13.5635294,0.508235294 Z" id="路径" fill="#1678FF"/>
      <path d="M9.59294118,10.6094118 L5.94,26.4917647 C5.87647059,26.7141176 6.06705882,26.9047059 6.25764706,26.9047059 L13.5635294,26.9047059 C13.7858824,26.9047059 13.9447059,26.7141176 13.8811765,26.4917647 L10.2282353,10.6094118 C10.1647059,10.2917647 9.65647059,10.2917647 9.59294118,10.6094118 Z" id="路径" fill="#37E2E2"/>
    </g>
  </g>
</svg>