<?xml version="1.0" encoding="utf-8"?>
<svg t="1607781592248" class="icon" viewBox="0 0 1024 1024" version="1.1" p-id="2782" width="64" height="64" xmlns="http://www.w3.org/2000/svg">
  <defs/>
  <path d="M 916.993 408.405 C 891.034 385.976 857.674 387.569 844.009 389.391 C 835.926 297.393 807.119 222.587 758.616 169.415 C 701.23 106.565 618.227 74.684 511.882 74.684 C 408.157 74.684 326.292 106.679 268.451 169.643 C 219.036 223.498 189.434 298.189 180.552 389.505 C 167.231 387.683 133.415 385.862 107.113 408.519 C 85.593 427.079 76.029 455.771 78.535 493.8 C 85.253 594.793 131.137 697.152 205.601 697.152 C 209.7 697.038 213.457 696.014 216.988 694.42 C 271.64 853.253 378.099 949.123 511.882 949.123 C 649.766 949.123 754.061 856.783 807.575 694.648 C 810.877 696.128 814.634 696.924 818.505 696.924 C 892.97 696.924 938.854 594.679 945.573 493.572 C 948.078 455.657 938.513 426.965 916.993 408.405 Z M 235.318 509.513 C 234.749 502.339 234.18 495.394 233.839 488.448 C 246.136 478.429 266.402 467.498 297.258 457.478 C 350.089 440.286 419.43 430.266 494.007 428.9 L 494.007 594.566 C 419.43 593.199 350.203 583.179 297.258 565.986 C 269.932 557.106 250.803 547.541 238.393 538.433 C 237.14 528.869 236.116 519.304 235.318 509.513 Z M 530.328 428.9 C 604.905 430.266 674.132 440.286 727.077 457.478 C 757.704 467.384 777.972 478.315 790.155 488.221 C 789.699 495.166 789.243 502.225 788.561 509.399 C 787.649 519.304 786.625 529.096 785.486 538.66 C 772.962 547.655 754.061 557.106 727.077 565.873 C 674.246 583.065 604.905 593.085 530.328 594.452 L 530.328 428.9 Z M 718.082 206.533 C 766.7 259.705 791.635 341.57 791.521 445.409 C 776.833 437.098 759.071 429.583 738.234 422.752 C 681.874 404.42 608.663 393.832 530.328 392.351 L 530.328 130.02 C 611.624 133.321 674.702 159.054 718.082 206.533 Z M 308.986 206.761 C 352.707 159.168 414.875 133.321 493.893 130.02 L 493.893 392.465 C 415.557 393.946 342.233 404.534 285.986 422.866 C 265.15 429.583 247.388 437.212 232.7 445.409 C 233.383 342.709 259.343 260.957 308.986 206.761 Z M 133.415 490.043 C 132.504 476.494 133.415 458.504 142.979 450.078 C 153.796 440.514 173.834 443.929 174.632 444.043 C 175.657 444.271 176.795 444.385 177.819 444.499 C 177.593 466.929 178.617 490.271 180.666 514.294 C 184.537 559.61 191.596 602.194 201.502 641.703 C 172.924 635.783 138.994 572.932 133.415 490.043 Z M 245.224 584.546 C 257.18 590.353 270.729 595.704 285.872 600.599 C 342.233 618.931 415.444 629.52 493.779 631 L 493.779 893.445 C 371.38 882.971 278.471 766.151 245.224 584.546 Z M 530.328 893.445 L 530.328 630.886 C 608.663 629.406 681.988 618.817 738.234 600.485 C 753.265 595.59 766.7 590.353 778.541 584.66 C 745.294 771.047 655.687 883.539 530.328 893.445 Z M 890.806 489.929 C 885.228 572.819 851.297 635.783 822.832 641.476 C 832.282 602.308 839.228 559.838 843.327 514.294 C 845.49 490.157 846.515 466.929 846.515 444.499 C 847.654 444.385 848.792 444.271 849.93 444.043 C 853.802 443.133 871.563 441.652 881.129 449.964 C 890.693 458.276 891.717 476.266 890.806 489.929 Z M 7.714 94.837 L 7.714 293.636 L 44.149 293.636 L 44.149 94.837 C 44.149 66.714 67.035 43.829 95.159 43.829 L 293.615 43.829 L 293.615 7.393 L 95.159 7.393 C 46.882 7.393 7.714 46.56 7.714 94.837 Z M 44.149 928.741 L 44.149 730.399 L 7.714 730.399 L 7.714 928.741 C 7.714 976.904 46.882 1016.186 95.159 1016.186 L 293.615 1016.186 L 293.615 979.751 L 95.159 979.751 C 67.035 979.751 44.149 956.865 44.149 928.741 Z M 980.071 928.741 C 980.071 956.865 957.186 979.751 929.063 979.751 L 730.834 979.751 L 730.834 1016.186 L 929.063 1016.186 C 977.226 1016.186 1016.507 977.018 1016.507 928.741 L 1016.507 730.399 L 980.071 730.399 L 980.071 928.741 Z M 929.063 7.393 L 730.834 7.393 L 730.834 43.829 L 929.063 43.829 C 957.186 43.829 980.071 66.714 980.071 94.837 L 980.071 293.294 L 1016.507 293.294 L 1016.507 94.837 C 1016.507 46.56 977.339 7.393 929.063 7.393 Z" p-id="2783" fill="#00ffff" style=""/>
</svg>