<?xml version="1.0" standalone="no"?><!DOCTYPE svg PUBLIC "-//W3C//DTD SVG 1.1//EN" "http://www.w3.org/Graphics/SVG/1.1/DTD/svg11.dtd"><svg t="1607781592248" class="icon" viewBox="0 0 1024 1024" version="1.1" xmlns="http://www.w3.org/2000/svg" p-id="2782" xmlns:xlink="http://www.w3.org/1999/xlink" width="64" height="64"><defs><style type="text/css"></style></defs><path d="M867.6 421.1c-22.8-19.7-52.1-18.3-64.1-16.7-7.1-80.8-32.4-146.5-75-193.2C678.1 156 605.2 128 511.8 128c-91.1 0-163 28.1-213.8 83.4-43.4 47.3-69.4 112.9-77.2 193.1-11.7-1.6-41.4-3.2-64.5 16.7-18.9 16.3-27.3 41.5-25.1 74.9 5.9 88.7 46.2 178.6 111.6 178.6 3.6-0.1 6.9-1 10-2.4 48 139.5 141.5 223.7 259 223.7 121.1 0 212.7-81.1 259.7-223.5 2.9 1.3 6.2 2 9.6 2 65.4 0 105.7-89.8 111.6-178.6 2.2-33.3-6.2-58.5-25.1-74.8z m-598.7 88.8c-0.5-6.3-1-12.4-1.3-18.5 10.8-8.8 28.6-18.4 55.7-27.2 46.4-15.1 107.3-23.9 172.8-25.1v145.5c-65.5-1.2-126.3-10-172.8-25.1-24-7.8-40.8-16.2-51.7-24.2-1.1-8.4-2-16.8-2.7-25.4zM528 439.1c65.5 1.2 126.3 10 172.8 25.1 26.9 8.7 44.7 18.3 55.4 27-0.4 6.1-0.8 12.3-1.4 18.6-0.8 8.7-1.7 17.3-2.7 25.7-11 7.9-27.6 16.2-51.3 23.9-46.4 15.1-107.3 23.9-172.8 25.1V439.1z m164.9-195.3c42.7 46.7 64.6 118.6 64.5 209.8-12.9-7.3-28.5-13.9-46.8-19.9-49.5-16.1-113.8-25.4-182.6-26.7V176.6c71.4 2.9 126.8 25.5 164.9 67.2z m-359.3 0.2c38.4-41.8 93-64.5 162.4-67.4v230.5c-68.8 1.3-133.2 10.6-182.6 26.7-18.3 5.9-33.9 12.6-46.8 19.8 0.6-90.2 23.4-162 67-209.6zM179.4 492.8c-0.8-11.9 0-27.7 8.4-35.1 9.5-8.4 27.1-5.4 27.8-5.3 0.9 0.2 1.9 0.3 2.8 0.4-0.2 19.7 0.7 40.2 2.5 61.3 3.4 39.8 9.6 77.2 18.3 111.9-25.1-5.2-54.9-60.4-59.8-133.2z m98.2 83c10.5 5.1 22.4 9.8 35.7 14.1 49.5 16.1 113.8 25.4 182.6 26.7v230.5c-107.5-9.2-189.1-111.8-218.3-271.3zM528 847.1V616.5c68.8-1.3 133.2-10.6 182.6-26.7 13.2-4.3 25-8.9 35.4-13.9-29.2 163.7-107.9 262.5-218 271.2z m316.6-354.4c-4.9 72.8-34.7 128.1-59.7 133.1 8.3-34.4 14.4-71.7 18-111.7 1.9-21.2 2.8-41.6 2.8-61.3 1-0.1 2-0.2 3-0.4 3.4-0.8 19-2.1 27.4 5.2 8.4 7.3 9.3 23.1 8.5 35.1zM69 145.7v174.6h32V145.7c0-24.7 20.1-44.8 44.8-44.8h174.3v-32H145.8c-42.4 0-76.8 34.4-76.8 76.8zM101 878.1V703.9H69v174.2c0 42.3 34.4 76.8 76.8 76.8h174.3v-32H145.8c-24.7 0-44.8-20.1-44.8-44.8zM923 878.1c0 24.7-20.1 44.8-44.8 44.8H704.1v32h174.1c42.3 0 76.8-34.4 76.8-76.8V703.9h-32v174.2zM878.2 68.9H704.1v32h174.1c24.7 0 44.8 20.1 44.8 44.8V320h32V145.7c0-42.4-34.4-76.8-76.8-76.8z" p-id="2783" fill="#ff480a"></path></svg>