<?xml version="1.0" encoding="utf-8"?>
<svg t="1607781592248" class="icon" viewBox="0 0 1024 1024" version="1.1" p-id="2782" width="64" height="64" xmlns="http://www.w3.org/2000/svg">
  <defs/>
  <path d="M 915.201 409.086 C 889.338 386.739 856.099 388.326 842.486 390.142 C 834.433 298.482 805.732 223.953 757.408 170.976 C 700.234 108.358 617.536 76.595 511.584 76.595 C 408.241 76.595 326.678 108.472 269.051 171.204 C 219.818 224.86 190.325 299.276 181.476 390.255 C 168.203 388.44 134.512 386.625 108.308 409.2 C 86.868 427.69 77.338 456.277 79.834 494.166 C 86.527 594.786 132.243 696.768 206.433 696.768 C 210.516 696.655 214.26 695.633 217.777 694.046 C 272.227 852.294 378.293 947.81 511.584 947.81 C 648.959 947.81 752.87 855.81 806.186 694.273 C 809.476 695.747 813.219 696.541 817.076 696.541 C 891.266 696.541 936.982 594.673 943.674 493.939 C 946.171 456.163 936.641 427.577 915.201 409.086 Z M 236.04 509.82 C 235.472 502.673 234.906 495.754 234.565 488.834 C 246.816 478.851 267.009 467.961 297.751 457.978 C 350.387 440.849 419.471 430.866 493.775 429.505 L 493.775 594.559 C 419.471 593.198 350.501 583.215 297.751 566.086 C 270.525 557.237 251.468 547.709 239.103 538.634 C 237.855 529.105 236.834 519.575 236.04 509.82 Z M 529.961 429.505 C 604.264 430.866 673.235 440.849 725.984 457.978 C 756.5 467.848 776.692 478.738 788.83 488.607 C 788.376 495.526 787.922 502.56 787.242 509.707 C 786.335 519.575 785.313 529.332 784.179 538.86 C 771.701 547.822 752.87 557.237 725.984 565.973 C 673.349 583.102 604.264 593.085 529.961 594.446 L 529.961 429.505 Z M 717.023 207.958 C 765.461 260.934 790.305 342.497 790.191 445.954 C 775.557 437.672 757.861 430.186 737.102 423.379 C 680.949 405.116 608.008 394.566 529.961 393.091 L 529.961 131.727 C 610.957 135.017 673.803 160.654 717.023 207.958 Z M 309.436 208.185 C 352.996 160.768 414.934 135.017 493.661 131.727 L 493.661 393.205 C 415.614 394.68 342.56 405.23 286.521 423.493 C 265.761 430.186 248.065 437.786 233.431 445.954 C 234.111 343.631 259.975 262.182 309.436 208.185 Z M 134.512 490.422 C 133.604 476.923 134.512 459 144.041 450.605 C 154.818 441.076 174.783 444.479 175.577 444.593 C 176.598 444.819 177.732 444.933 178.753 445.047 C 178.526 467.394 179.547 490.649 181.589 514.585 C 185.447 559.734 192.48 602.16 202.349 641.523 C 173.875 635.625 140.07 573.005 134.512 490.422 Z M 245.91 584.577 C 257.82 590.362 271.32 595.694 286.407 600.572 C 342.56 618.836 415.501 629.385 493.547 630.86 L 493.547 892.337 C 371.6 881.901 279.034 765.512 245.91 584.577 Z M 529.961 892.337 L 529.961 630.747 C 608.008 629.272 681.063 618.722 737.102 600.458 C 752.076 595.58 765.461 590.362 777.259 584.69 C 744.135 770.39 654.858 882.468 529.961 892.337 Z M 889.11 490.308 C 883.552 572.893 849.747 635.625 821.387 641.297 C 830.802 602.274 837.722 559.96 841.806 514.585 C 843.961 490.536 844.983 467.394 844.983 445.047 C 846.117 444.933 847.252 444.819 848.386 444.593 C 852.242 443.685 869.939 442.21 879.468 450.491 C 888.997 458.772 890.018 476.695 889.11 490.308 Z M 9.275 96.674 L 9.275 294.739 L 45.575 294.739 L 45.575 96.674 C 45.575 68.655 68.377 45.853 96.396 45.853 L 294.122 45.853 L 294.122 9.553 L 96.396 9.553 C 48.298 9.553 9.275 48.576 9.275 96.674 Z M 45.575 927.504 L 45.575 729.892 L 9.275 729.892 L 9.275 927.504 C 9.275 975.489 48.298 1014.625 96.396 1014.625 L 294.122 1014.625 L 294.122 978.325 L 96.396 978.325 C 68.377 978.325 45.575 955.523 45.575 927.504 Z M 978.047 927.504 C 978.047 955.523 955.245 978.325 927.226 978.325 L 729.728 978.325 L 729.728 1014.625 L 927.226 1014.625 C 975.21 1014.625 1014.347 975.602 1014.347 927.504 L 1014.347 729.892 L 978.047 729.892 L 978.047 927.504 Z M 927.226 9.553 L 729.728 9.553 L 729.728 45.853 L 927.226 45.853 C 955.245 45.853 978.047 68.655 978.047 96.674 L 978.047 294.399 L 1014.347 294.399 L 1014.347 96.674 C 1014.347 48.576 975.324 9.553 927.226 9.553 Z" p-id="2783" fill="#ff480a" style=""/>
</svg>